<svg width="20" height="20" viewBox="0 0 20 20" fill="none" xmlns="http://www.w3.org/2000/svg">
<path d="M18.3332 14.1667C18.3332 14.6087 18.1576 15.0326 17.845 15.3452C17.5325 15.6577 17.1085 15.8333 16.6665 15.8333H5.68984C5.24785 15.8334 4.82399 16.0091 4.5115 16.3217L2.6765 18.1567C2.59376 18.2394 2.48834 18.2957 2.37358 18.3186C2.25882 18.3414 2.13986 18.3297 2.03176 18.2849C1.92366 18.2401 1.83126 18.1643 1.76624 18.067C1.70123 17.9697 1.66652 17.8553 1.6665 17.7383V4.16667C1.6665 3.72464 1.8421 3.30072 2.15466 2.98816C2.46722 2.67559 2.89114 2.5 3.33317 2.5H16.6665C17.1085 2.5 17.5325 2.67559 17.845 2.98816C18.1576 3.30072 18.3332 3.72464 18.3332 4.16667V14.1667Z" stroke="#E1E1E1" stroke-width="1.66667" stroke-linecap="round" stroke-linejoin="round"/>
</svg>
