<svg width="18" height="18" viewBox="0 0 18 18" fill="none" xmlns="http://www.w3.org/2000/svg">
<path d="M4.5 7.875H7.875V18H4.5V7.875ZM5.625 16.875H6.75V9H5.625V16.875ZM9 10.125H12.375V18H9V10.125ZM10.125 16.875H11.25V11.25H10.125V16.875ZM0 12.375H3.375V18H0V12.375ZM1.125 16.875H2.25V13.5H1.125V16.875ZM13.5 5.625H16.875V18H13.5V5.625ZM14.625 16.875H15.75V6.75H14.625V16.875ZM12.208 5.45801C12.3193 5.69824 12.375 5.94141 12.375 6.1875C12.375 6.42188 12.3311 6.6416 12.2432 6.84668C12.1553 7.05176 12.0352 7.23047 11.8828 7.38281C11.7305 7.53516 11.5518 7.65527 11.3467 7.74316C11.1416 7.83105 10.9219 7.875 10.6875 7.875C10.4531 7.875 10.2334 7.83105 10.0283 7.74316C9.82324 7.65527 9.64453 7.53516 9.49219 7.38281C9.33984 7.23047 9.21973 7.05176 9.13184 6.84668C9.04395 6.6416 9 6.42188 9 6.1875V6.08203C9 6.04688 9.00293 6.01172 9.00879 5.97656L7.35645 5.15039C7.2041 5.30273 7.02539 5.41992 6.82031 5.50195C6.61523 5.58398 6.4043 5.625 6.1875 5.625C5.94141 5.625 5.69824 5.56934 5.45801 5.45801L3.20801 7.70801C3.31934 7.94824 3.375 8.19141 3.375 8.4375C3.375 8.67188 3.33105 8.8916 3.24316 9.09668C3.15527 9.30176 3.03516 9.48047 2.88281 9.63281C2.73047 9.78516 2.55176 9.90527 2.34668 9.99316C2.1416 10.0811 1.92188 10.125 1.6875 10.125C1.45312 10.125 1.2334 10.0811 1.02832 9.99316C0.823242 9.90527 0.644531 9.78516 0.492188 9.63281C0.339844 9.48047 0.219727 9.30176 0.131836 9.09668C0.0439453 8.8916 0 8.67188 0 8.4375C0 8.20312 0.0439453 7.9834 0.131836 7.77832C0.219727 7.57324 0.339844 7.39453 0.492188 7.24219C0.644531 7.08984 0.823242 6.96973 1.02832 6.88184C1.2334 6.79395 1.45312 6.75 1.6875 6.75C1.93359 6.75 2.17676 6.80566 2.41699 6.91699L4.66699 4.66699C4.55566 4.42676 4.5 4.18359 4.5 3.9375C4.5 3.70312 4.54395 3.4834 4.63184 3.27832C4.71973 3.07324 4.83984 2.89453 4.99219 2.74219C5.14453 2.58984 5.32324 2.46973 5.52832 2.38184C5.7334 2.29395 5.95312 2.25 6.1875 2.25C6.42188 2.25 6.6416 2.29395 6.84668 2.38184C7.05176 2.46973 7.23047 2.58984 7.38281 2.74219C7.53516 2.89453 7.65527 3.07324 7.74316 3.27832C7.83105 3.4834 7.875 3.70312 7.875 3.9375V4.04297C7.875 4.07812 7.87207 4.11328 7.86621 4.14844L9.51855 4.97461C9.6709 4.82227 9.84961 4.70508 10.0547 4.62305C10.2598 4.54102 10.4707 4.5 10.6875 4.5C10.9336 4.5 11.1768 4.55566 11.417 4.66699L13.667 2.41699C13.5557 2.17676 13.5 1.93359 13.5 1.6875C13.5 1.45312 13.5439 1.2334 13.6318 1.02832C13.7197 0.823242 13.8398 0.644531 13.9922 0.492188C14.1445 0.339844 14.3232 0.219727 14.5283 0.131836C14.7334 0.0439453 14.9531 0 15.1875 0C15.4219 0 15.6416 0.0439453 15.8467 0.131836C16.0518 0.219727 16.2305 0.339844 16.3828 0.492188C16.5352 0.644531 16.6553 0.823242 16.7432 1.02832C16.8311 1.2334 16.875 1.45312 16.875 1.6875C16.875 1.92188 16.8311 2.1416 16.7432 2.34668C16.6553 2.55176 16.5352 2.73047 16.3828 2.88281C16.2305 3.03516 16.0518 3.15527 15.8467 3.24316C15.6416 3.33105 15.4219 3.375 15.1875 3.375C14.9414 3.375 14.6982 3.31934 14.458 3.20801L12.208 5.45801ZM1.6875 9C1.83984 9 1.97168 8.94434 2.08301 8.83301C2.19434 8.72168 2.25 8.58984 2.25 8.4375C2.25 8.28516 2.19434 8.15332 2.08301 8.04199C1.97168 7.93066 1.83984 7.875 1.6875 7.875C1.53516 7.875 1.40332 7.93066 1.29199 8.04199C1.18066 8.15332 1.125 8.28516 1.125 8.4375C1.125 8.58984 1.18066 8.72168 1.29199 8.83301C1.40332 8.94434 1.53516 9 1.6875 9ZM15.1875 1.125C15.0352 1.125 14.9033 1.18066 14.792 1.29199C14.6807 1.40332 14.625 1.53516 14.625 1.6875C14.625 1.83984 14.6807 1.97168 14.792 2.08301C14.9033 2.19434 15.0352 2.25 15.1875 2.25C15.3398 2.25 15.4717 2.19434 15.583 2.08301C15.6943 1.97168 15.75 1.83984 15.75 1.6875C15.75 1.53516 15.6943 1.40332 15.583 1.29199C15.4717 1.18066 15.3398 1.125 15.1875 1.125ZM6.1875 4.5C6.33984 4.5 6.47168 4.44434 6.58301 4.33301C6.69434 4.22168 6.75 4.08984 6.75 3.9375C6.75 3.78516 6.69434 3.65332 6.58301 3.54199C6.47168 3.43066 6.33984 3.375 6.1875 3.375C6.03516 3.375 5.90332 3.43066 5.79199 3.54199C5.68066 3.65332 5.625 3.78516 5.625 3.9375C5.625 4.08984 5.68066 4.22168 5.79199 4.33301C5.90332 4.44434 6.03516 4.5 6.1875 4.5ZM10.6875 6.75C10.8398 6.75 10.9717 6.69434 11.083 6.58301C11.1943 6.47168 11.25 6.33984 11.25 6.1875C11.25 6.03516 11.1943 5.90332 11.083 5.79199C10.9717 5.68066 10.8398 5.625 10.6875 5.625C10.5352 5.625 10.4033 5.68066 10.292 5.79199C10.1807 5.90332 10.125 6.03516 10.125 6.1875C10.125 6.33984 10.1807 6.47168 10.292 6.58301C10.4033 6.69434 10.5352 6.75 10.6875 6.75Z" fill="#E1E1E1"/>
</svg>
