<svg width="23" height="23" viewBox="0 0 23 23" fill="none" xmlns="http://www.w3.org/2000/svg">
<path d="M13.8044 7.31459H13.6797L12.3884 3.53705L1.30511 7.31459L1.05436 7.31247M0.700195 7.3153H1.05436L8.94945 1.0083L10.9448 3.80622" stroke="#E1E1E1" stroke-width="1.4" stroke-linecap="square"/>
<path d="M9.20036 10.8543C9.20036 11.324 9.01379 11.7744 8.68169 12.1065C8.3496 12.4386 7.89918 12.6252 7.42952 12.6252C6.95987 12.6252 6.50945 12.4386 6.17736 12.1065C5.84526 11.7744 5.65869 11.324 5.65869 10.8543C5.65869 10.3847 5.84526 9.93426 6.17736 9.60216C6.50945 9.27007 6.95987 9.0835 7.42952 9.0835C7.89918 9.0835 8.3496 9.27007 8.68169 9.60216C9.01379 9.93426 9.20036 10.3847 9.20036 10.8543Z" stroke="#E1E1E1" stroke-width="1.2" stroke-linecap="square"/>
<path d="M14.1585 7.3125V14.3958H0.700195V7.3125H14.1585Z" stroke="#E1E1E1" stroke-width="1.2" stroke-linecap="square"/>
<path d="M0.700195 7.3125H2.11686C2.11686 7.68822 1.96761 8.04856 1.70193 8.31423C1.43625 8.57991 1.07592 8.72917 0.700195 8.72917V7.3125ZM14.1585 7.3125H12.7419C12.7419 7.68822 12.8911 8.04856 13.1568 8.31423C13.4225 8.57991 13.7828 8.72917 14.1585 8.72917V7.3125ZM0.700195 14.3958H2.11828C2.11846 14.2096 2.08191 14.0251 2.01071 13.8529C1.93951 13.6808 1.83507 13.5244 1.70335 13.3927C1.57163 13.261 1.41523 13.1565 1.24309 13.0853C1.07096 13.0141 0.886473 12.9776 0.700195 12.9777V14.3958ZM14.1585 14.3958H12.7419C12.7419 14.0201 12.8911 13.6598 13.1568 13.3941C13.4225 13.1284 13.7828 12.9792 14.1585 12.9792V14.3958Z" stroke="#E1E1E1" stroke-width="1.2" stroke-linecap="square"/>
</svg>
