<svg width="20" height="20" viewBox="0 0 20 20" fill="none" xmlns="http://www.w3.org/2000/svg">
<path d="M13.3332 8.3335C13.3332 9.21755 12.982 10.0654 12.3569 10.6905C11.7317 11.3156 10.8839 11.6668 9.99984 11.6668C9.11578 11.6668 8.26794 11.3156 7.64281 10.6905C7.01769 10.0654 6.6665 9.21755 6.6665 8.3335" stroke="#E8E5DB" stroke-width="1.66667" stroke-linecap="round" stroke-linejoin="round"/>
<path d="M2.58594 5.02832H17.4143" stroke="#E8E5DB" stroke-width="1.66667" stroke-linecap="round" stroke-linejoin="round"/>
<path d="M2.83333 4.55567C2.61696 4.84416 2.5 5.19505 2.5 5.55567V16.6665C2.5 17.1085 2.67559 17.5325 2.98816 17.845C3.30072 18.1576 3.72464 18.3332 4.16667 18.3332H15.8333C16.2754 18.3332 16.6993 18.1576 17.0118 17.845C17.3244 17.5325 17.5 17.1085 17.5 16.6665V5.55567C17.5 5.19505 17.383 4.84416 17.1667 4.55567L15.5 2.33317C15.3448 2.12618 15.1434 1.95817 14.912 1.84246C14.6806 1.72675 14.4254 1.6665 14.1667 1.6665H5.83333C5.57459 1.6665 5.3194 1.72675 5.08798 1.84246C4.85655 1.95817 4.65525 2.12618 4.5 2.33317L2.83333 4.55567Z" stroke="#E8E5DB" stroke-width="1.66667" stroke-linecap="round" stroke-linejoin="round"/>
</svg>
