<svg width="27" height="27" viewBox="0 0 27 27" fill="none" xmlns="http://www.w3.org/2000/svg">
<path d="M4.49993 11.25L3.70455 12.0453L2.90918 11.25L3.70455 10.4546L4.49993 11.25ZM23.6249 20.25C23.6249 20.5483 23.5064 20.8345 23.2954 21.0455C23.0844 21.2564 22.7983 21.375 22.4999 21.375C22.2016 21.375 21.9154 21.2564 21.7044 21.0455C21.4935 20.8345 21.3749 20.5483 21.3749 20.25H23.6249ZM9.32956 17.6703L3.70455 12.0453L5.2953 10.4546L10.9203 16.0796L9.32956 17.6703ZM3.70455 10.4546L9.32956 4.82959L10.9203 6.42034L5.2953 12.0453L3.70455 10.4546ZM4.49993 10.125H15.7499V12.375H4.49993V10.125ZM23.6249 18V20.25H21.3749V18H23.6249ZM15.7499 10.125C17.8385 10.125 19.8415 10.9546 21.3184 12.4315C22.7952 13.9083 23.6249 15.9114 23.6249 18H21.3749C21.3749 16.5081 20.7823 15.0774 19.7274 14.0225C18.6725 12.9676 17.2418 12.375 15.7499 12.375V10.125Z" fill="#1C3F3A"/>
</svg>
