<svg width="57" height="75" viewBox="0 0 57 75" fill="none" xmlns="http://www.w3.org/2000/svg">
<ellipse cx="28.0824" cy="37.0957" rx="28.0824" ry="37.0957" fill="#FFF5D9"/>
<path d="M33.337 50.7329H20.0971C19.3885 50.7319 18.7091 50.3596 18.208 49.6977C17.7069 49.0358 17.4251 48.1383 17.4243 47.2022V36.7645C17.4251 35.8284 17.7069 34.931 18.208 34.2691C18.7091 33.6072 19.3885 33.2349 20.0971 33.2339H33.337C34.0456 33.2349 34.725 33.6072 35.2261 34.2691C35.7272 34.931 36.009 35.8284 36.0097 36.7645V47.2022C36.009 48.1383 35.7272 49.0358 35.2261 49.6977C34.725 50.3596 34.0456 50.7319 33.337 50.7329ZM20.0971 35.447C19.8327 35.4474 19.5791 35.5863 19.3921 35.8333C19.2052 36.0803 19.1 36.4152 19.0997 36.7645V47.2022C19.1 47.5515 19.2052 47.8864 19.3921 48.1334C19.5791 48.3804 19.8327 48.5194 20.0971 48.5198H33.337C33.6014 48.5194 33.8549 48.3804 34.0419 48.1334C34.2289 47.8864 34.3341 47.5515 34.3344 47.2022V36.7645C34.3341 36.4152 34.2289 36.0803 34.0419 35.8333C33.8549 35.5863 33.6014 35.4474 33.337 35.447H20.0971Z" fill="#FFBB38"/>
<path d="M37.0909 44.7736H35.172C34.9499 44.7736 34.7368 44.6571 34.5797 44.4495C34.4226 44.242 34.3343 43.9606 34.3343 43.6671C34.3343 43.3736 34.4226 43.0922 34.5797 42.8846C34.7368 42.6771 34.9499 42.5605 35.172 42.5605H37.0909C37.3551 42.5598 37.6084 42.4206 37.7951 42.1737C37.9818 41.9267 38.0869 41.5921 38.0872 41.243V30.8053C38.087 30.4561 37.9821 30.1213 37.7953 29.8741C37.6085 29.627 37.3552 29.4878 37.0909 29.487H23.851C23.5866 29.4874 23.333 29.6264 23.1461 29.8734C22.9591 30.1204 22.8539 30.4552 22.8536 30.8046V34.3396C22.8536 34.6331 22.7653 34.9145 22.6082 35.1221C22.4511 35.3296 22.2381 35.4462 22.0159 35.4462C21.7937 35.4462 21.5807 35.3296 21.4236 35.1221C21.2665 34.9145 21.1782 34.6331 21.1782 34.3396V30.8053C21.1788 29.8691 21.4606 28.9714 21.9617 28.3094C22.4628 27.6473 23.1423 27.2749 23.851 27.2739H37.0909C37.7994 27.2753 38.4786 27.6479 38.9795 28.3099C39.4803 28.9719 39.7619 29.8693 39.7625 30.8053V41.243C39.7618 42.1788 39.4801 43.0761 38.9793 43.7379C38.4784 44.3998 37.7993 44.7723 37.0909 44.7736Z" fill="#FFBB38"/>
<path d="M35.1721 42.8237H18.262C18.0398 42.8237 17.8268 42.7071 17.6697 42.4996C17.5126 42.2921 17.4243 42.0106 17.4243 41.7171V38.0006C17.4243 37.7071 17.5126 37.4257 17.6697 37.2181C17.8268 37.0106 18.0398 36.894 18.262 36.894H35.1721C35.3942 36.894 35.6073 37.0106 35.7644 37.2181C35.9215 37.4257 36.0097 37.7071 36.0097 38.0006V41.7171C36.0097 42.0106 35.9215 42.2921 35.7644 42.4996C35.6073 42.7071 35.3942 42.8237 35.1721 42.8237ZM19.0997 40.6106H34.3344V39.1071H19.0997V40.6106Z" fill="#FFBB38"/>
</svg>
