<svg width="40" height="40" viewBox="0 0 40 40" fill="none" xmlns="http://www.w3.org/2000/svg">
<path d="M0 10C0 4.47715 4.47715 0 10 0H30C35.5228 0 40 4.47715 40 10V30C40 35.5228 35.5228 40 30 40H10C4.47715 40 0 35.5228 0 30V10Z" fill="#5D7872"/>
<path d="M17 20L19 22L23 18M28.618 13.984C25.4561 14.1519 22.3567 13.0586 20 10.944C17.6433 13.0586 14.5439 14.1519 11.382 13.984C11.1275 14.9691 10.9992 15.9826 11 17C11 22.591 14.824 27.29 20 28.622C25.176 27.29 29 22.592 29 17C29 15.958 28.867 14.948 28.618 13.984Z" stroke="white" stroke-width="2" stroke-linecap="round" stroke-linejoin="round"/>
</svg>
