<svg width="56" height="75" viewBox="0 0 56 75" fill="none" xmlns="http://www.w3.org/2000/svg">
<ellipse cx="27.7904" cy="37.0957" rx="27.7904" ry="37.0957" fill="#E7EDFF"/>
<path d="M37.3859 30.1929C37.3719 28.1286 36.7484 26.1551 35.6507 24.7009C34.553 23.2468 33.0699 22.4294 31.5234 22.4264H22.9904C22.7785 22.4227 22.5726 22.5208 22.4103 22.7028C22.248 22.8848 22.1401 23.1385 22.1062 23.4178L19.0821 48.7357C19.0632 48.9033 19.0716 49.0745 19.1067 49.2374C19.1418 49.4003 19.2028 49.5513 19.2855 49.6799C19.3677 49.8117 19.4703 49.9179 19.5864 49.9913C19.7025 50.0647 19.8291 50.1034 19.9575 50.1049H23.6094L23.4149 51.7455C23.3942 51.9155 23.4017 52.0896 23.4368 52.2553C23.4719 52.4211 23.5337 52.5746 23.618 52.7051C23.7022 52.8356 23.8069 52.9399 23.9246 53.0106C24.0422 53.0814 24.1701 53.1169 24.2991 53.1147H28.4108C28.6215 53.1188 28.8263 53.0223 28.9884 52.8427C29.1505 52.6631 29.2593 52.4121 29.2951 52.135L30.1793 44.9233H32.9647C34.708 44.9139 36.3777 43.9837 37.6088 42.336C38.8399 40.6882 39.5322 38.457 39.5346 36.1299V35.7994C39.5337 34.7047 39.3385 33.6259 38.965 32.6514C38.5915 31.6769 38.0504 30.8344 37.3859 30.1929ZM23.742 24.787H31.5234C32.4511 24.7908 33.3504 25.2142 34.0747 25.988C34.7989 26.7619 35.3053 27.8405 35.5113 29.048C35.1287 28.9282 34.737 28.8688 34.3441 28.8709H26.9695C26.7576 28.8673 26.5517 28.9654 26.3894 29.1474C26.2271 29.3293 26.1192 29.5831 26.0853 29.8624L25.5636 34.2296C25.5261 34.5426 25.5832 34.8627 25.7225 35.1195C25.8618 35.3763 26.0718 35.5486 26.3063 35.5987C26.5409 35.6488 26.7807 35.5725 26.973 35.3866C27.1654 35.2006 27.2945 34.9203 27.3321 34.6073L27.7388 31.2079H34.3618C34.7856 31.2109 35.2054 31.319 35.5997 31.5266C35.4316 33.3744 34.7638 35.0765 33.7217 36.3132C32.6796 37.55 31.335 38.2361 29.9406 38.2426H25.8377C25.627 38.2386 25.4222 38.335 25.2601 38.5146C25.098 38.6942 24.9892 38.9452 24.9535 39.2223L23.8747 47.7442H20.9921L23.742 24.787ZM37.7661 36.1299C37.7638 37.8309 37.2577 39.4617 36.3583 40.6668C35.4589 41.8718 34.239 42.5533 32.9647 42.5626H29.4277C29.2171 42.5585 29.0122 42.655 28.8501 42.8346C28.688 43.0142 28.5793 43.2651 28.5435 43.5423L27.6592 50.754H25.3248L25.5194 49.1134L26.5805 40.6269H29.9229C31.5736 40.6204 33.1764 39.8853 34.4815 38.536C35.7866 37.1867 36.7207 35.2991 37.1383 33.1673C37.5487 33.9354 37.7683 34.8559 37.7661 35.7994V36.1299Z" fill="#396AFF"/>
</svg>
