<svg width="109" height="52" viewBox="0 0 109 52" fill="none" xmlns="http://www.w3.org/2000/svg">
<path d="M11.772 35.288C8.58 35.288 6.024 34.688 4.104 33.488C2.184 32.264 1.224 30.404 1.224 27.908C1.224 26.588 1.452 25.58 1.908 24.884C2.364 24.188 3.036 23.84 3.924 23.84C4.572 23.84 5.1 24.008 5.508 24.344C5.916 24.68 6.12 25.112 6.12 25.64C6.12 26.12 6.084 26.54 6.012 26.9C6.012 26.996 5.988 27.164 5.94 27.404C5.916 27.644 5.904 27.896 5.904 28.16C5.904 29.24 6.444 30.044 7.524 30.572C8.628 31.1 10.164 31.364 12.132 31.364C14.172 31.364 15.768 31.004 16.92 30.284C18.072 29.54 18.648 28.508 18.648 27.188C18.648 26.372 18.384 25.676 17.856 25.1C17.328 24.5 16.668 24.008 15.876 23.624C15.084 23.216 13.968 22.724 12.528 22.148C10.68 21.428 9.168 20.744 7.992 20.096C6.84 19.448 5.844 18.572 5.004 17.468C4.188 16.34 3.78 14.948 3.78 13.292C3.78 11.564 4.236 10.028 5.148 8.684C6.084 7.34 7.416 6.296 9.144 5.552C10.896 4.808 12.948 4.436 15.3 4.436C17.052 4.436 18.66 4.7 20.124 5.228C21.588 5.732 22.752 6.512 23.616 7.568C24.504 8.624 24.948 9.92 24.948 11.456C24.948 12.968 24.72 14.108 24.264 14.876C23.808 15.644 23.136 16.028 22.248 16.028C21.624 16.028 21.096 15.836 20.664 15.452C20.256 15.068 20.052 14.612 20.052 14.084C20.052 13.628 20.088 13.208 20.16 12.824C20.232 12.104 20.268 11.648 20.268 11.456C20.268 10.448 19.776 9.68 18.792 9.152C17.808 8.624 16.584 8.36 15.12 8.36C13.056 8.36 11.472 8.744 10.368 9.512C9.288 10.256 8.748 11.312 8.748 12.68C8.748 13.592 9.024 14.372 9.576 15.02C10.152 15.668 10.86 16.208 11.7 16.64C12.54 17.072 13.716 17.588 15.228 18.188C17.052 18.932 18.516 19.604 19.62 20.204C20.724 20.804 21.66 21.62 22.428 22.652C23.22 23.684 23.616 24.956 23.616 26.468C23.616 29.3 22.536 31.484 20.376 33.02C18.24 34.532 15.372 35.288 11.772 35.288ZM53.3692 24.056C53.4412 24.032 53.5612 24.02 53.7292 24.02C54.0892 24.02 54.3652 24.14 54.5572 24.38C54.7492 24.62 54.8452 24.944 54.8452 25.352C54.8452 26.096 54.7012 26.684 54.4132 27.116C54.1252 27.524 53.6932 27.824 53.1172 28.016C52.0132 28.376 50.8372 28.556 49.5892 28.556C48.5332 28.556 47.5372 28.412 46.6012 28.124C45.9052 29.252 45.1372 30.416 44.2972 31.616C43.3372 32.984 42.5092 33.92 41.8132 34.424C41.1412 34.928 40.3732 35.18 39.5092 35.18C38.5492 35.18 37.8172 34.808 37.3132 34.064C36.8332 33.32 36.5332 32.096 36.4132 30.392L36.2332 27.764C35.4892 29.78 34.8172 31.316 34.2172 32.372C33.6412 33.428 33.0532 34.16 32.4532 34.568C31.8772 34.976 31.1932 35.18 30.4012 35.18C29.4172 35.18 28.6372 34.796 28.0612 34.028C27.5092 33.26 27.1612 32.048 27.0172 30.392C26.7292 27.032 26.5852 24.092 26.5852 21.572V20.312C26.6092 19.52 26.8252 18.968 27.2332 18.656C27.6412 18.344 28.2532 18.188 29.0692 18.188C29.6932 18.188 30.1492 18.332 30.4372 18.62C30.7492 18.884 30.9052 19.34 30.9052 19.988C30.9052 22.748 31.0732 26.336 31.4092 30.752C33.0412 27.32 34.5412 23.744 35.9092 20.024C36.1732 19.304 36.4852 18.824 36.8452 18.584C37.2292 18.32 37.6852 18.188 38.2132 18.188C38.8612 18.188 39.3052 18.32 39.5452 18.584C39.8092 18.848 39.9412 19.316 39.9412 19.988C39.9412 22.748 40.1092 26.336 40.4452 30.752C41.8852 28.616 42.9652 26.912 43.6852 25.64C43.3252 24.944 43.1452 24.116 43.1452 23.156C43.1452 22.34 43.3252 21.548 43.6852 20.78C44.0452 20.012 44.5372 19.388 45.1612 18.908C45.7852 18.428 46.4932 18.188 47.2852 18.188C47.9812 18.188 48.5452 18.44 48.9772 18.944C49.4092 19.424 49.6252 20.132 49.6252 21.068C49.6252 22.148 49.3372 23.384 48.7612 24.776C49.6732 24.728 50.8852 24.548 52.3972 24.236L53.3692 24.056ZM56.1482 35.18C54.6602 35.18 53.4722 34.64 52.5842 33.56C51.6962 32.48 51.2522 31.064 51.2522 29.312C51.2522 27.392 51.6962 25.58 52.5842 23.876C53.4722 22.148 54.6482 20.768 56.1122 19.736C57.6002 18.68 59.1722 18.152 60.8282 18.152C61.3562 18.152 61.7042 18.26 61.8722 18.476C62.0642 18.668 62.2202 19.028 62.3402 19.556C62.8442 19.46 63.3722 19.412 63.9242 19.412C65.1002 19.412 65.6882 19.832 65.6882 20.672C65.6882 21.176 65.5082 22.376 65.1482 24.272C64.5962 27.032 64.3202 28.952 64.3202 30.032C64.3202 30.392 64.4042 30.68 64.5722 30.896C64.7642 31.112 65.0042 31.22 65.2922 31.22C65.7482 31.22 66.3002 30.932 66.9482 30.356C67.5962 29.756 68.4722 28.796 69.5762 27.476C69.8642 27.14 70.1882 26.972 70.5482 26.972C70.8602 26.972 71.1002 27.116 71.2682 27.404C71.4602 27.692 71.5562 28.088 71.5562 28.592C71.5562 29.552 71.3282 30.296 70.8722 30.824C69.8882 32.048 68.8442 33.08 67.7402 33.92C66.6362 34.76 65.5682 35.18 64.5362 35.18C63.7442 35.18 63.0122 34.916 62.3402 34.388C61.6922 33.836 61.2002 33.092 60.8642 32.156C59.6162 34.172 58.0442 35.18 56.1482 35.18ZM57.4442 31.544C57.9722 31.544 58.4762 31.232 58.9562 30.608C59.4362 29.984 59.7842 29.156 60.0002 28.124L61.3322 21.5C60.3242 21.524 59.3882 21.908 58.5242 22.652C57.6842 23.372 57.0122 24.332 56.5082 25.532C56.0042 26.732 55.7522 28.004 55.7522 29.348C55.7522 30.092 55.8962 30.644 56.1842 31.004C56.4962 31.364 56.9162 31.544 57.4442 31.544ZM87.8543 26.972C88.1663 26.972 88.4063 27.116 88.5743 27.404C88.7663 27.692 88.8623 28.088 88.8623 28.592C88.8623 29.552 88.6343 30.296 88.1783 30.824C87.1463 32.096 86.0303 33.14 84.8303 33.956C83.6543 34.772 82.3103 35.18 80.7983 35.18C79.5263 35.18 78.4943 34.724 77.7023 33.812C76.3343 34.7 74.9063 35.156 73.4183 35.18C73.1063 39.812 72.3983 43.676 71.2943 46.772C70.1903 49.892 68.5703 51.452 66.4343 51.452C65.1383 51.452 64.1783 50.984 63.5543 50.048C62.9303 49.112 62.6183 47.816 62.6183 46.16C62.6183 43.808 63.1583 41.06 64.2383 37.916C65.3183 34.796 66.9863 31.352 69.2423 27.584C69.2423 24.08 69.2183 21.644 69.1703 20.276C69.1463 19.58 69.4223 19.028 69.9983 18.62C70.5743 18.212 71.2943 18.008 72.1583 18.008C72.6623 18.008 73.0223 18.116 73.2383 18.332C73.4783 18.524 73.6103 18.92 73.6343 19.52C73.6343 20.12 73.6463 20.564 73.6703 20.852C74.4383 19.892 75.1943 19.208 75.9383 18.8C76.6823 18.368 77.4743 18.152 78.3143 18.152C79.6583 18.152 80.7503 18.692 81.5903 19.772C82.4543 20.852 82.8863 22.268 82.8863 24.02C82.8863 25.292 82.6823 26.528 82.2743 27.728C81.8663 28.928 81.3023 30.02 80.5823 31.004C81.0863 31.148 81.5063 31.22 81.8423 31.22C82.6343 31.22 83.3903 30.932 84.1103 30.356C84.8303 29.78 85.7543 28.82 86.8823 27.476C87.1703 27.14 87.4943 26.972 87.8543 26.972ZM73.5983 31.724C74.4623 31.532 75.2543 31.064 75.9743 30.32C76.7183 29.552 77.3063 28.616 77.7383 27.512C78.1703 26.384 78.3863 25.208 78.3863 23.984C78.3863 23.264 78.2423 22.724 77.9543 22.364C77.6663 21.98 77.2823 21.788 76.8023 21.788C75.9383 21.788 74.8943 22.7 73.6703 24.524C73.6463 25.58 73.6343 27.128 73.6343 29.168C73.6343 30.272 73.6223 31.124 73.5983 31.724ZM66.7223 47.924C67.3703 47.924 67.9103 46.508 68.3423 43.676C68.7743 40.868 69.0503 37.364 69.1703 33.164C68.1383 35.564 67.3223 37.856 66.7223 40.04C66.1223 42.224 65.8223 44.06 65.8223 45.548C65.8223 46.316 65.9183 46.904 66.1103 47.312C66.2783 47.72 66.4823 47.924 66.7223 47.924ZM90.6784 15.848C89.6704 15.848 88.9144 15.62 88.4104 15.164C87.9064 14.684 87.6544 14.024 87.6544 13.184C87.6544 12.344 87.9784 11.648 88.6264 11.096C89.2984 10.52 90.1264 10.232 91.1104 10.232C91.9984 10.232 92.7184 10.448 93.2704 10.88C93.8224 11.312 94.0984 11.924 94.0984 12.716C94.0984 13.676 93.7864 14.444 93.1624 15.02C92.5384 15.572 91.7104 15.848 90.6784 15.848ZM90.3904 35.18C88.8304 35.18 87.6904 34.628 86.9704 33.524C86.2744 32.42 85.9264 30.956 85.9264 29.132C85.9264 28.052 86.0584 26.672 86.3224 24.992C86.6104 23.288 86.9704 21.704 87.4024 20.24C87.6184 19.472 87.9064 18.944 88.2664 18.656C88.6264 18.368 89.2024 18.224 89.9944 18.224C91.2184 18.224 91.8304 18.632 91.8304 19.448C91.8304 20.048 91.6024 21.44 91.1464 23.624C90.5704 26.264 90.2824 28.052 90.2824 28.988C90.2824 29.708 90.3784 30.26 90.5704 30.644C90.7624 31.028 91.0864 31.22 91.5424 31.22C91.9744 31.22 92.5144 30.92 93.1624 30.32C93.8104 29.72 94.6744 28.772 95.7544 27.476C96.0424 27.14 96.3664 26.972 96.7264 26.972C97.0384 26.972 97.2784 27.116 97.4464 27.404C97.6384 27.692 97.7344 28.088 97.7344 28.592C97.7344 29.552 97.5064 30.296 97.0504 30.824C94.6744 33.728 92.4544 35.18 90.3904 35.18ZM107.71 28.052C108.022 28.052 108.262 28.196 108.43 28.484C108.622 28.772 108.718 29.168 108.718 29.672C108.718 30.536 108.514 31.28 108.106 31.904C107.434 32.936 106.546 33.74 105.442 34.316C104.362 34.892 103.066 35.18 101.554 35.18C99.2498 35.18 97.4618 34.496 96.1898 33.128C94.9178 31.736 94.2817 29.864 94.2817 27.512C94.2817 25.856 94.6298 24.32 95.3258 22.904C96.0218 21.464 96.9818 20.324 98.2058 19.484C99.4538 18.644 100.858 18.224 102.418 18.224C103.81 18.224 104.926 18.644 105.766 19.484C106.606 20.3 107.026 21.416 107.026 22.832C107.026 24.488 106.426 25.916 105.226 27.116C104.05 28.292 102.034 29.228 99.1778 29.924C99.7538 31.028 100.726 31.58 102.094 31.58C103.078 31.58 103.882 31.352 104.506 30.896C105.154 30.44 105.898 29.672 106.738 28.592C107.026 28.232 107.35 28.052 107.71 28.052ZM101.806 21.752C100.918 21.752 100.162 22.268 99.5378 23.3C98.9378 24.332 98.6378 25.58 98.6378 27.044V27.116C100.054 26.78 101.17 26.276 101.986 25.604C102.802 24.932 103.21 24.152 103.21 23.264C103.21 22.808 103.078 22.448 102.814 22.184C102.574 21.896 102.238 21.752 101.806 21.752Z" fill="#D5D0C1"/>
</svg>
