<svg width="309" height="216" viewBox="0 0 309 216" fill="none" xmlns="http://www.w3.org/2000/svg">
<path d="M72.3346 171.694C68.9212 176.92 64.7879 181.534 59.9346 185.534L66.8946 193.214C68.1212 194.494 68.7346 195.827 68.7346 197.214C68.7346 198.547 68.2012 199.64 67.1346 200.494C66.0679 201.4 64.6546 201.854 62.8946 201.854C60.4413 201.854 58.5746 201.107 57.2946 199.614L50.5746 191.694C44.2812 194.84 38.2546 196.414 32.4946 196.414C28.2279 196.414 24.4946 195.747 21.2946 194.414C18.0946 193.08 15.6146 191.24 13.8546 188.894C12.1479 186.547 11.2946 183.934 11.2946 181.054C11.2946 177.16 12.4946 173.534 14.8946 170.174C17.3479 166.76 21.3212 163.4 26.8146 160.094C23.7212 154.44 22.1746 149.454 22.1746 145.134C22.1746 141.294 22.9746 137.907 24.5746 134.974C26.1746 132.04 28.3879 129.774 31.2146 128.174C34.0946 126.574 37.3746 125.774 41.0546 125.774C45.7479 125.774 49.3746 127.134 51.9346 129.854C54.5479 132.52 55.8546 136.2 55.8546 140.894C55.8546 144.787 54.7079 148.467 52.4146 151.934C50.1746 155.347 46.1746 158.84 40.4146 162.414C43.8279 167.054 48.3346 172.52 53.9346 178.814C57.4546 175.667 60.9479 171.694 64.4146 166.894C65.0012 166.04 65.6946 165.454 66.4946 165.134C67.2946 164.76 68.2813 164.574 69.4546 164.574C72.5479 164.574 74.0946 165.454 74.0946 167.214C74.0946 168.334 73.5079 169.827 72.3346 171.694ZM40.4946 134.174C37.9879 134.174 36.0146 135.134 34.5746 137.054C33.1346 138.92 32.4146 141.267 32.4146 144.094C32.4146 147.454 33.5346 151.134 35.7746 155.134C39.9346 152.68 42.7612 150.307 44.2546 148.014C45.7479 145.72 46.4946 143.214 46.4946 140.494C46.4946 138.52 45.9879 136.974 44.9746 135.854C43.9612 134.734 42.4679 134.174 40.4946 134.174ZM32.9746 187.614C37.1346 187.614 41.1079 186.707 44.8946 184.894C39.2412 178.12 34.7879 172.334 31.5346 167.534C25.5079 171.48 22.4946 175.587 22.4946 179.854C22.4946 182.307 23.4279 184.227 25.2946 185.614C27.1612 186.947 29.7212 187.614 32.9746 187.614Z" fill="#F2F1EE"/>
<path d="M169.382 159.48C170.075 159.48 170.609 159.8 170.982 160.44C171.409 161.08 171.622 161.96 171.622 163.08C171.622 165.16 171.115 166.813 170.102 168.04C164.822 174.493 159.195 177.72 153.222 177.72C148.049 177.72 143.915 175.72 140.822 171.72C137.729 167.72 136.182 161.987 136.182 154.52C136.182 152.707 136.262 150.893 136.422 149.08C132.902 149.72 129.062 150.2 124.902 150.52C122.129 150.733 120.235 150.867 119.222 150.92C118.155 156.36 116.662 163.027 114.742 170.92C113.622 175.56 111.489 177.88 108.342 177.88C104.929 177.88 103.222 176.333 103.222 173.24C103.222 172.547 103.355 171.587 103.622 170.36C105.435 163.053 106.875 156.867 107.942 151.8L104.102 151.96C102.342 151.96 101.062 151.667 100.262 151.08C99.4622 150.44 99.0622 149.427 99.0622 148.04C99.0622 146.28 99.5688 145 100.582 144.2C101.595 143.347 103.275 142.867 105.622 142.76L109.862 142.6C111.249 135.08 111.942 129.347 111.942 125.4C111.942 122.893 111.569 121.187 110.822 120.28C110.075 119.373 109.089 118.92 107.862 118.92C104.129 118.92 99.9155 122.04 95.2222 128.28C94.5288 129.187 93.7555 129.64 92.9022 129.64C92.1555 129.64 91.5155 129.293 90.9822 128.6C90.4488 127.907 90.1822 127.027 90.1822 125.96C90.1822 124.307 90.8488 122.547 92.1822 120.68C94.5288 117.427 97.4888 114.76 101.062 112.68C104.635 110.547 108.262 109.48 111.942 109.48C115.409 109.48 118.075 110.68 119.942 113.08C121.862 115.427 122.822 119.107 122.822 124.12C122.822 128.547 122.182 134.547 120.902 142.12L128.742 141.72C132.102 141.56 134.982 141.293 137.382 140.92C138.342 135.053 139.809 129.56 141.782 124.44C143.755 119.32 146.209 115.16 149.142 111.96C152.075 108.76 155.355 107.16 158.982 107.16C161.649 107.16 163.755 108.227 165.302 110.36C166.849 112.44 167.622 115.187 167.622 118.6C167.622 131.827 160.875 141 147.382 146.12C147.222 148.253 147.142 150.467 147.142 152.76C147.142 158.36 147.835 162.333 149.222 164.68C150.609 167.027 152.555 168.2 155.062 168.2C157.249 168.2 159.249 167.64 161.062 166.52C162.875 165.347 164.929 163.373 167.222 160.6C167.862 159.853 168.582 159.48 169.382 159.48ZM158.582 114.12C157.409 114.12 156.155 115.187 154.822 117.32C153.542 119.453 152.315 122.36 151.142 126.04C149.969 129.72 149.035 133.747 148.342 138.12C152.609 136.36 155.755 133.853 157.782 130.6C159.809 127.347 160.822 123.16 160.822 118.04C160.822 116.813 160.609 115.853 160.182 115.16C159.755 114.467 159.222 114.12 158.582 114.12ZM174.986 177.72C171.679 177.72 169.039 176.52 167.066 174.12C165.093 171.72 164.106 168.573 164.106 164.68C164.106 160.413 165.093 156.387 167.066 152.6C169.039 148.76 171.653 145.693 174.906 143.4C178.213 141.053 181.706 139.88 185.386 139.88C186.559 139.88 187.333 140.12 187.706 140.6C188.133 141.027 188.479 141.827 188.746 143C189.866 142.787 191.039 142.68 192.266 142.68C194.879 142.68 196.186 143.613 196.186 145.48C196.186 146.6 195.786 149.267 194.986 153.48C193.759 159.613 193.146 163.88 193.146 166.28C193.146 167.08 193.333 167.72 193.706 168.2C194.133 168.68 194.666 168.92 195.306 168.92C196.319 168.92 197.546 168.28 198.986 167C200.426 165.667 202.373 163.533 204.826 160.6C205.466 159.853 206.186 159.48 206.986 159.48C207.679 159.48 208.213 159.8 208.586 160.44C209.013 161.08 209.226 161.96 209.226 163.08C209.226 165.213 208.719 166.867 207.706 168.04C205.519 170.76 203.199 173.053 200.746 174.92C198.293 176.787 195.919 177.72 193.626 177.72C191.866 177.72 190.239 177.133 188.746 175.96C187.306 174.733 186.213 173.08 185.466 171C182.693 175.48 179.199 177.72 174.986 177.72ZM177.866 169.64C179.039 169.64 180.159 168.947 181.226 167.56C182.293 166.173 183.066 164.333 183.546 162.04L186.506 147.32C184.266 147.373 182.186 148.227 180.266 149.88C178.399 151.48 176.906 153.613 175.786 156.28C174.666 158.947 174.106 161.773 174.106 164.76C174.106 166.413 174.426 167.64 175.066 168.44C175.759 169.24 176.693 169.64 177.866 169.64ZM245.444 159.48C246.137 159.48 246.671 159.8 247.044 160.44C247.471 161.08 247.684 161.96 247.684 163.08C247.684 165.213 247.177 166.867 246.164 168.04C243.871 170.867 241.391 173.187 238.724 175C236.111 176.813 233.124 177.72 229.764 177.72C226.937 177.72 224.644 176.707 222.884 174.68C219.844 176.653 216.671 177.667 213.364 177.72C212.671 188.013 211.097 196.6 208.644 203.48C206.191 210.413 202.591 213.88 197.844 213.88C194.964 213.88 192.831 212.84 191.444 210.76C190.057 208.68 189.364 205.8 189.364 202.12C189.364 196.893 190.564 190.787 192.964 183.8C195.364 176.867 199.071 169.213 204.084 160.84C204.084 153.053 204.031 147.64 203.924 144.6C203.871 143.053 204.484 141.827 205.764 140.92C207.044 140.013 208.644 139.56 210.564 139.56C211.684 139.56 212.484 139.8 212.964 140.28C213.497 140.707 213.791 141.587 213.844 142.92C213.844 144.253 213.871 145.24 213.924 145.88C215.631 143.747 217.311 142.227 218.964 141.32C220.617 140.36 222.377 139.88 224.244 139.88C227.231 139.88 229.657 141.08 231.524 143.48C233.444 145.88 234.404 149.027 234.404 152.92C234.404 155.747 233.951 158.493 233.044 161.16C232.137 163.827 230.884 166.253 229.284 168.44C230.404 168.76 231.337 168.92 232.084 168.92C233.844 168.92 235.524 168.28 237.124 167C238.724 165.72 240.777 163.587 243.284 160.6C243.924 159.853 244.644 159.48 245.444 159.48ZM213.764 170.04C215.684 169.613 217.444 168.573 219.044 166.92C220.697 165.213 222.004 163.133 222.964 160.68C223.924 158.173 224.404 155.56 224.404 152.84C224.404 151.24 224.084 150.04 223.444 149.24C222.804 148.387 221.951 147.96 220.884 147.96C218.964 147.96 216.644 149.987 213.924 154.04C213.871 156.387 213.844 159.827 213.844 164.36C213.844 166.813 213.817 168.707 213.764 170.04ZM198.484 206.04C199.924 206.04 201.124 202.893 202.084 196.6C203.044 190.36 203.657 182.573 203.924 173.24C201.631 178.573 199.817 183.667 198.484 188.52C197.151 193.373 196.484 197.453 196.484 200.76C196.484 202.467 196.697 203.773 197.124 204.68C197.497 205.587 197.951 206.04 198.484 206.04ZM251.72 134.76C249.48 134.76 247.8 134.253 246.68 133.24C245.56 132.173 245 130.707 245 128.84C245 126.973 245.72 125.427 247.16 124.2C248.653 122.92 250.493 122.28 252.68 122.28C254.653 122.28 256.253 122.76 257.48 123.72C258.706 124.68 259.32 126.04 259.32 127.8C259.32 129.933 258.626 131.64 257.24 132.92C255.853 134.147 254.013 134.76 251.72 134.76ZM251.08 177.72C247.613 177.72 245.08 176.493 243.48 174.04C241.933 171.587 241.16 168.333 241.16 164.28C241.16 161.88 241.453 158.813 242.04 155.08C242.68 151.293 243.48 147.773 244.44 144.52C244.92 142.813 245.56 141.64 246.36 141C247.16 140.36 248.44 140.04 250.2 140.04C252.92 140.04 254.28 140.947 254.28 142.76C254.28 144.093 253.773 147.187 252.76 152.04C251.48 157.907 250.84 161.88 250.84 163.96C250.84 165.56 251.053 166.787 251.48 167.64C251.906 168.493 252.626 168.92 253.64 168.92C254.6 168.92 255.8 168.253 257.24 166.92C258.68 165.587 260.6 163.48 263 160.6C263.64 159.853 264.36 159.48 265.16 159.48C265.853 159.48 266.386 159.8 266.76 160.44C267.186 161.08 267.4 161.96 267.4 163.08C267.4 165.213 266.893 166.867 265.88 168.04C260.6 174.493 255.666 177.72 251.08 177.72ZM289.567 161.88C290.26 161.88 290.794 162.2 291.167 162.84C291.594 163.48 291.807 164.36 291.807 165.48C291.807 167.4 291.354 169.053 290.447 170.44C288.954 172.733 286.98 174.52 284.527 175.8C282.127 177.08 279.247 177.72 275.887 177.72C270.767 177.72 266.794 176.2 263.967 173.16C261.14 170.067 259.727 165.907 259.727 160.68C259.727 157 260.5 153.587 262.047 150.44C263.594 147.24 265.727 144.707 268.447 142.84C271.22 140.973 274.34 140.04 277.807 140.04C280.9 140.04 283.38 140.973 285.247 142.84C287.114 144.653 288.047 147.133 288.047 150.28C288.047 153.96 286.714 157.133 284.047 159.8C281.434 162.413 276.954 164.493 270.607 166.04C271.887 168.493 274.047 169.72 277.087 169.72C279.274 169.72 281.06 169.213 282.447 168.2C283.887 167.187 285.54 165.48 287.407 163.08C288.047 162.28 288.767 161.88 289.567 161.88ZM276.447 147.88C274.474 147.88 272.794 149.027 271.407 151.32C270.074 153.613 269.407 156.387 269.407 159.64V159.8C272.554 159.053 275.034 157.933 276.847 156.44C278.66 154.947 279.567 153.213 279.567 151.24C279.567 150.227 279.274 149.427 278.687 148.84C278.154 148.2 277.407 147.88 276.447 147.88Z" fill="#F2F1EE"/>
<g filter="url(#filter0_d_181_1710)">
<path d="M27.44 75.64C20.3467 75.64 14.6667 74.3067 10.4 71.64C6.13336 68.92 4.00003 64.7867 4.00003 59.24C4.00003 56.3067 4.5067 54.0667 5.52003 52.52C6.53336 50.9733 8.0267 50.2 10 50.2C11.44 50.2 12.6134 50.5733 13.52 51.32C14.4267 52.0667 14.88 53.0267 14.88 54.2C14.88 55.2667 14.8 56.2 14.64 57C14.64 57.2133 14.5867 57.5867 14.48 58.12C14.4267 58.6533 14.4 59.2133 14.4 59.8C14.4 62.2 15.6 63.9867 18 65.16C20.4534 66.3333 23.8667 66.92 28.24 66.92C32.7734 66.92 36.32 66.12 38.88 64.52C41.44 62.8667 42.72 60.5733 42.72 57.64C42.72 55.8267 42.1334 54.28 40.96 53C39.7867 51.6667 38.32 50.5733 36.56 49.72C34.8 48.8133 32.32 47.72 29.12 46.44C25.0134 44.84 21.6534 43.32 19.04 41.88C16.48 40.44 14.2667 38.4933 12.4 36.04C10.5867 33.5333 9.68003 30.44 9.68003 26.76C9.68003 22.92 10.6934 19.5067 12.72 16.52C14.8 13.5333 17.76 11.2133 21.6 9.56C25.4934 7.90666 30.0534 7.08 35.28 7.08C39.1734 7.08 42.7467 7.66666 46 8.84C49.2534 9.96 51.84 11.6933 53.76 14.04C55.7334 16.3867 56.72 19.2667 56.72 22.68C56.72 26.04 56.2134 28.5733 55.2 30.28C54.1867 31.9867 52.6934 32.84 50.72 32.84C49.3334 32.84 48.16 32.4133 47.2 31.56C46.2934 30.7067 45.84 29.6933 45.84 28.52C45.84 27.5067 45.92 26.5733 46.08 25.72C46.24 24.12 46.32 23.1067 46.32 22.68C46.32 20.44 45.2267 18.7333 43.04 17.56C40.8534 16.3867 38.1334 15.8 34.88 15.8C30.2934 15.8 26.7734 16.6533 24.32 18.36C21.92 20.0133 20.72 22.36 20.72 25.4C20.72 27.4267 21.3334 29.16 22.56 30.6C23.84 32.04 25.4134 33.24 27.28 34.2C29.1467 35.16 31.76 36.3067 35.12 37.64C39.1734 39.2933 42.4267 40.7867 44.88 42.12C47.3334 43.4533 49.4134 45.2667 51.12 47.56C52.88 49.8533 53.76 52.68 53.76 56.04C53.76 62.3333 51.36 67.1867 46.56 70.6C41.8134 73.96 35.44 75.64 27.44 75.64ZM119.878 50.68C120.038 50.6267 120.305 50.6 120.678 50.6C121.478 50.6 122.091 50.8667 122.518 51.4C122.945 51.9333 123.158 52.6533 123.158 53.56C123.158 55.2133 122.838 56.52 122.198 57.48C121.558 58.3867 120.598 59.0533 119.318 59.48C116.865 60.28 114.251 60.68 111.478 60.68C109.131 60.68 106.918 60.36 104.838 59.72C103.291 62.2267 101.585 64.8133 99.7182 67.48C97.5848 70.52 95.7448 72.6 94.1982 73.72C92.7048 74.84 90.9982 75.4 89.0782 75.4C86.9448 75.4 85.3182 74.5733 84.1982 72.92C83.1315 71.2667 82.4648 68.5467 82.1982 64.76L81.7982 58.92C80.1448 63.4 78.6515 66.8133 77.3182 69.16C76.0382 71.5067 74.7315 73.1333 73.3982 74.04C72.1182 74.9467 70.5982 75.4 68.8382 75.4C66.6515 75.4 64.9182 74.5467 63.6382 72.84C62.4115 71.1333 61.6382 68.44 61.3182 64.76C60.6782 57.2933 60.3582 50.76 60.3582 45.16V42.36C60.4115 40.6 60.8915 39.3733 61.7982 38.68C62.7048 37.9867 64.0648 37.64 65.8782 37.64C67.2648 37.64 68.2782 37.96 68.9182 38.6C69.6115 39.1867 69.9582 40.2 69.9582 41.64C69.9582 47.7733 70.3315 55.7467 71.0782 65.56C74.7048 57.9333 78.0382 49.9867 81.0782 41.72C81.6648 40.12 82.3582 39.0533 83.1582 38.52C84.0115 37.9333 85.0248 37.64 86.1982 37.64C87.6382 37.64 88.6248 37.9333 89.1582 38.52C89.7448 39.1067 90.0382 40.1467 90.0382 41.64C90.0382 47.7733 90.4115 55.7467 91.1582 65.56C94.3582 60.8133 96.7582 57.0267 98.3582 54.2C97.5582 52.6533 97.1582 50.8133 97.1582 48.68C97.1582 46.8667 97.5582 45.1067 98.3582 43.4C99.1582 41.6933 100.251 40.3067 101.638 39.24C103.025 38.1733 104.598 37.64 106.358 37.64C107.905 37.64 109.158 38.2 110.118 39.32C111.078 40.3867 111.558 41.96 111.558 44.04C111.558 46.44 110.918 49.1867 109.638 52.28C111.665 52.1733 114.358 51.7733 117.718 51.08L119.878 50.68ZM126.054 75.4C122.747 75.4 120.107 74.2 118.134 71.8C116.16 69.4 115.174 66.2533 115.174 62.36C115.174 58.0933 116.16 54.0667 118.134 50.28C120.107 46.44 122.72 43.3733 125.974 41.08C129.28 38.7333 132.774 37.56 136.454 37.56C137.627 37.56 138.4 37.8 138.774 38.28C139.2 38.7067 139.547 39.5067 139.814 40.68C140.934 40.4667 142.107 40.36 143.334 40.36C145.947 40.36 147.254 41.2933 147.254 43.16C147.254 44.28 146.854 46.9467 146.054 51.16C144.827 57.2933 144.214 61.56 144.214 63.96C144.214 64.76 144.4 65.4 144.774 65.88C145.2 66.36 145.734 66.6 146.374 66.6C147.387 66.6 148.614 65.96 150.054 64.68C151.494 63.3467 153.44 61.2133 155.894 58.28C156.534 57.5333 157.254 57.16 158.054 57.16C158.747 57.16 159.28 57.48 159.654 58.12C160.08 58.76 160.294 59.64 160.294 60.76C160.294 62.8933 159.787 64.5467 158.774 65.72C156.587 68.44 154.267 70.7333 151.814 72.6C149.36 74.4667 146.987 75.4 144.694 75.4C142.934 75.4 141.307 74.8133 139.814 73.64C138.374 72.4133 137.28 70.76 136.534 68.68C133.76 73.16 130.267 75.4 126.054 75.4ZM128.934 67.32C130.107 67.32 131.227 66.6267 132.294 65.24C133.36 63.8533 134.134 62.0133 134.614 59.72L137.574 45C135.334 45.0533 133.254 45.9067 131.334 47.56C129.467 49.16 127.974 51.2933 126.854 53.96C125.734 56.6267 125.174 59.4533 125.174 62.44C125.174 64.0933 125.494 65.32 126.134 66.12C126.827 66.92 127.76 67.32 128.934 67.32ZM196.512 57.16C197.205 57.16 197.739 57.48 198.112 58.12C198.539 58.76 198.752 59.64 198.752 60.76C198.752 62.8933 198.245 64.5467 197.232 65.72C194.939 68.5467 192.459 70.8667 189.792 72.68C187.179 74.4933 184.192 75.4 180.832 75.4C178.005 75.4 175.712 74.3867 173.952 72.36C170.912 74.3333 167.739 75.3467 164.432 75.4C163.739 85.6933 162.165 94.28 159.712 101.16C157.259 108.093 153.659 111.56 148.912 111.56C146.032 111.56 143.899 110.52 142.512 108.44C141.125 106.36 140.432 103.48 140.432 99.8C140.432 94.5733 141.632 88.4667 144.032 81.48C146.432 74.5467 150.139 66.8933 155.152 58.52C155.152 50.7333 155.099 45.32 154.992 42.28C154.939 40.7333 155.552 39.5067 156.832 38.6C158.112 37.6933 159.712 37.24 161.632 37.24C162.752 37.24 163.552 37.48 164.032 37.96C164.565 38.3867 164.859 39.2667 164.912 40.6C164.912 41.9333 164.939 42.92 164.992 43.56C166.699 41.4267 168.379 39.9067 170.032 39C171.685 38.04 173.445 37.56 175.312 37.56C178.299 37.56 180.725 38.76 182.592 41.16C184.512 43.56 185.472 46.7067 185.472 50.6C185.472 53.4267 185.019 56.1733 184.112 58.84C183.205 61.5067 181.952 63.9333 180.352 66.12C181.472 66.44 182.405 66.6 183.152 66.6C184.912 66.6 186.592 65.96 188.192 64.68C189.792 63.4 191.845 61.2667 194.352 58.28C194.992 57.5333 195.712 57.16 196.512 57.16ZM164.832 67.72C166.752 67.2933 168.512 66.2533 170.112 64.6C171.765 62.8933 173.072 60.8133 174.032 58.36C174.992 55.8533 175.472 53.24 175.472 50.52C175.472 48.92 175.152 47.72 174.512 46.92C173.872 46.0667 173.019 45.64 171.952 45.64C170.032 45.64 167.712 47.6667 164.992 51.72C164.939 54.0667 164.912 57.5067 164.912 62.04C164.912 64.4933 164.885 66.3867 164.832 67.72ZM149.552 103.72C150.992 103.72 152.192 100.573 153.152 94.28C154.112 88.04 154.725 80.2533 154.992 70.92C152.699 76.2533 150.885 81.3467 149.552 86.2C148.219 91.0533 147.552 95.1333 147.552 98.44C147.552 100.147 147.765 101.453 148.192 102.36C148.565 103.267 149.019 103.72 149.552 103.72ZM202.788 32.44C200.548 32.44 198.868 31.9333 197.748 30.92C196.628 29.8533 196.068 28.3867 196.068 26.52C196.068 24.6533 196.788 23.1067 198.228 21.88C199.721 20.6 201.561 19.96 203.748 19.96C205.721 19.96 207.321 20.44 208.548 21.4C209.774 22.36 210.388 23.72 210.388 25.48C210.388 27.6133 209.694 29.32 208.308 30.6C206.921 31.8267 205.081 32.44 202.788 32.44ZM202.148 75.4C198.681 75.4 196.148 74.1733 194.548 71.72C193.001 69.2667 192.228 66.0133 192.228 61.96C192.228 59.56 192.521 56.4933 193.108 52.76C193.748 48.9733 194.548 45.4533 195.508 42.2C195.988 40.4933 196.628 39.32 197.428 38.68C198.228 38.04 199.508 37.72 201.268 37.72C203.988 37.72 205.348 38.6267 205.348 40.44C205.348 41.7733 204.841 44.8667 203.828 49.72C202.548 55.5867 201.908 59.56 201.908 61.64C201.908 63.24 202.121 64.4667 202.548 65.32C202.974 66.1733 203.694 66.6 204.708 66.6C205.668 66.6 206.868 65.9333 208.308 64.6C209.748 63.2667 211.668 61.16 214.068 58.28C214.708 57.5333 215.428 57.16 216.228 57.16C216.921 57.16 217.454 57.48 217.828 58.12C218.254 58.76 218.468 59.64 218.468 60.76C218.468 62.8933 217.961 64.5467 216.948 65.72C211.668 72.1733 206.734 75.4 202.148 75.4ZM240.635 59.56C241.328 59.56 241.862 59.88 242.235 60.52C242.662 61.16 242.875 62.04 242.875 63.16C242.875 65.08 242.422 66.7333 241.515 68.12C240.022 70.4133 238.048 72.2 235.595 73.48C233.195 74.76 230.315 75.4 226.955 75.4C221.835 75.4 217.862 73.88 215.035 70.84C212.208 67.7467 210.795 63.5867 210.795 58.36C210.795 54.68 211.568 51.2667 213.115 48.12C214.662 44.92 216.795 42.3867 219.515 40.52C222.288 38.6533 225.408 37.72 228.875 37.72C231.968 37.72 234.448 38.6533 236.315 40.52C238.182 42.3333 239.115 44.8133 239.115 47.96C239.115 51.64 237.782 54.8133 235.115 57.48C232.502 60.0933 228.022 62.1733 221.675 63.72C222.955 66.1733 225.115 67.4 228.155 67.4C230.342 67.4 232.128 66.8933 233.515 65.88C234.955 64.8667 236.608 63.16 238.475 60.76C239.115 59.96 239.835 59.56 240.635 59.56ZM227.515 45.56C225.542 45.56 223.862 46.7067 222.475 49C221.142 51.2933 220.475 54.0667 220.475 57.32V57.48C223.622 56.7333 226.102 55.6133 227.915 54.12C229.728 52.6267 230.635 50.8933 230.635 48.92C230.635 47.9067 230.342 47.1067 229.755 46.52C229.222 45.88 228.475 45.56 227.515 45.56Z" fill="#F2F1EE"/>
</g>
<defs>
<filter id="filter0_d_181_1710" x="-2.71997" y="4" width="315" height="200" filterUnits="userSpaceOnUse" color-interpolation-filters="sRGB">
<feFlood flood-opacity="0" result="BackgroundImageFix"/>
<feColorMatrix in="SourceAlpha" type="matrix" values="0 0 0 0 0 0 0 0 0 0 0 0 0 0 0 0 0 0 127 0" result="hardAlpha"/>
<feOffset dy="4"/>
<feGaussianBlur stdDeviation="2"/>
<feComposite in2="hardAlpha" operator="out"/>
<feColorMatrix type="matrix" values="0 0 0 0 0 0 0 0 0 0 0 0 0 0 0 0 0 0 0.25 0"/>
<feBlend mode="normal" in2="BackgroundImageFix" result="effect1_dropShadow_181_1710"/>
<feBlend mode="normal" in="SourceGraphic" in2="effect1_dropShadow_181_1710" result="shape"/>
</filter>
</defs>
</svg>
