<svg width="144" height="63" viewBox="0 0 144 63" fill="none" xmlns="http://www.w3.org/2000/svg">
<path d="M14.0639 41.136C9.80792 41.136 6.39992 40.336 3.83992 38.736C1.27992 37.104 -7.99894e-05 34.624 -7.99894e-05 31.296C-7.99894e-05 29.536 0.30392 28.192 0.91192 27.264C1.51992 26.336 2.41592 25.872 3.59992 25.872C4.46392 25.872 5.16792 26.096 5.71192 26.544C6.25592 26.992 6.52792 27.568 6.52792 28.272C6.52792 28.912 6.47992 29.472 6.38392 29.952C6.38392 30.08 6.35192 30.304 6.28792 30.624C6.25592 30.944 6.23992 31.28 6.23992 31.632C6.23992 33.072 6.95992 34.144 8.39992 34.848C9.87192 35.552 11.9199 35.904 14.5439 35.904C17.2639 35.904 19.3919 35.424 20.9279 34.464C22.4639 33.472 23.2319 32.096 23.2319 30.336C23.2319 29.248 22.8799 28.32 22.1759 27.552C21.4719 26.752 20.5919 26.096 19.5359 25.584C18.4799 25.04 16.9919 24.384 15.0719 23.616C12.6079 22.656 10.5919 21.744 9.02392 20.88C7.48792 20.016 6.15992 18.848 5.03992 17.376C3.95192 15.872 3.40792 14.016 3.40792 11.808C3.40792 9.50401 4.01592 7.45601 5.23192 5.66401C6.47992 3.87201 8.25592 2.48001 10.5599 1.48801C12.8959 0.496013 15.6319 1.23978e-05 18.7679 1.23978e-05C21.1039 1.23978e-05 23.2479 0.352013 25.1999 1.05601C27.1519 1.72801 28.7039 2.76801 29.8559 4.17601C31.0399 5.58401 31.6319 7.31201 31.6319 9.36001C31.6319 11.376 31.3279 12.896 30.7199 13.92C30.1119 14.944 29.2159 15.456 28.0319 15.456C27.1999 15.456 26.4959 15.2 25.9199 14.688C25.3759 14.176 25.1039 13.568 25.1039 12.864C25.1039 12.256 25.1519 11.696 25.2479 11.184C25.3439 10.224 25.3919 9.61601 25.3919 9.36001C25.3919 8.01601 24.7359 6.99201 23.4239 6.28801C22.1119 5.58401 20.4799 5.23201 18.5279 5.23201C15.7759 5.23201 13.6639 5.74401 12.1919 6.76801C10.7519 7.76001 10.0319 9.16801 10.0319 10.992C10.0319 12.208 10.3999 13.248 11.1359 14.112C11.9039 14.976 12.8479 15.696 13.9679 16.272C15.0879 16.848 16.6559 17.536 18.6719 18.336C21.1039 19.328 23.0559 20.224 24.5279 21.024C25.9999 21.824 27.2479 22.912 28.2719 24.288C29.3279 25.664 29.8559 27.36 29.8559 29.376C29.8559 33.152 28.4159 36.064 25.5359 38.112C22.6879 40.128 18.8639 41.136 14.0639 41.136ZM69.5268 26.16C69.6228 26.128 69.7828 26.112 70.0068 26.112C70.4868 26.112 70.8548 26.272 71.1108 26.592C71.3668 26.912 71.4948 27.344 71.4948 27.888C71.4948 28.88 71.3028 29.664 70.9188 30.24C70.5348 30.784 69.9588 31.184 69.1908 31.44C67.7188 31.92 66.1508 32.16 64.4868 32.16C63.0788 32.16 61.7508 31.968 60.5028 31.584C59.5748 33.088 58.5508 34.64 57.4308 36.24C56.1508 38.064 55.0468 39.312 54.1188 39.984C53.2228 40.656 52.1988 40.992 51.0468 40.992C49.7668 40.992 48.7908 40.496 48.1188 39.504C47.4788 38.512 47.0788 36.88 46.9188 34.608L46.6788 31.104C45.6868 33.792 44.7908 35.84 43.9908 37.248C43.2228 38.656 42.4388 39.632 41.6388 40.176C40.8708 40.72 39.9588 40.992 38.9028 40.992C37.5908 40.992 36.5508 40.48 35.7828 39.456C35.0468 38.432 34.5828 36.816 34.3908 34.608C34.0068 30.128 33.8148 26.208 33.8148 22.848V21.168C33.8468 20.112 34.1348 19.376 34.6788 18.96C35.2228 18.544 36.0388 18.336 37.1268 18.336C37.9588 18.336 38.5668 18.528 38.9508 18.912C39.3668 19.264 39.5748 19.872 39.5748 20.736C39.5748 24.416 39.7988 29.2 40.2468 35.088C42.4228 30.512 44.4228 25.744 46.2468 20.784C46.5988 19.824 47.0148 19.184 47.4948 18.864C48.0068 18.512 48.6148 18.336 49.3188 18.336C50.1828 18.336 50.7748 18.512 51.0948 18.864C51.4468 19.216 51.6228 19.84 51.6228 20.736C51.6228 24.416 51.8468 29.2 52.2948 35.088C54.2148 32.24 55.6548 29.968 56.6148 28.272C56.1348 27.344 55.8948 26.24 55.8948 24.96C55.8948 23.872 56.1348 22.816 56.6148 21.792C57.0948 20.768 57.7508 19.936 58.5828 19.296C59.4148 18.656 60.3588 18.336 61.4148 18.336C62.3428 18.336 63.0948 18.672 63.6708 19.344C64.2468 19.984 64.5348 20.928 64.5348 22.176C64.5348 23.616 64.1508 25.264 63.3828 27.12C64.5988 27.056 66.2148 26.816 68.2308 26.4L69.5268 26.16ZM73.2322 40.992C71.2482 40.992 69.6642 40.272 68.4802 38.832C67.2962 37.392 66.7042 35.504 66.7042 33.168C66.7042 30.608 67.2962 28.192 68.4802 25.92C69.6642 23.616 71.2322 21.776 73.1842 20.4C75.1682 18.992 77.2642 18.288 79.4722 18.288C80.1762 18.288 80.6402 18.432 80.8642 18.72C81.1202 18.976 81.3282 19.456 81.4882 20.16C82.1602 20.032 82.8642 19.968 83.6002 19.968C85.1682 19.968 85.9522 20.528 85.9522 21.648C85.9522 22.32 85.7122 23.92 85.2322 26.448C84.4962 30.128 84.1282 32.688 84.1282 34.128C84.1282 34.608 84.2402 34.992 84.4642 35.28C84.7202 35.568 85.0402 35.712 85.4242 35.712C86.0322 35.712 86.7682 35.328 87.6322 34.56C88.4962 33.76 89.6642 32.48 91.1362 30.72C91.5202 30.272 91.9522 30.048 92.4322 30.048C92.8482 30.048 93.1682 30.24 93.3922 30.624C93.6482 31.008 93.7762 31.536 93.7762 32.208C93.7762 33.488 93.4722 34.48 92.8642 35.184C91.5522 36.816 90.1602 38.192 88.6882 39.312C87.2162 40.432 85.7922 40.992 84.4162 40.992C83.3602 40.992 82.3842 40.64 81.4882 39.936C80.6242 39.2 79.9682 38.208 79.5202 36.96C77.8562 39.648 75.7602 40.992 73.2322 40.992ZM74.9602 36.144C75.6642 36.144 76.3362 35.728 76.9762 34.896C77.6162 34.064 78.0802 32.96 78.3682 31.584L80.1442 22.752C78.8002 22.784 77.5522 23.296 76.4002 24.288C75.2802 25.248 74.3842 26.528 73.7122 28.128C73.0402 29.728 72.7042 31.424 72.7042 33.216C72.7042 34.208 72.8962 34.944 73.2802 35.424C73.6962 35.904 74.2562 36.144 74.9602 36.144ZM115.507 30.048C115.923 30.048 116.243 30.24 116.467 30.624C116.723 31.008 116.851 31.536 116.851 32.208C116.851 33.488 116.547 34.48 115.939 35.184C114.563 36.88 113.075 38.272 111.475 39.36C109.907 40.448 108.115 40.992 106.099 40.992C104.403 40.992 103.027 40.384 101.971 39.168C100.147 40.352 98.243 40.96 96.259 40.992C95.843 47.168 94.899 52.32 93.427 56.448C91.955 60.608 89.795 62.688 86.947 62.688C85.219 62.688 83.939 62.064 83.107 60.816C82.275 59.568 81.859 57.84 81.859 55.632C81.859 52.496 82.579 48.832 84.019 44.64C85.459 40.48 87.683 35.888 90.691 30.864C90.691 26.192 90.659 22.944 90.595 21.12C90.563 20.192 90.931 19.456 91.699 18.912C92.467 18.368 93.427 18.096 94.579 18.096C95.251 18.096 95.731 18.24 96.019 18.528C96.339 18.784 96.515 19.312 96.547 20.112C96.547 20.912 96.563 21.504 96.595 21.888C97.619 20.608 98.627 19.696 99.619 19.152C100.611 18.576 101.667 18.288 102.787 18.288C104.579 18.288 106.035 19.008 107.155 20.448C108.307 21.888 108.883 23.776 108.883 26.112C108.883 27.808 108.611 29.456 108.067 31.056C107.523 32.656 106.771 34.112 105.811 35.424C106.483 35.616 107.043 35.712 107.491 35.712C108.547 35.712 109.555 35.328 110.515 34.56C111.475 33.792 112.707 32.512 114.211 30.72C114.595 30.272 115.027 30.048 115.507 30.048ZM96.499 36.384C97.651 36.128 98.707 35.504 99.667 34.512C100.659 33.488 101.443 32.24 102.019 30.768C102.595 29.264 102.883 27.696 102.883 26.064C102.883 25.104 102.691 24.384 102.307 23.904C101.923 23.392 101.411 23.136 100.771 23.136C99.619 23.136 98.227 24.352 96.595 26.784C96.563 28.192 96.547 30.256 96.547 32.976C96.547 34.448 96.531 35.584 96.499 36.384ZM87.331 57.984C88.195 57.984 88.915 56.096 89.491 52.32C90.067 48.576 90.435 43.904 90.595 38.304C89.219 41.504 88.131 44.56 87.331 47.472C86.531 50.384 86.131 52.832 86.131 54.816C86.131 55.84 86.259 56.624 86.515 57.168C86.739 57.712 87.011 57.984 87.331 57.984ZM119.272 15.216C117.928 15.216 116.92 14.912 116.248 14.304C115.576 13.664 115.24 12.784 115.24 11.664C115.24 10.544 115.672 9.61601 116.536 8.88001C117.432 8.11201 118.536 7.72801 119.848 7.72801C121.032 7.72801 121.992 8.01601 122.728 8.59201C123.464 9.16801 123.832 9.98401 123.832 11.04C123.832 12.32 123.416 13.344 122.584 14.112C121.752 14.848 120.648 15.216 119.272 15.216ZM118.888 40.992C116.808 40.992 115.288 40.256 114.328 38.784C113.4 37.312 112.936 35.36 112.936 32.928C112.936 31.488 113.112 29.648 113.464 27.408C113.848 25.136 114.328 23.024 114.904 21.072C115.192 20.048 115.576 19.344 116.056 18.96C116.536 18.576 117.304 18.384 118.36 18.384C119.992 18.384 120.808 18.928 120.808 20.016C120.808 20.816 120.504 22.672 119.896 25.584C119.128 29.104 118.744 31.488 118.744 32.736C118.744 33.696 118.872 34.432 119.128 34.944C119.384 35.456 119.816 35.712 120.424 35.712C121 35.712 121.72 35.312 122.584 34.512C123.448 33.712 124.6 32.448 126.04 30.72C126.424 30.272 126.856 30.048 127.336 30.048C127.752 30.048 128.072 30.24 128.296 30.624C128.552 31.008 128.68 31.536 128.68 32.208C128.68 33.488 128.376 34.48 127.768 35.184C124.6 39.056 121.64 40.992 118.888 40.992ZM141.981 31.488C142.397 31.488 142.717 31.68 142.941 32.064C143.197 32.448 143.325 32.976 143.325 33.648C143.325 34.8 143.053 35.792 142.509 36.624C141.613 38 140.429 39.072 138.957 39.84C137.517 40.608 135.789 40.992 133.773 40.992C130.701 40.992 128.317 40.08 126.621 38.256C124.925 36.4 124.077 33.904 124.077 30.768C124.077 28.56 124.541 26.512 125.469 24.624C126.397 22.704 127.677 21.184 129.309 20.064C130.973 18.944 132.845 18.384 134.925 18.384C136.781 18.384 138.269 18.944 139.389 20.064C140.509 21.152 141.069 22.64 141.069 24.528C141.069 26.736 140.269 28.64 138.669 30.24C137.101 31.808 134.413 33.056 130.605 33.984C131.373 35.456 132.669 36.192 134.493 36.192C135.805 36.192 136.877 35.888 137.709 35.28C138.573 34.672 139.565 33.648 140.685 32.208C141.069 31.728 141.501 31.488 141.981 31.488ZM134.109 23.088C132.925 23.088 131.917 23.776 131.085 25.152C130.285 26.528 129.885 28.192 129.885 30.144V30.24C131.773 29.792 133.261 29.12 134.349 28.224C135.437 27.328 135.981 26.288 135.981 25.104C135.981 24.496 135.805 24.016 135.453 23.664C135.133 23.28 134.685 23.088 134.109 23.088Z" fill="#1C3F3A"/>
</svg>
