<svg width="56" height="75" viewBox="0 0 56 75" fill="none" xmlns="http://www.w3.org/2000/svg">
<ellipse cx="27.7844" cy="37.0957" rx="27.7844" ry="37.0957" fill="#DCFAF8"/>
<path d="M28.2906 34.2347C28.7918 34.2347 29.2011 34.7798 29.2011 35.449C29.2011 36.0596 29.5729 36.5545 30.0302 36.5545C30.4865 36.5545 30.8583 36.0596 30.8583 35.449C30.8583 33.9489 30.1263 32.683 29.1186 32.2201V31.5928C29.1186 30.9835 28.7479 30.4858 28.2906 30.4858C27.8322 30.4858 27.4615 30.9835 27.4615 31.5928V32.2201C26.4538 32.683 25.7239 33.9489 25.7239 35.449C25.7239 37.3408 26.8746 38.8772 28.2906 38.8772C28.7918 38.8772 29.2011 39.4237 29.2011 40.0929C29.2011 40.7635 28.7918 41.3086 28.2906 41.3086C27.7894 41.3086 27.3811 40.7635 27.3811 40.0929C27.3811 39.4822 27.0093 38.9859 26.552 38.9859C26.0936 38.9859 25.7239 39.4822 25.7239 40.0929C25.7239 41.593 26.4538 42.8575 27.4615 43.3203V43.9477C27.4615 44.5597 27.8322 45.056 28.2906 45.056C28.7479 45.056 29.1186 44.5597 29.1186 43.9477V43.3203C30.1263 42.8575 30.8583 41.593 30.8583 40.0929C30.8583 38.2024 29.7065 36.6647 28.2906 36.6647C27.7894 36.6647 27.3811 36.1196 27.3811 35.449C27.3811 34.7798 27.7894 34.2347 28.2906 34.2347ZM35.2335 43.9142C35.6397 44.2 36.1399 43.9923 36.3529 43.4542C37.0421 41.7157 37.4054 39.7499 37.4054 37.7702C37.4054 31.0616 33.3153 25.6021 28.2906 25.6021C23.2648 25.6021 19.1757 31.0616 19.1757 37.7702C19.1757 44.4803 23.2648 49.9397 28.2906 49.9397C29.7514 49.9397 31.2029 49.4685 32.4883 48.5749C32.8945 48.2946 33.0522 47.6241 32.8412 47.0831C32.6303 46.5436 32.1301 46.3289 31.7229 46.6119C30.6588 47.3536 29.5029 47.7286 28.2906 47.7286C24.1785 47.7286 20.8318 43.2618 20.8318 37.7702C20.8318 32.2815 24.1785 27.8132 28.2906 27.8132C32.4027 27.8132 35.7493 32.2815 35.7493 37.7702C35.7493 39.3916 35.4507 40.9991 34.8889 42.4183C34.6738 42.9592 34.8283 43.6284 35.2335 43.9142ZM28.2906 21.1743C25.8899 21.1743 23.5593 22.0917 21.5513 23.8246C21.166 24.1564 21.0563 24.8409 21.3048 25.354C21.5544 25.867 22.065 26.012 22.4514 25.683C24.1889 24.1829 26.2105 23.3882 28.2906 23.3882C34.2311 23.3882 39.0626 29.8403 39.0626 37.7702C39.0626 45.7015 34.2311 52.1536 28.2906 52.1536C22.3501 52.1536 17.5175 45.7015 17.5175 37.7702C17.5175 35.0196 18.1012 32.3442 19.207 30.0369C19.4535 29.5211 19.3407 28.8365 18.9543 28.5075C18.569 28.1785 18.0563 28.3291 17.8109 28.8435C16.5349 31.5077 15.8604 34.5972 15.8604 37.7702C15.8604 46.9228 21.4354 54.3662 28.2906 54.3662C35.1447 54.3662 40.7208 46.9228 40.7208 37.7702C40.7208 28.6205 35.1447 21.1743 28.2906 21.1743Z" fill="#1C3F3A" fill-opacity="0.6"/>
</svg>
