<svg width="48" height="48" viewBox="0 0 48 48" fill="none" xmlns="http://www.w3.org/2000/svg">
<path d="M0 10C0 4.47715 4.47715 0 10 0H38C43.5229 0 48 4.47715 48 10V38C48 43.5229 43.5228 48 38 48H10C4.47715 48 0 43.5228 0 38V10Z" fill="#F0FDF4"/>
<path d="M24 14V34" stroke="#00A63E" stroke-width="2" stroke-linecap="round" stroke-linejoin="round"/>
<path d="M29 17H21.5C20.5717 17 19.6815 17.3687 19.0251 18.0251C18.3687 18.6815 18 19.5717 18 20.5C18 21.4283 18.3687 22.3185 19.0251 22.9749C19.6815 23.6313 20.5717 24 21.5 24H26.5C27.4283 24 28.3185 24.3687 28.9749 25.0251C29.6313 25.6815 30 26.5717 30 27.5C30 28.4283 29.6313 29.3185 28.9749 29.9749C28.3185 30.6313 27.4283 31 26.5 31H18" stroke="#00A63E" stroke-width="2" stroke-linecap="round" stroke-linejoin="round"/>
</svg>
