<svg width="48" height="48" viewBox="0 0 48 48" fill="none" xmlns="http://www.w3.org/2000/svg">
<path d="M0 10C0 4.47715 4.47715 0 10 0H38C43.5229 0 48 4.47715 48 10V38C48 43.5229 43.5228 48 38 48H10C4.47715 48 0 43.5228 0 38V10Z" fill="#FFF7ED"/>
<path d="M33.7301 30.0002L25.7301 16.0002C25.5556 15.6924 25.3027 15.4364 24.997 15.2583C24.6913 15.0802 24.3438 14.9863 23.9901 14.9863C23.6363 14.9863 23.2888 15.0802 22.9831 15.2583C22.6774 15.4364 22.4245 15.6924 22.2501 16.0002L14.2501 30.0002C14.0737 30.3056 13.9813 30.6521 13.9821 31.0047C13.9828 31.3573 14.0768 31.7035 14.2545 32.008C14.4322 32.3126 14.6872 32.5648 14.9937 32.7391C15.3003 32.9133 15.6475 33.0034 16.0001 33.0002H32.0001C32.351 32.9999 32.6956 32.9072 32.9993 32.7315C33.3031 32.5558 33.5553 32.3033 33.7306 31.9993C33.9059 31.6954 33.9981 31.3506 33.998 30.9997C33.9979 30.6488 33.9055 30.3041 33.7301 30.0002Z" stroke="#F54900" stroke-width="2" stroke-linecap="round" stroke-linejoin="round"/>
<path d="M24 21V25" stroke="#F54900" stroke-width="2" stroke-linecap="round" stroke-linejoin="round"/>
<path d="M24 29H24.01" stroke="#F54900" stroke-width="2" stroke-linecap="round" stroke-linejoin="round"/>
</svg>
