<svg width="49" height="48" viewBox="0 0 49 48" fill="none" xmlns="http://www.w3.org/2000/svg">
<path d="M0 10C0 4.47715 4.47715 0 10 0H39C44.5228 0 49 4.47715 49 10V38C49 43.5228 44.5228 48 39 48H10C4.47715 48 0 43.5228 0 38V10Z" fill="#E8DCC4" fill-opacity="0.3"/>
<path d="M20.3333 26C23.7851 26 26.5833 23.3137 26.5833 20C26.5833 16.6863 23.7851 14 20.3333 14C16.8815 14 14.0833 16.6863 14.0833 20C14.0833 23.3137 16.8815 26 20.3333 26Z" stroke="#5D7872" stroke-width="2" stroke-linecap="round" stroke-linejoin="round"/>
<path d="M30.8437 22.3701C31.8284 22.7225 32.7047 23.3076 33.3914 24.0713C34.0781 24.835 34.5532 25.7526 34.7726 26.7392C34.9921 27.7258 34.9488 28.7496 34.6469 29.716C34.345 30.6823 33.7941 31.5599 33.0452 32.2677C32.2963 32.9755 31.3736 33.4906 30.3625 33.7653C29.3513 34.0401 28.2843 34.0656 27.2601 33.8396C26.2359 33.6135 25.2876 33.1432 24.5029 32.4721C23.7183 31.801 23.1225 30.9508 22.7708 30.0001" stroke="#5D7872" stroke-width="2" stroke-linecap="round" stroke-linejoin="round"/>
<path d="M19.2917 18H20.3334V22" stroke="#5D7872" stroke-width="2" stroke-linecap="round" stroke-linejoin="round"/>
<path d="M29.4063 25.8799L30.1354 26.5899L27.1979 29.4099" stroke="#5D7872" stroke-width="2" stroke-linecap="round" stroke-linejoin="round"/>
</svg>
