<svg width="321" height="376" viewBox="0 0 321 376" fill="none" xmlns="http://www.w3.org/2000/svg">
<path d="M133.122 45.288C129.93 45.288 127.374 44.688 125.454 43.488C123.534 42.264 122.574 40.404 122.574 37.908C122.574 36.588 122.802 35.58 123.258 34.884C123.714 34.188 124.386 33.84 125.274 33.84C125.922 33.84 126.45 34.008 126.858 34.344C127.266 34.68 127.47 35.112 127.47 35.64C127.47 36.12 127.434 36.54 127.362 36.9C127.362 36.996 127.338 37.164 127.29 37.404C127.266 37.644 127.254 37.896 127.254 38.16C127.254 39.24 127.794 40.044 128.874 40.572C129.978 41.1 131.514 41.364 133.482 41.364C135.522 41.364 137.118 41.004 138.27 40.284C139.422 39.54 139.998 38.508 139.998 37.188C139.998 36.372 139.734 35.676 139.206 35.1C138.678 34.5 138.018 34.008 137.226 33.624C136.434 33.216 135.318 32.724 133.878 32.148C132.03 31.428 130.518 30.744 129.342 30.096C128.19 29.448 127.194 28.572 126.354 27.468C125.538 26.34 125.13 24.948 125.13 23.292C125.13 21.564 125.586 20.028 126.498 18.684C127.434 17.34 128.766 16.296 130.494 15.552C132.246 14.808 134.298 14.436 136.65 14.436C138.402 14.436 140.01 14.7 141.474 15.228C142.938 15.732 144.102 16.512 144.966 17.568C145.854 18.624 146.298 19.92 146.298 21.456C146.298 22.968 146.07 24.108 145.614 24.876C145.158 25.644 144.486 26.028 143.598 26.028C142.974 26.028 142.446 25.836 142.014 25.452C141.606 25.068 141.402 24.612 141.402 24.084C141.402 23.628 141.438 23.208 141.51 22.824C141.582 22.104 141.618 21.648 141.618 21.456C141.618 20.448 141.126 19.68 140.142 19.152C139.158 18.624 137.934 18.36 136.47 18.36C134.406 18.36 132.822 18.744 131.718 19.512C130.638 20.256 130.098 21.312 130.098 22.68C130.098 23.592 130.374 24.372 130.926 25.02C131.502 25.668 132.21 26.208 133.05 26.64C133.89 27.072 135.066 27.588 136.578 28.188C138.402 28.932 139.866 29.604 140.97 30.204C142.074 30.804 143.01 31.62 143.778 32.652C144.57 33.684 144.966 34.956 144.966 36.468C144.966 39.3 143.886 41.484 141.726 43.02C139.59 44.532 136.722 45.288 133.122 45.288ZM174.719 34.056C174.791 34.032 174.911 34.02 175.079 34.02C175.439 34.02 175.715 34.14 175.907 34.38C176.099 34.62 176.195 34.944 176.195 35.352C176.195 36.096 176.051 36.684 175.763 37.116C175.475 37.524 175.043 37.824 174.467 38.016C173.363 38.376 172.187 38.556 170.939 38.556C169.883 38.556 168.887 38.412 167.951 38.124C167.255 39.252 166.487 40.416 165.647 41.616C164.687 42.984 163.859 43.92 163.163 44.424C162.491 44.928 161.723 45.18 160.859 45.18C159.899 45.18 159.167 44.808 158.663 44.064C158.183 43.32 157.883 42.096 157.763 40.392L157.583 37.764C156.839 39.78 156.167 41.316 155.567 42.372C154.991 43.428 154.403 44.16 153.803 44.568C153.227 44.976 152.543 45.18 151.751 45.18C150.767 45.18 149.987 44.796 149.411 44.028C148.859 43.26 148.511 42.048 148.367 40.392C148.079 37.032 147.935 34.092 147.935 31.572V30.312C147.959 29.52 148.175 28.968 148.583 28.656C148.991 28.344 149.603 28.188 150.419 28.188C151.043 28.188 151.499 28.332 151.787 28.62C152.099 28.884 152.255 29.34 152.255 29.988C152.255 32.748 152.423 36.336 152.759 40.752C154.391 37.32 155.891 33.744 157.259 30.024C157.523 29.304 157.835 28.824 158.195 28.584C158.579 28.32 159.035 28.188 159.563 28.188C160.211 28.188 160.655 28.32 160.895 28.584C161.159 28.848 161.291 29.316 161.291 29.988C161.291 32.748 161.459 36.336 161.795 40.752C163.235 38.616 164.315 36.912 165.035 35.64C164.675 34.944 164.495 34.116 164.495 33.156C164.495 32.34 164.675 31.548 165.035 30.78C165.395 30.012 165.887 29.388 166.511 28.908C167.135 28.428 167.843 28.188 168.635 28.188C169.331 28.188 169.895 28.44 170.327 28.944C170.759 29.424 170.975 30.132 170.975 31.068C170.975 32.148 170.687 33.384 170.111 34.776C171.023 34.728 172.235 34.548 173.747 34.236L174.719 34.056ZM177.498 45.18C176.01 45.18 174.822 44.64 173.934 43.56C173.046 42.48 172.602 41.064 172.602 39.312C172.602 37.392 173.046 35.58 173.934 33.876C174.822 32.148 175.998 30.768 177.462 29.736C178.95 28.68 180.522 28.152 182.178 28.152C182.706 28.152 183.054 28.26 183.222 28.476C183.414 28.668 183.57 29.028 183.69 29.556C184.194 29.46 184.722 29.412 185.274 29.412C186.45 29.412 187.038 29.832 187.038 30.672C187.038 31.176 186.858 32.376 186.498 34.272C185.946 37.032 185.67 38.952 185.67 40.032C185.67 40.392 185.754 40.68 185.922 40.896C186.114 41.112 186.354 41.22 186.642 41.22C187.098 41.22 187.65 40.932 188.298 40.356C188.946 39.756 189.822 38.796 190.926 37.476C191.214 37.14 191.538 36.972 191.898 36.972C192.21 36.972 192.45 37.116 192.618 37.404C192.81 37.692 192.906 38.088 192.906 38.592C192.906 39.552 192.678 40.296 192.222 40.824C191.238 42.048 190.194 43.08 189.09 43.92C187.986 44.76 186.918 45.18 185.886 45.18C185.094 45.18 184.362 44.916 183.69 44.388C183.042 43.836 182.55 43.092 182.214 42.156C180.966 44.172 179.394 45.18 177.498 45.18ZM178.794 41.544C179.322 41.544 179.826 41.232 180.306 40.608C180.786 39.984 181.134 39.156 181.35 38.124L182.682 31.5C181.674 31.524 180.738 31.908 179.874 32.652C179.034 33.372 178.362 34.332 177.858 35.532C177.354 36.732 177.102 38.004 177.102 39.348C177.102 40.092 177.246 40.644 177.534 41.004C177.846 41.364 178.266 41.544 178.794 41.544ZM209.204 36.972C209.516 36.972 209.756 37.116 209.924 37.404C210.116 37.692 210.212 38.088 210.212 38.592C210.212 39.552 209.984 40.296 209.528 40.824C208.496 42.096 207.38 43.14 206.18 43.956C205.004 44.772 203.66 45.18 202.148 45.18C200.876 45.18 199.844 44.724 199.052 43.812C197.684 44.7 196.256 45.156 194.768 45.18C194.456 49.812 193.748 53.676 192.644 56.772C191.54 59.892 189.92 61.452 187.784 61.452C186.488 61.452 185.528 60.984 184.904 60.048C184.28 59.112 183.968 57.816 183.968 56.16C183.968 53.808 184.508 51.06 185.588 47.916C186.668 44.796 188.336 41.352 190.592 37.584C190.592 34.08 190.568 31.644 190.52 30.276C190.496 29.58 190.772 29.028 191.348 28.62C191.924 28.212 192.644 28.008 193.508 28.008C194.012 28.008 194.372 28.116 194.588 28.332C194.828 28.524 194.96 28.92 194.984 29.52C194.984 30.12 194.996 30.564 195.02 30.852C195.788 29.892 196.544 29.208 197.288 28.8C198.032 28.368 198.824 28.152 199.664 28.152C201.008 28.152 202.1 28.692 202.94 29.772C203.804 30.852 204.236 32.268 204.236 34.02C204.236 35.292 204.032 36.528 203.624 37.728C203.216 38.928 202.652 40.02 201.932 41.004C202.436 41.148 202.856 41.22 203.192 41.22C203.984 41.22 204.74 40.932 205.46 40.356C206.18 39.78 207.104 38.82 208.232 37.476C208.52 37.14 208.844 36.972 209.204 36.972ZM194.948 41.724C195.812 41.532 196.604 41.064 197.324 40.32C198.068 39.552 198.656 38.616 199.088 37.512C199.52 36.384 199.736 35.208 199.736 33.984C199.736 33.264 199.592 32.724 199.304 32.364C199.016 31.98 198.632 31.788 198.152 31.788C197.288 31.788 196.244 32.7 195.02 34.524C194.996 35.58 194.984 37.128 194.984 39.168C194.984 40.272 194.972 41.124 194.948 41.724ZM188.072 57.924C188.72 57.924 189.26 56.508 189.692 53.676C190.124 50.868 190.4 47.364 190.52 43.164C189.488 45.564 188.672 47.856 188.072 50.04C187.472 52.224 187.172 54.06 187.172 55.548C187.172 56.316 187.268 56.904 187.46 57.312C187.628 57.72 187.832 57.924 188.072 57.924ZM212.028 25.848C211.02 25.848 210.264 25.62 209.76 25.164C209.256 24.684 209.004 24.024 209.004 23.184C209.004 22.344 209.328 21.648 209.976 21.096C210.648 20.52 211.476 20.232 212.46 20.232C213.348 20.232 214.068 20.448 214.62 20.88C215.172 21.312 215.448 21.924 215.448 22.716C215.448 23.676 215.136 24.444 214.512 25.02C213.888 25.572 213.06 25.848 212.028 25.848ZM211.74 45.18C210.18 45.18 209.04 44.628 208.32 43.524C207.624 42.42 207.276 40.956 207.276 39.132C207.276 38.052 207.408 36.672 207.672 34.992C207.96 33.288 208.32 31.704 208.752 30.24C208.968 29.472 209.256 28.944 209.616 28.656C209.976 28.368 210.552 28.224 211.344 28.224C212.568 28.224 213.18 28.632 213.18 29.448C213.18 30.048 212.952 31.44 212.496 33.624C211.92 36.264 211.632 38.052 211.632 38.988C211.632 39.708 211.728 40.26 211.92 40.644C212.112 41.028 212.436 41.22 212.892 41.22C213.324 41.22 213.864 40.92 214.512 40.32C215.16 39.72 216.024 38.772 217.104 37.476C217.392 37.14 217.716 36.972 218.076 36.972C218.388 36.972 218.628 37.116 218.796 37.404C218.988 37.692 219.084 38.088 219.084 38.592C219.084 39.552 218.856 40.296 218.4 40.824C216.024 43.728 213.804 45.18 211.74 45.18ZM229.06 38.052C229.372 38.052 229.612 38.196 229.78 38.484C229.972 38.772 230.068 39.168 230.068 39.672C230.068 40.536 229.864 41.28 229.456 41.904C228.784 42.936 227.896 43.74 226.792 44.316C225.712 44.892 224.416 45.18 222.904 45.18C220.6 45.18 218.812 44.496 217.54 43.128C216.268 41.736 215.632 39.864 215.632 37.512C215.632 35.856 215.98 34.32 216.676 32.904C217.372 31.464 218.332 30.324 219.556 29.484C220.804 28.644 222.208 28.224 223.768 28.224C225.16 28.224 226.276 28.644 227.116 29.484C227.956 30.3 228.376 31.416 228.376 32.832C228.376 34.488 227.776 35.916 226.576 37.116C225.4 38.292 223.384 39.228 220.528 39.924C221.104 41.028 222.076 41.58 223.444 41.58C224.428 41.58 225.232 41.352 225.856 40.896C226.504 40.44 227.248 39.672 228.088 38.592C228.376 38.232 228.7 38.052 229.06 38.052ZM223.156 31.752C222.268 31.752 221.512 32.268 220.888 33.3C220.288 34.332 219.988 35.58 219.988 37.044V37.116C221.404 36.78 222.52 36.276 223.336 35.604C224.152 34.932 224.56 34.152 224.56 33.264C224.56 32.808 224.428 32.448 224.164 32.184C223.924 31.896 223.588 31.752 223.156 31.752Z" fill="#D5D0C1"/>
<path d="M53 8C53 3.58172 56.5817 0 61 0H105C109.418 0 113 3.58172 113 8V52C113 56.4183 109.418 60 105 60H61C56.5817 60 53 56.4183 53 52V8Z" fill="url(#paint0_linear_181_1696)"/>
<path d="M77 14.4C77 12 78.2 10.8 80.6 10.8H87.8C90.2 10.8 91.4 12 91.4 14.4C91.4 16 90.6 17.2 89 18L80.6 21.6C78.2 22.72 77 24.32 77 26.4V28.8" stroke="#D5D0C1" stroke-width="2.88" stroke-linecap="round" stroke-linejoin="round"/>
<path d="M90.4401 27.6H75.5601C75.0299 27.6 74.6001 28.0298 74.6001 28.56V30.24C74.6001 30.7702 75.0299 31.2 75.5601 31.2H90.4401C90.9703 31.2 91.4001 30.7702 91.4001 30.24V28.56C91.4001 28.0298 90.9703 27.6 90.4401 27.6Z" fill="#D5D0C1"/>
<path d="M89 45.6C89 48 87.8 49.2 85.4 49.2H78.2C75.8 49.2 74.6 48 74.6 45.6C74.6 44 75.4 42.8 77 42L85.4 38.4C87.8 37.28 89 35.68 89 33.6V31.2" stroke="#D5D0C1" stroke-width="2.88" stroke-linecap="round" stroke-linejoin="round"/>
<path d="M75.5599 32.4H90.4399C90.9701 32.4 91.3999 31.9702 91.3999 31.44V29.76C91.3999 29.2298 90.9701 28.8 90.4399 28.8H75.5599C75.0297 28.8 74.5999 29.2298 74.5999 29.76V31.44C74.5999 31.9702 75.0297 32.4 75.5599 32.4Z" fill="#D5D0C1"/>
<path d="M16.0105 356.671L14.4968 361.905H15.7371C16.6225 361.905 17.2638 361.772 17.6609 361.505C18.058 361.231 18.3998 360.73 18.6863 360.001H19.0476L17.6902 364.805H17.2996C17.4167 364.402 17.4753 364.057 17.4753 363.77C17.4753 363.49 17.4167 363.266 17.2996 363.096C17.1889 362.927 17.0326 362.803 16.8308 362.725C16.6355 362.641 16.2188 362.598 15.5808 362.598H14.321L13.0417 366.983C12.9181 367.406 12.8562 367.729 12.8562 367.95C12.8562 368.119 12.9376 368.269 13.1003 368.399C13.211 368.49 13.4877 368.536 13.9304 368.536H15.1023C16.3718 368.536 17.3875 368.311 18.1492 367.862C18.9174 367.413 19.6042 366.632 20.2097 365.518H20.571L19.321 369.2H9.08667L9.21362 368.839C9.72144 368.826 10.0632 368.78 10.239 368.702C10.4994 368.585 10.6882 368.435 10.8054 368.253C10.9812 367.986 11.1895 367.426 11.4304 366.573L13.7546 358.585C13.9369 357.94 14.0281 357.449 14.0281 357.11C14.0281 356.863 13.9402 356.671 13.7644 356.534C13.5951 356.391 13.2598 356.319 12.7585 356.319H12.5535L12.6707 355.958H22.1824L21.3621 359.151H21.0007C21.0463 358.852 21.0691 358.601 21.0691 358.399C21.0691 358.054 20.9845 357.764 20.8152 357.53C20.5938 357.231 20.2716 357.003 19.8484 356.846C19.5359 356.729 18.8165 356.671 17.6902 356.671H16.0105ZM25.2292 360.362C25.5483 360.701 25.7891 361.039 25.9519 361.378C26.0691 361.612 26.2611 362.227 26.5281 363.223L27.3875 361.934C27.6153 361.622 27.892 361.326 28.2175 361.046C28.5431 360.759 28.8295 360.564 29.0769 360.46C29.2332 360.395 29.4057 360.362 29.5945 360.362C29.8744 360.362 30.0958 360.437 30.2585 360.587C30.4278 360.736 30.5125 360.919 30.5125 361.134C30.5125 361.381 30.4636 361.55 30.366 361.641C30.1837 361.804 29.9753 361.885 29.741 361.885C29.6042 361.885 29.4578 361.856 29.3015 361.798C28.9955 361.693 28.7904 361.641 28.6863 361.641C28.53 361.641 28.3445 361.733 28.1296 361.915C27.726 362.253 27.2442 362.908 26.6843 363.878L27.4851 367.237C27.6088 367.751 27.713 368.061 27.7976 368.165C27.8822 368.262 27.9669 368.311 28.0515 368.311C28.1882 368.311 28.3477 368.236 28.53 368.087C28.8881 367.787 29.1941 367.397 29.448 366.915L29.7898 367.091C29.3796 367.859 28.8588 368.497 28.2273 369.005C27.8692 369.291 27.5665 369.434 27.3191 369.434C26.9545 369.434 26.6648 369.229 26.45 368.819C26.3132 368.565 26.03 367.471 25.6003 365.538C24.5847 367.302 23.7709 368.438 23.1589 368.946C22.7618 369.272 22.3777 369.434 22.0066 369.434C21.7462 369.434 21.5085 369.34 21.2937 369.151C21.1375 369.008 21.0593 368.816 21.0593 368.575C21.0593 368.36 21.1309 368.181 21.2742 368.038C21.4174 367.895 21.5932 367.823 21.8015 367.823C22.0098 367.823 22.2312 367.927 22.4656 368.135C22.6348 368.285 22.7651 368.36 22.8562 368.36C22.9343 368.36 23.0352 368.308 23.1589 368.204C23.4649 367.956 23.8816 367.423 24.4089 366.602C24.9363 365.782 25.2813 365.19 25.4441 364.825C25.0404 363.243 24.8223 362.406 24.7898 362.315C24.6401 361.892 24.4447 361.593 24.2039 361.417C23.963 361.241 23.6082 361.153 23.1394 361.153C22.9897 361.153 22.8171 361.16 22.6218 361.173V360.821L25.2292 360.362ZM38.3738 367.071C37.6967 367.885 37.0131 368.484 36.323 368.868C35.6329 369.246 34.9037 369.434 34.1355 369.434C33.211 369.434 32.4884 369.174 31.9675 368.653C31.4532 368.132 31.196 367.432 31.196 366.553C31.196 365.557 31.4727 364.578 32.0261 363.614C32.586 362.65 33.3347 361.869 34.2722 361.27C35.2162 360.665 36.1407 360.362 37.0457 360.362C37.7553 360.362 38.2859 360.512 38.6375 360.811C38.989 361.104 39.1648 361.466 39.1648 361.895C39.1648 362.299 39.0411 362.644 38.7937 362.93C38.6114 363.152 38.3868 363.262 38.1199 363.262C37.9181 363.262 37.7488 363.197 37.6121 363.067C37.4819 362.937 37.4167 362.774 37.4167 362.579C37.4167 362.455 37.4395 362.341 37.4851 362.237C37.5372 362.133 37.6381 362.009 37.7878 361.866C37.9441 361.716 38.0385 361.609 38.071 361.544C38.1036 361.479 38.1199 361.41 38.1199 361.339C38.1199 361.202 38.058 361.088 37.9343 360.997C37.7455 360.867 37.4786 360.802 37.1335 360.802C36.4955 360.802 35.864 361.026 35.239 361.475C34.614 361.925 34.0802 362.563 33.6375 363.389C33.1036 364.392 32.8367 365.395 32.8367 366.397C32.8367 367.061 33.0255 367.589 33.4031 367.979C33.7807 368.363 34.295 368.555 34.946 368.555C35.4473 368.555 35.9421 368.432 36.4304 368.184C36.9252 367.93 37.4786 367.475 38.0906 366.817L38.3738 367.071ZM45.405 355.313L42.6609 364.796C43.8458 363.012 44.7703 361.827 45.4343 361.241C46.0984 360.655 46.7332 360.362 47.3386 360.362C47.6511 360.362 47.9115 360.469 48.1199 360.684C48.3282 360.899 48.4324 361.186 48.4324 361.544C48.4324 361.973 48.3412 362.494 48.1589 363.106L46.9675 367.198C46.8178 367.693 46.7429 367.966 46.7429 368.018C46.7429 368.109 46.769 368.184 46.821 368.243C46.8796 368.302 46.9447 368.331 47.0164 368.331C47.101 368.331 47.1986 368.288 47.3093 368.204C47.6804 367.917 48.0483 367.52 48.4128 367.012L48.7156 367.198C48.4942 367.543 48.185 367.924 47.7878 368.341C47.3972 368.751 47.0587 369.037 46.7722 369.2C46.4923 369.356 46.2416 369.434 46.0203 369.434C45.7794 369.434 45.5808 369.356 45.4246 369.2C45.2748 369.05 45.2 368.855 45.2 368.614C45.2 368.328 45.3139 367.794 45.5417 367.012L46.6648 363.106C46.808 362.618 46.8796 362.234 46.8796 361.954C46.8796 361.824 46.8373 361.719 46.7527 361.641C46.6746 361.563 46.5704 361.524 46.4402 361.524C46.2514 361.524 46.0365 361.596 45.7957 361.739C45.3529 362.012 44.8419 362.52 44.2625 363.262C44.1062 363.464 43.5854 364.278 42.7 365.704C42.4265 366.16 42.2019 366.658 42.0261 367.198L41.4011 369.2H39.9363L43.1492 358.028L43.491 356.817C43.491 356.648 43.4194 356.498 43.2761 356.368C43.1394 356.238 42.9701 356.173 42.7683 356.173C42.6511 356.173 42.4721 356.192 42.2312 356.231L42.0261 356.26V355.88L45.405 355.313ZM58.9207 360.362L57.0164 366.983L56.8015 367.872C56.782 367.956 56.7722 368.028 56.7722 368.087C56.7722 368.191 56.8048 368.282 56.8699 368.36C56.922 368.419 56.9871 368.448 57.0652 368.448C57.1498 368.448 57.2605 368.396 57.3972 368.292C57.6511 368.103 57.9897 367.712 58.4128 367.12L58.7449 367.354C58.2957 368.031 57.8334 368.549 57.3582 368.907C56.8829 369.259 56.4434 369.434 56.0398 369.434C55.7598 369.434 55.5483 369.363 55.405 369.219C55.2683 369.083 55.2 368.881 55.2 368.614C55.2 368.295 55.2716 367.875 55.4148 367.354L55.6199 366.622C54.767 367.735 53.9825 368.513 53.2664 368.956C52.752 369.275 52.2475 369.434 51.7527 369.434C51.2774 369.434 50.8673 369.239 50.5222 368.848C50.1772 368.451 50.0046 367.908 50.0046 367.218C50.0046 366.182 50.3139 365.092 50.9324 363.946C51.5574 362.794 52.3484 361.872 53.3054 361.182C54.0541 360.635 54.7605 360.362 55.4246 360.362C55.8217 360.362 56.1505 360.466 56.4109 360.675C56.6778 360.883 56.8796 361.228 57.0164 361.71L57.3679 360.596L58.9207 360.362ZM55.4441 360.87C55.0274 360.87 54.5847 361.065 54.116 361.456C53.4519 362.009 52.8595 362.83 52.3386 363.917C51.8243 365.004 51.5671 365.987 51.5671 366.866C51.5671 367.309 51.6778 367.66 51.8992 367.921C52.1205 368.175 52.3744 368.302 52.6609 368.302C53.3705 368.302 54.142 367.777 54.9753 366.729C56.0886 365.336 56.6453 363.907 56.6453 362.442C56.6453 361.889 56.5378 361.488 56.323 361.241C56.1082 360.994 55.8152 360.87 55.4441 360.87ZM63.95 360.362L62.6511 364.805C63.8686 362.989 64.7996 361.794 65.4441 361.221C66.0951 360.649 66.7201 360.362 67.3191 360.362C67.6446 360.362 67.9115 360.469 68.1199 360.684C68.3347 360.899 68.4421 361.179 68.4421 361.524C68.4421 361.915 68.3477 362.436 68.1589 363.087L66.9675 367.198C66.8308 367.673 66.7625 367.963 66.7625 368.067C66.7625 368.158 66.7885 368.236 66.8406 368.302C66.8927 368.36 66.948 368.389 67.0066 368.389C67.0847 368.389 67.1791 368.347 67.2898 368.262C67.6348 367.989 68.0125 367.572 68.4226 367.012L68.7253 367.198C68.1199 368.064 67.547 368.682 67.0066 369.053C66.629 369.307 66.2904 369.434 65.991 369.434C65.7501 369.434 65.558 369.359 65.4148 369.21C65.2716 369.066 65.2 368.871 65.2 368.624C65.2 368.311 65.3106 367.774 65.532 367.012L66.6648 363.087C66.808 362.598 66.8796 362.218 66.8796 361.944C66.8796 361.814 66.8373 361.71 66.7527 361.632C66.6681 361.547 66.5639 361.505 66.4402 361.505C66.2579 361.505 66.0398 361.583 65.7859 361.739C65.3041 362.032 64.8028 362.517 64.282 363.194C63.7611 363.865 63.211 364.724 62.6316 365.772C62.3256 366.326 62.0717 366.931 61.8699 367.589L61.3816 369.2H59.9167L61.6941 363.087C61.9024 362.351 62.0066 361.908 62.0066 361.759C62.0066 361.615 61.948 361.492 61.8308 361.387C61.7201 361.277 61.5802 361.221 61.4109 361.221C61.3328 361.221 61.196 361.234 61.0007 361.26L60.6296 361.319L60.571 360.968L63.95 360.362ZM79.9558 360.968L79.6726 361.983H78.0417C78.1654 362.335 78.2273 362.663 78.2273 362.969C78.2273 363.829 77.8627 364.594 77.1335 365.264C76.3979 365.935 75.3888 366.306 74.1062 366.378C73.4161 366.586 72.8985 366.833 72.5535 367.12C72.4233 367.224 72.3582 367.331 72.3582 367.442C72.3582 367.572 72.4167 367.693 72.5339 367.803C72.6511 367.908 72.9473 368.015 73.4226 368.126L75.3171 368.565C76.3653 368.813 77.0587 369.106 77.3972 369.444C77.7292 369.789 77.8953 370.186 77.8953 370.635C77.8953 371.169 77.6967 371.658 77.2996 372.1C76.9089 372.543 76.3328 372.888 75.571 373.135C74.8158 373.389 73.9792 373.516 73.0613 373.516C72.254 373.516 71.5183 373.419 70.8542 373.223C70.1902 373.035 69.7149 372.777 69.4285 372.452C69.142 372.126 68.9988 371.791 68.9988 371.446C68.9988 371.166 69.0932 370.873 69.282 370.567C69.4643 370.268 69.6954 370.02 69.9753 369.825C70.1511 369.701 70.6492 369.408 71.4695 368.946C71.17 368.712 71.0203 368.455 71.0203 368.175C71.0203 367.914 71.1505 367.637 71.4109 367.344C71.6778 367.052 72.2377 366.729 73.0906 366.378C72.3744 366.241 71.8048 365.941 71.3816 365.479C70.9649 365.017 70.7566 364.503 70.7566 363.936C70.7566 363.012 71.1602 362.185 71.9675 361.456C72.7813 360.727 73.8621 360.362 75.2097 360.362C75.698 360.362 76.0984 360.411 76.4109 360.509C76.7234 360.606 77.0261 360.759 77.3191 360.968H79.9558ZM76.5671 362.501C76.5671 361.98 76.4207 361.57 76.1277 361.27C75.8412 360.971 75.4636 360.821 74.9949 360.821C74.2592 360.821 73.6505 361.192 73.1687 361.934C72.6934 362.67 72.4558 363.438 72.4558 364.239C72.4558 364.74 72.6088 365.15 72.9148 365.469C73.2208 365.788 73.5919 365.948 74.0281 365.948C74.3731 365.948 74.7052 365.854 75.0242 365.665C75.3497 365.476 75.6231 365.216 75.8445 364.884C76.0658 364.552 76.2416 364.128 76.3718 363.614C76.502 363.1 76.5671 362.729 76.5671 362.501ZM71.8894 369.2C71.3621 369.441 70.9617 369.75 70.6882 370.128C70.4213 370.505 70.2878 370.876 70.2878 371.241C70.2878 371.671 70.4832 372.025 70.8738 372.305C71.4337 372.709 72.254 372.911 73.3347 372.911C74.2657 372.911 75.06 372.751 75.7175 372.432C76.3816 372.12 76.7136 371.713 76.7136 371.212C76.7136 370.958 76.5899 370.717 76.3425 370.489C76.1016 370.261 75.6296 370.076 74.9265 369.932C74.5424 369.854 73.53 369.61 71.8894 369.2ZM81.9187 365.518C81.8731 365.844 81.8503 366.114 81.8503 366.329C81.8503 366.908 82.0554 367.403 82.4656 367.813C82.8757 368.217 83.3738 368.419 83.9597 368.419C84.4285 368.419 84.8777 368.324 85.3074 368.135C85.7436 367.94 86.3881 367.514 87.241 366.856L87.446 367.139C85.9031 368.669 84.4317 369.434 83.032 369.434C82.0815 369.434 81.3653 369.135 80.8835 368.536C80.4018 367.937 80.1609 367.276 80.1609 366.553C80.1609 365.583 80.4604 364.591 81.0593 363.575C81.6583 362.559 82.4102 361.772 83.3152 361.212C84.2201 360.645 85.1511 360.362 86.1082 360.362C86.7983 360.362 87.3093 360.502 87.6414 360.782C87.9734 361.062 88.1394 361.394 88.1394 361.778C88.1394 362.318 87.9246 362.836 87.4949 363.331C86.9285 363.975 86.0951 364.496 84.9949 364.893C84.2657 365.16 83.2403 365.369 81.9187 365.518ZM81.9871 365.04C82.9506 364.929 83.7351 364.74 84.3406 364.473C85.1414 364.115 85.7403 363.689 86.1375 363.194C86.5411 362.693 86.7429 362.218 86.7429 361.768C86.7429 361.495 86.655 361.274 86.4792 361.104C86.31 360.935 86.0658 360.85 85.7468 360.85C85.0828 360.85 84.3764 361.205 83.6277 361.915C82.8855 362.618 82.3386 363.66 81.9871 365.04ZM100.678 360.362L100.083 363.36H99.7214C99.6889 362.488 99.5033 361.853 99.1648 361.456C98.8263 361.059 98.4063 360.86 97.905 360.86C97.5014 360.86 97.1791 360.971 96.9382 361.192C96.7039 361.413 96.5867 361.68 96.5867 361.993C96.5867 362.208 96.6322 362.413 96.7234 362.608C96.821 362.803 97.0294 363.077 97.3484 363.428C98.1947 364.353 98.7416 365.05 98.989 365.518C99.2364 365.987 99.3601 366.43 99.3601 366.846C99.3601 367.524 99.0769 368.126 98.5105 368.653C97.9506 369.174 97.241 369.434 96.3816 369.434C95.9128 369.434 95.3725 369.324 94.7605 369.102C94.5457 369.024 94.3796 368.985 94.2625 368.985C93.9695 368.985 93.7481 369.135 93.5984 369.434H93.2371L93.8328 366.27H94.1941C94.2332 367.26 94.4382 367.96 94.8093 368.37C95.1804 368.78 95.6882 368.985 96.3328 368.985C96.8276 368.985 97.2182 368.848 97.5046 368.575C97.7976 368.295 97.9441 367.953 97.9441 367.55C97.9441 367.289 97.892 367.048 97.7878 366.827C97.6056 366.436 97.2214 365.896 96.6355 365.206C96.0561 364.516 95.6817 363.998 95.5125 363.653C95.3497 363.308 95.2683 362.963 95.2683 362.618C95.2683 361.986 95.4962 361.453 95.9519 361.016C96.4141 360.58 97.0066 360.362 97.7292 360.362C97.9376 360.362 98.1264 360.378 98.2957 360.411C98.3868 360.43 98.5984 360.505 98.9304 360.635C99.269 360.759 99.4936 360.821 99.6042 360.821C99.8842 360.821 100.119 360.668 100.307 360.362H100.678ZM106.938 355.313L104.165 364.913L105.278 363.966C106.496 362.937 107.287 362.175 107.651 361.68C107.768 361.518 107.827 361.394 107.827 361.309C107.827 361.251 107.807 361.195 107.768 361.143C107.729 361.091 107.651 361.049 107.534 361.016C107.423 360.984 107.225 360.968 106.938 360.968H106.596L106.704 360.596H110.971L110.874 360.968C110.385 360.994 109.962 361.072 109.604 361.202C109.253 361.326 108.911 361.511 108.579 361.759C107.921 362.247 107.488 362.585 107.28 362.774L106.44 363.516C106.583 363.985 106.759 364.639 106.968 365.479C107.319 366.872 107.557 367.699 107.68 367.96C107.804 368.22 107.931 368.35 108.061 368.35C108.172 368.35 108.302 368.295 108.452 368.184C108.79 367.937 109.152 367.543 109.536 367.003L109.878 367.247C109.168 368.139 108.624 368.728 108.247 369.014C107.869 369.294 107.524 369.434 107.212 369.434C106.938 369.434 106.727 369.327 106.577 369.112C106.316 368.728 105.884 367.214 105.278 364.571L103.94 365.733L102.934 369.2H101.411L104.653 358.057L104.927 357.11C104.959 356.947 104.975 356.804 104.975 356.68C104.975 356.524 104.913 356.394 104.79 356.29C104.673 356.186 104.5 356.134 104.272 356.134C104.122 356.134 103.885 356.166 103.559 356.231V355.889L106.938 355.313ZM114.575 356.485C114.848 356.485 115.08 356.58 115.268 356.768C115.457 356.957 115.552 357.188 115.552 357.462C115.552 357.729 115.454 357.96 115.259 358.155C115.07 358.344 114.842 358.438 114.575 358.438C114.308 358.438 114.077 358.344 113.882 358.155C113.693 357.96 113.598 357.729 113.598 357.462C113.598 357.188 113.693 356.957 113.882 356.768C114.07 356.58 114.302 356.485 114.575 356.485ZM114.702 360.362L112.768 367.208C112.638 367.67 112.573 367.947 112.573 368.038C112.573 368.142 112.602 368.227 112.661 368.292C112.726 368.357 112.801 368.389 112.885 368.389C112.983 368.389 113.1 368.337 113.237 368.233C113.608 367.94 113.983 367.524 114.36 366.983L114.702 367.208C114.259 367.885 113.738 368.455 113.139 368.917C112.697 369.262 112.274 369.434 111.87 369.434C111.603 369.434 111.385 369.356 111.216 369.2C111.046 369.037 110.962 368.835 110.962 368.594C110.962 368.354 111.043 367.953 111.206 367.393L112.475 363.018C112.684 362.302 112.788 361.853 112.788 361.671C112.788 361.527 112.736 361.41 112.632 361.319C112.534 361.228 112.397 361.182 112.221 361.182C112.078 361.182 111.782 361.218 111.333 361.29V360.909L114.702 360.362ZM121.616 355.313L118.276 366.934C118.113 367.514 118.032 367.869 118.032 367.999C118.032 368.096 118.061 368.178 118.12 368.243C118.185 368.308 118.263 368.341 118.354 368.341C118.478 368.341 118.611 368.285 118.755 368.175C119.093 367.908 119.448 367.494 119.819 366.934L120.112 367.237C119.494 368.109 118.924 368.718 118.403 369.063C118.019 369.311 117.654 369.434 117.309 369.434C117.062 369.434 116.854 369.35 116.684 369.18C116.522 369.011 116.44 368.816 116.44 368.594C116.44 368.36 116.544 367.878 116.753 367.149L119.399 357.989C119.614 357.24 119.721 356.811 119.721 356.7C119.721 356.544 119.66 356.417 119.536 356.319C119.412 356.215 119.22 356.163 118.96 356.163C118.81 356.163 118.582 356.186 118.276 356.231V355.87L121.616 355.313ZM127.182 355.313L123.843 366.934C123.68 367.514 123.598 367.869 123.598 367.999C123.598 368.096 123.628 368.178 123.686 368.243C123.751 368.308 123.83 368.341 123.921 368.341C124.044 368.341 124.178 368.285 124.321 368.175C124.66 367.908 125.014 367.494 125.385 366.934L125.678 367.237C125.06 368.109 124.49 368.718 123.969 369.063C123.585 369.311 123.221 369.434 122.876 369.434C122.628 369.434 122.42 369.35 122.251 369.18C122.088 369.011 122.007 368.816 122.007 368.594C122.007 368.36 122.111 367.878 122.319 367.149L124.966 357.989C125.18 357.24 125.288 356.811 125.288 356.7C125.288 356.544 125.226 356.417 125.102 356.319C124.979 356.215 124.787 356.163 124.526 356.163C124.376 356.163 124.149 356.186 123.843 356.231V355.87L127.182 355.313ZM134.057 360.362L133.462 363.36H133.1C133.068 362.488 132.882 361.853 132.544 361.456C132.205 361.059 131.785 360.86 131.284 360.86C130.88 360.86 130.558 360.971 130.317 361.192C130.083 361.413 129.966 361.68 129.966 361.993C129.966 362.208 130.011 362.413 130.102 362.608C130.2 362.803 130.408 363.077 130.727 363.428C131.574 364.353 132.121 365.05 132.368 365.518C132.615 365.987 132.739 366.43 132.739 366.846C132.739 367.524 132.456 368.126 131.889 368.653C131.33 369.174 130.62 369.434 129.76 369.434C129.292 369.434 128.751 369.324 128.139 369.102C127.925 369.024 127.759 368.985 127.641 368.985C127.348 368.985 127.127 369.135 126.977 369.434H126.616L127.212 366.27H127.573C127.612 367.26 127.817 367.96 128.188 368.37C128.559 368.78 129.067 368.985 129.712 368.985C130.206 368.985 130.597 368.848 130.884 368.575C131.177 368.295 131.323 367.953 131.323 367.55C131.323 367.289 131.271 367.048 131.167 366.827C130.984 366.436 130.6 365.896 130.014 365.206C129.435 364.516 129.061 363.998 128.891 363.653C128.729 363.308 128.647 362.963 128.647 362.618C128.647 361.986 128.875 361.453 129.331 361.016C129.793 360.58 130.385 360.362 131.108 360.362C131.316 360.362 131.505 360.378 131.675 360.411C131.766 360.43 131.977 360.505 132.309 360.635C132.648 360.759 132.872 360.821 132.983 360.821C133.263 360.821 133.497 360.668 133.686 360.362H134.057ZM134.389 371.397C134.878 371.176 135.275 370.896 135.581 370.557C135.815 370.297 135.932 370.046 135.932 369.805C135.932 369.688 135.913 369.581 135.874 369.483C135.848 369.431 135.757 369.327 135.6 369.171C135.444 369.014 135.356 368.907 135.337 368.848C135.291 368.738 135.268 368.611 135.268 368.468C135.268 368.188 135.363 367.947 135.552 367.745C135.747 367.543 135.975 367.442 136.235 367.442C136.502 367.442 136.736 367.55 136.938 367.764C137.147 367.979 137.251 368.249 137.251 368.575C137.251 369.154 137.023 369.74 136.567 370.333C136.111 370.925 135.451 371.384 134.585 371.71L134.389 371.397ZM151.85 360.362L151.255 363.36H150.893C150.861 362.488 150.675 361.853 150.337 361.456C149.998 361.059 149.578 360.86 149.077 360.86C148.673 360.86 148.351 360.971 148.11 361.192C147.876 361.413 147.759 361.68 147.759 361.993C147.759 362.208 147.804 362.413 147.895 362.608C147.993 362.803 148.201 363.077 148.52 363.428C149.367 364.353 149.913 365.05 150.161 365.518C150.408 365.987 150.532 366.43 150.532 366.846C150.532 367.524 150.249 368.126 149.682 368.653C149.122 369.174 148.413 369.434 147.553 369.434C147.085 369.434 146.544 369.324 145.932 369.102C145.718 369.024 145.552 368.985 145.434 368.985C145.141 368.985 144.92 369.135 144.77 369.434H144.409L145.005 366.27H145.366C145.405 367.26 145.61 367.96 145.981 368.37C146.352 368.78 146.86 368.985 147.505 368.985C147.999 368.985 148.39 368.848 148.677 368.575C148.969 368.295 149.116 367.953 149.116 367.55C149.116 367.289 149.064 367.048 148.96 366.827C148.777 366.436 148.393 365.896 147.807 365.206C147.228 364.516 146.854 363.998 146.684 363.653C146.522 363.308 146.44 362.963 146.44 362.618C146.44 361.986 146.668 361.453 147.124 361.016C147.586 360.58 148.178 360.362 148.901 360.362C149.109 360.362 149.298 360.378 149.468 360.411C149.559 360.43 149.77 360.505 150.102 360.635C150.441 360.759 150.665 360.821 150.776 360.821C151.056 360.821 151.29 360.668 151.479 360.362H151.85ZM158.257 355.313L155.512 364.796C156.697 363.012 157.622 361.827 158.286 361.241C158.95 360.655 159.585 360.362 160.19 360.362C160.503 360.362 160.763 360.469 160.971 360.684C161.18 360.899 161.284 361.186 161.284 361.544C161.284 361.973 161.193 362.494 161.01 363.106L159.819 367.198C159.669 367.693 159.594 367.966 159.594 368.018C159.594 368.109 159.621 368.184 159.673 368.243C159.731 368.302 159.796 368.331 159.868 368.331C159.953 368.331 160.05 368.288 160.161 368.204C160.532 367.917 160.9 367.52 161.264 367.012L161.567 367.198C161.346 367.543 161.037 367.924 160.639 368.341C160.249 368.751 159.91 369.037 159.624 369.2C159.344 369.356 159.093 369.434 158.872 369.434C158.631 369.434 158.432 369.356 158.276 369.2C158.126 369.05 158.052 368.855 158.052 368.614C158.052 368.328 158.165 367.794 158.393 367.012L159.516 363.106C159.66 362.618 159.731 362.234 159.731 361.954C159.731 361.824 159.689 361.719 159.604 361.641C159.526 361.563 159.422 361.524 159.292 361.524C159.103 361.524 158.888 361.596 158.647 361.739C158.205 362.012 157.693 362.52 157.114 363.262C156.958 363.464 156.437 364.278 155.552 365.704C155.278 366.16 155.053 366.658 154.878 367.198L154.253 369.2H152.788L156.001 358.028L156.343 356.817C156.343 356.648 156.271 356.498 156.128 356.368C155.991 356.238 155.822 356.173 155.62 356.173C155.503 356.173 155.324 356.192 155.083 356.231L154.878 356.26V355.88L158.257 355.313ZM171.772 360.362L169.868 366.983L169.653 367.872C169.634 367.956 169.624 368.028 169.624 368.087C169.624 368.191 169.656 368.282 169.721 368.36C169.774 368.419 169.839 368.448 169.917 368.448C170.001 368.448 170.112 368.396 170.249 368.292C170.503 368.103 170.841 367.712 171.264 367.12L171.596 367.354C171.147 368.031 170.685 368.549 170.21 368.907C169.734 369.259 169.295 369.434 168.891 369.434C168.611 369.434 168.4 369.363 168.257 369.219C168.12 369.083 168.052 368.881 168.052 368.614C168.052 368.295 168.123 367.875 168.266 367.354L168.471 366.622C167.619 367.735 166.834 368.513 166.118 368.956C165.604 369.275 165.099 369.434 164.604 369.434C164.129 369.434 163.719 369.239 163.374 368.848C163.029 368.451 162.856 367.908 162.856 367.218C162.856 366.182 163.165 365.092 163.784 363.946C164.409 362.794 165.2 361.872 166.157 361.182C166.906 360.635 167.612 360.362 168.276 360.362C168.673 360.362 169.002 360.466 169.262 360.675C169.529 360.883 169.731 361.228 169.868 361.71L170.219 360.596L171.772 360.362ZM168.296 360.87C167.879 360.87 167.436 361.065 166.968 361.456C166.303 362.009 165.711 362.83 165.19 363.917C164.676 365.004 164.419 365.987 164.419 366.866C164.419 367.309 164.529 367.66 164.751 367.921C164.972 368.175 165.226 368.302 165.512 368.302C166.222 368.302 166.994 367.777 167.827 366.729C168.94 365.336 169.497 363.907 169.497 362.442C169.497 361.889 169.389 361.488 169.175 361.241C168.96 360.994 168.667 360.87 168.296 360.87ZM173.432 360.909L176.802 360.362L175.395 365.108C176.535 363.162 177.57 361.801 178.501 361.026C179.028 360.583 179.458 360.362 179.79 360.362C180.005 360.362 180.174 360.427 180.298 360.557C180.421 360.681 180.483 360.863 180.483 361.104C180.483 361.534 180.372 361.944 180.151 362.335C179.995 362.628 179.77 362.774 179.477 362.774C179.328 362.774 179.197 362.725 179.087 362.628C178.983 362.53 178.917 362.38 178.891 362.178C178.878 362.055 178.849 361.973 178.803 361.934C178.751 361.882 178.69 361.856 178.618 361.856C178.507 361.856 178.403 361.882 178.305 361.934C178.136 362.025 177.879 362.279 177.534 362.696C176.994 363.334 176.408 364.161 175.776 365.177C175.503 365.606 175.268 366.091 175.073 366.632C174.8 367.374 174.643 367.82 174.604 367.969L174.292 369.2H172.798L174.604 363.135C174.813 362.432 174.917 361.931 174.917 361.632C174.917 361.514 174.868 361.417 174.77 361.339C174.64 361.234 174.468 361.182 174.253 361.182C174.116 361.182 173.865 361.212 173.501 361.27L173.432 360.909ZM181.821 365.518C181.775 365.844 181.753 366.114 181.753 366.329C181.753 366.908 181.958 367.403 182.368 367.813C182.778 368.217 183.276 368.419 183.862 368.419C184.331 368.419 184.78 368.324 185.21 368.135C185.646 367.94 186.29 367.514 187.143 366.856L187.348 367.139C185.805 368.669 184.334 369.434 182.934 369.434C181.984 369.434 181.268 369.135 180.786 368.536C180.304 367.937 180.063 367.276 180.063 366.553C180.063 365.583 180.363 364.591 180.962 363.575C181.561 362.559 182.313 361.772 183.218 361.212C184.122 360.645 185.053 360.362 186.01 360.362C186.701 360.362 187.212 360.502 187.544 360.782C187.876 361.062 188.042 361.394 188.042 361.778C188.042 362.318 187.827 362.836 187.397 363.331C186.831 363.975 185.997 364.496 184.897 364.893C184.168 365.16 183.143 365.369 181.821 365.518ZM181.889 365.04C182.853 364.929 183.637 364.74 184.243 364.473C185.044 364.115 185.643 363.689 186.04 363.194C186.443 362.693 186.645 362.218 186.645 361.768C186.645 361.495 186.557 361.274 186.382 361.104C186.212 360.935 185.968 360.85 185.649 360.85C184.985 360.85 184.279 361.205 183.53 361.915C182.788 362.618 182.241 363.66 181.889 365.04ZM199.194 355.313L196.45 364.796C197.635 363.012 198.559 361.827 199.223 361.241C199.887 360.655 200.522 360.362 201.128 360.362C201.44 360.362 201.701 360.469 201.909 360.684C202.117 360.899 202.221 361.186 202.221 361.544C202.221 361.973 202.13 362.494 201.948 363.106L200.757 367.198C200.607 367.693 200.532 367.966 200.532 368.018C200.532 368.109 200.558 368.184 200.61 368.243C200.669 368.302 200.734 368.331 200.805 368.331C200.89 368.331 200.988 368.288 201.098 368.204C201.469 367.917 201.837 367.52 202.202 367.012L202.505 367.198C202.283 367.543 201.974 367.924 201.577 368.341C201.186 368.751 200.848 369.037 200.561 369.2C200.281 369.356 200.031 369.434 199.809 369.434C199.568 369.434 199.37 369.356 199.214 369.2C199.064 369.05 198.989 368.855 198.989 368.614C198.989 368.328 199.103 367.794 199.331 367.012L200.454 363.106C200.597 362.618 200.669 362.234 200.669 361.954C200.669 361.824 200.626 361.719 200.542 361.641C200.464 361.563 200.359 361.524 200.229 361.524C200.04 361.524 199.826 361.596 199.585 361.739C199.142 362.012 198.631 362.52 198.052 363.262C197.895 363.464 197.374 364.278 196.489 365.704C196.216 366.16 195.991 366.658 195.815 367.198L195.19 369.2H193.725L196.938 358.028L197.28 356.817C197.28 356.648 197.208 356.498 197.065 356.368C196.928 356.238 196.759 356.173 196.557 356.173C196.44 356.173 196.261 356.192 196.02 356.231L195.815 356.26V355.88L199.194 355.313ZM212.71 360.362L210.805 366.983L210.591 367.872C210.571 367.956 210.561 368.028 210.561 368.087C210.561 368.191 210.594 368.282 210.659 368.36C210.711 368.419 210.776 368.448 210.854 368.448C210.939 368.448 211.05 368.396 211.186 368.292C211.44 368.103 211.779 367.712 212.202 367.12L212.534 367.354C212.085 368.031 211.622 368.549 211.147 368.907C210.672 369.259 210.233 369.434 209.829 369.434C209.549 369.434 209.337 369.363 209.194 369.219C209.057 369.083 208.989 368.881 208.989 368.614C208.989 368.295 209.061 367.875 209.204 367.354L209.409 366.622C208.556 367.735 207.772 368.513 207.055 368.956C206.541 369.275 206.037 369.434 205.542 369.434C205.066 369.434 204.656 369.239 204.311 368.848C203.966 368.451 203.794 367.908 203.794 367.218C203.794 366.182 204.103 365.092 204.721 363.946C205.346 362.794 206.137 361.872 207.094 361.182C207.843 360.635 208.55 360.362 209.214 360.362C209.611 360.362 209.94 360.466 210.2 360.675C210.467 360.883 210.669 361.228 210.805 361.71L211.157 360.596L212.71 360.362ZM209.233 360.87C208.816 360.87 208.374 361.065 207.905 361.456C207.241 362.009 206.649 362.83 206.128 363.917C205.613 365.004 205.356 365.987 205.356 366.866C205.356 367.309 205.467 367.66 205.688 367.921C205.91 368.175 206.163 368.302 206.45 368.302C207.16 368.302 207.931 367.777 208.764 366.729C209.878 365.336 210.434 363.907 210.434 362.442C210.434 361.889 210.327 361.488 210.112 361.241C209.897 360.994 209.604 360.87 209.233 360.87ZM217.749 360.362L217.075 362.608C217.785 361.775 218.416 361.192 218.969 360.86C219.529 360.528 220.099 360.362 220.678 360.362C221.258 360.362 221.753 360.593 222.163 361.055C222.573 361.511 222.778 362.107 222.778 362.843C222.778 364.275 222.195 365.733 221.03 367.218C219.865 368.695 218.507 369.434 216.958 369.434C216.632 369.434 216.343 369.399 216.089 369.327C215.841 369.255 215.561 369.128 215.249 368.946L214.536 371.466C214.393 371.96 214.321 372.283 214.321 372.432C214.321 372.576 214.357 372.696 214.428 372.794C214.507 372.898 214.63 372.976 214.8 373.028C214.969 373.087 215.304 373.116 215.805 373.116L215.718 373.477H211.118L211.216 373.116C211.821 373.09 212.231 372.986 212.446 372.803C212.654 372.621 212.876 372.117 213.11 371.29L215.581 362.735C215.731 362.195 215.805 361.859 215.805 361.729C215.805 361.553 215.753 361.417 215.649 361.319C215.552 361.221 215.399 361.173 215.19 361.173C215.001 361.173 214.738 361.195 214.399 361.241V360.86L217.749 360.362ZM215.473 368.175C215.877 368.656 216.421 368.897 217.104 368.897C217.443 368.897 217.788 368.803 218.139 368.614C218.491 368.425 218.833 368.145 219.165 367.774C219.503 367.403 219.806 366.977 220.073 366.495C220.34 366.007 220.578 365.434 220.786 364.776C221.001 364.119 221.108 363.468 221.108 362.823C221.108 362.302 220.988 361.905 220.747 361.632C220.512 361.352 220.236 361.212 219.917 361.212C219.214 361.212 218.517 361.615 217.827 362.423C217.143 363.23 216.642 364.174 216.323 365.255L215.473 368.175ZM227.749 360.362L227.075 362.608C227.785 361.775 228.416 361.192 228.969 360.86C229.529 360.528 230.099 360.362 230.678 360.362C231.258 360.362 231.753 360.593 232.163 361.055C232.573 361.511 232.778 362.107 232.778 362.843C232.778 364.275 232.195 365.733 231.03 367.218C229.865 368.695 228.507 369.434 226.958 369.434C226.632 369.434 226.343 369.399 226.089 369.327C225.841 369.255 225.561 369.128 225.249 368.946L224.536 371.466C224.393 371.96 224.321 372.283 224.321 372.432C224.321 372.576 224.357 372.696 224.428 372.794C224.507 372.898 224.63 372.976 224.8 373.028C224.969 373.087 225.304 373.116 225.805 373.116L225.718 373.477H221.118L221.216 373.116C221.821 373.09 222.231 372.986 222.446 372.803C222.654 372.621 222.876 372.117 223.11 371.29L225.581 362.735C225.731 362.195 225.805 361.859 225.805 361.729C225.805 361.553 225.753 361.417 225.649 361.319C225.552 361.221 225.399 361.173 225.19 361.173C225.001 361.173 224.738 361.195 224.399 361.241V360.86L227.749 360.362ZM225.473 368.175C225.877 368.656 226.421 368.897 227.104 368.897C227.443 368.897 227.788 368.803 228.139 368.614C228.491 368.425 228.833 368.145 229.165 367.774C229.503 367.403 229.806 366.977 230.073 366.495C230.34 366.007 230.578 365.434 230.786 364.776C231.001 364.119 231.108 363.468 231.108 362.823C231.108 362.302 230.988 361.905 230.747 361.632C230.512 361.352 230.236 361.212 229.917 361.212C229.214 361.212 228.517 361.615 227.827 362.423C227.143 363.23 226.642 364.174 226.323 365.255L225.473 368.175ZM237.798 356.485C238.071 356.485 238.302 356.58 238.491 356.768C238.68 356.957 238.774 357.188 238.774 357.462C238.774 357.729 238.677 357.96 238.481 358.155C238.292 358.344 238.065 358.438 237.798 358.438C237.531 358.438 237.3 358.344 237.104 358.155C236.915 357.96 236.821 357.729 236.821 357.462C236.821 357.188 236.915 356.957 237.104 356.768C237.293 356.58 237.524 356.485 237.798 356.485ZM237.925 360.362L235.991 367.208C235.861 367.67 235.796 367.947 235.796 368.038C235.796 368.142 235.825 368.227 235.884 368.292C235.949 368.357 236.024 368.389 236.108 368.389C236.206 368.389 236.323 368.337 236.46 368.233C236.831 367.94 237.205 367.524 237.583 366.983L237.925 367.208C237.482 367.885 236.961 368.455 236.362 368.917C235.919 369.262 235.496 369.434 235.093 369.434C234.826 369.434 234.608 369.356 234.438 369.2C234.269 369.037 234.184 368.835 234.184 368.594C234.184 368.354 234.266 367.953 234.428 367.393L235.698 363.018C235.906 362.302 236.01 361.853 236.01 361.671C236.01 361.527 235.958 361.41 235.854 361.319C235.757 361.228 235.62 361.182 235.444 361.182C235.301 361.182 235.005 361.218 234.555 361.29V360.909L237.925 360.362ZM243.305 360.362L242.007 364.805C243.224 362.989 244.155 361.794 244.8 361.221C245.451 360.649 246.076 360.362 246.675 360.362C247 360.362 247.267 360.469 247.475 360.684C247.69 360.899 247.798 361.179 247.798 361.524C247.798 361.915 247.703 362.436 247.514 363.087L246.323 367.198C246.186 367.673 246.118 367.963 246.118 368.067C246.118 368.158 246.144 368.236 246.196 368.302C246.248 368.36 246.303 368.389 246.362 368.389C246.44 368.389 246.535 368.347 246.645 368.262C246.99 367.989 247.368 367.572 247.778 367.012L248.081 367.198C247.475 368.064 246.902 368.682 246.362 369.053C245.984 369.307 245.646 369.434 245.346 369.434C245.106 369.434 244.913 369.359 244.77 369.21C244.627 369.066 244.555 368.871 244.555 368.624C244.555 368.311 244.666 367.774 244.887 367.012L246.02 363.087C246.163 362.598 246.235 362.218 246.235 361.944C246.235 361.814 246.193 361.71 246.108 361.632C246.024 361.547 245.919 361.505 245.796 361.505C245.613 361.505 245.395 361.583 245.141 361.739C244.66 362.032 244.158 362.517 243.637 363.194C243.117 363.865 242.566 364.724 241.987 365.772C241.681 366.326 241.427 366.931 241.225 367.589L240.737 369.2H239.272L241.05 363.087C241.258 362.351 241.362 361.908 241.362 361.759C241.362 361.615 241.303 361.492 241.186 361.387C241.076 361.277 240.936 361.221 240.766 361.221C240.688 361.221 240.552 361.234 240.356 361.26L239.985 361.319L239.927 360.968L243.305 360.362ZM251.274 365.518C251.229 365.844 251.206 366.114 251.206 366.329C251.206 366.908 251.411 367.403 251.821 367.813C252.231 368.217 252.729 368.419 253.315 368.419C253.784 368.419 254.233 368.324 254.663 368.135C255.099 367.94 255.744 367.514 256.596 366.856L256.802 367.139C255.259 368.669 253.787 369.434 252.387 369.434C251.437 369.434 250.721 369.135 250.239 368.536C249.757 367.937 249.516 367.276 249.516 366.553C249.516 365.583 249.816 364.591 250.415 363.575C251.014 362.559 251.766 361.772 252.671 361.212C253.576 360.645 254.507 360.362 255.464 360.362C256.154 360.362 256.665 360.502 256.997 360.782C257.329 361.062 257.495 361.394 257.495 361.778C257.495 362.318 257.28 362.836 256.85 363.331C256.284 363.975 255.451 364.496 254.35 364.893C253.621 365.16 252.596 365.369 251.274 365.518ZM251.343 365.04C252.306 364.929 253.091 364.74 253.696 364.473C254.497 364.115 255.096 363.689 255.493 363.194C255.897 362.693 256.098 362.218 256.098 361.768C256.098 361.495 256.01 361.274 255.835 361.104C255.665 360.935 255.421 360.85 255.102 360.85C254.438 360.85 253.732 361.205 252.983 361.915C252.241 362.618 251.694 363.66 251.343 365.04ZM265.034 360.362L264.438 363.36H264.077C264.044 362.488 263.859 361.853 263.52 361.456C263.182 361.059 262.762 360.86 262.26 360.86C261.857 360.86 261.535 360.971 261.294 361.192C261.059 361.413 260.942 361.68 260.942 361.993C260.942 362.208 260.988 362.413 261.079 362.608C261.177 362.803 261.385 363.077 261.704 363.428C262.55 364.353 263.097 365.05 263.344 365.518C263.592 365.987 263.716 366.43 263.716 366.846C263.716 367.524 263.432 368.126 262.866 368.653C262.306 369.174 261.596 369.434 260.737 369.434C260.268 369.434 259.728 369.324 259.116 369.102C258.901 369.024 258.735 368.985 258.618 368.985C258.325 368.985 258.104 369.135 257.954 369.434H257.593L258.188 366.27H258.55C258.589 367.26 258.794 367.96 259.165 368.37C259.536 368.78 260.044 368.985 260.688 368.985C261.183 368.985 261.574 368.848 261.86 368.575C262.153 368.295 262.3 367.953 262.3 367.55C262.3 367.289 262.247 367.048 262.143 366.827C261.961 366.436 261.577 365.896 260.991 365.206C260.412 364.516 260.037 363.998 259.868 363.653C259.705 363.308 259.624 362.963 259.624 362.618C259.624 361.986 259.852 361.453 260.307 361.016C260.77 360.58 261.362 360.362 262.085 360.362C262.293 360.362 262.482 360.378 262.651 360.411C262.742 360.43 262.954 360.505 263.286 360.635C263.624 360.759 263.849 360.821 263.96 360.821C264.24 360.821 264.474 360.668 264.663 360.362H265.034ZM272.827 360.362L272.231 363.36H271.87C271.837 362.488 271.652 361.853 271.313 361.456C270.975 361.059 270.555 360.86 270.053 360.86C269.65 360.86 269.328 360.971 269.087 361.192C268.852 361.413 268.735 361.68 268.735 361.993C268.735 362.208 268.781 362.413 268.872 362.608C268.969 362.803 269.178 363.077 269.497 363.428C270.343 364.353 270.89 365.05 271.137 365.518C271.385 365.987 271.509 366.43 271.509 366.846C271.509 367.524 271.225 368.126 270.659 368.653C270.099 369.174 269.389 369.434 268.53 369.434C268.061 369.434 267.521 369.324 266.909 369.102C266.694 369.024 266.528 368.985 266.411 368.985C266.118 368.985 265.897 369.135 265.747 369.434H265.385L265.981 366.27H266.343C266.382 367.26 266.587 367.96 266.958 368.37C267.329 368.78 267.837 368.985 268.481 368.985C268.976 368.985 269.367 368.848 269.653 368.575C269.946 368.295 270.093 367.953 270.093 367.55C270.093 367.289 270.04 367.048 269.936 366.827C269.754 366.436 269.37 365.896 268.784 365.206C268.205 364.516 267.83 363.998 267.661 363.653C267.498 363.308 267.417 362.963 267.417 362.618C267.417 361.986 267.645 361.453 268.1 361.016C268.563 360.58 269.155 360.362 269.878 360.362C270.086 360.362 270.275 360.378 270.444 360.411C270.535 360.43 270.747 360.505 271.079 360.635C271.417 360.759 271.642 360.821 271.753 360.821C272.033 360.821 272.267 360.668 272.456 360.362H272.827Z" fill="white"/>
<path d="M85.0546 268.694C81.6412 273.92 77.5079 278.534 72.6546 282.534L79.6146 290.214C80.8412 291.494 81.4546 292.827 81.4546 294.214C81.4546 295.547 80.9212 296.64 79.8546 297.494C78.7879 298.4 77.3746 298.854 75.6146 298.854C73.1612 298.854 71.2946 298.107 70.0146 296.614L63.2946 288.694C57.0012 291.84 50.9746 293.414 45.2146 293.414C40.9479 293.414 37.2146 292.747 34.0146 291.414C30.8146 290.08 28.3346 288.24 26.5746 285.894C24.8679 283.547 24.0146 280.934 24.0146 278.054C24.0146 274.16 25.2146 270.534 27.6146 267.174C30.0679 263.76 34.0412 260.4 39.5346 257.094C36.4412 251.44 34.8946 246.454 34.8946 242.134C34.8946 238.294 35.6946 234.907 37.2946 231.974C38.8946 229.04 41.1079 226.774 43.9346 225.174C46.8146 223.574 50.0946 222.774 53.7746 222.774C58.4679 222.774 62.0946 224.134 64.6546 226.854C67.2679 229.52 68.5746 233.2 68.5746 237.894C68.5746 241.787 67.4279 245.467 65.1346 248.934C62.8946 252.347 58.8946 255.84 53.1346 259.414C56.5479 264.054 61.0546 269.52 66.6546 275.814C70.1746 272.667 73.6679 268.694 77.1346 263.894C77.7212 263.04 78.4146 262.454 79.2146 262.134C80.0146 261.76 81.0012 261.574 82.1746 261.574C85.2679 261.574 86.8146 262.454 86.8146 264.214C86.8146 265.334 86.2279 266.827 85.0546 268.694ZM53.2146 231.174C50.7079 231.174 48.7346 232.134 47.2946 234.054C45.8546 235.92 45.1346 238.267 45.1346 241.094C45.1346 244.454 46.2546 248.134 48.4946 252.134C52.6546 249.68 55.4812 247.307 56.9746 245.014C58.4679 242.72 59.2146 240.214 59.2146 237.494C59.2146 235.52 58.7079 233.974 57.6946 232.854C56.6812 231.734 55.1879 231.174 53.2146 231.174ZM45.6946 284.614C49.8546 284.614 53.8279 283.707 57.6146 281.894C51.9612 275.12 47.5079 269.334 44.2546 264.534C38.2279 268.48 35.2146 272.587 35.2146 276.854C35.2146 279.307 36.1479 281.227 38.0146 282.614C39.8812 283.947 42.4412 284.614 45.6946 284.614Z" fill="#F2F1EE"/>
<path d="M182.102 256.48C182.795 256.48 183.329 256.8 183.702 257.44C184.129 258.08 184.342 258.96 184.342 260.08C184.342 262.16 183.835 263.813 182.822 265.04C177.542 271.493 171.915 274.72 165.942 274.72C160.769 274.72 156.635 272.72 153.542 268.72C150.449 264.72 148.902 258.987 148.902 251.52C148.902 249.707 148.982 247.893 149.142 246.08C145.622 246.72 141.782 247.2 137.622 247.52C134.849 247.733 132.955 247.867 131.942 247.92C130.875 253.36 129.382 260.027 127.462 267.92C126.342 272.56 124.209 274.88 121.062 274.88C117.649 274.88 115.942 273.333 115.942 270.24C115.942 269.547 116.075 268.587 116.342 267.36C118.155 260.053 119.595 253.867 120.662 248.8L116.822 248.96C115.062 248.96 113.782 248.667 112.982 248.08C112.182 247.44 111.782 246.427 111.782 245.04C111.782 243.28 112.289 242 113.302 241.2C114.315 240.347 115.995 239.867 118.342 239.76L122.582 239.6C123.969 232.08 124.662 226.347 124.662 222.4C124.662 219.893 124.289 218.187 123.542 217.28C122.795 216.373 121.809 215.92 120.582 215.92C116.849 215.92 112.635 219.04 107.942 225.28C107.249 226.187 106.475 226.64 105.622 226.64C104.875 226.64 104.235 226.293 103.702 225.6C103.169 224.907 102.902 224.027 102.902 222.96C102.902 221.307 103.569 219.547 104.902 217.68C107.249 214.427 110.209 211.76 113.782 209.68C117.355 207.547 120.982 206.48 124.662 206.48C128.129 206.48 130.795 207.68 132.662 210.08C134.582 212.427 135.542 216.107 135.542 221.12C135.542 225.547 134.902 231.547 133.622 239.12L141.462 238.72C144.822 238.56 147.702 238.293 150.102 237.92C151.062 232.053 152.529 226.56 154.502 221.44C156.475 216.32 158.929 212.16 161.862 208.96C164.795 205.76 168.075 204.16 171.702 204.16C174.369 204.16 176.475 205.227 178.022 207.36C179.569 209.44 180.342 212.187 180.342 215.6C180.342 228.827 173.595 238 160.102 243.12C159.942 245.253 159.862 247.467 159.862 249.76C159.862 255.36 160.555 259.333 161.942 261.68C163.329 264.027 165.275 265.2 167.782 265.2C169.969 265.2 171.969 264.64 173.782 263.52C175.595 262.347 177.649 260.373 179.942 257.6C180.582 256.853 181.302 256.48 182.102 256.48ZM171.302 211.12C170.129 211.12 168.875 212.187 167.542 214.32C166.262 216.453 165.035 219.36 163.862 223.04C162.689 226.72 161.755 230.747 161.062 235.12C165.329 233.36 168.475 230.853 170.502 227.6C172.529 224.347 173.542 220.16 173.542 215.04C173.542 213.813 173.329 212.853 172.902 212.16C172.475 211.467 171.942 211.12 171.302 211.12ZM187.706 274.72C184.399 274.72 181.759 273.52 179.786 271.12C177.813 268.72 176.826 265.573 176.826 261.68C176.826 257.413 177.813 253.387 179.786 249.6C181.759 245.76 184.373 242.693 187.626 240.4C190.933 238.053 194.426 236.88 198.106 236.88C199.279 236.88 200.053 237.12 200.426 237.6C200.853 238.027 201.199 238.827 201.466 240C202.586 239.787 203.759 239.68 204.986 239.68C207.599 239.68 208.906 240.613 208.906 242.48C208.906 243.6 208.506 246.267 207.706 250.48C206.479 256.613 205.866 260.88 205.866 263.28C205.866 264.08 206.053 264.72 206.426 265.2C206.853 265.68 207.386 265.92 208.026 265.92C209.039 265.92 210.266 265.28 211.706 264C213.146 262.667 215.093 260.533 217.546 257.6C218.186 256.853 218.906 256.48 219.706 256.48C220.399 256.48 220.933 256.8 221.306 257.44C221.733 258.08 221.946 258.96 221.946 260.08C221.946 262.213 221.439 263.867 220.426 265.04C218.239 267.76 215.919 270.053 213.466 271.92C211.013 273.787 208.639 274.72 206.346 274.72C204.586 274.72 202.959 274.133 201.466 272.96C200.026 271.733 198.933 270.08 198.186 268C195.413 272.48 191.919 274.72 187.706 274.72ZM190.586 266.64C191.759 266.64 192.879 265.947 193.946 264.56C195.013 263.173 195.786 261.333 196.266 259.04L199.226 244.32C196.986 244.373 194.906 245.227 192.986 246.88C191.119 248.48 189.626 250.613 188.506 253.28C187.386 255.947 186.826 258.773 186.826 261.76C186.826 263.413 187.146 264.64 187.786 265.44C188.479 266.24 189.413 266.64 190.586 266.64ZM258.164 256.48C258.857 256.48 259.391 256.8 259.764 257.44C260.191 258.08 260.404 258.96 260.404 260.08C260.404 262.213 259.897 263.867 258.884 265.04C256.591 267.867 254.111 270.187 251.444 272C248.831 273.813 245.844 274.72 242.484 274.72C239.657 274.72 237.364 273.707 235.604 271.68C232.564 273.653 229.391 274.667 226.084 274.72C225.391 285.013 223.817 293.6 221.364 300.48C218.911 307.413 215.311 310.88 210.564 310.88C207.684 310.88 205.551 309.84 204.164 307.76C202.777 305.68 202.084 302.8 202.084 299.12C202.084 293.893 203.284 287.787 205.684 280.8C208.084 273.867 211.791 266.213 216.804 257.84C216.804 250.053 216.751 244.64 216.644 241.6C216.591 240.053 217.204 238.827 218.484 237.92C219.764 237.013 221.364 236.56 223.284 236.56C224.404 236.56 225.204 236.8 225.684 237.28C226.217 237.707 226.511 238.587 226.564 239.92C226.564 241.253 226.591 242.24 226.644 242.88C228.351 240.747 230.031 239.227 231.684 238.32C233.337 237.36 235.097 236.88 236.964 236.88C239.951 236.88 242.377 238.08 244.244 240.48C246.164 242.88 247.124 246.027 247.124 249.92C247.124 252.747 246.671 255.493 245.764 258.16C244.857 260.827 243.604 263.253 242.004 265.44C243.124 265.76 244.057 265.92 244.804 265.92C246.564 265.92 248.244 265.28 249.844 264C251.444 262.72 253.497 260.587 256.004 257.6C256.644 256.853 257.364 256.48 258.164 256.48ZM226.484 267.04C228.404 266.613 230.164 265.573 231.764 263.92C233.417 262.213 234.724 260.133 235.684 257.68C236.644 255.173 237.124 252.56 237.124 249.84C237.124 248.24 236.804 247.04 236.164 246.24C235.524 245.387 234.671 244.96 233.604 244.96C231.684 244.96 229.364 246.987 226.644 251.04C226.591 253.387 226.564 256.827 226.564 261.36C226.564 263.813 226.537 265.707 226.484 267.04ZM211.204 303.04C212.644 303.04 213.844 299.893 214.804 293.6C215.764 287.36 216.377 279.573 216.644 270.24C214.351 275.573 212.537 280.667 211.204 285.52C209.871 290.373 209.204 294.453 209.204 297.76C209.204 299.467 209.417 300.773 209.844 301.68C210.217 302.587 210.671 303.04 211.204 303.04ZM264.44 231.76C262.2 231.76 260.52 231.253 259.4 230.24C258.28 229.173 257.72 227.707 257.72 225.84C257.72 223.973 258.44 222.427 259.88 221.2C261.373 219.92 263.213 219.28 265.4 219.28C267.373 219.28 268.973 219.76 270.2 220.72C271.426 221.68 272.04 223.04 272.04 224.8C272.04 226.933 271.346 228.64 269.96 229.92C268.573 231.147 266.733 231.76 264.44 231.76ZM263.8 274.72C260.333 274.72 257.8 273.493 256.2 271.04C254.653 268.587 253.88 265.333 253.88 261.28C253.88 258.88 254.173 255.813 254.76 252.08C255.4 248.293 256.2 244.773 257.16 241.52C257.64 239.813 258.28 238.64 259.08 238C259.88 237.36 261.16 237.04 262.92 237.04C265.64 237.04 267 237.947 267 239.76C267 241.093 266.493 244.187 265.48 249.04C264.2 254.907 263.56 258.88 263.56 260.96C263.56 262.56 263.773 263.787 264.2 264.64C264.626 265.493 265.346 265.92 266.36 265.92C267.32 265.92 268.52 265.253 269.96 263.92C271.4 262.587 273.32 260.48 275.72 257.6C276.36 256.853 277.08 256.48 277.88 256.48C278.573 256.48 279.106 256.8 279.48 257.44C279.906 258.08 280.12 258.96 280.12 260.08C280.12 262.213 279.613 263.867 278.6 265.04C273.32 271.493 268.386 274.72 263.8 274.72ZM302.287 258.88C302.98 258.88 303.514 259.2 303.887 259.84C304.314 260.48 304.527 261.36 304.527 262.48C304.527 264.4 304.074 266.053 303.167 267.44C301.674 269.733 299.7 271.52 297.247 272.8C294.847 274.08 291.967 274.72 288.607 274.72C283.487 274.72 279.514 273.2 276.687 270.16C273.86 267.067 272.447 262.907 272.447 257.68C272.447 254 273.22 250.587 274.767 247.44C276.314 244.24 278.447 241.707 281.167 239.84C283.94 237.973 287.06 237.04 290.527 237.04C293.62 237.04 296.1 237.973 297.967 239.84C299.834 241.653 300.767 244.133 300.767 247.28C300.767 250.96 299.434 254.133 296.767 256.8C294.154 259.413 289.674 261.493 283.327 263.04C284.607 265.493 286.767 266.72 289.807 266.72C291.994 266.72 293.78 266.213 295.167 265.2C296.607 264.187 298.26 262.48 300.127 260.08C300.767 259.28 301.487 258.88 302.287 258.88ZM289.167 244.88C287.194 244.88 285.514 246.027 284.127 248.32C282.794 250.613 282.127 253.387 282.127 256.64V256.8C285.274 256.053 287.754 254.933 289.567 253.44C291.38 251.947 292.287 250.213 292.287 248.24C292.287 247.227 291.994 246.427 291.407 245.84C290.874 245.2 290.127 244.88 289.167 244.88Z" fill="#F2F1EE"/>
<g filter="url(#filter0_d_181_1696)">
<path d="M40.16 172.64C33.0667 172.64 27.3867 171.307 23.12 168.64C18.8533 165.92 16.72 161.787 16.72 156.24C16.72 153.307 17.2267 151.067 18.24 149.52C19.2533 147.973 20.7467 147.2 22.72 147.2C24.16 147.2 25.3333 147.573 26.24 148.32C27.1467 149.067 27.6 150.027 27.6 151.2C27.6 152.267 27.52 153.2 27.36 154C27.36 154.213 27.3067 154.587 27.2 155.12C27.1467 155.653 27.12 156.213 27.12 156.8C27.12 159.2 28.32 160.987 30.72 162.16C33.1733 163.333 36.5867 163.92 40.96 163.92C45.4933 163.92 49.04 163.12 51.6 161.52C54.16 159.867 55.44 157.573 55.44 154.64C55.44 152.827 54.8533 151.28 53.68 150C52.5067 148.667 51.04 147.573 49.28 146.72C47.52 145.813 45.04 144.72 41.84 143.44C37.7333 141.84 34.3733 140.32 31.76 138.88C29.2 137.44 26.9867 135.493 25.12 133.04C23.3067 130.533 22.4 127.44 22.4 123.76C22.4 119.92 23.4133 116.507 25.44 113.52C27.52 110.533 30.48 108.213 34.32 106.56C38.2133 104.907 42.7733 104.08 48 104.08C51.8933 104.08 55.4667 104.667 58.72 105.84C61.9733 106.96 64.56 108.693 66.48 111.04C68.4533 113.387 69.44 116.267 69.44 119.68C69.44 123.04 68.9333 125.573 67.92 127.28C66.9067 128.987 65.4133 129.84 63.44 129.84C62.0533 129.84 60.88 129.413 59.92 128.56C59.0133 127.707 58.56 126.693 58.56 125.52C58.56 124.507 58.64 123.573 58.8 122.72C58.96 121.12 59.04 120.107 59.04 119.68C59.04 117.44 57.9467 115.733 55.76 114.56C53.5733 113.387 50.8533 112.8 47.6 112.8C43.0133 112.8 39.4933 113.653 37.04 115.36C34.64 117.013 33.44 119.36 33.44 122.4C33.44 124.427 34.0533 126.16 35.28 127.6C36.56 129.04 38.1333 130.24 40 131.2C41.8667 132.16 44.48 133.307 47.84 134.64C51.8933 136.293 55.1467 137.787 57.6 139.12C60.0533 140.453 62.1333 142.267 63.84 144.56C65.6 146.853 66.48 149.68 66.48 153.04C66.48 159.333 64.08 164.187 59.28 167.6C54.5333 170.96 48.16 172.64 40.16 172.64ZM132.598 147.68C132.758 147.627 133.025 147.6 133.398 147.6C134.198 147.6 134.811 147.867 135.238 148.4C135.665 148.933 135.878 149.653 135.878 150.56C135.878 152.213 135.558 153.52 134.918 154.48C134.278 155.387 133.318 156.053 132.038 156.48C129.585 157.28 126.971 157.68 124.198 157.68C121.851 157.68 119.638 157.36 117.558 156.72C116.011 159.227 114.305 161.813 112.438 164.48C110.305 167.52 108.465 169.6 106.918 170.72C105.425 171.84 103.718 172.4 101.798 172.4C99.6648 172.4 98.0381 171.573 96.9181 169.92C95.8515 168.267 95.1848 165.547 94.9181 161.76L94.5181 155.92C92.8648 160.4 91.3715 163.813 90.0381 166.16C88.7581 168.507 87.4515 170.133 86.1181 171.04C84.8381 171.947 83.3181 172.4 81.5581 172.4C79.3715 172.4 77.6381 171.547 76.3581 169.84C75.1315 168.133 74.3581 165.44 74.0381 161.76C73.3981 154.293 73.0781 147.76 73.0781 142.16V139.36C73.1315 137.6 73.6115 136.373 74.5181 135.68C75.4248 134.987 76.7848 134.64 78.5981 134.64C79.9848 134.64 80.9981 134.96 81.6381 135.6C82.3315 136.187 82.6781 137.2 82.6781 138.64C82.6781 144.773 83.0515 152.747 83.7981 162.56C87.4248 154.933 90.7581 146.987 93.7981 138.72C94.3848 137.12 95.0781 136.053 95.8781 135.52C96.7315 134.933 97.7448 134.64 98.9181 134.64C100.358 134.64 101.345 134.933 101.878 135.52C102.465 136.107 102.758 137.147 102.758 138.64C102.758 144.773 103.131 152.747 103.878 162.56C107.078 157.813 109.478 154.027 111.078 151.2C110.278 149.653 109.878 147.813 109.878 145.68C109.878 143.867 110.278 142.107 111.078 140.4C111.878 138.693 112.971 137.307 114.358 136.24C115.745 135.173 117.318 134.64 119.078 134.64C120.625 134.64 121.878 135.2 122.838 136.32C123.798 137.387 124.278 138.96 124.278 141.04C124.278 143.44 123.638 146.187 122.358 149.28C124.385 149.173 127.078 148.773 130.438 148.08L132.598 147.68ZM138.774 172.4C135.467 172.4 132.827 171.2 130.854 168.8C128.88 166.4 127.894 163.253 127.894 159.36C127.894 155.093 128.88 151.067 130.854 147.28C132.827 143.44 135.44 140.373 138.694 138.08C142 135.733 145.494 134.56 149.174 134.56C150.347 134.56 151.12 134.8 151.494 135.28C151.92 135.707 152.267 136.507 152.534 137.68C153.654 137.467 154.827 137.36 156.054 137.36C158.667 137.36 159.974 138.293 159.974 140.16C159.974 141.28 159.574 143.947 158.774 148.16C157.547 154.293 156.934 158.56 156.934 160.96C156.934 161.76 157.12 162.4 157.494 162.88C157.92 163.36 158.454 163.6 159.094 163.6C160.107 163.6 161.334 162.96 162.774 161.68C164.214 160.347 166.16 158.213 168.614 155.28C169.254 154.533 169.974 154.16 170.774 154.16C171.467 154.16 172 154.48 172.374 155.12C172.8 155.76 173.014 156.64 173.014 157.76C173.014 159.893 172.507 161.547 171.494 162.72C169.307 165.44 166.987 167.733 164.534 169.6C162.08 171.467 159.707 172.4 157.414 172.4C155.654 172.4 154.027 171.813 152.534 170.64C151.094 169.413 150 167.76 149.254 165.68C146.48 170.16 142.987 172.4 138.774 172.4ZM141.654 164.32C142.827 164.32 143.947 163.627 145.014 162.24C146.08 160.853 146.854 159.013 147.334 156.72L150.294 142C148.054 142.053 145.974 142.907 144.054 144.56C142.187 146.16 140.694 148.293 139.574 150.96C138.454 153.627 137.894 156.453 137.894 159.44C137.894 161.093 138.214 162.32 138.854 163.12C139.547 163.92 140.48 164.32 141.654 164.32ZM209.232 154.16C209.925 154.16 210.459 154.48 210.832 155.12C211.259 155.76 211.472 156.64 211.472 157.76C211.472 159.893 210.965 161.547 209.952 162.72C207.659 165.547 205.179 167.867 202.512 169.68C199.899 171.493 196.912 172.4 193.552 172.4C190.725 172.4 188.432 171.387 186.672 169.36C183.632 171.333 180.459 172.347 177.152 172.4C176.459 182.693 174.885 191.28 172.432 198.16C169.979 205.093 166.379 208.56 161.632 208.56C158.752 208.56 156.619 207.52 155.232 205.44C153.845 203.36 153.152 200.48 153.152 196.8C153.152 191.573 154.352 185.467 156.752 178.48C159.152 171.547 162.859 163.893 167.872 155.52C167.872 147.733 167.819 142.32 167.712 139.28C167.659 137.733 168.272 136.507 169.552 135.6C170.832 134.693 172.432 134.24 174.352 134.24C175.472 134.24 176.272 134.48 176.752 134.96C177.285 135.387 177.579 136.267 177.632 137.6C177.632 138.933 177.659 139.92 177.712 140.56C179.419 138.427 181.099 136.907 182.752 136C184.405 135.04 186.165 134.56 188.032 134.56C191.019 134.56 193.445 135.76 195.312 138.16C197.232 140.56 198.192 143.707 198.192 147.6C198.192 150.427 197.739 153.173 196.832 155.84C195.925 158.507 194.672 160.933 193.072 163.12C194.192 163.44 195.125 163.6 195.872 163.6C197.632 163.6 199.312 162.96 200.912 161.68C202.512 160.4 204.565 158.267 207.072 155.28C207.712 154.533 208.432 154.16 209.232 154.16ZM177.552 164.72C179.472 164.293 181.232 163.253 182.832 161.6C184.485 159.893 185.792 157.813 186.752 155.36C187.712 152.853 188.192 150.24 188.192 147.52C188.192 145.92 187.872 144.72 187.232 143.92C186.592 143.067 185.739 142.64 184.672 142.64C182.752 142.64 180.432 144.667 177.712 148.72C177.659 151.067 177.632 154.507 177.632 159.04C177.632 161.493 177.605 163.387 177.552 164.72ZM162.272 200.72C163.712 200.72 164.912 197.573 165.872 191.28C166.832 185.04 167.445 177.253 167.712 167.92C165.419 173.253 163.605 178.347 162.272 183.2C160.939 188.053 160.272 192.133 160.272 195.44C160.272 197.147 160.485 198.453 160.912 199.36C161.285 200.267 161.739 200.72 162.272 200.72ZM215.508 129.44C213.268 129.44 211.588 128.933 210.468 127.92C209.348 126.853 208.788 125.387 208.788 123.52C208.788 121.653 209.508 120.107 210.948 118.88C212.441 117.6 214.281 116.96 216.468 116.96C218.441 116.96 220.041 117.44 221.268 118.4C222.494 119.36 223.108 120.72 223.108 122.48C223.108 124.613 222.414 126.32 221.028 127.6C219.641 128.827 217.801 129.44 215.508 129.44ZM214.868 172.4C211.401 172.4 208.868 171.173 207.268 168.72C205.721 166.267 204.948 163.013 204.948 158.96C204.948 156.56 205.241 153.493 205.828 149.76C206.468 145.973 207.268 142.453 208.228 139.2C208.708 137.493 209.348 136.32 210.148 135.68C210.948 135.04 212.228 134.72 213.988 134.72C216.708 134.72 218.068 135.627 218.068 137.44C218.068 138.773 217.561 141.867 216.548 146.72C215.268 152.587 214.628 156.56 214.628 158.64C214.628 160.24 214.841 161.467 215.268 162.32C215.694 163.173 216.414 163.6 217.428 163.6C218.388 163.6 219.588 162.933 221.028 161.6C222.468 160.267 224.388 158.16 226.788 155.28C227.428 154.533 228.148 154.16 228.948 154.16C229.641 154.16 230.174 154.48 230.548 155.12C230.974 155.76 231.188 156.64 231.188 157.76C231.188 159.893 230.681 161.547 229.668 162.72C224.388 169.173 219.454 172.4 214.868 172.4ZM253.355 156.56C254.048 156.56 254.582 156.88 254.955 157.52C255.382 158.16 255.595 159.04 255.595 160.16C255.595 162.08 255.142 163.733 254.235 165.12C252.742 167.413 250.768 169.2 248.315 170.48C245.915 171.76 243.035 172.4 239.675 172.4C234.555 172.4 230.582 170.88 227.755 167.84C224.928 164.747 223.515 160.587 223.515 155.36C223.515 151.68 224.288 148.267 225.835 145.12C227.382 141.92 229.515 139.387 232.235 137.52C235.008 135.653 238.128 134.72 241.595 134.72C244.688 134.72 247.168 135.653 249.035 137.52C250.902 139.333 251.835 141.813 251.835 144.96C251.835 148.64 250.502 151.813 247.835 154.48C245.222 157.093 240.742 159.173 234.395 160.72C235.675 163.173 237.835 164.4 240.875 164.4C243.062 164.4 244.848 163.893 246.235 162.88C247.675 161.867 249.328 160.16 251.195 157.76C251.835 156.96 252.555 156.56 253.355 156.56ZM240.235 142.56C238.262 142.56 236.582 143.707 235.195 146C233.862 148.293 233.195 151.067 233.195 154.32V154.48C236.342 153.733 238.822 152.613 240.635 151.12C242.448 149.627 243.355 147.893 243.355 145.92C243.355 144.907 243.062 144.107 242.475 143.52C241.942 142.88 241.195 142.56 240.235 142.56Z" fill="#F2F1EE"/>
</g>
<defs>
<filter id="filter0_d_181_1696" x="10" y="101" width="315" height="200" filterUnits="userSpaceOnUse" color-interpolation-filters="sRGB">
<feFlood flood-opacity="0" result="BackgroundImageFix"/>
<feColorMatrix in="SourceAlpha" type="matrix" values="0 0 0 0 0 0 0 0 0 0 0 0 0 0 0 0 0 0 127 0" result="hardAlpha"/>
<feOffset dy="4"/>
<feGaussianBlur stdDeviation="2"/>
<feComposite in2="hardAlpha" operator="out"/>
<feColorMatrix type="matrix" values="0 0 0 0 0 0 0 0 0 0 0 0 0 0 0 0 0 0 0.25 0"/>
<feBlend mode="normal" in2="BackgroundImageFix" result="effect1_dropShadow_181_1696"/>
<feBlend mode="normal" in="SourceGraphic" in2="effect1_dropShadow_181_1696" result="shape"/>
</filter>
<linearGradient id="paint0_linear_181_1696" x1="53" y1="0" x2="113" y2="60" gradientUnits="userSpaceOnUse">
<stop stop-color="#CCCCCC" stop-opacity="0.8"/>
<stop offset="0.802885" stop-color="#1C3F3A"/>
</linearGradient>
</defs>
</svg>
