<svg width="500" height="280" viewBox="0 0 500 280" fill="none" xmlns="http://www.w3.org/2000/svg">
<g clip-path="url(#clip0_274_486)">
<path d="M82.4873 221H493.655" stroke="#F0F0F0" stroke-dasharray="3 3"/>
<path d="M82.4873 167H493.655" stroke="#F0F0F0" stroke-dasharray="3 3"/>
<path d="M82.4873 113H493.655" stroke="#F0F0F0" stroke-dasharray="3 3"/>
<path d="M82.4873 59H493.655" stroke="#F0F0F0" stroke-dasharray="3 3"/>
<path d="M82.4873 5H493.655" stroke="#F0F0F0" stroke-dasharray="3 3"/>
<path d="M82.4873 5V221" stroke="#F0F0F0" stroke-dasharray="3 3"/>
<path d="M185.279 5V221" stroke="#F0F0F0" stroke-dasharray="3 3"/>
<path d="M288.071 5V221" stroke="#F0F0F0" stroke-dasharray="3 3"/>
<path d="M390.863 5V221" stroke="#F0F0F0" stroke-dasharray="3 3"/>
<path d="M493.655 5V221" stroke="#F0F0F0" stroke-dasharray="3 3"/>
<path d="M76.3296 233.156C76.3296 234.077 76.1635 234.872 75.8311 235.543C75.4987 236.213 75.0427 236.73 74.4632 237.094C73.8836 237.458 73.2217 237.639 72.4774 237.639C71.7331 237.639 71.0711 237.458 70.4916 237.094C69.912 236.73 69.4561 236.213 69.1237 235.543C68.7913 234.872 68.6251 234.077 68.6251 233.156C68.6251 232.236 68.7913 231.44 69.1237 230.77C69.4561 230.1 69.912 229.583 70.4916 229.219C71.0711 228.855 71.7331 228.673 72.4774 228.673C73.2217 228.673 73.8836 228.855 74.4632 229.219C75.0427 229.583 75.4987 230.1 75.8311 230.77C76.1635 231.44 76.3296 232.236 76.3296 233.156ZM75.3069 233.156C75.3069 232.401 75.1805 231.763 74.9277 231.243C74.6777 230.723 74.3382 230.33 73.9092 230.063C73.4831 229.796 73.0058 229.662 72.4774 229.662C71.949 229.662 71.4703 229.796 71.0413 230.063C70.6152 230.33 70.2757 230.723 70.0228 231.243C69.7728 231.763 69.6478 232.401 69.6478 233.156C69.6478 233.912 69.7728 234.55 70.0228 235.07C70.2757 235.59 70.6152 235.983 71.0413 236.25C71.4703 236.517 71.949 236.651 72.4774 236.651C73.0058 236.651 73.4831 236.517 73.9092 236.25C74.3382 235.983 74.6777 235.59 74.9277 235.07C75.1805 234.55 75.3069 233.912 75.3069 233.156ZM80.6294 237.656C80.0157 237.656 79.4873 237.511 79.0441 237.222C78.601 236.932 78.26 236.533 78.0214 236.024C77.7828 235.516 77.6635 234.935 77.6635 234.281C77.6635 233.617 77.7856 233.03 78.0299 232.521C78.2771 232.01 78.6208 231.611 79.0612 231.324C79.5044 231.034 80.0214 230.889 80.6123 230.889C81.0725 230.889 81.4873 230.975 81.8566 231.145C82.226 231.315 82.5285 231.554 82.7643 231.861C83.0001 232.168 83.1464 232.526 83.2032 232.935H82.1975C82.1208 232.636 81.9504 232.372 81.6862 232.142C81.4248 231.909 81.0725 231.793 80.6294 231.793C80.2373 231.793 79.8936 231.895 79.5981 232.1C79.3055 232.301 79.0768 232.587 78.912 232.956C78.7501 233.323 78.6691 233.753 78.6691 234.247C78.6691 234.753 78.7487 235.193 78.9078 235.568C79.0697 235.943 79.297 236.235 79.5896 236.442C79.885 236.649 80.2316 236.753 80.6294 236.753C80.8907 236.753 81.1279 236.708 81.341 236.617C81.5541 236.526 81.7345 236.395 81.8822 236.225C82.0299 236.054 82.135 235.85 82.1975 235.611H83.2032C83.1464 235.997 83.0058 236.345 82.7814 236.655C82.5598 236.962 82.2657 237.206 81.8992 237.388C81.5356 237.567 81.1123 237.656 80.6294 237.656ZM87.52 230.975V231.827H84.1279V230.975H87.52ZM85.1166 229.406H86.1223V235.645C86.1223 235.929 86.1635 236.142 86.2458 236.284C86.3311 236.423 86.439 236.517 86.5697 236.565C86.7032 236.611 86.8439 236.634 86.9916 236.634C87.1024 236.634 87.1933 236.628 87.2643 236.617C87.3353 236.602 87.3921 236.591 87.4348 236.583L87.6393 237.486C87.5711 237.511 87.476 237.537 87.3538 237.563C87.2316 237.591 87.0768 237.605 86.8893 237.605C86.6052 237.605 86.3268 237.544 86.0541 237.422C85.7842 237.3 85.5598 237.114 85.3808 236.864C85.2046 236.614 85.1166 236.298 85.1166 235.918V229.406ZM95.4589 228.793V237.52H94.4021V229.901H94.351L92.2203 231.315V230.242L94.4021 228.793H95.4589Z" fill="#9CA3AF"/>
<path d="M178.26 233.156C178.26 234.077 178.094 234.872 177.762 235.543C177.429 236.213 176.973 236.73 176.394 237.094C175.814 237.458 175.152 237.639 174.408 237.639C173.664 237.639 173.002 237.458 172.422 237.094C171.843 236.73 171.387 236.213 171.054 235.543C170.722 234.872 170.556 234.077 170.556 233.156C170.556 232.236 170.722 231.44 171.054 230.77C171.387 230.1 171.843 229.583 172.422 229.219C173.002 228.855 173.664 228.673 174.408 228.673C175.152 228.673 175.814 228.855 176.394 229.219C176.973 229.583 177.429 230.1 177.762 230.77C178.094 231.44 178.26 232.236 178.26 233.156ZM177.237 233.156C177.237 232.401 177.111 231.763 176.858 231.243C176.608 230.723 176.269 230.33 175.84 230.063C175.414 229.796 174.936 229.662 174.408 229.662C173.88 229.662 173.401 229.796 172.972 230.063C172.546 230.33 172.206 230.723 171.953 231.243C171.703 231.763 171.578 232.401 171.578 233.156C171.578 233.912 171.703 234.55 171.953 235.07C172.206 235.59 172.546 235.983 172.972 236.25C173.401 236.517 173.88 236.651 174.408 236.651C174.936 236.651 175.414 236.517 175.84 236.25C176.269 235.983 176.608 235.59 176.858 235.07C177.111 234.55 177.237 233.912 177.237 233.156ZM182.56 237.656C181.946 237.656 181.418 237.511 180.975 237.222C180.531 236.932 180.191 236.533 179.952 236.024C179.713 235.516 179.594 234.935 179.594 234.281C179.594 233.617 179.716 233.03 179.96 232.521C180.208 232.01 180.551 231.611 180.992 231.324C181.435 231.034 181.952 230.889 182.543 230.889C183.003 230.889 183.418 230.975 183.787 231.145C184.156 231.315 184.459 231.554 184.695 231.861C184.931 232.168 185.077 232.526 185.134 232.935H184.128C184.051 232.636 183.881 232.372 183.617 232.142C183.355 231.909 183.003 231.793 182.56 231.793C182.168 231.793 181.824 231.895 181.529 232.1C181.236 232.301 181.007 232.587 180.843 232.956C180.681 233.323 180.6 233.753 180.6 234.247C180.6 234.753 180.679 235.193 180.838 235.568C181 235.943 181.228 236.235 181.52 236.442C181.816 236.649 182.162 236.753 182.56 236.753C182.821 236.753 183.058 236.708 183.272 236.617C183.485 236.526 183.665 236.395 183.813 236.225C183.96 236.054 184.066 235.85 184.128 235.611H185.134C185.077 235.997 184.936 236.345 184.712 236.655C184.49 236.962 184.196 237.206 183.83 237.388C183.466 237.567 183.043 237.656 182.56 237.656ZM189.451 230.975V231.827H186.058V230.975H189.451ZM187.047 229.406H188.053V235.645C188.053 235.929 188.094 236.142 188.176 236.284C188.262 236.423 188.37 236.517 188.5 236.565C188.634 236.611 188.774 236.634 188.922 236.634C189.033 236.634 189.124 236.628 189.195 236.617C189.266 236.602 189.323 236.591 189.365 236.583L189.57 237.486C189.502 237.511 189.406 237.537 189.284 237.563C189.162 237.591 189.007 237.605 188.82 237.605C188.536 237.605 188.257 237.544 187.985 237.422C187.715 237.3 187.49 237.114 187.311 236.864C187.135 236.614 187.047 236.298 187.047 235.918V229.406ZM197.049 237.639C196.549 237.639 196.098 237.54 195.698 237.341C195.297 237.142 194.976 236.869 194.735 236.523C194.493 236.176 194.361 235.781 194.338 235.338H195.361C195.401 235.733 195.58 236.06 195.898 236.318C196.219 236.574 196.603 236.702 197.049 236.702C197.406 236.702 197.725 236.618 198.003 236.45C198.284 236.283 198.505 236.053 198.664 235.76C198.826 235.465 198.906 235.131 198.906 234.759C198.906 234.378 198.823 234.038 198.655 233.74C198.49 233.439 198.263 233.202 197.973 233.029C197.683 232.855 197.353 232.767 196.98 232.764C196.713 232.761 196.439 232.803 196.158 232.888C195.877 232.97 195.645 233.077 195.463 233.208L194.475 233.088L195.003 228.793H199.537V229.73H195.889L195.583 232.304H195.634C195.813 232.162 196.037 232.044 196.307 231.95C196.577 231.857 196.858 231.81 197.151 231.81C197.685 231.81 198.161 231.938 198.578 232.193C198.999 232.446 199.328 232.793 199.567 233.233C199.808 233.673 199.929 234.176 199.929 234.742C199.929 235.298 199.804 235.796 199.554 236.233C199.307 236.668 198.966 237.011 198.531 237.264C198.097 237.514 197.603 237.639 197.049 237.639Z" fill="#9CA3AF"/>
<path d="M280.958 233.156C280.958 234.077 280.792 234.872 280.46 235.543C280.127 236.213 279.671 236.73 279.092 237.094C278.512 237.458 277.85 237.639 277.106 237.639C276.362 237.639 275.7 237.458 275.12 237.094C274.541 236.73 274.085 236.213 273.752 235.543C273.42 234.872 273.254 234.077 273.254 233.156C273.254 232.236 273.42 231.44 273.752 230.77C274.085 230.1 274.541 229.583 275.12 229.219C275.7 228.855 276.362 228.673 277.106 228.673C277.85 228.673 278.512 228.855 279.092 229.219C279.671 229.583 280.127 230.1 280.46 230.77C280.792 231.44 280.958 232.236 280.958 233.156ZM279.936 233.156C279.936 232.401 279.809 231.763 279.556 231.243C279.306 230.723 278.967 230.33 278.538 230.063C278.112 229.796 277.634 229.662 277.106 229.662C276.578 229.662 276.099 229.796 275.67 230.063C275.244 230.33 274.904 230.723 274.651 231.243C274.401 231.763 274.276 232.401 274.276 233.156C274.276 233.912 274.401 234.55 274.651 235.07C274.904 235.59 275.244 235.983 275.67 236.25C276.099 236.517 276.578 236.651 277.106 236.651C277.634 236.651 278.112 236.517 278.538 236.25C278.967 235.983 279.306 235.59 279.556 235.07C279.809 234.55 279.936 233.912 279.936 233.156ZM285.258 237.656C284.644 237.656 284.116 237.511 283.673 237.222C283.23 236.932 282.889 236.533 282.65 236.024C282.411 235.516 282.292 234.935 282.292 234.281C282.292 233.617 282.414 233.03 282.659 232.521C282.906 232.01 283.249 231.611 283.69 231.324C284.133 231.034 284.65 230.889 285.241 230.889C285.701 230.889 286.116 230.975 286.485 231.145C286.855 231.315 287.157 231.554 287.393 231.861C287.629 232.168 287.775 232.526 287.832 232.935H286.826C286.749 232.636 286.579 232.372 286.315 232.142C286.053 231.909 285.701 231.793 285.258 231.793C284.866 231.793 284.522 231.895 284.227 232.1C283.934 232.301 283.705 232.587 283.541 232.956C283.379 233.323 283.298 233.753 283.298 234.247C283.298 234.753 283.377 235.193 283.536 235.568C283.698 235.943 283.926 236.235 284.218 236.442C284.514 236.649 284.86 236.753 285.258 236.753C285.519 236.753 285.757 236.708 285.97 236.617C286.183 236.526 286.363 236.395 286.511 236.225C286.659 236.054 286.764 235.85 286.826 235.611H287.832C287.775 235.997 287.634 236.345 287.41 236.655C287.188 236.962 286.894 237.206 286.528 237.388C286.164 237.567 285.741 237.656 285.258 237.656ZM292.149 230.975V231.827H288.757V230.975H292.149ZM289.745 229.406H290.751V235.645C290.751 235.929 290.792 236.142 290.874 236.284C290.96 236.423 291.068 236.517 291.198 236.565C291.332 236.611 291.473 236.634 291.62 236.634C291.731 236.634 291.822 236.628 291.893 236.617C291.964 236.602 292.021 236.591 292.063 236.583L292.268 237.486C292.2 237.511 292.105 237.537 291.982 237.563C291.86 237.591 291.705 237.605 291.518 237.605C291.234 237.605 290.955 237.544 290.683 237.422C290.413 237.3 290.188 237.114 290.009 236.864C289.833 236.614 289.745 236.298 289.745 235.918V229.406ZM299.798 228.673C300.156 228.676 300.514 228.744 300.872 228.878C301.23 229.011 301.556 229.233 301.852 229.543C302.147 229.85 302.384 230.269 302.563 230.8C302.742 231.331 302.832 231.997 302.832 232.798C302.832 233.574 302.758 234.263 302.61 234.865C302.465 235.465 302.255 235.97 301.98 236.382C301.707 236.794 301.374 237.107 300.982 237.32C300.593 237.533 300.153 237.639 299.661 237.639C299.173 237.639 298.737 237.543 298.353 237.35C297.973 237.154 297.66 236.882 297.416 236.536C297.174 236.186 297.019 235.781 296.951 235.321H297.991C298.085 235.722 298.271 236.053 298.549 236.314C298.83 236.573 299.201 236.702 299.661 236.702C300.335 236.702 300.866 236.408 301.255 235.82C301.647 235.232 301.843 234.401 301.843 233.327H301.775C301.616 233.565 301.427 233.771 301.208 233.945C300.99 234.118 300.747 234.252 300.48 234.345C300.213 234.439 299.928 234.486 299.627 234.486C299.127 234.486 298.669 234.362 298.251 234.115C297.836 233.865 297.504 233.523 297.254 233.088C297.007 232.651 296.883 232.151 296.883 231.588C296.883 231.054 297.002 230.565 297.241 230.122C297.482 229.676 297.821 229.321 298.255 229.057C298.693 228.793 299.207 228.665 299.798 228.673ZM299.798 229.611C299.44 229.611 299.117 229.7 298.83 229.879C298.546 230.056 298.321 230.294 298.153 230.595C297.988 230.894 297.906 231.225 297.906 231.588C297.906 231.952 297.985 232.283 298.144 232.581C298.306 232.877 298.526 233.112 298.805 233.288C299.086 233.462 299.406 233.548 299.764 233.548C300.034 233.548 300.285 233.496 300.518 233.391C300.751 233.283 300.954 233.136 301.127 232.952C301.303 232.764 301.441 232.553 301.541 232.317C301.64 232.078 301.69 231.83 301.69 231.571C301.69 231.23 301.607 230.911 301.443 230.612C301.281 230.314 301.056 230.073 300.769 229.888C300.485 229.703 300.161 229.611 299.798 229.611Z" fill="#9CA3AF"/>
<path d="M380.885 233.156C380.885 234.077 380.719 234.872 380.386 235.543C380.054 236.213 379.598 236.73 379.019 237.094C378.439 237.458 377.777 237.639 377.033 237.639C376.288 237.639 375.626 237.458 375.047 237.094C374.467 236.73 374.011 236.213 373.679 235.543C373.347 234.872 373.18 234.077 373.18 233.156C373.18 232.236 373.347 231.44 373.679 230.77C374.011 230.1 374.467 229.583 375.047 229.219C375.626 228.855 376.288 228.673 377.033 228.673C377.777 228.673 378.439 228.855 379.019 229.219C379.598 229.583 380.054 230.1 380.386 230.77C380.719 231.44 380.885 232.236 380.885 233.156ZM379.862 233.156C379.862 232.401 379.736 231.763 379.483 231.243C379.233 230.723 378.894 230.33 378.465 230.063C378.038 229.796 377.561 229.662 377.033 229.662C376.504 229.662 376.026 229.796 375.597 230.063C375.17 230.33 374.831 230.723 374.578 231.243C374.328 231.763 374.203 232.401 374.203 233.156C374.203 233.912 374.328 234.55 374.578 235.07C374.831 235.59 375.17 235.983 375.597 236.25C376.026 236.517 376.504 236.651 377.033 236.651C377.561 236.651 378.038 236.517 378.465 236.25C378.894 235.983 379.233 235.59 379.483 235.07C379.736 234.55 379.862 233.912 379.862 233.156ZM385.185 237.656C384.571 237.656 384.043 237.511 383.599 237.222C383.156 236.932 382.815 236.533 382.577 236.024C382.338 235.516 382.219 234.935 382.219 234.281C382.219 233.617 382.341 233.03 382.585 232.521C382.832 232.01 383.176 231.611 383.617 231.324C384.06 231.034 384.577 230.889 385.168 230.889C385.628 230.889 386.043 230.975 386.412 231.145C386.781 231.315 387.084 231.554 387.32 231.861C387.555 232.168 387.702 232.526 387.759 232.935H386.753C386.676 232.636 386.506 232.372 386.242 232.142C385.98 231.909 385.628 231.793 385.185 231.793C384.793 231.793 384.449 231.895 384.153 232.1C383.861 232.301 383.632 232.587 383.467 232.956C383.305 233.323 383.224 233.753 383.224 234.247C383.224 234.753 383.304 235.193 383.463 235.568C383.625 235.943 383.852 236.235 384.145 236.442C384.44 236.649 384.787 236.753 385.185 236.753C385.446 236.753 385.683 236.708 385.896 236.617C386.109 236.526 386.29 236.395 386.438 236.225C386.585 236.054 386.69 235.85 386.753 235.611H387.759C387.702 235.997 387.561 236.345 387.337 236.655C387.115 236.962 386.821 237.206 386.455 237.388C386.091 237.567 385.668 237.656 385.185 237.656ZM392.075 230.975V231.827H388.683V230.975H392.075ZM389.672 229.406H390.678V235.645C390.678 235.929 390.719 236.142 390.801 236.284C390.886 236.423 390.994 236.517 391.125 236.565C391.259 236.611 391.399 236.634 391.547 236.634C391.658 236.634 391.749 236.628 391.82 236.617C391.891 236.602 391.947 236.591 391.99 236.583L392.195 237.486C392.126 237.511 392.031 237.537 391.909 237.563C391.787 237.591 391.632 237.605 391.445 237.605C391.161 237.605 390.882 237.544 390.609 237.422C390.34 237.3 390.115 237.114 389.936 236.864C389.76 236.614 389.672 236.298 389.672 235.918V229.406ZM400.014 228.793V237.52H398.957V229.901H398.906L396.776 231.315V230.242L398.957 228.793H400.014ZM405.473 237.639C404.911 237.639 404.409 237.543 403.969 237.35C403.531 237.156 403.183 236.888 402.925 236.544C402.669 236.198 402.53 235.796 402.507 235.338H403.581C403.604 235.619 403.7 235.862 403.871 236.067C404.041 236.269 404.264 236.425 404.54 236.536C404.815 236.646 405.121 236.702 405.456 236.702C405.831 236.702 406.163 236.636 406.453 236.506C406.743 236.375 406.97 236.193 407.135 235.96C407.3 235.727 407.382 235.458 407.382 235.151C407.382 234.83 407.303 234.547 407.144 234.303C406.984 234.056 406.751 233.862 406.445 233.723C406.138 233.584 405.763 233.514 405.32 233.514H404.621V232.577H405.32C405.666 232.577 405.97 232.514 406.232 232.389C406.496 232.264 406.702 232.088 406.849 231.861C407 231.634 407.075 231.367 407.075 231.06C407.075 230.764 407.01 230.507 406.879 230.288C406.749 230.07 406.564 229.899 406.325 229.777C406.09 229.655 405.811 229.594 405.49 229.594C405.189 229.594 404.905 229.649 404.638 229.76C404.374 229.868 404.158 230.026 403.99 230.233C403.822 230.438 403.732 230.685 403.717 230.975H402.695C402.712 230.517 402.849 230.117 403.108 229.773C403.367 229.426 403.705 229.156 404.122 228.963C404.543 228.77 405.004 228.673 405.507 228.673C406.047 228.673 406.51 228.783 406.896 229.002C407.283 229.217 407.58 229.503 407.787 229.858C407.994 230.213 408.098 230.597 408.098 231.009C408.098 231.5 407.969 231.919 407.71 232.266C407.455 232.612 407.107 232.852 406.666 232.986V233.054C407.217 233.145 407.648 233.379 407.957 233.757C408.267 234.132 408.422 234.597 408.422 235.151C408.422 235.625 408.293 236.051 408.034 236.429C407.778 236.804 407.429 237.1 406.986 237.315C406.543 237.531 406.038 237.639 405.473 237.639Z" fill="#9CA3AF"/>
<path d="M468.055 233.156C468.055 234.077 467.889 234.872 467.557 235.543C467.224 236.213 466.768 236.73 466.189 237.094C465.609 237.458 464.947 237.639 464.203 237.639C463.459 237.639 462.797 237.458 462.217 237.094C461.638 236.73 461.182 236.213 460.849 235.543C460.517 234.872 460.351 234.077 460.351 233.156C460.351 232.236 460.517 231.44 460.849 230.77C461.182 230.1 461.638 229.583 462.217 229.219C462.797 228.855 463.459 228.673 464.203 228.673C464.947 228.673 465.609 228.855 466.189 229.219C466.768 229.583 467.224 230.1 467.557 230.77C467.889 231.44 468.055 232.236 468.055 233.156ZM467.032 233.156C467.032 232.401 466.906 231.763 466.653 231.243C466.403 230.723 466.064 230.33 465.635 230.063C465.209 229.796 464.731 229.662 464.203 229.662C463.675 229.662 463.196 229.796 462.767 230.063C462.341 230.33 462.001 230.723 461.748 231.243C461.498 231.763 461.373 232.401 461.373 233.156C461.373 233.912 461.498 234.55 461.748 235.07C462.001 235.59 462.341 235.983 462.767 236.25C463.196 236.517 463.675 236.651 464.203 236.651C464.731 236.651 465.209 236.517 465.635 236.25C466.064 235.983 466.403 235.59 466.653 235.07C466.906 234.55 467.032 233.912 467.032 233.156ZM472.355 237.656C471.741 237.656 471.213 237.511 470.77 237.222C470.327 236.932 469.986 236.533 469.747 236.024C469.508 235.516 469.389 234.935 469.389 234.281C469.389 233.617 469.511 233.03 469.755 232.521C470.003 232.01 470.346 231.611 470.787 231.324C471.23 231.034 471.747 230.889 472.338 230.889C472.798 230.889 473.213 230.975 473.582 231.145C473.952 231.315 474.254 231.554 474.49 231.861C474.726 232.168 474.872 232.526 474.929 232.935H473.923C473.846 232.636 473.676 232.372 473.412 232.142C473.15 231.909 472.798 231.793 472.355 231.793C471.963 231.793 471.619 231.895 471.324 232.1C471.031 232.301 470.802 232.587 470.638 232.956C470.476 233.323 470.395 233.753 470.395 234.247C470.395 234.753 470.474 235.193 470.633 235.568C470.795 235.943 471.023 236.235 471.315 236.442C471.611 236.649 471.957 236.753 472.355 236.753C472.616 236.753 472.854 236.708 473.067 236.617C473.28 236.526 473.46 236.395 473.608 236.225C473.755 236.054 473.861 235.85 473.923 235.611H474.929C474.872 235.997 474.731 236.345 474.507 236.655C474.285 236.962 473.991 237.206 473.625 237.388C473.261 237.567 472.838 237.656 472.355 237.656ZM479.246 230.975V231.827H475.854V230.975H479.246ZM476.842 229.406H477.848V235.645C477.848 235.929 477.889 236.142 477.971 236.284C478.057 236.423 478.165 236.517 478.295 236.565C478.429 236.611 478.569 236.634 478.717 236.634C478.828 236.634 478.919 236.628 478.99 236.617C479.061 236.602 479.118 236.591 479.16 236.583L479.365 237.486C479.297 237.511 479.202 237.537 479.079 237.563C478.957 237.591 478.802 237.605 478.615 237.605C478.331 237.605 478.052 237.544 477.78 237.422C477.51 237.3 477.285 237.114 477.106 236.864C476.93 236.614 476.842 236.298 476.842 235.918V229.406ZM487.184 228.793V237.52H486.128V229.901H486.077L483.946 231.315V230.242L486.128 228.793H487.184ZM492.422 237.639C491.922 237.639 491.471 237.54 491.071 237.341C490.67 237.142 490.349 236.869 490.108 236.523C489.866 236.176 489.734 235.781 489.711 235.338H490.734C490.774 235.733 490.953 236.06 491.271 236.318C491.592 236.574 491.976 236.702 492.422 236.702C492.78 236.702 493.098 236.618 493.376 236.45C493.657 236.283 493.878 236.053 494.037 235.76C494.199 235.465 494.28 235.131 494.28 234.759C494.28 234.378 494.196 234.038 494.028 233.74C493.863 233.439 493.636 233.202 493.346 233.029C493.057 232.855 492.726 232.767 492.354 232.764C492.086 232.761 491.812 232.803 491.531 232.888C491.25 232.97 491.018 233.077 490.836 233.208L489.848 233.088L490.376 228.793H494.91V229.73H491.263L490.956 232.304H491.007C491.186 232.162 491.41 232.044 491.68 231.95C491.95 231.857 492.231 231.81 492.524 231.81C493.058 231.81 493.534 231.938 493.952 232.193C494.372 232.446 494.702 232.793 494.94 233.233C495.182 233.673 495.302 234.176 495.302 234.742C495.302 235.298 495.177 235.796 494.927 236.233C494.68 236.668 494.339 237.011 493.905 237.264C493.47 237.514 492.976 237.639 492.422 237.639Z" fill="#9CA3AF"/>
<path d="M68.585 225.379C67.943 225.379 67.3961 225.204 66.9444 224.855C66.4927 224.503 66.1475 223.993 65.9089 223.325C65.6703 222.655 65.5509 221.845 65.5509 220.896C65.5509 219.953 65.6703 219.148 65.9089 218.48C66.1504 217.809 66.497 217.298 66.9487 216.946C67.4032 216.591 67.9487 216.413 68.585 216.413C69.2214 216.413 69.7654 216.591 70.2171 216.946C70.6717 217.298 71.0183 217.809 71.2569 218.48C71.4984 219.148 71.6191 219.953 71.6191 220.896C71.6191 221.845 71.4998 222.655 71.2612 223.325C71.0225 223.993 70.6774 224.503 70.2256 224.855C69.7739 225.204 69.2271 225.379 68.585 225.379ZM68.585 224.442C69.2214 224.442 69.7157 224.135 70.068 223.521C70.4203 222.907 70.5964 222.032 70.5964 220.896C70.5964 220.14 70.5154 219.497 70.3535 218.966C70.1944 218.434 69.9643 218.03 69.6631 217.751C69.3649 217.473 69.0055 217.334 68.585 217.334C67.9543 217.334 67.4614 217.645 67.1063 218.267C66.7512 218.886 66.5737 219.763 66.5737 220.896C66.5737 221.652 66.6532 222.294 66.8123 222.822C66.9714 223.351 67.2001 223.753 67.4984 224.028C67.7995 224.304 68.1617 224.442 68.585 224.442Z" fill="#9CA3AF"/>
<path d="M58.4728 171.26V170.493L61.3535 167.339C61.6916 166.97 61.97 166.649 62.1887 166.376C62.4075 166.101 62.5694 165.842 62.6745 165.601C62.7825 165.356 62.8365 165.101 62.8365 164.834C62.8365 164.527 62.7626 164.261 62.6149 164.037C62.47 163.812 62.2711 163.639 62.0183 163.517C61.7654 163.395 61.4813 163.334 61.166 163.334C60.8308 163.334 60.5382 163.403 60.2882 163.542C60.041 163.679 59.8492 163.871 59.7129 164.118C59.5794 164.365 59.5126 164.655 59.5126 164.987H58.5069C58.5069 164.476 58.6248 164.027 58.8606 163.64C59.0964 163.254 59.4174 162.953 59.8237 162.737C60.2328 162.521 60.6916 162.413 61.2001 162.413C61.7115 162.413 62.1646 162.521 62.5595 162.737C62.9544 162.953 63.264 163.244 63.4884 163.611C63.7129 163.977 63.8251 164.385 63.8251 164.834C63.8251 165.155 63.7669 165.469 63.6504 165.775C63.5367 166.079 63.3379 166.419 63.0538 166.794C62.7725 167.166 62.3819 167.621 61.8819 168.157L59.9217 170.254V170.322H63.9785V171.26H58.4728ZM68.585 171.379C67.943 171.379 67.3961 171.204 66.9444 170.855C66.4927 170.503 66.1475 169.993 65.9089 169.325C65.6703 168.655 65.5509 167.845 65.5509 166.896C65.5509 165.953 65.6703 165.148 65.9089 164.48C66.1504 163.809 66.497 163.298 66.9487 162.946C67.4032 162.591 67.9487 162.413 68.585 162.413C69.2214 162.413 69.7654 162.591 70.2171 162.946C70.6717 163.298 71.0183 163.809 71.2569 164.48C71.4984 165.148 71.6191 165.953 71.6191 166.896C71.6191 167.845 71.4998 168.655 71.2612 169.325C71.0225 169.993 70.6774 170.503 70.2257 170.855C69.774 171.204 69.2271 171.379 68.585 171.379ZM68.585 170.442C69.2214 170.442 69.7157 170.135 70.068 169.521C70.4203 168.907 70.5964 168.032 70.5964 166.896C70.5964 166.14 70.5154 165.497 70.3535 164.966C70.1944 164.434 69.9643 164.03 69.6632 163.751C69.3649 163.473 69.0055 163.334 68.585 163.334C67.9544 163.334 67.4615 163.645 67.1063 164.267C66.7512 164.886 66.5737 165.763 66.5737 166.896C66.5737 167.652 66.6532 168.294 66.8123 168.822C66.9714 169.351 67.2001 169.753 67.4984 170.028C67.7995 170.304 68.1617 170.442 68.585 170.442Z" fill="#9CA3AF"/>
<path d="M57.8347 115.47V114.601L61.6699 108.532H62.3006V109.879H61.8744L58.9767 114.464V114.532H64.1415V115.47H57.8347ZM61.9426 117.26V115.206V114.801V108.532H62.9483V117.26H61.9426ZM68.585 117.379C67.943 117.379 67.3961 117.204 66.9444 116.855C66.4927 116.503 66.1475 115.993 65.9089 115.325C65.6703 114.655 65.5509 113.845 65.5509 112.896C65.5509 111.953 65.6703 111.148 65.9089 110.48C66.1504 109.809 66.497 109.298 66.9487 108.946C67.4032 108.591 67.9487 108.413 68.585 108.413C69.2214 108.413 69.7654 108.591 70.2171 108.946C70.6717 109.298 71.0183 109.809 71.2569 110.48C71.4984 111.148 71.6191 111.953 71.6191 112.896C71.6191 113.845 71.4998 114.655 71.2612 115.325C71.0225 115.993 70.6774 116.503 70.2257 116.855C69.7739 117.204 69.2271 117.379 68.585 117.379ZM68.585 116.442C69.2214 116.442 69.7157 116.135 70.068 115.521C70.4203 114.907 70.5964 114.032 70.5964 112.896C70.5964 112.14 70.5154 111.497 70.3535 110.966C70.1944 110.434 69.9643 110.03 69.6632 109.751C69.3649 109.473 69.0055 109.334 68.585 109.334C67.9543 109.334 67.4614 109.645 67.1063 110.267C66.7512 110.886 66.5737 111.763 66.5737 112.896C66.5737 113.652 66.6532 114.294 66.8123 114.822C66.9714 115.351 67.2001 115.753 67.4984 116.028C67.7995 116.304 68.1617 116.442 68.585 116.442Z" fill="#9CA3AF"/>
<path d="M61.1479 63.3791C60.7899 63.3734 60.432 63.3052 60.074 63.1745C59.7161 63.0439 59.3894 62.8237 59.0939 62.514C58.7985 62.2015 58.5612 61.7797 58.3823 61.2484C58.2033 60.7143 58.1138 60.0439 58.1138 59.237C58.1138 58.4643 58.1862 57.7797 58.3311 57.1831C58.476 56.5836 58.6862 56.0794 58.9618 55.6703C59.2374 55.2583 59.5698 54.9458 59.959 54.7328C60.351 54.5197 60.7928 54.4132 61.2843 54.4132C61.7729 54.4132 62.2075 54.5112 62.5882 54.7072C62.9718 54.9004 63.2843 55.1703 63.5257 55.5169C63.7672 55.8635 63.9235 56.2626 63.9945 56.7143H62.9547C62.8581 56.3223 62.6706 55.997 62.3922 55.7385C62.1138 55.4799 61.7445 55.3507 61.2843 55.3507C60.6081 55.3507 60.0754 55.6447 59.6862 56.2328C59.2999 56.8208 59.1053 57.6461 59.1024 58.7086H59.1706C59.3297 58.4672 59.5186 58.2612 59.7374 58.0907C59.959 57.9174 60.2033 57.7839 60.4703 57.6902C60.7374 57.5964 61.02 57.5495 61.3183 57.5495C61.8183 57.5495 62.2757 57.6745 62.6905 57.9245C63.1053 58.1717 63.4377 58.514 63.6877 58.9515C63.9377 59.3862 64.0627 59.8848 64.0627 60.4473C64.0627 60.987 63.9419 61.4814 63.7004 61.9302C63.459 62.3762 63.1195 62.7314 62.682 62.9956C62.2473 63.2569 61.736 63.3848 61.1479 63.3791ZM61.1479 62.4416C61.5058 62.4416 61.8269 62.3521 62.111 62.1731C62.3979 61.9941 62.6237 61.7541 62.7885 61.4529C62.9561 61.1518 63.0399 60.8166 63.0399 60.4473C63.0399 60.0865 62.959 59.7583 62.797 59.4629C62.6379 59.1646 62.4178 58.9274 62.1365 58.7512C61.8581 58.5751 61.5399 58.487 61.182 58.487C60.9121 58.487 60.6607 58.541 60.4277 58.649C60.1948 58.7541 59.9902 58.899 59.8141 59.0836C59.6408 59.2683 59.5044 59.4799 59.405 59.7186C59.3056 59.9544 59.2558 60.2029 59.2558 60.4643C59.2558 60.8109 59.3368 61.1348 59.4987 61.4359C59.6635 61.737 59.8879 61.9799 60.172 62.1646C60.459 62.3493 60.7843 62.4416 61.1479 62.4416ZM68.585 63.3791C67.943 63.3791 67.3961 63.2044 66.9444 62.8549C66.4927 62.5027 66.1475 61.9927 65.9089 61.3251C65.6703 60.6547 65.5509 59.845 65.5509 58.8961C65.5509 57.9529 65.6703 57.1475 65.9089 56.4799C66.1504 55.8095 66.497 55.2981 66.9487 54.9458C67.4032 54.5907 67.9487 54.4132 68.585 54.4132C69.2214 54.4132 69.7654 54.5907 70.2171 54.9458C70.6717 55.2981 71.0183 55.8095 71.2569 56.4799C71.4984 57.1475 71.6191 57.9529 71.6191 58.8961C71.6191 59.845 71.4998 60.6547 71.2612 61.3251C71.0225 61.9927 70.6774 62.5027 70.2257 62.8549C69.774 63.2044 69.2271 63.3791 68.585 63.3791ZM68.585 62.4416C69.2214 62.4416 69.7157 62.1348 70.068 61.5211C70.4203 60.9075 70.5964 60.0325 70.5964 58.8961C70.5964 58.1404 70.5154 57.497 70.3535 56.9657C70.1944 56.4345 69.9643 56.0297 69.6632 55.7512C69.3649 55.4728 69.0055 55.3336 68.585 55.3336C67.9544 55.3336 67.4615 55.6447 67.1063 56.2669C66.7512 56.8862 66.5737 57.7626 66.5737 58.8961C66.5737 59.6518 66.6532 60.2939 66.8123 60.8223C66.9714 61.3507 67.2001 61.7527 67.4984 62.0282C67.7995 62.3038 68.1617 62.4416 68.585 62.4416Z" fill="#9CA3AF"/>
<path d="M61.1394 13.3791C60.5541 13.3791 60.0371 13.2754 59.5882 13.068C59.1422 12.8578 58.7942 12.5694 58.5442 12.2029C58.2942 11.8336 58.1706 11.4132 58.1735 10.9416C58.1706 10.5723 58.2431 10.2314 58.3908 9.91886C58.5385 9.60352 58.7402 9.34073 58.9959 9.1305C59.2544 8.91744 59.5428 8.78249 59.861 8.72567V8.67454C59.4433 8.56658 59.111 8.33221 58.8638 7.97141C58.6166 7.60778 58.4945 7.19442 58.4973 6.73136C58.4945 6.28817 58.6067 5.89187 58.834 5.54244C59.0612 5.193 59.3737 4.91744 59.7715 4.71573C60.172 4.51403 60.628 4.41317 61.1394 4.41317C61.645 4.41317 62.0968 4.51403 62.4945 4.71573C62.8922 4.91744 63.2047 5.193 63.432 5.54244C63.6621 5.89187 63.7786 6.28817 63.7814 6.73136C63.7786 7.19442 63.6522 7.60778 63.4022 7.97141C63.155 8.33221 62.8269 8.56658 62.4178 8.67454V8.72567C62.7331 8.78249 63.0172 8.91744 63.27 9.1305C63.5229 9.34073 63.7246 9.60352 63.8752 9.91886C64.0257 10.2314 64.1024 10.5723 64.1053 10.9416C64.1024 11.4132 63.9746 11.8336 63.7218 12.2029C63.4718 12.5694 63.1237 12.8578 62.6777 13.068C62.2345 13.2754 61.7218 13.3791 61.1394 13.3791ZM61.1394 12.4416C61.5343 12.4416 61.8752 12.3777 62.1621 12.2498C62.449 12.122 62.6706 11.9416 62.8269 11.7086C62.9831 11.4757 63.0627 11.2029 63.0655 10.8904C63.0627 10.5609 62.9774 10.2697 62.8098 10.0169C62.6422 9.76403 62.4135 9.56516 62.1237 9.42028C61.8368 9.27539 61.5087 9.20295 61.1394 9.20295C60.7672 9.20295 60.4348 9.27539 60.1422 9.42028C59.8524 9.56516 59.6237 9.76403 59.4561 10.0169C59.2914 10.2697 59.2104 10.5609 59.2132 10.8904C59.2104 11.2029 59.2857 11.4757 59.4391 11.7086C59.5953 11.9416 59.8183 12.122 60.1081 12.2498C60.3979 12.3777 60.7416 12.4416 61.1394 12.4416ZM61.1394 8.29954C61.4519 8.29954 61.7289 8.23704 61.9703 8.11204C62.2147 7.98704 62.4064 7.81232 62.5456 7.58789C62.6848 7.36346 62.7558 7.10067 62.7587 6.79954C62.7558 6.50408 62.6862 6.24698 62.5499 6.02823C62.4135 5.80664 62.2246 5.63619 61.9831 5.51687C61.7416 5.39471 61.4604 5.33363 61.1394 5.33363C60.8127 5.33363 60.5271 5.39471 60.2828 5.51687C60.0385 5.63619 59.8496 5.80664 59.7161 6.02823C59.5825 6.24698 59.5172 6.50408 59.52 6.79954C59.5172 7.10067 59.584 7.36346 59.7203 7.58789C59.8595 7.81232 60.0513 7.98704 60.2956 8.11204C60.5399 8.23704 60.8212 8.29954 61.1394 8.29954ZM68.585 13.3791C67.943 13.3791 67.3961 13.2044 66.9444 12.8549C66.4927 12.5027 66.1475 11.9927 65.9089 11.3251C65.6703 10.6547 65.5509 9.84499 65.5509 8.89613C65.5509 7.95295 65.6703 7.14755 65.9089 6.47994C66.1504 5.80948 66.497 5.29812 66.9487 4.94584C67.4032 4.59073 67.9487 4.41317 68.585 4.41317C69.2214 4.41317 69.7654 4.59073 70.2171 4.94584C70.6717 5.29812 71.0183 5.80948 71.2569 6.47994C71.4984 7.14755 71.6191 7.95295 71.6191 8.89613C71.6191 9.84499 71.4998 10.6547 71.2612 11.3251C71.0225 11.9927 70.6774 12.5027 70.2257 12.8549C69.774 13.2044 69.2271 13.3791 68.585 13.3791ZM68.585 12.4416C69.2214 12.4416 69.7157 12.1348 70.068 11.5211C70.4203 10.9075 70.5964 10.0325 70.5964 8.89613C70.5964 8.14045 70.5154 7.49698 70.3535 6.96573C70.1944 6.43448 69.9643 6.02965 69.6632 5.75124C69.3649 5.47283 69.0055 5.33363 68.585 5.33363C67.9544 5.33363 67.4615 5.64471 67.1063 6.26687C66.7512 6.88619 66.5737 7.76261 66.5737 8.89613C66.5737 9.65181 66.6532 10.2939 66.8123 10.8223C66.9714 11.3507 67.2001 11.7527 67.4984 12.0282C67.7995 12.3038 68.1617 12.4416 68.585 12.4416Z" fill="#9CA3AF"/>
<path d="M82.4873 99.4998C116.751 90.0498 151.015 80.5998 185.279 80.5998C219.543 80.5998 253.807 91.3998 288.071 91.3998C322.335 91.3998 356.599 56.2998 390.863 56.2998C425.127 56.2998 459.391 60.3498 493.655 64.3998" stroke="#5D7872" stroke-width="2"/>
<path d="M82.4873 103.5C85.2908 103.5 87.5634 101.709 87.5634 99.5C87.5634 97.2909 85.2908 95.5 82.4873 95.5C79.6838 95.5 77.4112 97.2909 77.4112 99.5C77.4112 101.709 79.6838 103.5 82.4873 103.5Z" fill="#5D7872" stroke="#5D7872" stroke-width="2"/>
<path d="M185.279 84.5996C188.083 84.5996 190.355 82.8087 190.355 80.5996C190.355 78.3905 188.083 76.5996 185.279 76.5996C182.476 76.5996 180.203 78.3905 180.203 80.5996C180.203 82.8087 182.476 84.5996 185.279 84.5996Z" fill="#5D7872" stroke="#5D7872" stroke-width="2"/>
<path d="M288.071 95.3999C290.875 95.3999 293.147 93.609 293.147 91.3999C293.147 89.1908 290.875 87.3999 288.071 87.3999C285.268 87.3999 282.995 89.1908 282.995 91.3999C282.995 93.609 285.268 95.3999 288.071 95.3999Z" fill="#5D7872" stroke="#5D7872" stroke-width="2"/>
<path d="M390.863 60.2998C393.666 60.2998 395.939 58.5089 395.939 56.2998C395.939 54.0907 393.666 52.2998 390.863 52.2998C388.059 52.2998 385.787 54.0907 385.787 56.2998C385.787 58.5089 388.059 60.2998 390.863 60.2998Z" fill="#5D7872" stroke="#5D7872" stroke-width="2"/>
<path d="M493.655 68.3999C496.458 68.3999 498.731 66.609 498.731 64.3999C498.731 62.1908 496.458 60.3999 493.655 60.3999C490.851 60.3999 488.579 62.1908 488.579 64.3999C488.579 66.609 490.851 68.3999 493.655 68.3999Z" fill="#5D7872" stroke="#5D7872" stroke-width="2"/>
<path d="M82.4873 145.4C116.751 140.225 151.015 135.05 185.279 129.2C219.543 123.35 253.807 118.4 288.071 110.3C322.335 102.2 356.599 80.6001 390.863 80.6001C425.127 80.6001 459.391 86.0001 493.655 91.4001" stroke="#16A34A" stroke-width="2"/>
<path d="M82.4873 149.4C85.2908 149.4 87.5634 147.609 87.5634 145.4C87.5634 143.191 85.2908 141.4 82.4873 141.4C79.6838 141.4 77.4112 143.191 77.4112 145.4C77.4112 147.609 79.6838 149.4 82.4873 149.4Z" fill="#16A34A" stroke="#16A34A" stroke-width="2"/>
<path d="M185.279 133.2C188.083 133.2 190.355 131.409 190.355 129.2C190.355 126.991 188.083 125.2 185.279 125.2C182.476 125.2 180.203 126.991 180.203 129.2C180.203 131.409 182.476 133.2 185.279 133.2Z" fill="#16A34A" stroke="#16A34A" stroke-width="2"/>
<path d="M288.071 114.3C290.875 114.3 293.147 112.509 293.147 110.3C293.147 108.091 290.875 106.3 288.071 106.3C285.268 106.3 282.995 108.091 282.995 110.3C282.995 112.509 285.268 114.3 288.071 114.3Z" fill="#16A34A" stroke="#16A34A" stroke-width="2"/>
<path d="M390.863 84.6001C393.666 84.6001 395.939 82.8092 395.939 80.6001C395.939 78.391 393.666 76.6001 390.863 76.6001C388.059 76.6001 385.787 78.391 385.787 80.6001C385.787 82.8092 388.059 84.6001 390.863 84.6001Z" fill="#16A34A" stroke="#16A34A" stroke-width="2"/>
<path d="M493.655 95.3999C496.458 95.3999 498.731 93.609 498.731 91.3999C498.731 89.1908 496.458 87.3999 493.655 87.3999C490.851 87.3999 488.579 89.1908 488.579 91.3999C488.579 93.609 490.851 95.3999 493.655 95.3999Z" fill="#16A34A" stroke="#16A34A" stroke-width="2"/>
</g>
<defs>
<clipPath id="clip0_274_486">
<rect width="500" height="280" fill="white"/>
</clipPath>
</defs>
</svg>
