<svg width="16" height="16" viewBox="0 0 16 16" fill="none" xmlns="http://www.w3.org/2000/svg">
<path d="M6.6665 7.33398V11.334" stroke="#FF6B6B" stroke-width="1.33333" stroke-linecap="round" stroke-linejoin="round"/>
<path d="M9.3335 7.33398V11.334" stroke="#FF6B6B" stroke-width="1.33333" stroke-linecap="round" stroke-linejoin="round"/>
<path d="M12.6668 4V13.3333C12.6668 13.687 12.5264 14.0261 12.2763 14.2761C12.0263 14.5262 11.6871 14.6667 11.3335 14.6667H4.66683C4.31321 14.6667 3.97407 14.5262 3.72402 14.2761C3.47397 14.0261 3.3335 13.687 3.3335 13.3333V4" stroke="#FF6B6B" stroke-width="1.33333" stroke-linecap="round" stroke-linejoin="round"/>
<path d="M2 4H14" stroke="#FF6B6B" stroke-width="1.33333" stroke-linecap="round" stroke-linejoin="round"/>
<path d="M5.3335 4.00065V2.66732C5.3335 2.3137 5.47397 1.97456 5.72402 1.72451C5.97407 1.47446 6.31321 1.33398 6.66683 1.33398H9.3335C9.68712 1.33398 10.0263 1.47446 10.2763 1.72451C10.5264 1.97456 10.6668 2.3137 10.6668 2.66732V4.00065" stroke="#FF6B6B" stroke-width="1.33333" stroke-linecap="round" stroke-linejoin="round"/>
</svg>
