<svg width="40" height="40" viewBox="0 0 40 40" fill="none" xmlns="http://www.w3.org/2000/svg">
<path d="M0 12C0 5.37258 5.37258 0 12 0H28C34.6274 0 40 5.37258 40 12V28C40 34.6274 34.6274 40 28 40H12C5.37258 40 0 34.6274 0 28V12Z" fill="url(#paint0_linear_236_1162)"/>
<path d="M16.6665 21.666C19.4279 21.666 21.6665 19.4274 21.6665 16.666C21.6665 13.9046 19.4279 11.666 16.6665 11.666C13.9051 11.666 11.6665 13.9046 11.6665 16.666C11.6665 19.4274 13.9051 21.666 16.6665 21.666Z" stroke="#1C3F3A" stroke-width="1.66667" stroke-linecap="round" stroke-linejoin="round"/>
<path d="M25.075 18.6426C25.8628 18.9363 26.5638 19.4239 27.1132 20.0602C27.6625 20.6966 28.0426 21.4613 28.2182 22.2835C28.3937 23.1057 28.3591 23.9588 28.1176 24.7641C27.876 25.5694 27.4353 26.3008 26.8362 26.8906C26.2371 27.4804 25.499 27.9096 24.69 28.1386C23.8811 28.3676 23.0275 28.3888 22.2081 28.2005C21.3888 28.0121 20.6301 27.6202 20.0024 27.0609C19.3746 26.5017 18.8981 25.7932 18.6167 25.0009" stroke="#1C3F3A" stroke-width="1.66667" stroke-linecap="round" stroke-linejoin="round"/>
<path d="M15.8335 15H16.6668V18.3333" stroke="#1C3F3A" stroke-width="1.66667" stroke-linecap="round" stroke-linejoin="round"/>
<path d="M23.9249 21.5664L24.5082 22.1581L22.1582 24.5081" stroke="#1C3F3A" stroke-width="1.66667" stroke-linecap="round" stroke-linejoin="round"/>
<defs>
<linearGradient id="paint0_linear_236_1162" x1="0" y1="0" x2="40" y2="40" gradientUnits="userSpaceOnUse">
<stop stop-color="#FFE66D"/>
<stop offset="1" stop-color="#FFA500"/>
</linearGradient>
</defs>
</svg>
