<svg width="184" height="62" viewBox="0 0 184 62" fill="none" xmlns="http://www.w3.org/2000/svg">
<path d="M0 8C0 3.58172 3.58172 0 8 0H52C56.4183 0 60 3.58172 60 8V52C60 56.4183 56.4183 60 52 60H8C3.58172 60 0 56.4183 0 52V8Z" fill="url(#paint0_linear_205_388)"/>
<path d="M24 14.4C24 12 25.2 10.8 27.6 10.8H34.8C37.2 10.8 38.4 12 38.4 14.4C38.4 16 37.6 17.2 36 18L27.6 21.6C25.2 22.72 24 24.32 24 26.4V28.8" stroke="#D5D0C1" stroke-width="2.88" stroke-linecap="round" stroke-linejoin="round"/>
<path d="M37.44 27.6H22.56C22.0298 27.6 21.6 28.0298 21.6 28.56V30.24C21.6 30.7702 22.0298 31.2 22.56 31.2H37.44C37.9702 31.2 38.4 30.7702 38.4 30.24V28.56C38.4 28.0298 37.9702 27.6 37.44 27.6Z" fill="#D5D0C1"/>
<path d="M36 45.6C36 48 34.8 49.2 32.4 49.2H25.2C22.8 49.2 21.6 48 21.6 45.6C21.6 44 22.4 42.8 24 42L32.4 38.4C34.8 37.28 36 35.68 36 33.6V31.2" stroke="#D5D0C1" stroke-width="2.88" stroke-linecap="round" stroke-linejoin="round"/>
<path d="M22.56 32.4H37.44C37.9702 32.4 38.4 31.9702 38.4 31.44V29.76C38.4 29.2298 37.9702 28.8 37.44 28.8H22.56C22.0298 28.8 21.6 29.2298 21.6 29.76V31.44C21.6 31.9702 22.0298 32.4 22.56 32.4Z" fill="#D5D0C1"/>
<path d="M86.772 45.288C83.58 45.288 81.024 44.688 79.104 43.488C77.184 42.264 76.224 40.404 76.224 37.908C76.224 36.588 76.452 35.58 76.908 34.884C77.364 34.188 78.036 33.84 78.924 33.84C79.572 33.84 80.1 34.008 80.508 34.344C80.916 34.68 81.12 35.112 81.12 35.64C81.12 36.12 81.084 36.54 81.012 36.9C81.012 36.996 80.988 37.164 80.94 37.404C80.916 37.644 80.904 37.896 80.904 38.16C80.904 39.24 81.444 40.044 82.524 40.572C83.628 41.1 85.164 41.364 87.132 41.364C89.172 41.364 90.768 41.004 91.92 40.284C93.072 39.54 93.648 38.508 93.648 37.188C93.648 36.372 93.384 35.676 92.856 35.1C92.328 34.5 91.668 34.008 90.876 33.624C90.084 33.216 88.968 32.724 87.528 32.148C85.68 31.428 84.168 30.744 82.992 30.096C81.84 29.448 80.844 28.572 80.004 27.468C79.188 26.34 78.78 24.948 78.78 23.292C78.78 21.564 79.236 20.028 80.148 18.684C81.084 17.34 82.416 16.296 84.144 15.552C85.896 14.808 87.948 14.436 90.3 14.436C92.052 14.436 93.66 14.7 95.124 15.228C96.588 15.732 97.752 16.512 98.616 17.568C99.504 18.624 99.948 19.92 99.948 21.456C99.948 22.968 99.72 24.108 99.264 24.876C98.808 25.644 98.136 26.028 97.248 26.028C96.624 26.028 96.096 25.836 95.664 25.452C95.256 25.068 95.052 24.612 95.052 24.084C95.052 23.628 95.088 23.208 95.16 22.824C95.232 22.104 95.268 21.648 95.268 21.456C95.268 20.448 94.776 19.68 93.792 19.152C92.808 18.624 91.584 18.36 90.12 18.36C88.056 18.36 86.472 18.744 85.368 19.512C84.288 20.256 83.748 21.312 83.748 22.68C83.748 23.592 84.024 24.372 84.576 25.02C85.152 25.668 85.86 26.208 86.7 26.64C87.54 27.072 88.716 27.588 90.228 28.188C92.052 28.932 93.516 29.604 94.62 30.204C95.724 30.804 96.66 31.62 97.428 32.652C98.22 33.684 98.616 34.956 98.616 36.468C98.616 39.3 97.536 41.484 95.376 43.02C93.24 44.532 90.372 45.288 86.772 45.288ZM128.369 34.056C128.441 34.032 128.561 34.02 128.729 34.02C129.089 34.02 129.365 34.14 129.557 34.38C129.749 34.62 129.845 34.944 129.845 35.352C129.845 36.096 129.701 36.684 129.413 37.116C129.125 37.524 128.693 37.824 128.117 38.016C127.013 38.376 125.837 38.556 124.589 38.556C123.533 38.556 122.537 38.412 121.601 38.124C120.905 39.252 120.137 40.416 119.297 41.616C118.337 42.984 117.509 43.92 116.813 44.424C116.141 44.928 115.373 45.18 114.509 45.18C113.549 45.18 112.817 44.808 112.313 44.064C111.833 43.32 111.533 42.096 111.413 40.392L111.233 37.764C110.489 39.78 109.817 41.316 109.217 42.372C108.641 43.428 108.053 44.16 107.453 44.568C106.877 44.976 106.193 45.18 105.401 45.18C104.417 45.18 103.637 44.796 103.061 44.028C102.509 43.26 102.161 42.048 102.017 40.392C101.729 37.032 101.585 34.092 101.585 31.572V30.312C101.609 29.52 101.825 28.968 102.233 28.656C102.641 28.344 103.253 28.188 104.069 28.188C104.693 28.188 105.149 28.332 105.437 28.62C105.749 28.884 105.905 29.34 105.905 29.988C105.905 32.748 106.073 36.336 106.409 40.752C108.041 37.32 109.541 33.744 110.909 30.024C111.173 29.304 111.485 28.824 111.845 28.584C112.229 28.32 112.685 28.188 113.213 28.188C113.861 28.188 114.305 28.32 114.545 28.584C114.809 28.848 114.941 29.316 114.941 29.988C114.941 32.748 115.109 36.336 115.445 40.752C116.885 38.616 117.965 36.912 118.685 35.64C118.325 34.944 118.145 34.116 118.145 33.156C118.145 32.34 118.325 31.548 118.685 30.78C119.045 30.012 119.537 29.388 120.161 28.908C120.785 28.428 121.493 28.188 122.285 28.188C122.981 28.188 123.545 28.44 123.977 28.944C124.409 29.424 124.625 30.132 124.625 31.068C124.625 32.148 124.337 33.384 123.761 34.776C124.673 34.728 125.885 34.548 127.397 34.236L128.369 34.056ZM131.148 45.18C129.66 45.18 128.472 44.64 127.584 43.56C126.696 42.48 126.252 41.064 126.252 39.312C126.252 37.392 126.696 35.58 127.584 33.876C128.472 32.148 129.648 30.768 131.112 29.736C132.6 28.68 134.172 28.152 135.828 28.152C136.356 28.152 136.704 28.26 136.872 28.476C137.064 28.668 137.22 29.028 137.34 29.556C137.844 29.46 138.372 29.412 138.924 29.412C140.1 29.412 140.688 29.832 140.688 30.672C140.688 31.176 140.508 32.376 140.148 34.272C139.596 37.032 139.32 38.952 139.32 40.032C139.32 40.392 139.404 40.68 139.572 40.896C139.764 41.112 140.004 41.22 140.292 41.22C140.748 41.22 141.3 40.932 141.948 40.356C142.596 39.756 143.472 38.796 144.576 37.476C144.864 37.14 145.188 36.972 145.548 36.972C145.86 36.972 146.1 37.116 146.268 37.404C146.46 37.692 146.556 38.088 146.556 38.592C146.556 39.552 146.328 40.296 145.872 40.824C144.888 42.048 143.844 43.08 142.74 43.92C141.636 44.76 140.568 45.18 139.536 45.18C138.744 45.18 138.012 44.916 137.34 44.388C136.692 43.836 136.2 43.092 135.864 42.156C134.616 44.172 133.044 45.18 131.148 45.18ZM132.444 41.544C132.972 41.544 133.476 41.232 133.956 40.608C134.436 39.984 134.784 39.156 135 38.124L136.332 31.5C135.324 31.524 134.388 31.908 133.524 32.652C132.684 33.372 132.012 34.332 131.508 35.532C131.004 36.732 130.752 38.004 130.752 39.348C130.752 40.092 130.896 40.644 131.184 41.004C131.496 41.364 131.916 41.544 132.444 41.544ZM162.854 36.972C163.166 36.972 163.406 37.116 163.574 37.404C163.766 37.692 163.862 38.088 163.862 38.592C163.862 39.552 163.634 40.296 163.178 40.824C162.146 42.096 161.03 43.14 159.83 43.956C158.654 44.772 157.31 45.18 155.798 45.18C154.526 45.18 153.494 44.724 152.702 43.812C151.334 44.7 149.906 45.156 148.418 45.18C148.106 49.812 147.398 53.676 146.294 56.772C145.19 59.892 143.57 61.452 141.434 61.452C140.138 61.452 139.178 60.984 138.554 60.048C137.93 59.112 137.618 57.816 137.618 56.16C137.618 53.808 138.158 51.06 139.238 47.916C140.318 44.796 141.986 41.352 144.242 37.584C144.242 34.08 144.218 31.644 144.17 30.276C144.146 29.58 144.422 29.028 144.998 28.62C145.574 28.212 146.294 28.008 147.158 28.008C147.662 28.008 148.022 28.116 148.238 28.332C148.478 28.524 148.61 28.92 148.634 29.52C148.634 30.12 148.646 30.564 148.67 30.852C149.438 29.892 150.194 29.208 150.938 28.8C151.682 28.368 152.474 28.152 153.314 28.152C154.658 28.152 155.75 28.692 156.59 29.772C157.454 30.852 157.886 32.268 157.886 34.02C157.886 35.292 157.682 36.528 157.274 37.728C156.866 38.928 156.302 40.02 155.582 41.004C156.086 41.148 156.506 41.22 156.842 41.22C157.634 41.22 158.39 40.932 159.11 40.356C159.83 39.78 160.754 38.82 161.882 37.476C162.17 37.14 162.494 36.972 162.854 36.972ZM148.598 41.724C149.462 41.532 150.254 41.064 150.974 40.32C151.718 39.552 152.306 38.616 152.738 37.512C153.17 36.384 153.386 35.208 153.386 33.984C153.386 33.264 153.242 32.724 152.954 32.364C152.666 31.98 152.282 31.788 151.802 31.788C150.938 31.788 149.894 32.7 148.67 34.524C148.646 35.58 148.634 37.128 148.634 39.168C148.634 40.272 148.622 41.124 148.598 41.724ZM141.722 57.924C142.37 57.924 142.91 56.508 143.342 53.676C143.774 50.868 144.05 47.364 144.17 43.164C143.138 45.564 142.322 47.856 141.722 50.04C141.122 52.224 140.822 54.06 140.822 55.548C140.822 56.316 140.918 56.904 141.11 57.312C141.278 57.72 141.482 57.924 141.722 57.924ZM165.678 25.848C164.67 25.848 163.914 25.62 163.41 25.164C162.906 24.684 162.654 24.024 162.654 23.184C162.654 22.344 162.978 21.648 163.626 21.096C164.298 20.52 165.126 20.232 166.11 20.232C166.998 20.232 167.718 20.448 168.27 20.88C168.822 21.312 169.098 21.924 169.098 22.716C169.098 23.676 168.786 24.444 168.162 25.02C167.538 25.572 166.71 25.848 165.678 25.848ZM165.39 45.18C163.83 45.18 162.69 44.628 161.97 43.524C161.274 42.42 160.926 40.956 160.926 39.132C160.926 38.052 161.058 36.672 161.322 34.992C161.61 33.288 161.97 31.704 162.402 30.24C162.618 29.472 162.906 28.944 163.266 28.656C163.626 28.368 164.202 28.224 164.994 28.224C166.218 28.224 166.83 28.632 166.83 29.448C166.83 30.048 166.602 31.44 166.146 33.624C165.57 36.264 165.282 38.052 165.282 38.988C165.282 39.708 165.378 40.26 165.57 40.644C165.762 41.028 166.086 41.22 166.542 41.22C166.974 41.22 167.514 40.92 168.162 40.32C168.81 39.72 169.674 38.772 170.754 37.476C171.042 37.14 171.366 36.972 171.726 36.972C172.038 36.972 172.278 37.116 172.446 37.404C172.638 37.692 172.734 38.088 172.734 38.592C172.734 39.552 172.506 40.296 172.05 40.824C169.674 43.728 167.454 45.18 165.39 45.18ZM182.71 38.052C183.022 38.052 183.262 38.196 183.43 38.484C183.622 38.772 183.718 39.168 183.718 39.672C183.718 40.536 183.514 41.28 183.106 41.904C182.434 42.936 181.546 43.74 180.442 44.316C179.362 44.892 178.066 45.18 176.554 45.18C174.25 45.18 172.462 44.496 171.19 43.128C169.918 41.736 169.282 39.864 169.282 37.512C169.282 35.856 169.63 34.32 170.326 32.904C171.022 31.464 171.982 30.324 173.206 29.484C174.454 28.644 175.858 28.224 177.418 28.224C178.81 28.224 179.926 28.644 180.766 29.484C181.606 30.3 182.026 31.416 182.026 32.832C182.026 34.488 181.426 35.916 180.226 37.116C179.05 38.292 177.034 39.228 174.178 39.924C174.754 41.028 175.726 41.58 177.094 41.58C178.078 41.58 178.882 41.352 179.506 40.896C180.154 40.44 180.898 39.672 181.738 38.592C182.026 38.232 182.35 38.052 182.71 38.052ZM176.806 31.752C175.918 31.752 175.162 32.268 174.538 33.3C173.938 34.332 173.638 35.58 173.638 37.044V37.116C175.054 36.78 176.17 36.276 176.986 35.604C177.802 34.932 178.21 34.152 178.21 33.264C178.21 32.808 178.078 32.448 177.814 32.184C177.574 31.896 177.238 31.752 176.806 31.752Z" fill="#1C3F3A"/>
<defs>
<linearGradient id="paint0_linear_205_388" x1="0" y1="0" x2="60" y2="60" gradientUnits="userSpaceOnUse">
<stop stop-color="#CCCCCC" stop-opacity="0.8"/>
<stop offset="0.802885" stop-color="#1C3F3A"/>
</linearGradient>
</defs>
</svg>
