<svg width="515" height="280" viewBox="0 0 515 280" fill="none" xmlns="http://www.w3.org/2000/svg">
<g clip-path="url(#clip0_274_558)">
<path d="M189.531 25H508.465" stroke="#F0F0F0" stroke-dasharray="3 3"/>
<path d="M189.531 65H508.465" stroke="#F0F0F0" stroke-dasharray="3 3"/>
<path d="M189.531 105H508.465" stroke="#F0F0F0" stroke-dasharray="3 3"/>
<path d="M189.531 145H508.465" stroke="#F0F0F0" stroke-dasharray="3 3"/>
<path d="M189.531 185H508.465" stroke="#F0F0F0" stroke-dasharray="3 3"/>
<path d="M189.531 225H508.465" stroke="#F0F0F0" stroke-dasharray="3 3"/>
<path d="M189.531 5H508.465" stroke="#F0F0F0" stroke-dasharray="3 3"/>
<path d="M189.531 245H508.465" stroke="#F0F0F0" stroke-dasharray="3 3"/>
<path d="M189.531 5V245" stroke="#F0F0F0" stroke-dasharray="3 3"/>
<path d="M269.264 5V245" stroke="#F0F0F0" stroke-dasharray="3 3"/>
<path d="M348.998 5V245" stroke="#F0F0F0" stroke-dasharray="3 3"/>
<path d="M428.731 5V245" stroke="#F0F0F0" stroke-dasharray="3 3"/>
<path d="M508.465 5V245" stroke="#F0F0F0" stroke-dasharray="3 3"/>
<path d="M189.53 261.639C188.888 261.639 188.342 261.465 187.89 261.115C187.438 260.763 187.093 260.253 186.854 259.585C186.616 258.915 186.496 258.105 186.496 257.156C186.496 256.213 186.616 255.408 186.854 254.74C187.096 254.07 187.442 253.558 187.894 253.206C188.349 252.851 188.894 252.673 189.53 252.673C190.167 252.673 190.711 252.851 191.163 253.206C191.617 253.558 191.964 254.07 192.202 254.74C192.444 255.408 192.565 256.213 192.565 257.156C192.565 258.105 192.445 258.915 192.207 259.585C191.968 260.253 191.623 260.763 191.171 261.115C190.719 261.465 190.172 261.639 189.53 261.639ZM189.53 260.702C190.167 260.702 190.661 260.395 191.013 259.781C191.366 259.168 191.542 258.293 191.542 257.156C191.542 256.401 191.461 255.757 191.299 255.226C191.14 254.695 190.91 254.29 190.609 254.011C190.31 253.733 189.951 253.594 189.53 253.594C188.9 253.594 188.407 253.905 188.052 254.527C187.697 255.146 187.519 256.023 187.519 257.156C187.519 257.912 187.599 258.554 187.758 259.083C187.917 259.611 188.145 260.013 188.444 260.288C188.745 260.564 189.107 260.702 189.53 260.702Z" fill="#9CA3AF"/>
<path d="M262.884 261.52V260.753L265.765 257.6C266.103 257.23 266.381 256.909 266.6 256.636C266.819 256.361 266.981 256.102 267.086 255.861C267.194 255.617 267.248 255.361 267.248 255.094C267.248 254.787 267.174 254.521 267.026 254.297C266.881 254.073 266.682 253.899 266.43 253.777C266.177 253.655 265.893 253.594 265.577 253.594C265.242 253.594 264.95 253.663 264.7 253.803C264.452 253.939 264.261 254.131 264.124 254.378C263.991 254.625 263.924 254.915 263.924 255.247H262.918C262.918 254.736 263.036 254.287 263.272 253.901C263.508 253.514 263.829 253.213 264.235 252.997C264.644 252.781 265.103 252.673 265.611 252.673C266.123 252.673 266.576 252.781 266.971 252.997C267.366 253.213 267.675 253.504 267.9 253.871C268.124 254.237 268.236 254.645 268.236 255.094C268.236 255.415 268.178 255.729 268.062 256.036C267.948 256.34 267.749 256.679 267.465 257.054C267.184 257.426 266.793 257.881 266.293 258.418L264.333 260.514V260.583H268.39V261.52H262.884ZM272.877 261.639C272.377 261.639 271.927 261.54 271.526 261.341C271.126 261.142 270.805 260.869 270.563 260.523C270.322 260.176 270.19 259.781 270.167 259.338H271.19C271.229 259.733 271.408 260.06 271.727 260.318C272.048 260.574 272.431 260.702 272.877 260.702C273.235 260.702 273.553 260.618 273.832 260.45C274.113 260.283 274.333 260.053 274.492 259.76C274.654 259.465 274.735 259.131 274.735 258.759C274.735 258.378 274.651 258.038 274.484 257.74C274.319 257.439 274.092 257.202 273.802 257.029C273.512 256.855 273.181 256.767 272.809 256.764C272.542 256.761 272.268 256.803 271.986 256.888C271.705 256.97 271.474 257.077 271.292 257.208L270.303 257.088L270.832 252.793H275.366V253.73H271.718L271.411 256.304H271.462C271.641 256.162 271.866 256.044 272.136 255.95C272.406 255.857 272.687 255.81 272.979 255.81C273.513 255.81 273.989 255.938 274.407 256.193C274.827 256.446 275.157 256.793 275.396 257.233C275.637 257.673 275.758 258.176 275.758 258.742C275.758 259.298 275.633 259.796 275.383 260.233C275.136 260.668 274.795 261.011 274.36 261.264C273.925 261.514 273.431 261.639 272.877 261.639Z" fill="#9CA3AF"/>
<path d="M345.228 261.639C344.728 261.639 344.277 261.54 343.877 261.341C343.476 261.142 343.155 260.869 342.914 260.523C342.672 260.176 342.54 259.781 342.517 259.338H343.54C343.58 259.733 343.759 260.06 344.077 260.318C344.398 260.574 344.782 260.702 345.228 260.702C345.586 260.702 345.904 260.618 346.182 260.45C346.463 260.283 346.684 260.053 346.843 259.76C347.005 259.465 347.086 259.131 347.086 258.759C347.086 258.378 347.002 258.038 346.834 257.74C346.669 257.439 346.442 257.202 346.152 257.029C345.863 256.855 345.532 256.767 345.16 256.764C344.892 256.761 344.618 256.803 344.337 256.888C344.056 256.97 343.824 257.077 343.642 257.208L342.654 257.088L343.182 252.793H347.716V253.73H344.069L343.762 256.304H343.813C343.992 256.162 344.216 256.044 344.486 255.95C344.756 255.857 345.037 255.81 345.33 255.81C345.864 255.81 346.34 255.938 346.758 256.193C347.178 256.446 347.508 256.793 347.746 257.233C347.988 257.673 348.108 258.176 348.108 258.742C348.108 259.298 347.983 259.796 347.733 260.233C347.486 260.668 347.145 261.011 346.711 261.264C346.276 261.514 345.782 261.639 345.228 261.639ZM352.648 261.639C352.006 261.639 351.459 261.465 351.007 261.115C350.555 260.763 350.21 260.253 349.972 259.585C349.733 258.915 349.614 258.105 349.614 257.156C349.614 256.213 349.733 255.408 349.972 254.74C350.213 254.07 350.56 253.558 351.011 253.206C351.466 252.851 352.011 252.673 352.648 252.673C353.284 252.673 353.828 252.851 354.28 253.206C354.734 253.558 355.081 254.07 355.32 254.74C355.561 255.408 355.682 256.213 355.682 257.156C355.682 258.105 355.563 258.915 355.324 259.585C355.085 260.253 354.74 260.763 354.288 261.115C353.837 261.465 353.29 261.639 352.648 261.639ZM352.648 260.702C353.284 260.702 353.778 260.395 354.131 259.781C354.483 259.168 354.659 258.293 354.659 257.156C354.659 256.401 354.578 255.757 354.416 255.226C354.257 254.695 354.027 254.29 353.726 254.011C353.428 253.733 353.068 253.594 352.648 253.594C352.017 253.594 351.524 253.905 351.169 254.527C350.814 255.146 350.636 256.023 350.636 257.156C350.636 257.912 350.716 258.554 350.875 259.083C351.034 259.611 351.263 260.013 351.561 260.288C351.862 260.564 352.224 260.702 352.648 260.702Z" fill="#9CA3AF"/>
<path d="M422.888 261.52L426.791 253.798V253.73H422.291V252.793H427.882V253.781L423.995 261.52H422.888ZM432.08 261.639C431.58 261.639 431.13 261.54 430.729 261.341C430.329 261.142 430.008 260.869 429.766 260.523C429.525 260.176 429.393 259.781 429.37 259.338H430.393C430.433 259.733 430.612 260.06 430.93 260.318C431.251 260.574 431.634 260.702 432.08 260.702C432.438 260.702 432.756 260.618 433.035 260.45C433.316 260.283 433.536 260.053 433.695 259.76C433.857 259.465 433.938 259.131 433.938 258.759C433.938 258.378 433.854 258.038 433.687 257.74C433.522 257.439 433.295 257.202 433.005 257.029C432.715 256.855 432.384 256.767 432.012 256.764C431.745 256.761 431.471 256.803 431.19 256.888C430.908 256.97 430.677 257.077 430.495 257.208L429.506 257.088L430.035 252.793H434.569V253.73H430.921L430.614 256.304H430.666C430.845 256.162 431.069 256.044 431.339 255.95C431.609 255.857 431.89 255.81 432.183 255.81C432.717 255.81 433.193 255.938 433.61 256.193C434.031 256.446 434.36 256.793 434.599 257.233C434.84 257.673 434.961 258.176 434.961 258.742C434.961 259.298 434.836 259.796 434.586 260.233C434.339 260.668 433.998 261.011 433.563 261.264C433.129 261.514 432.634 261.639 432.08 261.639Z" fill="#9CA3AF"/>
<path d="M495.995 252.793V261.52H494.939V253.901H494.887L492.757 255.315V254.242L494.939 252.793H495.995ZM501.352 261.639C500.71 261.639 500.163 261.465 499.711 261.115C499.26 260.763 498.914 260.253 498.676 259.585C498.437 258.915 498.318 258.105 498.318 257.156C498.318 256.213 498.437 255.408 498.676 254.74C498.917 254.07 499.264 253.558 499.716 253.206C500.17 252.851 500.716 252.673 501.352 252.673C501.988 252.673 502.532 252.851 502.984 253.206C503.439 253.558 503.785 254.07 504.024 254.74C504.265 255.408 504.386 256.213 504.386 257.156C504.386 258.105 504.267 258.915 504.028 259.585C503.789 260.253 503.444 260.763 502.993 261.115C502.541 261.465 501.994 261.639 501.352 261.639ZM501.352 260.702C501.988 260.702 502.483 260.395 502.835 259.781C503.187 259.168 503.363 258.293 503.363 257.156C503.363 256.401 503.282 255.757 503.12 255.226C502.961 254.695 502.731 254.29 502.43 254.011C502.132 253.733 501.772 253.594 501.352 253.594C500.721 253.594 500.228 253.905 499.873 254.527C499.518 255.146 499.341 256.023 499.341 257.156C499.341 257.912 499.42 258.554 499.579 259.083C499.738 259.611 499.967 260.013 500.265 260.288C500.566 260.564 500.929 260.702 501.352 260.702ZM508.852 261.639C508.21 261.639 507.663 261.465 507.211 261.115C506.76 260.763 506.414 260.253 506.176 259.585C505.937 258.915 505.818 258.105 505.818 257.156C505.818 256.213 505.937 255.408 506.176 254.74C506.417 254.07 506.764 253.558 507.216 253.206C507.67 252.851 508.216 252.673 508.852 252.673C509.488 252.673 510.032 252.851 510.484 253.206C510.939 253.558 511.285 254.07 511.524 254.74C511.765 255.408 511.886 256.213 511.886 257.156C511.886 258.105 511.767 258.915 511.528 259.585C511.289 260.253 510.944 260.763 510.493 261.115C510.041 261.465 509.494 261.639 508.852 261.639ZM508.852 260.702C509.488 260.702 509.983 260.395 510.335 259.781C510.687 259.168 510.863 258.293 510.863 257.156C510.863 256.401 510.782 255.757 510.62 255.226C510.461 254.695 510.231 254.29 509.93 254.011C509.632 253.733 509.272 253.594 508.852 253.594C508.221 253.594 507.728 253.905 507.373 254.527C507.018 255.146 506.841 256.023 506.841 257.156C506.841 257.912 506.92 258.554 507.079 259.083C507.238 259.611 507.467 260.013 507.765 260.288C508.066 260.564 508.429 260.702 508.852 260.702Z" fill="#9CA3AF"/>
<path d="M114.063 29.2598L111.677 20.5325H112.751L114.575 27.6404H114.66L116.518 20.5325H117.711L119.569 27.6404H119.654L121.478 20.5325H122.552L120.166 29.2598H119.075L117.149 22.3052H117.08L115.154 29.2598H114.063ZM125.867 29.3961C125.237 29.3961 124.693 29.2569 124.235 28.9785C123.781 28.6973 123.43 28.3052 123.183 27.8024C122.938 27.2967 122.816 26.7086 122.816 26.0382C122.816 25.3677 122.938 24.7768 123.183 24.2654C123.43 23.7512 123.774 23.3507 124.214 23.0637C124.657 22.774 125.174 22.6291 125.765 22.6291C126.106 22.6291 126.443 22.6859 126.775 22.7995C127.107 22.9132 127.41 23.0978 127.683 23.3535C127.955 23.6064 128.173 23.9416 128.335 24.3592C128.497 24.7768 128.578 25.291 128.578 25.9018V26.3279H123.532V25.4586H127.555C127.555 25.0893 127.481 24.7598 127.333 24.47C127.188 24.1802 126.981 23.9515 126.711 23.7839C126.444 23.6163 126.129 23.5325 125.765 23.5325C125.364 23.5325 125.018 23.6319 124.725 23.8308C124.435 24.0268 124.212 24.2825 124.056 24.5978C123.9 24.9132 123.822 25.2512 123.822 25.612V26.1916C123.822 26.6859 123.907 27.1049 124.078 27.4487C124.251 27.7896 124.491 28.0495 124.798 28.2285C125.105 28.4047 125.461 28.4927 125.867 28.4927C126.131 28.4927 126.37 28.4558 126.583 28.3819C126.799 28.3052 126.985 28.1916 127.141 28.041C127.298 27.8876 127.418 27.6973 127.504 27.47L128.475 27.7427C128.373 28.0723 128.201 28.362 127.96 28.612C127.718 28.8592 127.42 29.0524 127.065 29.1916C126.71 29.3279 126.31 29.3961 125.867 29.3961ZM130.244 29.2598V20.5325H131.249V23.7541H131.335C131.408 23.6404 131.511 23.4956 131.641 23.3194C131.775 23.1404 131.965 22.9814 132.212 22.8422C132.462 22.7001 132.801 22.6291 133.227 22.6291C133.778 22.6291 134.264 22.7669 134.684 23.0424C135.105 23.318 135.433 23.7086 135.668 24.2143C135.904 24.72 136.022 25.3166 136.022 26.0041C136.022 26.6973 135.904 27.2981 135.668 27.8066C135.433 28.3123 135.106 28.7044 134.688 28.9828C134.271 29.2583 133.789 29.3961 133.244 29.3961C132.823 29.3961 132.487 29.3265 132.234 29.1873C131.981 29.0453 131.786 28.8848 131.65 28.7058C131.514 28.524 131.408 28.3734 131.335 28.2541H131.215V29.2598H130.244ZM131.232 25.987C131.232 26.4814 131.305 26.9174 131.45 27.2953C131.595 27.6703 131.806 27.9643 132.085 28.1774C132.363 28.3876 132.704 28.4927 133.107 28.4927C133.528 28.4927 133.879 28.3819 134.16 28.1603C134.444 27.9359 134.657 27.6348 134.799 27.2569C134.944 26.8762 135.016 26.4529 135.016 25.987C135.016 25.5268 134.945 25.112 134.803 24.7427C134.664 24.3706 134.453 24.0765 134.168 23.8606C133.887 23.6419 133.533 23.5325 133.107 23.5325C132.698 23.5325 132.355 23.6362 132.076 23.8436C131.798 24.0481 131.587 24.335 131.445 24.7044C131.303 25.0708 131.232 25.4984 131.232 25.987ZM143.765 29.2598H141.072V20.5325H143.884C144.731 20.5325 145.455 20.7072 146.058 21.0566C146.66 21.4032 147.122 21.9018 147.443 22.5524C147.764 23.2001 147.924 23.9757 147.924 24.8791C147.924 25.7882 147.762 26.5708 147.438 27.2271C147.114 27.8805 146.643 28.3833 146.024 28.7356C145.404 29.085 144.651 29.2598 143.765 29.2598ZM142.129 28.3223H143.697C144.418 28.3223 145.016 28.1831 145.491 27.9047C145.965 27.6262 146.319 27.2299 146.552 26.7157C146.785 26.2015 146.901 25.5893 146.901 24.8791C146.901 24.1745 146.786 23.568 146.556 23.0595C146.326 22.5481 145.982 22.1561 145.525 21.8833C145.068 21.6078 144.498 21.47 143.816 21.47H142.129V28.3223ZM152.305 29.3961C151.674 29.3961 151.13 29.2569 150.673 28.9785C150.218 28.6973 149.867 28.3052 149.62 27.8024C149.376 27.2967 149.254 26.7086 149.254 26.0382C149.254 25.3677 149.376 24.7768 149.62 24.2654C149.867 23.7512 150.211 23.3507 150.651 23.0637C151.095 22.774 151.612 22.6291 152.203 22.6291C152.543 22.6291 152.88 22.6859 153.212 22.7995C153.545 22.9132 153.847 23.0978 154.12 23.3535C154.393 23.6064 154.61 23.9416 154.772 24.3592C154.934 24.7768 155.015 25.291 155.015 25.9018V26.3279H149.97V25.4586H153.992C153.992 25.0893 153.918 24.7598 153.771 24.47C153.626 24.1802 153.418 23.9515 153.149 23.7839C152.881 23.6163 152.566 23.5325 152.203 23.5325C151.802 23.5325 151.455 23.6319 151.163 23.8308C150.873 24.0268 150.65 24.2825 150.494 24.5978C150.337 24.9132 150.259 25.2512 150.259 25.612V26.1916C150.259 26.6859 150.345 27.1049 150.515 27.4487C150.688 27.7896 150.928 28.0495 151.235 28.2285C151.542 28.4047 151.899 28.4927 152.305 28.4927C152.569 28.4927 152.808 28.4558 153.021 28.3819C153.237 28.3052 153.423 28.1916 153.579 28.041C153.735 27.8876 153.856 27.6973 153.941 27.47L154.913 27.7427C154.81 28.0723 154.639 28.362 154.397 28.612C154.156 28.8592 153.857 29.0524 153.502 29.1916C153.147 29.3279 152.748 29.3961 152.305 29.3961ZM161.181 24.1802L160.278 24.4359C160.221 24.2853 160.137 24.139 160.026 23.997C159.918 23.8521 159.771 23.7328 159.583 23.639C159.396 23.5453 159.156 23.4984 158.863 23.4984C158.462 23.4984 158.129 23.5907 157.862 23.7754C157.597 23.9572 157.465 24.1887 157.465 24.47C157.465 24.72 157.556 24.9174 157.738 25.0623C157.92 25.2072 158.204 25.3279 158.59 25.4245L159.562 25.6632C160.147 25.8052 160.583 26.0225 160.87 26.3152C161.157 26.6049 161.301 26.9785 161.301 27.4359C161.301 27.8109 161.193 28.1461 160.977 28.4416C160.764 28.737 160.465 28.97 160.082 29.1404C159.698 29.3109 159.252 29.3961 158.744 29.3961C158.076 29.3961 157.524 29.2512 157.086 28.9615C156.649 28.6717 156.372 28.2484 156.255 27.6916L157.21 27.4529C157.301 27.8052 157.472 28.0694 157.725 28.2456C157.981 28.4217 158.315 28.5098 158.727 28.5098C159.195 28.5098 159.568 28.4103 159.843 28.2115C160.122 28.0098 160.261 27.7683 160.261 27.487C160.261 27.2598 160.181 27.0694 160.022 26.916C159.863 26.7598 159.619 26.6433 159.289 26.5666L158.198 26.3109C157.599 26.1689 157.158 25.9487 156.877 25.6504C156.599 25.3493 156.46 24.9728 156.46 24.5211C156.46 24.1518 156.563 23.8251 156.771 23.541C156.981 23.2569 157.266 23.0339 157.627 22.872C157.991 22.71 158.403 22.6291 158.863 22.6291C159.511 22.6291 160.019 22.7711 160.389 23.0552C160.761 23.3393 161.025 23.7143 161.181 24.1802ZM162.814 29.2598V22.7143H163.82V29.2598H162.814ZM163.326 21.6234C163.13 21.6234 162.961 21.5566 162.819 21.4231C162.679 21.2896 162.61 21.1291 162.61 20.9416C162.61 20.7541 162.679 20.5936 162.819 20.46C162.961 20.3265 163.13 20.2598 163.326 20.2598C163.522 20.2598 163.689 20.3265 163.829 20.46C163.971 20.5936 164.042 20.7541 164.042 20.9416C164.042 21.1291 163.971 21.2896 163.829 21.4231C163.689 21.5566 163.522 21.6234 163.326 21.6234ZM168.304 31.8507C167.818 31.8507 167.401 31.7882 167.051 31.6632C166.702 31.541 166.411 31.3791 166.178 31.1774C165.948 30.9785 165.764 30.7654 165.628 30.5382L166.429 29.9757C166.52 30.095 166.635 30.2314 166.774 30.3848C166.913 30.541 167.104 30.676 167.345 30.7896C167.59 30.9061 167.909 30.9643 168.304 30.9643C168.832 30.9643 169.269 30.8365 169.612 30.5808C169.956 30.3251 170.128 29.9245 170.128 29.3791V28.0495H170.043C169.969 28.1689 169.864 28.3166 169.727 28.4927C169.594 28.666 169.401 28.8208 169.148 28.9572C168.898 29.0907 168.56 29.1575 168.134 29.1575C167.605 29.1575 167.131 29.0325 166.71 28.7825C166.293 28.5325 165.962 28.1689 165.717 27.6916C165.476 27.2143 165.355 26.6348 165.355 25.9529C165.355 25.2825 165.473 24.6987 165.709 24.2015C165.945 23.7015 166.273 23.3152 166.693 23.0424C167.114 22.7669 167.6 22.6291 168.151 22.6291C168.577 22.6291 168.915 22.7001 169.165 22.8422C169.418 22.9814 169.611 23.1404 169.744 23.3194C169.881 23.4956 169.986 23.6404 170.06 23.7541H170.162V22.7143H171.134V29.4473C171.134 30.0098 171.006 30.4672 170.75 30.8194C170.497 31.1745 170.156 31.4345 169.727 31.5993C169.301 31.7669 168.827 31.8507 168.304 31.8507ZM168.27 28.2541C168.673 28.2541 169.014 28.1618 169.293 27.9771C169.571 27.7924 169.783 27.5268 169.928 27.1802C170.073 26.8336 170.145 26.4189 170.145 25.9359C170.145 25.4643 170.074 25.0481 169.932 24.6873C169.79 24.3265 169.58 24.0439 169.301 23.8393C169.023 23.6348 168.679 23.5325 168.27 23.5325C167.844 23.5325 167.489 23.6404 167.205 23.8564C166.923 24.0723 166.712 24.362 166.57 24.7257C166.431 25.0893 166.361 25.4927 166.361 25.9359C166.361 26.3904 166.432 26.7924 166.574 27.1419C166.719 27.4885 166.932 27.7612 167.213 27.96C167.497 28.1561 167.85 28.2541 168.27 28.2541ZM173.98 25.3223V29.2598H172.975V22.7143H173.946V23.737H174.031C174.185 23.4047 174.418 23.1376 174.73 22.9359C175.043 22.7314 175.446 22.6291 175.94 22.6291C176.384 22.6291 176.771 22.72 177.104 22.9018C177.436 23.0808 177.695 23.3535 177.879 23.72C178.064 24.0836 178.156 24.5439 178.156 25.1007V29.2598H177.151V25.1689C177.151 24.6547 177.017 24.2541 176.75 23.9672C176.483 23.6774 176.117 23.5325 175.651 23.5325C175.33 23.5325 175.043 23.6021 174.79 23.7413C174.54 23.8805 174.342 24.0836 174.198 24.3507C174.053 24.6177 173.98 24.9416 173.98 25.3223Z" fill="#9CA3AF"/>
<path d="M98.3836 63.2598H97.3268C97.2643 62.9558 97.1549 62.6887 96.9986 62.4586C96.8452 62.2285 96.6577 62.0353 96.4361 61.8791C96.2174 61.72 95.9745 61.6007 95.7075 61.5211C95.4404 61.4416 95.162 61.4018 94.8722 61.4018C94.3438 61.4018 93.8651 61.5353 93.4361 61.8024C93.01 62.0694 92.6705 62.4629 92.4177 62.9828C92.1677 63.5027 92.0427 64.1404 92.0427 64.8961C92.0427 65.6518 92.1677 66.2896 92.4177 66.8095C92.6705 67.3294 93.01 67.7228 93.4361 67.9899C93.8651 68.2569 94.3438 68.3904 94.8722 68.3904C95.162 68.3904 95.4404 68.3507 95.7075 68.2711C95.9745 68.1916 96.2174 68.0737 96.4361 67.9174C96.6577 67.7583 96.8452 67.5637 96.9986 67.3336C97.1549 67.1007 97.2643 66.8336 97.3268 66.5325H98.3836C98.304 66.9785 98.1592 67.3777 97.9489 67.7299C97.7387 68.0822 97.4773 68.3819 97.1648 68.6291C96.8523 68.8734 96.5015 69.0595 96.1123 69.1873C95.7259 69.3152 95.3126 69.3791 94.8722 69.3791C94.1279 69.3791 93.466 69.1973 92.8864 68.8336C92.3069 68.47 91.8509 67.9529 91.5185 67.2825C91.1861 66.612 91.02 65.8166 91.02 64.8961C91.02 63.9757 91.1861 63.1802 91.5185 62.5098C91.8509 61.8393 92.3069 61.3223 92.8864 60.9586C93.466 60.595 94.1279 60.4132 94.8722 60.4132C95.3126 60.4132 95.7259 60.4771 96.1123 60.6049C96.5015 60.7328 96.8523 60.9203 97.1648 61.1674C97.4773 61.4118 97.7387 61.71 97.9489 62.0623C98.1592 62.4118 98.304 62.8109 98.3836 63.2598ZM102.614 69.3961C102.023 69.3961 101.505 69.2555 101.059 68.9743C100.615 68.693 100.269 68.2995 100.019 67.7939C99.7717 67.2882 99.6482 66.6973 99.6482 66.0211C99.6482 65.3393 99.7717 64.7441 100.019 64.2356C100.269 63.7271 100.615 63.3322 101.059 63.051C101.505 62.7697 102.023 62.6291 102.614 62.6291C103.205 62.6291 103.722 62.7697 104.165 63.051C104.611 63.3322 104.958 63.7271 105.205 64.2356C105.455 64.7441 105.58 65.3393 105.58 66.0211C105.58 66.6973 105.455 67.2882 105.205 67.7939C104.958 68.2995 104.611 68.693 104.165 68.9743C103.722 69.2555 103.205 69.3961 102.614 69.3961ZM102.614 68.4927C103.063 68.4927 103.432 68.3777 103.722 68.1475C104.012 67.9174 104.226 67.6149 104.365 67.2399C104.505 66.8649 104.574 66.4586 104.574 66.0211C104.574 65.5836 104.505 65.176 104.365 64.7981C104.226 64.4203 104.012 64.1149 103.722 63.8819C103.432 63.649 103.063 63.5325 102.614 63.5325C102.165 63.5325 101.796 63.649 101.506 63.8819C101.216 64.1149 101.002 64.4203 100.863 64.7981C100.723 65.176 100.654 65.5836 100.654 66.0211C100.654 66.4586 100.723 66.8649 100.863 67.2399C101.002 67.6149 101.216 67.9174 101.506 68.1475C101.796 68.3777 102.165 68.4927 102.614 68.4927ZM108.121 65.3223V69.2598H107.115V62.7143H108.087V63.737H108.172C108.325 63.4047 108.558 63.1376 108.871 62.9359C109.183 62.7314 109.587 62.6291 110.081 62.6291C110.524 62.6291 110.912 62.72 111.244 62.9018C111.577 63.0808 111.835 63.3535 112.02 63.72C112.205 64.0836 112.297 64.5439 112.297 65.1007V69.2598H111.291V65.1689C111.291 64.6547 111.158 64.2541 110.891 63.9672C110.624 63.6774 110.257 63.5325 109.791 63.5325C109.47 63.5325 109.183 63.6021 108.93 63.7413C108.68 63.8805 108.483 64.0836 108.338 64.3507C108.193 64.6177 108.121 64.9416 108.121 65.3223ZM116.981 62.7143V63.5666H113.589V62.7143H116.981ZM114.578 61.1461H115.584V67.3848C115.584 67.6689 115.625 67.8819 115.707 68.024C115.792 68.1632 115.9 68.2569 116.031 68.3052C116.164 68.3507 116.305 68.3734 116.453 68.3734C116.564 68.3734 116.655 68.3677 116.726 68.3564C116.797 68.3422 116.853 68.3308 116.896 68.3223L117.101 69.2257C117.032 69.2512 116.937 69.2768 116.815 69.3024C116.693 69.3308 116.538 69.345 116.351 69.345C116.066 69.345 115.788 69.2839 115.515 69.1618C115.245 69.0396 115.021 68.8535 114.842 68.6035C114.666 68.3535 114.578 68.0382 114.578 67.6575V61.1461ZM121.168 69.3961C120.537 69.3961 119.993 69.2569 119.536 68.9785C119.081 68.6973 118.731 68.3052 118.483 67.8024C118.239 67.2967 118.117 66.7086 118.117 66.0382C118.117 65.3677 118.239 64.7768 118.483 64.2654C118.731 63.7512 119.074 63.3507 119.515 63.0637C119.958 62.774 120.475 62.6291 121.066 62.6291C121.407 62.6291 121.743 62.6859 122.076 62.7995C122.408 62.9132 122.711 63.0978 122.983 63.3535C123.256 63.6064 123.473 63.9416 123.635 64.3592C123.797 64.7768 123.878 65.291 123.878 65.9018V66.3279H118.833V65.4586H122.856C122.856 65.0893 122.782 64.7598 122.634 64.47C122.489 64.1802 122.282 63.9515 122.012 63.7839C121.745 63.6163 121.429 63.5325 121.066 63.5325C120.665 63.5325 120.319 63.6319 120.026 63.8308C119.736 64.0268 119.513 64.2825 119.357 64.5978C119.201 64.9132 119.123 65.2512 119.123 65.612V66.1916C119.123 66.6859 119.208 67.1049 119.378 67.4487C119.552 67.7896 119.792 68.0495 120.098 68.2285C120.405 68.4047 120.762 68.4927 121.168 68.4927C121.432 68.4927 121.671 68.4558 121.884 68.3819C122.1 68.3052 122.286 68.1916 122.442 68.041C122.598 67.8876 122.719 67.6973 122.804 67.47L123.776 67.7427C123.674 68.0723 123.502 68.362 123.26 68.612C123.019 68.8592 122.721 69.0524 122.365 69.1916C122.01 69.3279 121.611 69.3961 121.168 69.3961ZM126.414 65.3223V69.2598H125.408V62.7143H126.38V63.737H126.465C126.618 63.4047 126.851 63.1376 127.164 62.9359C127.476 62.7314 127.88 62.6291 128.374 62.6291C128.817 62.6291 129.205 62.72 129.537 62.9018C129.87 63.0808 130.128 63.3535 130.313 63.72C130.498 64.0836 130.59 64.5439 130.59 65.1007V69.2598H129.584V65.1689C129.584 64.6547 129.451 64.2541 129.184 63.9672C128.917 63.6774 128.55 63.5325 128.084 63.5325C127.763 63.5325 127.476 63.6021 127.223 63.7413C126.973 63.8805 126.776 64.0836 126.631 64.3507C126.486 64.6177 126.414 64.9416 126.414 65.3223ZM135.274 62.7143V63.5666H131.882V62.7143H135.274ZM132.871 61.1461H133.876V67.3848C133.876 67.6689 133.918 67.8819 134 68.024C134.085 68.1632 134.193 68.2569 134.324 68.3052C134.457 68.3507 134.598 68.3734 134.746 68.3734C134.857 68.3734 134.948 68.3677 135.019 68.3564C135.09 68.3422 135.146 68.3308 135.189 68.3223L135.394 69.2257C135.325 69.2512 135.23 69.2768 135.108 69.3024C134.986 69.3308 134.831 69.345 134.644 69.345C134.359 69.345 134.081 69.2839 133.808 69.1618C133.538 69.0396 133.314 68.8535 133.135 68.6035C132.959 68.3535 132.871 68.0382 132.871 67.6575V61.1461ZM141.884 69.2598L139.497 60.5325H140.571L142.395 67.6404H142.48L144.338 60.5325H145.531L147.389 67.6404H147.475L149.298 60.5325H150.372L147.986 69.2598H146.895L144.969 62.3052H144.901L142.975 69.2598H141.884ZM151.142 69.2598V62.7143H152.114V63.7029H152.182C152.302 63.3791 152.517 63.1163 152.83 62.9146C153.142 62.7129 153.495 62.612 153.887 62.612C153.961 62.612 154.053 62.6135 154.164 62.6163C154.275 62.6191 154.358 62.6234 154.415 62.6291V63.6518C154.381 63.6433 154.303 63.6305 154.181 63.6135C154.062 63.5936 153.935 63.5836 153.802 63.5836C153.483 63.5836 153.199 63.6504 152.949 63.7839C152.702 63.9146 152.506 64.0964 152.361 64.3294C152.219 64.5595 152.148 64.8223 152.148 65.1177V69.2598H151.142ZM155.607 69.2598V62.7143H156.613V69.2598H155.607ZM156.119 61.6234C155.923 61.6234 155.754 61.5566 155.612 61.4231C155.472 61.2896 155.403 61.1291 155.403 60.9416C155.403 60.7541 155.472 60.5936 155.612 60.46C155.754 60.3265 155.923 60.2598 156.119 60.2598C156.315 60.2598 156.482 60.3265 156.622 60.46C156.764 60.5936 156.835 60.7541 156.835 60.9416C156.835 61.1291 156.764 61.2896 156.622 61.4231C156.482 61.5566 156.315 61.6234 156.119 61.6234ZM161.302 62.7143V63.5666H157.91V62.7143H161.302ZM158.898 61.1461H159.904V67.3848C159.904 67.6689 159.945 67.8819 160.027 68.024C160.113 68.1632 160.221 68.2569 160.351 68.3052C160.485 68.3507 160.625 68.3734 160.773 68.3734C160.884 68.3734 160.975 68.3677 161.046 68.3564C161.117 68.3422 161.174 68.3308 161.216 68.3223L161.421 69.2257C161.353 69.2512 161.258 69.2768 161.135 69.3024C161.013 69.3308 160.858 69.345 160.671 69.345C160.387 69.345 160.108 69.2839 159.836 69.1618C159.566 69.0396 159.341 68.8535 159.162 68.6035C158.986 68.3535 158.898 68.0382 158.898 67.6575V61.1461ZM162.814 69.2598V62.7143H163.82V69.2598H162.814ZM163.326 61.6234C163.13 61.6234 162.961 61.5566 162.819 61.4231C162.679 61.2896 162.61 61.1291 162.61 60.9416C162.61 60.7541 162.679 60.5936 162.819 60.46C162.961 60.3265 163.13 60.2598 163.326 60.2598C163.522 60.2598 163.689 60.3265 163.829 60.46C163.971 60.5936 164.042 60.7541 164.042 60.9416C164.042 61.1291 163.971 61.2896 163.829 61.4231C163.689 61.5566 163.522 61.6234 163.326 61.6234ZM166.668 65.3223V69.2598H165.662V62.7143H166.634V63.737H166.719C166.872 63.4047 167.105 63.1376 167.418 62.9359C167.73 62.7314 168.134 62.6291 168.628 62.6291C169.071 62.6291 169.459 62.72 169.791 62.9018C170.124 63.0808 170.382 63.3535 170.567 63.72C170.751 64.0836 170.844 64.5439 170.844 65.1007V69.2598H169.838V65.1689C169.838 64.6547 169.705 64.2541 169.438 63.9672C169.171 63.6774 168.804 63.5325 168.338 63.5325C168.017 63.5325 167.73 63.6021 167.477 63.7413C167.227 63.8805 167.03 64.0836 166.885 64.3507C166.74 64.6177 166.668 64.9416 166.668 65.3223ZM175.324 71.8507C174.838 71.8507 174.42 71.7882 174.071 71.6632C173.721 71.541 173.43 71.3791 173.197 71.1774C172.967 70.9785 172.784 70.7654 172.647 70.5382L173.449 69.9757C173.539 70.095 173.655 70.2314 173.794 70.3848C173.933 70.541 174.123 70.676 174.365 70.7896C174.609 70.9061 174.929 70.9643 175.324 70.9643C175.852 70.9643 176.288 70.8365 176.632 70.5808C176.976 70.3251 177.147 69.9245 177.147 69.3791V68.0495H177.062C176.988 68.1689 176.883 68.3166 176.747 68.4927C176.613 68.666 176.42 68.8208 176.167 68.9572C175.917 69.0907 175.579 69.1575 175.153 69.1575C174.625 69.1575 174.15 69.0325 173.73 68.7825C173.312 68.5325 172.981 68.1689 172.737 67.6916C172.495 67.2143 172.375 66.6348 172.375 65.9529C172.375 65.2825 172.493 64.6987 172.728 64.2015C172.964 63.7015 173.292 63.3152 173.713 63.0424C174.133 62.7669 174.619 62.6291 175.17 62.6291C175.596 62.6291 175.934 62.7001 176.184 62.8422C176.437 62.9814 176.63 63.1404 176.764 63.3194C176.9 63.4956 177.005 63.6404 177.079 63.7541H177.182V62.7143H178.153V69.4473C178.153 70.0098 178.025 70.4672 177.77 70.8194C177.517 71.1745 177.176 71.4345 176.747 71.5993C176.321 71.7669 175.846 71.8507 175.324 71.8507ZM175.289 68.2541C175.693 68.2541 176.034 68.1618 176.312 67.9771C176.591 67.7924 176.802 67.5268 176.947 67.1802C177.092 66.8336 177.164 66.4189 177.164 65.9359C177.164 65.4643 177.093 65.0481 176.951 64.6873C176.809 64.3265 176.599 64.0439 176.321 63.8393C176.042 63.6348 175.699 63.5325 175.289 63.5325C174.863 63.5325 174.508 63.6404 174.224 63.8564C173.943 64.0723 173.731 64.362 173.589 64.7257C173.45 65.0893 173.38 65.4927 173.38 65.9359C173.38 66.3904 173.451 66.7924 173.593 67.1419C173.738 67.4885 173.951 67.7612 174.233 67.96C174.517 68.1561 174.869 68.2541 175.289 68.2541Z" fill="#9CA3AF"/>
<path d="M87.1634 109.26H84.4703V100.532H87.2828C88.1294 100.532 88.8538 100.707 89.4561 101.057C90.0583 101.403 90.52 101.902 90.841 102.552C91.162 103.2 91.3225 103.976 91.3225 104.879C91.3225 105.788 91.1606 106.571 90.8367 107.227C90.5129 107.881 90.0413 108.383 89.422 108.736C88.8026 109.085 88.0498 109.26 87.1634 109.26ZM85.5271 108.322H87.0953C87.8169 108.322 88.4149 108.183 88.8893 107.905C89.3637 107.626 89.7174 107.23 89.9504 106.716C90.1833 106.202 90.2998 105.589 90.2998 104.879C90.2998 104.175 90.1848 103.568 89.9546 103.059C89.7245 102.548 89.3808 102.156 88.9234 101.883C88.466 101.608 87.8964 101.47 87.2146 101.47H85.5271V108.322ZM92.9589 109.26V102.714H93.9646V109.26H92.9589ZM93.4703 101.623C93.2742 101.623 93.1052 101.557 92.9632 101.423C92.824 101.29 92.7544 101.129 92.7544 100.942C92.7544 100.754 92.824 100.594 92.9632 100.46C93.1052 100.327 93.2742 100.26 93.4703 100.26C93.6663 100.26 93.8339 100.327 93.9731 100.46C94.1151 100.594 94.1862 100.754 94.1862 100.942C94.1862 101.129 94.1151 101.29 93.9731 101.423C93.8339 101.557 93.6663 101.623 93.4703 101.623ZM98.4486 111.851C97.9628 111.851 97.5452 111.788 97.1958 111.663C96.8463 111.541 96.5551 111.379 96.3222 111.177C96.0921 110.979 95.9088 110.765 95.7725 110.538L96.5736 109.976C96.6645 110.095 96.7796 110.231 96.9188 110.385C97.058 110.541 97.2483 110.676 97.4898 110.79C97.7341 110.906 98.0537 110.964 98.4486 110.964C98.977 110.964 99.4131 110.836 99.7568 110.581C100.101 110.325 100.272 109.925 100.272 109.379V108.05H100.187C100.113 108.169 100.008 108.317 99.8719 108.493C99.7384 108.666 99.5452 108.821 99.2924 108.957C99.0424 109.091 98.7043 109.157 98.2781 109.157C97.7497 109.157 97.2753 109.032 96.8549 108.782C96.4372 108.532 96.1063 108.169 95.862 107.692C95.6205 107.214 95.4997 106.635 95.4997 105.953C95.4997 105.282 95.6176 104.699 95.8534 104.202C96.0892 103.702 96.4174 103.315 96.8378 103.042C97.2583 102.767 97.7441 102.629 98.2952 102.629C98.7213 102.629 99.0594 102.7 99.3094 102.842C99.5622 102.981 99.7554 103.14 99.8889 103.319C100.025 103.496 100.13 103.64 100.204 103.754H100.307V102.714H101.278V109.447C101.278 110.01 101.15 110.467 100.895 110.819C100.642 111.175 100.301 111.434 99.8719 111.599C99.4458 111.767 98.9713 111.851 98.4486 111.851ZM98.4145 108.254C98.8179 108.254 99.1588 108.162 99.4372 107.977C99.7156 107.792 99.9273 107.527 100.072 107.18C100.217 106.834 100.29 106.419 100.29 105.936C100.29 105.464 100.218 105.048 100.076 104.687C99.9344 104.327 99.7242 104.044 99.4458 103.839C99.1674 103.635 98.8236 103.532 98.4145 103.532C97.9884 103.532 97.6333 103.64 97.3492 103.856C97.0679 104.072 96.8563 104.362 96.7142 104.726C96.575 105.089 96.5054 105.493 96.5054 105.936C96.5054 106.39 96.5764 106.792 96.7185 107.142C96.8634 107.488 97.0764 107.761 97.3577 107.96C97.6418 108.156 97.9941 108.254 98.4145 108.254ZM103.119 109.26V102.714H104.125V109.26H103.119ZM103.63 101.623C103.434 101.623 103.265 101.557 103.123 101.423C102.984 101.29 102.915 101.129 102.915 100.942C102.915 100.754 102.984 100.594 103.123 100.46C103.265 100.327 103.434 100.26 103.63 100.26C103.826 100.26 103.994 100.327 104.133 100.46C104.275 100.594 104.346 100.754 104.346 100.942C104.346 101.129 104.275 101.29 104.133 101.423C103.994 101.557 103.826 101.623 103.63 101.623ZM108.813 102.714V103.567H105.421V102.714H108.813ZM106.41 101.146H107.416V107.385C107.416 107.669 107.457 107.882 107.539 108.024C107.624 108.163 107.732 108.257 107.863 108.305C107.997 108.351 108.137 108.373 108.285 108.373C108.396 108.373 108.487 108.368 108.558 108.356C108.629 108.342 108.685 108.331 108.728 108.322L108.933 109.226C108.864 109.251 108.769 109.277 108.647 109.302C108.525 109.331 108.37 109.345 108.183 109.345C107.899 109.345 107.62 109.284 107.347 109.162C107.078 109.04 106.853 108.854 106.674 108.604C106.498 108.354 106.41 108.038 106.41 107.657V101.146ZM112.252 109.413C111.837 109.413 111.461 109.335 111.123 109.179C110.785 109.02 110.516 108.791 110.318 108.493C110.119 108.192 110.019 107.828 110.019 107.402C110.019 107.027 110.093 106.723 110.241 106.49C110.389 106.254 110.586 106.069 110.833 105.936C111.08 105.802 111.353 105.703 111.651 105.638C111.953 105.569 112.255 105.515 112.559 105.476C112.957 105.425 113.279 105.386 113.526 105.361C113.776 105.332 113.958 105.285 114.072 105.22C114.188 105.155 114.247 105.041 114.247 104.879V104.845C114.247 104.425 114.131 104.098 113.901 103.865C113.674 103.632 113.329 103.515 112.866 103.515C112.386 103.515 112.009 103.621 111.737 103.831C111.464 104.041 111.272 104.265 111.161 104.504L110.207 104.163C110.377 103.765 110.604 103.456 110.889 103.234C111.176 103.01 111.488 102.854 111.826 102.765C112.167 102.675 112.502 102.629 112.832 102.629C113.042 102.629 113.283 102.655 113.556 102.706C113.832 102.754 114.097 102.855 114.353 103.008C114.612 103.162 114.826 103.393 114.997 103.703C115.167 104.013 115.252 104.427 115.252 104.947V109.26H114.247V108.373H114.195C114.127 108.515 114.014 108.667 113.854 108.829C113.695 108.991 113.484 109.129 113.22 109.243C112.955 109.356 112.633 109.413 112.252 109.413ZM112.406 108.51C112.803 108.51 113.139 108.432 113.411 108.275C113.687 108.119 113.894 107.917 114.033 107.67C114.176 107.423 114.247 107.163 114.247 106.89V105.97C114.204 106.021 114.11 106.068 113.965 106.111C113.823 106.15 113.658 106.186 113.471 106.217C113.286 106.246 113.106 106.271 112.93 106.294C112.756 106.314 112.616 106.331 112.508 106.345C112.247 106.379 112.002 106.434 111.775 106.511C111.551 106.585 111.369 106.697 111.229 106.848C111.093 106.996 111.025 107.197 111.025 107.453C111.025 107.802 111.154 108.067 111.413 108.246C111.674 108.422 112.005 108.51 112.406 108.51ZM118.093 100.532V109.26H117.088V100.532H118.093ZM123.447 100.532H124.708L127.674 107.777H127.776L130.742 100.532H132.004V109.26H131.015V102.629H130.93L128.203 109.26H127.248L124.521 102.629H124.435V109.26H123.447V100.532ZM135.912 109.413C135.498 109.413 135.121 109.335 134.783 109.179C134.445 109.02 134.177 108.791 133.978 108.493C133.779 108.192 133.679 107.828 133.679 107.402C133.679 107.027 133.753 106.723 133.901 106.49C134.049 106.254 134.246 106.069 134.493 105.936C134.741 105.802 135.013 105.703 135.312 105.638C135.613 105.569 135.915 105.515 136.219 105.476C136.617 105.425 136.939 105.386 137.187 105.361C137.437 105.332 137.618 105.285 137.732 105.22C137.848 105.155 137.907 105.041 137.907 104.879V104.845C137.907 104.425 137.792 104.098 137.562 103.865C137.334 103.632 136.989 103.515 136.526 103.515C136.046 103.515 135.669 103.621 135.397 103.831C135.124 104.041 134.932 104.265 134.821 104.504L133.867 104.163C134.037 103.765 134.265 103.456 134.549 103.234C134.836 103.01 135.148 102.854 135.486 102.765C135.827 102.675 136.162 102.629 136.492 102.629C136.702 102.629 136.944 102.655 137.216 102.706C137.492 102.754 137.758 102.855 138.013 103.008C138.272 103.162 138.486 103.393 138.657 103.703C138.827 104.013 138.912 104.427 138.912 104.947V109.26H137.907V108.373H137.856C137.787 108.515 137.674 108.667 137.515 108.829C137.356 108.991 137.144 109.129 136.88 109.243C136.616 109.356 136.293 109.413 135.912 109.413ZM136.066 108.51C136.464 108.51 136.799 108.432 137.071 108.275C137.347 108.119 137.554 107.917 137.694 107.67C137.836 107.423 137.907 107.163 137.907 106.89V105.97C137.864 106.021 137.77 106.068 137.625 106.111C137.483 106.15 137.319 106.186 137.131 106.217C136.946 106.246 136.766 106.271 136.59 106.294C136.417 106.314 136.276 106.331 136.168 106.345C135.907 106.379 135.662 106.434 135.435 106.511C135.211 106.585 135.029 106.697 134.89 106.848C134.753 106.996 134.685 107.197 134.685 107.453C134.685 107.802 134.814 108.067 135.073 108.246C135.334 108.422 135.665 108.51 136.066 108.51ZM140.748 109.26V102.714H141.72V103.703H141.788C141.907 103.379 142.123 103.116 142.435 102.915C142.748 102.713 143.1 102.612 143.492 102.612C143.566 102.612 143.658 102.613 143.769 102.616C143.88 102.619 143.964 102.623 144.021 102.629V103.652C143.987 103.643 143.908 103.631 143.786 103.613C143.667 103.594 143.541 103.584 143.407 103.584C143.089 103.584 142.805 103.65 142.555 103.784C142.308 103.915 142.112 104.096 141.967 104.329C141.825 104.559 141.754 104.822 141.754 105.118V109.26H140.748ZM146.15 106.873L146.133 105.629H146.338L149.201 102.714H150.446L147.395 105.8H147.309L146.15 106.873ZM145.213 109.26V100.532H146.218V109.26H145.213ZM149.372 109.26L146.815 106.021L147.531 105.322L150.65 109.26H149.372ZM154.215 109.396C153.584 109.396 153.04 109.257 152.583 108.979C152.128 108.697 151.777 108.305 151.53 107.802C151.286 107.297 151.164 106.709 151.164 106.038C151.164 105.368 151.286 104.777 151.53 104.265C151.777 103.751 152.121 103.351 152.562 103.064C153.005 102.774 153.522 102.629 154.113 102.629C154.454 102.629 154.79 102.686 155.123 102.8C155.455 102.913 155.758 103.098 156.03 103.354C156.303 103.606 156.52 103.942 156.682 104.359C156.844 104.777 156.925 105.291 156.925 105.902V106.328H151.88V105.459H155.902C155.902 105.089 155.829 104.76 155.681 104.47C155.536 104.18 155.329 103.952 155.059 103.784C154.792 103.616 154.476 103.532 154.113 103.532C153.712 103.532 153.366 103.632 153.073 103.831C152.783 104.027 152.56 104.282 152.404 104.598C152.248 104.913 152.169 105.251 152.169 105.612V106.192C152.169 106.686 152.255 107.105 152.425 107.449C152.598 107.79 152.839 108.05 153.145 108.229C153.452 108.405 153.809 108.493 154.215 108.493C154.479 108.493 154.718 108.456 154.931 108.382C155.147 108.305 155.333 108.192 155.489 108.041C155.645 107.888 155.766 107.697 155.851 107.47L156.823 107.743C156.721 108.072 156.549 108.362 156.307 108.612C156.066 108.859 155.767 109.052 155.412 109.192C155.057 109.328 154.658 109.396 154.215 109.396ZM161.302 102.714V103.567H157.91V102.714H161.302ZM158.898 101.146H159.904V107.385C159.904 107.669 159.945 107.882 160.027 108.024C160.113 108.163 160.221 108.257 160.351 108.305C160.485 108.351 160.625 108.373 160.773 108.373C160.884 108.373 160.975 108.368 161.046 108.356C161.117 108.342 161.174 108.331 161.216 108.322L161.421 109.226C161.353 109.251 161.258 109.277 161.135 109.302C161.013 109.331 160.858 109.345 160.671 109.345C160.387 109.345 160.108 109.284 159.836 109.162C159.566 109.04 159.341 108.854 159.162 108.604C158.986 108.354 158.898 108.038 158.898 107.657V101.146ZM162.814 109.26V102.714H163.82V109.26H162.814ZM163.326 101.623C163.13 101.623 162.961 101.557 162.819 101.423C162.679 101.29 162.61 101.129 162.61 100.942C162.61 100.754 162.679 100.594 162.819 100.46C162.961 100.327 163.13 100.26 163.326 100.26C163.522 100.26 163.689 100.327 163.829 100.46C163.971 100.594 164.042 100.754 164.042 100.942C164.042 101.129 163.971 101.29 163.829 101.423C163.689 101.557 163.522 101.623 163.326 101.623ZM166.668 105.322V109.26H165.662V102.714H166.634V103.737H166.719C166.872 103.405 167.105 103.138 167.418 102.936C167.73 102.731 168.134 102.629 168.628 102.629C169.071 102.629 169.459 102.72 169.791 102.902C170.124 103.081 170.382 103.354 170.567 103.72C170.752 104.084 170.844 104.544 170.844 105.101V109.26H169.838V105.169C169.838 104.655 169.705 104.254 169.438 103.967C169.171 103.677 168.804 103.532 168.338 103.532C168.017 103.532 167.73 103.602 167.477 103.741C167.227 103.881 167.03 104.084 166.885 104.351C166.74 104.618 166.668 104.942 166.668 105.322ZM175.324 111.851C174.838 111.851 174.42 111.788 174.071 111.663C173.721 111.541 173.43 111.379 173.197 111.177C172.967 110.979 172.784 110.765 172.647 110.538L173.449 109.976C173.54 110.095 173.655 110.231 173.794 110.385C173.933 110.541 174.123 110.676 174.365 110.79C174.609 110.906 174.929 110.964 175.324 110.964C175.852 110.964 176.288 110.836 176.632 110.581C176.976 110.325 177.147 109.925 177.147 109.379V108.05H177.062C176.988 108.169 176.883 108.317 176.747 108.493C176.613 108.666 176.42 108.821 176.167 108.957C175.917 109.091 175.579 109.157 175.153 109.157C174.625 109.157 174.15 109.032 173.73 108.782C173.312 108.532 172.981 108.169 172.737 107.692C172.495 107.214 172.375 106.635 172.375 105.953C172.375 105.282 172.493 104.699 172.728 104.202C172.964 103.702 173.292 103.315 173.713 103.042C174.133 102.767 174.619 102.629 175.17 102.629C175.596 102.629 175.934 102.7 176.184 102.842C176.437 102.981 176.63 103.14 176.764 103.319C176.9 103.496 177.005 103.64 177.079 103.754H177.182V102.714H178.153V109.447C178.153 110.01 178.025 110.467 177.77 110.819C177.517 111.175 177.176 111.434 176.747 111.599C176.321 111.767 175.846 111.851 175.324 111.851ZM175.29 108.254C175.693 108.254 176.034 108.162 176.312 107.977C176.591 107.792 176.802 107.527 176.947 107.18C177.092 106.834 177.165 106.419 177.165 105.936C177.165 105.464 177.093 105.048 176.951 104.687C176.809 104.327 176.599 104.044 176.321 103.839C176.042 103.635 175.699 103.532 175.29 103.532C174.863 103.532 174.508 103.64 174.224 103.856C173.943 104.072 173.731 104.362 173.589 104.726C173.45 105.089 173.38 105.493 173.38 105.936C173.38 106.39 173.451 106.792 173.593 107.142C173.738 107.488 173.951 107.761 174.233 107.96C174.517 108.156 174.869 108.254 175.29 108.254Z" fill="#9CA3AF"/>
<path d="M65.7789 149.26V140.532H68.83C69.438 140.532 69.9394 140.638 70.3343 140.848C70.7291 141.055 71.0232 141.335 71.2164 141.687C71.4095 142.037 71.5061 142.425 71.5061 142.851C71.5061 143.226 71.4394 143.535 71.3059 143.78C71.1752 144.024 71.0019 144.217 70.786 144.359C70.5729 144.501 70.3414 144.606 70.0914 144.675V144.76C70.3584 144.777 70.6269 144.871 70.8968 145.041C71.1666 145.211 71.3925 145.456 71.5743 145.774C71.7561 146.092 71.847 146.481 71.847 146.942C71.847 147.379 71.7476 147.773 71.5488 148.122C71.3499 148.471 71.036 148.748 70.607 148.953C70.178 149.157 69.6198 149.26 68.9323 149.26H65.7789ZM66.8357 148.322H68.9323C69.6226 148.322 70.1127 148.189 70.4024 147.922C70.6951 147.652 70.8414 147.325 70.8414 146.942C70.8414 146.646 70.7661 146.373 70.6155 146.123C70.4649 145.871 70.2505 145.669 69.972 145.518C69.6936 145.365 69.3641 145.288 68.9834 145.288H66.8357V148.322ZM66.8357 144.368H68.7959C69.1141 144.368 69.401 144.305 69.6567 144.18C69.9152 144.055 70.1198 143.879 70.2703 143.652C70.4238 143.425 70.5005 143.157 70.5005 142.851C70.5005 142.467 70.3669 142.142 70.0999 141.875C69.8328 141.605 69.4095 141.47 68.83 141.47H66.8357V144.368ZM77.5722 146.584V142.714H78.5779V149.26H77.5722V148.152H77.504C77.3506 148.484 77.112 148.767 76.7881 149C76.4642 149.23 76.0551 149.345 75.5608 149.345C75.1517 149.345 74.7881 149.256 74.4699 149.077C74.1517 148.895 73.9017 148.622 73.7199 148.258C73.5381 147.892 73.4472 147.43 73.4472 146.873V142.714H74.4529V146.805C74.4529 147.282 74.5864 147.663 74.8534 147.947C75.1233 148.231 75.4671 148.373 75.8847 148.373C76.1347 148.373 76.3889 148.309 76.6475 148.182C76.9088 148.054 77.1276 147.858 77.3037 147.594C77.4827 147.329 77.5722 146.993 77.5722 146.584ZM85.0562 144.18L84.1528 144.436C84.096 144.285 84.0122 144.139 83.9014 143.997C83.7934 143.852 83.6457 143.733 83.4582 143.639C83.2707 143.545 83.0306 143.498 82.738 143.498C82.3375 143.498 82.0037 143.591 81.7366 143.775C81.4724 143.957 81.3403 144.189 81.3403 144.47C81.3403 144.72 81.4312 144.917 81.613 145.062C81.7948 145.207 82.0789 145.328 82.4653 145.425L83.4369 145.663C84.0221 145.805 84.4582 146.023 84.7451 146.315C85.0321 146.605 85.1755 146.979 85.1755 147.436C85.1755 147.811 85.0676 148.146 84.8517 148.442C84.6386 148.737 84.3403 148.97 83.9568 149.14C83.5733 149.311 83.1272 149.396 82.6187 149.396C81.9511 149.396 81.3985 149.251 80.961 148.961C80.5235 148.672 80.2465 148.248 80.1301 147.692L81.0846 147.453C81.1755 147.805 81.3474 148.069 81.6002 148.246C81.8559 148.422 82.1897 148.51 82.6017 148.51C83.0704 148.51 83.4426 148.41 83.7181 148.211C83.9965 148.01 84.1358 147.768 84.1358 147.487C84.1358 147.26 84.0562 147.069 83.8971 146.916C83.738 146.76 83.4937 146.643 83.1642 146.567L82.0733 146.311C81.4738 146.169 81.0335 145.949 80.7522 145.65C80.4738 145.349 80.3346 144.973 80.3346 144.521C80.3346 144.152 80.4383 143.825 80.6457 143.541C80.8559 143.257 81.1414 143.034 81.5022 142.872C81.8659 142.71 82.2778 142.629 82.738 142.629C83.3858 142.629 83.8943 142.771 84.2636 143.055C84.6358 143.339 84.9 143.714 85.0562 144.18ZM86.6894 149.26V142.714H87.6951V149.26H86.6894ZM87.2007 141.623C87.0047 141.623 86.8357 141.557 86.6936 141.423C86.5544 141.29 86.4848 141.129 86.4848 140.942C86.4848 140.754 86.5544 140.594 86.6936 140.46C86.8357 140.327 87.0047 140.26 87.2007 140.26C87.3968 140.26 87.5644 140.327 87.7036 140.46C87.8456 140.594 87.9166 140.754 87.9166 140.942C87.9166 141.129 87.8456 141.29 87.7036 141.423C87.5644 141.557 87.3968 141.623 87.2007 141.623ZM90.5427 145.322V149.26H89.537V142.714H90.5086V143.737H90.5938C90.7473 143.405 90.9802 143.138 91.2927 142.936C91.6052 142.731 92.0086 142.629 92.5029 142.629C92.9461 142.629 93.3339 142.72 93.6663 142.902C93.9987 143.081 94.2572 143.354 94.4419 143.72C94.6265 144.084 94.7189 144.544 94.7189 145.101V149.26H93.7132V145.169C93.7132 144.655 93.5796 144.254 93.3126 143.967C93.0456 143.677 92.6791 143.532 92.2132 143.532C91.8921 143.532 91.6052 143.602 91.3524 143.741C91.1024 143.881 90.9049 144.084 90.76 144.351C90.6152 144.618 90.5427 144.942 90.5427 145.322ZM99.3009 149.396C98.6702 149.396 98.1262 149.257 97.6688 148.979C97.2142 148.697 96.8634 148.305 96.6162 147.802C96.3719 147.297 96.2497 146.709 96.2497 146.038C96.2497 145.368 96.3719 144.777 96.6162 144.265C96.8634 143.751 97.2071 143.351 97.6475 143.064C98.0907 142.774 98.6077 142.629 99.1986 142.629C99.5395 142.629 99.8762 142.686 100.209 142.8C100.541 142.913 100.843 143.098 101.116 143.354C101.389 143.606 101.606 143.942 101.768 144.359C101.93 144.777 102.011 145.291 102.011 145.902V146.328H96.9657V145.459H100.988C100.988 145.089 100.915 144.76 100.767 144.47C100.622 144.18 100.415 143.952 100.145 143.784C99.8776 143.616 99.5622 143.532 99.1986 143.532C98.798 143.532 98.4514 143.632 98.1588 143.831C97.8691 144.027 97.6461 144.282 97.4898 144.598C97.3336 144.913 97.2554 145.251 97.2554 145.612V146.192C97.2554 146.686 97.3407 147.105 97.5111 147.449C97.6844 147.79 97.9245 148.05 98.2313 148.229C98.5381 148.405 98.8946 148.493 99.3009 148.493C99.5651 148.493 99.8037 148.456 100.017 148.382C100.233 148.305 100.419 148.192 100.575 148.041C100.731 147.888 100.852 147.697 100.937 147.47L101.909 147.743C101.807 148.072 101.635 148.362 101.393 148.612C101.152 148.859 100.853 149.052 100.498 149.192C100.143 149.328 99.7441 149.396 99.3009 149.396ZM108.177 144.18L107.274 144.436C107.217 144.285 107.133 144.139 107.022 143.997C106.915 143.852 106.767 143.733 106.579 143.639C106.392 143.545 106.152 143.498 105.859 143.498C105.459 143.498 105.125 143.591 104.858 143.775C104.593 143.957 104.461 144.189 104.461 144.47C104.461 144.72 104.552 144.917 104.734 145.062C104.916 145.207 105.2 145.328 105.586 145.425L106.558 145.663C107.143 145.805 107.579 146.023 107.866 146.315C108.153 146.605 108.297 146.979 108.297 147.436C108.297 147.811 108.189 148.146 107.973 148.442C107.76 148.737 107.461 148.97 107.078 149.14C106.694 149.311 106.248 149.396 105.74 149.396C105.072 149.396 104.52 149.251 104.082 148.961C103.645 148.672 103.368 148.248 103.251 147.692L104.206 147.453C104.297 147.805 104.468 148.069 104.721 148.246C104.977 148.422 105.311 148.51 105.723 148.51C106.192 148.51 106.564 148.41 106.839 148.211C107.118 148.01 107.257 147.768 107.257 147.487C107.257 147.26 107.177 147.069 107.018 146.916C106.859 146.76 106.615 146.643 106.285 146.567L105.194 146.311C104.595 146.169 104.155 145.949 103.873 145.65C103.595 145.349 103.456 144.973 103.456 144.521C103.456 144.152 103.559 143.825 103.767 143.541C103.977 143.257 104.263 143.034 104.623 142.872C104.987 142.71 105.399 142.629 105.859 142.629C106.507 142.629 107.015 142.771 107.385 143.055C107.757 143.339 108.021 143.714 108.177 144.18ZM114.447 144.18L113.543 144.436C113.487 144.285 113.403 144.139 113.292 143.997C113.184 143.852 113.036 143.733 112.849 143.639C112.661 143.545 112.421 143.498 112.129 143.498C111.728 143.498 111.394 143.591 111.127 143.775C110.863 143.957 110.731 144.189 110.731 144.47C110.731 144.72 110.822 144.917 111.004 145.062C111.185 145.207 111.47 145.328 111.856 145.425L112.828 145.663C113.413 145.805 113.849 146.023 114.136 146.315C114.423 146.605 114.566 146.979 114.566 147.436C114.566 147.811 114.458 148.146 114.242 148.442C114.029 148.737 113.731 148.97 113.347 149.14C112.964 149.311 112.518 149.396 112.009 149.396C111.342 149.396 110.789 149.251 110.352 148.961C109.914 148.672 109.637 148.248 109.521 147.692L110.475 147.453C110.566 147.805 110.738 148.069 110.991 148.246C111.247 148.422 111.58 148.51 111.992 148.51C112.461 148.51 112.833 148.41 113.109 148.211C113.387 148.01 113.526 147.768 113.526 147.487C113.526 147.26 113.447 147.069 113.288 146.916C113.129 146.76 112.884 146.643 112.555 146.567L111.464 146.311C110.864 146.169 110.424 145.949 110.143 145.65C109.864 145.349 109.725 144.973 109.725 144.521C109.725 144.152 109.829 143.825 110.036 143.541C110.247 143.257 110.532 143.034 110.893 142.872C111.256 142.71 111.668 142.629 112.129 142.629C112.776 142.629 113.285 142.771 113.654 143.055C114.026 143.339 114.291 143.714 114.447 144.18ZM126.614 143.26H125.557C125.495 142.956 125.385 142.689 125.229 142.459C125.076 142.229 124.888 142.035 124.667 141.879C124.448 141.72 124.205 141.601 123.938 141.521C123.671 141.442 123.393 141.402 123.103 141.402C122.574 141.402 122.096 141.535 121.667 141.802C121.241 142.069 120.901 142.463 120.648 142.983C120.398 143.503 120.273 144.14 120.273 144.896C120.273 145.652 120.398 146.29 120.648 146.809C120.901 147.329 121.241 147.723 121.667 147.99C122.096 148.257 122.574 148.39 123.103 148.39C123.393 148.39 123.671 148.351 123.938 148.271C124.205 148.192 124.448 148.074 124.667 147.917C124.888 147.758 125.076 147.564 125.229 147.334C125.385 147.101 125.495 146.834 125.557 146.532H126.614C126.535 146.979 126.39 147.378 126.179 147.73C125.969 148.082 125.708 148.382 125.395 148.629C125.083 148.873 124.732 149.059 124.343 149.187C123.956 149.315 123.543 149.379 123.103 149.379C122.358 149.379 121.696 149.197 121.117 148.834C120.537 148.47 120.081 147.953 119.749 147.282C119.417 146.612 119.25 145.817 119.25 144.896C119.25 143.976 119.417 143.18 119.749 142.51C120.081 141.839 120.537 141.322 121.117 140.959C121.696 140.595 122.358 140.413 123.103 140.413C123.543 140.413 123.956 140.477 124.343 140.605C124.732 140.733 125.083 140.92 125.395 141.167C125.708 141.412 125.969 141.71 126.179 142.062C126.39 142.412 126.535 142.811 126.614 143.26ZM130.845 149.396C130.254 149.396 129.735 149.256 129.289 148.974C128.846 148.693 128.499 148.3 128.249 147.794C128.002 147.288 127.879 146.697 127.879 146.021C127.879 145.339 128.002 144.744 128.249 144.236C128.499 143.727 128.846 143.332 129.289 143.051C129.735 142.77 130.254 142.629 130.845 142.629C131.435 142.629 131.953 142.77 132.396 143.051C132.842 143.332 133.188 143.727 133.435 144.236C133.685 144.744 133.81 145.339 133.81 146.021C133.81 146.697 133.685 147.288 133.435 147.794C133.188 148.3 132.842 148.693 132.396 148.974C131.953 149.256 131.435 149.396 130.845 149.396ZM130.845 148.493C131.293 148.493 131.663 148.378 131.953 148.148C132.242 147.917 132.457 147.615 132.596 147.24C132.735 146.865 132.805 146.459 132.805 146.021C132.805 145.584 132.735 145.176 132.596 144.798C132.457 144.42 132.242 144.115 131.953 143.882C131.663 143.649 131.293 143.532 130.845 143.532C130.396 143.532 130.026 143.649 129.737 143.882C129.447 144.115 129.232 144.42 129.093 144.798C128.954 145.176 128.884 145.584 128.884 146.021C128.884 146.459 128.954 146.865 129.093 147.24C129.232 147.615 129.447 147.917 129.737 148.148C130.026 148.378 130.396 148.493 130.845 148.493ZM136.351 145.322V149.26H135.346V142.714H136.317V143.737H136.402C136.556 143.405 136.789 143.138 137.101 142.936C137.414 142.731 137.817 142.629 138.312 142.629C138.755 142.629 139.143 142.72 139.475 142.902C139.807 143.081 140.066 143.354 140.25 143.72C140.435 144.084 140.527 144.544 140.527 145.101V149.26H139.522V145.169C139.522 144.655 139.388 144.254 139.121 143.967C138.854 143.677 138.488 143.532 138.022 143.532C137.701 143.532 137.414 143.602 137.161 143.741C136.911 143.881 136.714 144.084 136.569 144.351C136.424 144.618 136.351 144.942 136.351 145.322ZM147.002 144.18L146.098 144.436C146.041 144.285 145.957 144.139 145.847 143.997C145.739 143.852 145.591 143.733 145.404 143.639C145.216 143.545 144.976 143.498 144.683 143.498C144.283 143.498 143.949 143.591 143.682 143.775C143.418 143.957 143.286 144.189 143.286 144.47C143.286 144.72 143.377 144.917 143.558 145.062C143.74 145.207 144.024 145.328 144.411 145.425L145.382 145.663C145.967 145.805 146.404 146.023 146.69 146.315C146.977 146.605 147.121 146.979 147.121 147.436C147.121 147.811 147.013 148.146 146.797 148.442C146.584 148.737 146.286 148.97 145.902 149.14C145.519 149.311 145.073 149.396 144.564 149.396C143.896 149.396 143.344 149.251 142.906 148.961C142.469 148.672 142.192 148.248 142.075 147.692L143.03 147.453C143.121 147.805 143.293 148.069 143.546 148.246C143.801 148.422 144.135 148.51 144.547 148.51C145.016 148.51 145.388 148.41 145.663 148.211C145.942 148.01 146.081 147.768 146.081 147.487C146.081 147.26 146.002 147.069 145.842 146.916C145.683 146.76 145.439 146.643 145.109 146.567L144.019 146.311C143.419 146.169 142.979 145.949 142.698 145.65C142.419 145.349 142.28 144.973 142.28 144.521C142.28 144.152 142.384 143.825 142.591 143.541C142.801 143.257 143.087 143.034 143.448 142.872C143.811 142.71 144.223 142.629 144.683 142.629C145.331 142.629 145.84 142.771 146.209 143.055C146.581 143.339 146.845 143.714 147.002 144.18ZM152.76 146.584V142.714H153.765V149.26H152.76V148.152H152.692C152.538 148.484 152.299 148.767 151.976 149C151.652 149.23 151.243 149.345 150.748 149.345C150.339 149.345 149.976 149.256 149.657 149.077C149.339 148.895 149.089 148.622 148.907 148.258C148.726 147.892 148.635 147.43 148.635 146.873V142.714H149.64V146.805C149.64 147.282 149.774 147.663 150.041 147.947C150.311 148.231 150.655 148.373 151.072 148.373C151.322 148.373 151.576 148.309 151.835 148.182C152.096 148.054 152.315 147.858 152.491 147.594C152.67 147.329 152.76 146.993 152.76 146.584ZM156.613 140.532V149.26H155.607V140.532H156.613ZM161.302 142.714V143.567H157.91V142.714H161.302ZM158.898 141.146H159.904V147.385C159.904 147.669 159.945 147.882 160.027 148.024C160.113 148.163 160.221 148.257 160.351 148.305C160.485 148.351 160.625 148.373 160.773 148.373C160.884 148.373 160.975 148.368 161.046 148.356C161.117 148.342 161.174 148.331 161.216 148.322L161.421 149.226C161.353 149.251 161.258 149.277 161.135 149.302C161.013 149.331 160.858 149.345 160.671 149.345C160.387 149.345 160.108 149.284 159.836 149.162C159.566 149.04 159.341 148.854 159.162 148.604C158.986 148.354 158.898 148.038 158.898 147.657V141.146ZM162.814 149.26V142.714H163.82V149.26H162.814ZM163.326 141.623C163.13 141.623 162.961 141.557 162.819 141.423C162.679 141.29 162.61 141.129 162.61 140.942C162.61 140.754 162.679 140.594 162.819 140.46C162.961 140.327 163.13 140.26 163.326 140.26C163.522 140.26 163.689 140.327 163.829 140.46C163.971 140.594 164.042 140.754 164.042 140.942C164.042 141.129 163.971 141.29 163.829 141.423C163.689 141.557 163.522 141.623 163.326 141.623ZM166.668 145.322V149.26H165.662V142.714H166.634V143.737H166.719C166.872 143.405 167.105 143.138 167.418 142.936C167.73 142.731 168.134 142.629 168.628 142.629C169.071 142.629 169.459 142.72 169.791 142.902C170.124 143.081 170.382 143.354 170.567 143.72C170.752 144.084 170.844 144.544 170.844 145.101V149.26H169.838V145.169C169.838 144.655 169.705 144.254 169.438 143.967C169.171 143.677 168.804 143.532 168.338 143.532C168.017 143.532 167.73 143.602 167.477 143.741C167.227 143.881 167.03 144.084 166.885 144.351C166.74 144.618 166.668 144.942 166.668 145.322ZM175.324 151.851C174.838 151.851 174.42 151.788 174.071 151.663C173.721 151.541 173.43 151.379 173.197 151.177C172.967 150.979 172.784 150.765 172.647 150.538L173.449 149.976C173.54 150.095 173.655 150.231 173.794 150.385C173.933 150.541 174.123 150.676 174.365 150.79C174.609 150.906 174.929 150.964 175.324 150.964C175.852 150.964 176.288 150.836 176.632 150.581C176.976 150.325 177.147 149.925 177.147 149.379V148.05H177.062C176.988 148.169 176.883 148.317 176.747 148.493C176.613 148.666 176.42 148.821 176.167 148.957C175.917 149.091 175.579 149.157 175.153 149.157C174.625 149.157 174.15 149.032 173.73 148.782C173.312 148.532 172.981 148.169 172.737 147.692C172.495 147.214 172.375 146.635 172.375 145.953C172.375 145.282 172.493 144.699 172.728 144.202C172.964 143.702 173.292 143.315 173.713 143.042C174.133 142.767 174.619 142.629 175.17 142.629C175.596 142.629 175.934 142.7 176.184 142.842C176.437 142.981 176.63 143.14 176.764 143.319C176.9 143.496 177.005 143.64 177.079 143.754H177.182V142.714H178.153V149.447C178.153 150.01 178.025 150.467 177.77 150.819C177.517 151.175 177.176 151.434 176.747 151.599C176.321 151.767 175.846 151.851 175.324 151.851ZM175.29 148.254C175.693 148.254 176.034 148.162 176.312 147.977C176.591 147.792 176.802 147.527 176.947 147.18C177.092 146.834 177.165 146.419 177.165 145.936C177.165 145.464 177.093 145.048 176.951 144.687C176.809 144.327 176.599 144.044 176.321 143.839C176.042 143.635 175.699 143.532 175.29 143.532C174.863 143.532 174.508 143.64 174.224 143.856C173.943 144.072 173.731 144.362 173.589 144.726C173.45 145.089 173.38 145.493 173.38 145.936C173.38 146.39 173.451 146.792 173.593 147.142C173.738 147.488 173.951 147.761 174.233 147.96C174.517 148.156 174.869 148.254 175.29 148.254Z" fill="#9CA3AF"/>
<path d="M99.5651 183.26C99.4714 182.973 99.3478 182.716 99.1944 182.488C99.0438 182.258 98.8634 182.062 98.6532 181.9C98.4458 181.738 98.21 181.615 97.9458 181.53C97.6816 181.444 97.3918 181.402 97.0765 181.402C96.5594 181.402 96.0892 181.535 95.666 181.802C95.2427 182.069 94.906 182.463 94.656 182.983C94.406 183.503 94.281 184.14 94.281 184.896C94.281 185.652 94.4074 186.29 94.6603 186.809C94.9131 187.329 95.2554 187.723 95.6873 187.99C96.1191 188.257 96.6049 188.39 97.1446 188.39C97.6446 188.39 98.085 188.284 98.4657 188.071C98.8492 187.855 99.1475 187.551 99.3606 187.159C99.5765 186.764 99.6844 186.3 99.6844 185.765L100.008 185.834H97.3833V184.896H100.707V185.834C100.707 186.552 100.554 187.177 100.247 187.709C99.9429 188.24 99.5225 188.652 98.9856 188.944C98.4515 189.234 97.8378 189.379 97.1446 189.379C96.3719 189.379 95.6929 189.197 95.1077 188.834C94.5253 188.47 94.0708 187.953 93.7441 187.282C93.4202 186.612 93.2583 185.817 93.2583 184.896C93.2583 184.206 93.3506 183.585 93.5353 183.034C93.7228 182.48 93.987 182.008 94.3279 181.619C94.6688 181.23 95.0722 180.932 95.5381 180.724C96.004 180.517 96.5168 180.413 97.0765 180.413C97.5367 180.413 97.9657 180.483 98.3634 180.622C98.764 180.758 99.1205 180.953 99.433 181.206C99.7483 181.456 100.011 181.756 100.221 182.105C100.432 182.452 100.576 182.836 100.656 183.26H99.5651ZM102.381 189.26V182.714H103.352V183.703H103.421C103.54 183.379 103.756 183.116 104.068 182.915C104.381 182.713 104.733 182.612 105.125 182.612C105.199 182.612 105.291 182.613 105.402 182.616C105.513 182.619 105.597 182.623 105.654 182.629V183.652C105.619 183.643 105.541 183.631 105.419 183.613C105.3 183.594 105.173 183.584 105.04 183.584C104.722 183.584 104.438 183.65 104.188 183.784C103.94 183.915 103.744 184.096 103.6 184.329C103.458 184.559 103.386 184.822 103.386 185.118V189.26H102.381ZM108.772 189.413C108.357 189.413 107.981 189.335 107.643 189.179C107.304 189.02 107.036 188.791 106.837 188.493C106.638 188.192 106.539 187.828 106.539 187.402C106.539 187.027 106.613 186.723 106.76 186.49C106.908 186.254 107.106 186.069 107.353 185.936C107.6 185.802 107.873 185.703 108.171 185.638C108.472 185.569 108.775 185.515 109.079 185.476C109.476 185.425 109.799 185.386 110.046 185.361C110.296 185.332 110.478 185.285 110.591 185.22C110.708 185.155 110.766 185.041 110.766 184.879V184.845C110.766 184.425 110.651 184.098 110.421 183.865C110.194 183.632 109.848 183.515 109.385 183.515C108.905 183.515 108.529 183.621 108.256 183.831C107.983 184.041 107.792 184.265 107.681 184.504L106.726 184.163C106.897 183.765 107.124 183.456 107.408 183.234C107.695 183.01 108.008 182.854 108.346 182.765C108.687 182.675 109.022 182.629 109.351 182.629C109.562 182.629 109.803 182.655 110.076 182.706C110.351 182.754 110.617 182.855 110.873 183.008C111.131 183.162 111.346 183.393 111.516 183.703C111.687 184.013 111.772 184.427 111.772 184.947V189.26H110.766V188.373H110.715C110.647 188.515 110.533 188.667 110.374 188.829C110.215 188.991 110.003 189.129 109.739 189.243C109.475 189.356 109.152 189.413 108.772 189.413ZM108.925 188.51C109.323 188.51 109.658 188.432 109.931 188.275C110.206 188.119 110.414 187.917 110.553 187.67C110.695 187.423 110.766 187.163 110.766 186.89V185.97C110.723 186.021 110.63 186.068 110.485 186.111C110.343 186.15 110.178 186.186 109.991 186.217C109.806 186.246 109.625 186.271 109.449 186.294C109.276 186.314 109.135 186.331 109.027 186.345C108.766 186.379 108.522 186.434 108.295 186.511C108.07 186.585 107.888 186.697 107.749 186.848C107.613 186.996 107.545 187.197 107.545 187.453C107.545 187.802 107.674 188.067 107.932 188.246C108.194 188.422 108.525 188.51 108.925 188.51ZM113.607 191.714V182.714H114.579V183.754H114.698C114.772 183.64 114.874 183.496 115.005 183.319C115.139 183.14 115.329 182.981 115.576 182.842C115.826 182.7 116.164 182.629 116.59 182.629C117.141 182.629 117.627 182.767 118.048 183.042C118.468 183.318 118.796 183.709 119.032 184.214C119.268 184.72 119.386 185.317 119.386 186.004C119.386 186.697 119.268 187.298 119.032 187.807C118.796 188.312 118.47 188.704 118.052 188.983C117.634 189.258 117.153 189.396 116.607 189.396C116.187 189.396 115.85 189.327 115.597 189.187C115.345 189.045 115.15 188.885 115.014 188.706C114.877 188.524 114.772 188.373 114.698 188.254H114.613V191.714H113.607ZM114.596 185.987C114.596 186.481 114.668 186.917 114.813 187.295C114.958 187.67 115.17 187.964 115.448 188.177C115.727 188.388 116.068 188.493 116.471 188.493C116.891 188.493 117.242 188.382 117.524 188.16C117.808 187.936 118.021 187.635 118.163 187.257C118.308 186.876 118.38 186.453 118.38 185.987C118.38 185.527 118.309 185.112 118.167 184.743C118.028 184.371 117.816 184.077 117.532 183.861C117.251 183.642 116.897 183.532 116.471 183.532C116.062 183.532 115.718 183.636 115.44 183.844C115.161 184.048 114.951 184.335 114.809 184.704C114.667 185.071 114.596 185.498 114.596 185.987ZM121.926 185.322V189.26H120.92V180.532H121.926V183.737H122.011C122.164 183.399 122.394 183.131 122.701 182.932C123.011 182.73 123.423 182.629 123.937 182.629C124.383 182.629 124.774 182.719 125.109 182.898C125.444 183.074 125.704 183.345 125.889 183.711C126.076 184.075 126.17 184.538 126.17 185.101V189.26H125.164V185.169C125.164 184.649 125.029 184.247 124.759 183.963C124.492 183.676 124.122 183.532 123.647 183.532C123.318 183.532 123.022 183.602 122.761 183.741C122.502 183.881 122.298 184.084 122.147 184.351C121.999 184.618 121.926 184.942 121.926 185.322ZM128.01 189.26V182.714H129.015V189.26H128.01ZM128.521 181.623C128.325 181.623 128.156 181.557 128.014 181.423C127.875 181.29 127.805 181.129 127.805 180.942C127.805 180.754 127.875 180.594 128.014 180.46C128.156 180.327 128.325 180.26 128.521 180.26C128.717 180.26 128.885 180.327 129.024 180.46C129.166 180.594 129.237 180.754 129.237 180.942C129.237 181.129 129.166 181.29 129.024 181.423C128.885 181.557 128.717 181.623 128.521 181.623ZM133.516 189.396C132.903 189.396 132.374 189.251 131.931 188.961C131.488 188.672 131.147 188.273 130.908 187.764C130.67 187.256 130.551 186.675 130.551 186.021C130.551 185.356 130.673 184.77 130.917 184.261C131.164 183.75 131.508 183.351 131.948 183.064C132.391 182.774 132.908 182.629 133.499 182.629C133.96 182.629 134.374 182.714 134.744 182.885C135.113 183.055 135.416 183.294 135.651 183.601C135.887 183.907 136.033 184.265 136.09 184.675H135.085C135.008 184.376 134.837 184.112 134.573 183.882C134.312 183.649 133.96 183.532 133.516 183.532C133.124 183.532 132.781 183.635 132.485 183.839C132.193 184.041 131.964 184.327 131.799 184.696C131.637 185.062 131.556 185.493 131.556 185.987C131.556 186.493 131.636 186.933 131.795 187.308C131.957 187.683 132.184 187.974 132.477 188.182C132.772 188.389 133.119 188.493 133.516 188.493C133.778 188.493 134.015 188.447 134.228 188.356C134.441 188.265 134.622 188.135 134.769 187.964C134.917 187.794 135.022 187.589 135.085 187.351H136.09C136.033 187.737 135.893 188.085 135.668 188.395C135.447 188.702 135.153 188.946 134.786 189.128C134.423 189.307 133.999 189.396 133.516 189.396ZM143.765 189.26H141.072V180.532H143.884C144.731 180.532 145.455 180.707 146.058 181.057C146.66 181.403 147.122 181.902 147.443 182.552C147.764 183.2 147.924 183.976 147.924 184.879C147.924 185.788 147.762 186.571 147.438 187.227C147.114 187.881 146.643 188.383 146.024 188.736C145.404 189.085 144.651 189.26 143.765 189.26ZM142.129 188.322H143.697C144.418 188.322 145.016 188.183 145.491 187.905C145.965 187.626 146.319 187.23 146.552 186.716C146.785 186.202 146.901 185.589 146.901 184.879C146.901 184.175 146.786 183.568 146.556 183.059C146.326 182.548 145.982 182.156 145.525 181.883C145.068 181.608 144.498 181.47 143.816 181.47H142.129V188.322ZM152.305 189.396C151.674 189.396 151.13 189.257 150.673 188.979C150.218 188.697 149.867 188.305 149.62 187.802C149.376 187.297 149.254 186.709 149.254 186.038C149.254 185.368 149.376 184.777 149.62 184.265C149.867 183.751 150.211 183.351 150.651 183.064C151.095 182.774 151.612 182.629 152.203 182.629C152.543 182.629 152.88 182.686 153.212 182.8C153.545 182.913 153.847 183.098 154.12 183.354C154.393 183.606 154.61 183.942 154.772 184.359C154.934 184.777 155.015 185.291 155.015 185.902V186.328H149.97V185.459H153.992C153.992 185.089 153.918 184.76 153.771 184.47C153.626 184.18 153.418 183.952 153.149 183.784C152.882 183.616 152.566 183.532 152.203 183.532C151.802 183.532 151.455 183.632 151.163 183.831C150.873 184.027 150.65 184.282 150.494 184.598C150.337 184.913 150.259 185.251 150.259 185.612V186.192C150.259 186.686 150.345 187.105 150.515 187.449C150.688 187.79 150.928 188.05 151.235 188.229C151.542 188.405 151.899 188.493 152.305 188.493C152.569 188.493 152.808 188.456 153.021 188.382C153.237 188.305 153.423 188.192 153.579 188.041C153.735 187.888 153.856 187.697 153.941 187.47L154.913 187.743C154.81 188.072 154.639 188.362 154.397 188.612C154.156 188.859 153.857 189.052 153.502 189.192C153.147 189.328 152.748 189.396 152.305 189.396ZM161.181 184.18L160.278 184.436C160.221 184.285 160.137 184.139 160.026 183.997C159.918 183.852 159.771 183.733 159.583 183.639C159.396 183.545 159.156 183.498 158.863 183.498C158.462 183.498 158.129 183.591 157.862 183.775C157.597 183.957 157.465 184.189 157.465 184.47C157.465 184.72 157.556 184.917 157.738 185.062C157.92 185.207 158.204 185.328 158.59 185.425L159.562 185.663C160.147 185.805 160.583 186.023 160.87 186.315C161.157 186.605 161.301 186.979 161.301 187.436C161.301 187.811 161.193 188.146 160.977 188.442C160.764 188.737 160.465 188.97 160.082 189.14C159.698 189.311 159.252 189.396 158.744 189.396C158.076 189.396 157.524 189.251 157.086 188.961C156.649 188.672 156.372 188.248 156.255 187.692L157.21 187.453C157.301 187.805 157.472 188.069 157.725 188.246C157.981 188.422 158.315 188.51 158.727 188.51C159.195 188.51 159.568 188.41 159.843 188.211C160.122 188.01 160.261 187.768 160.261 187.487C160.261 187.26 160.181 187.069 160.022 186.916C159.863 186.76 159.619 186.643 159.289 186.567L158.198 186.311C157.599 186.169 157.158 185.949 156.877 185.65C156.599 185.349 156.46 184.973 156.46 184.521C156.46 184.152 156.563 183.825 156.771 183.541C156.981 183.257 157.266 183.034 157.627 182.872C157.991 182.71 158.403 182.629 158.863 182.629C159.511 182.629 160.019 182.771 160.389 183.055C160.761 183.339 161.025 183.714 161.181 184.18ZM162.814 189.26V182.714H163.82V189.26H162.814ZM163.326 181.623C163.13 181.623 162.961 181.557 162.819 181.423C162.679 181.29 162.61 181.129 162.61 180.942C162.61 180.754 162.679 180.594 162.819 180.46C162.961 180.327 163.13 180.26 163.326 180.26C163.522 180.26 163.689 180.327 163.829 180.46C163.971 180.594 164.042 180.754 164.042 180.942C164.042 181.129 163.971 181.29 163.829 181.423C163.689 181.557 163.522 181.623 163.326 181.623ZM168.304 191.851C167.818 191.851 167.401 191.788 167.051 191.663C166.702 191.541 166.411 191.379 166.178 191.177C165.948 190.979 165.764 190.765 165.628 190.538L166.429 189.976C166.52 190.095 166.635 190.231 166.774 190.385C166.913 190.541 167.104 190.676 167.345 190.79C167.59 190.906 167.909 190.964 168.304 190.964C168.833 190.964 169.269 190.836 169.612 190.581C169.956 190.325 170.128 189.925 170.128 189.379V188.05H170.043C169.969 188.169 169.864 188.317 169.727 188.493C169.594 188.666 169.401 188.821 169.148 188.957C168.898 189.091 168.56 189.157 168.134 189.157C167.605 189.157 167.131 189.032 166.71 188.782C166.293 188.532 165.962 188.169 165.717 187.692C165.476 187.214 165.355 186.635 165.355 185.953C165.355 185.282 165.473 184.699 165.709 184.202C165.945 183.702 166.273 183.315 166.693 183.042C167.114 182.767 167.6 182.629 168.151 182.629C168.577 182.629 168.915 182.7 169.165 182.842C169.418 182.981 169.611 183.14 169.744 183.319C169.881 183.496 169.986 183.64 170.06 183.754H170.162V182.714H171.134V189.447C171.134 190.01 171.006 190.467 170.75 190.819C170.497 191.175 170.156 191.434 169.727 191.599C169.301 191.767 168.827 191.851 168.304 191.851ZM168.27 188.254C168.673 188.254 169.014 188.162 169.293 187.977C169.571 187.792 169.783 187.527 169.928 187.18C170.073 186.834 170.145 186.419 170.145 185.936C170.145 185.464 170.074 185.048 169.932 184.687C169.79 184.327 169.58 184.044 169.301 183.839C169.023 183.635 168.679 183.532 168.27 183.532C167.844 183.532 167.489 183.64 167.205 183.856C166.923 184.072 166.712 184.362 166.57 184.726C166.431 185.089 166.361 185.493 166.361 185.936C166.361 186.39 166.432 186.792 166.574 187.142C166.719 187.488 166.932 187.761 167.213 187.96C167.497 188.156 167.85 188.254 168.27 188.254ZM173.98 185.322V189.26H172.975V182.714H173.946V183.737H174.031C174.185 183.405 174.418 183.138 174.73 182.936C175.043 182.731 175.446 182.629 175.94 182.629C176.384 182.629 176.771 182.72 177.104 182.902C177.436 183.081 177.695 183.354 177.879 183.72C178.064 184.084 178.156 184.544 178.156 185.101V189.26H177.151V185.169C177.151 184.655 177.017 184.254 176.75 183.967C176.483 183.677 176.117 183.532 175.651 183.532C175.33 183.532 175.043 183.602 174.79 183.741C174.54 183.881 174.342 184.084 174.198 184.351C174.053 184.618 173.98 184.942 173.98 185.322Z" fill="#9CA3AF"/>
<path d="M103.106 221.47V220.532H109.652V221.47H106.907V229.26H105.851V221.47H103.106ZM112.941 229.396C112.311 229.396 111.767 229.257 111.309 228.979C110.855 228.697 110.504 228.305 110.257 227.802C110.013 227.297 109.89 226.709 109.89 226.038C109.89 225.368 110.013 224.777 110.257 224.265C110.504 223.751 110.848 223.351 111.288 223.064C111.731 222.774 112.248 222.629 112.839 222.629C113.18 222.629 113.517 222.686 113.849 222.8C114.182 222.913 114.484 223.098 114.757 223.354C115.03 223.606 115.247 223.942 115.409 224.359C115.571 224.777 115.652 225.291 115.652 225.902V226.328H110.606V225.459H114.629C114.629 225.089 114.555 224.76 114.407 224.47C114.263 224.18 114.055 223.952 113.785 223.784C113.518 223.616 113.203 223.532 112.839 223.532C112.439 223.532 112.092 223.632 111.799 223.831C111.51 224.027 111.287 224.282 111.13 224.598C110.974 224.913 110.896 225.251 110.896 225.612V226.192C110.896 226.686 110.981 227.105 111.152 227.449C111.325 227.79 111.565 228.05 111.872 228.229C112.179 228.405 112.535 228.493 112.941 228.493C113.206 228.493 113.444 228.456 113.657 228.382C113.873 228.305 114.059 228.192 114.216 228.041C114.372 227.888 114.493 227.697 114.578 227.47L115.549 227.743C115.447 228.072 115.275 228.362 115.034 228.612C114.792 228.859 114.494 229.052 114.139 229.192C113.784 229.328 113.385 229.396 112.941 229.396ZM119.841 229.396C119.227 229.396 118.699 229.251 118.255 228.961C117.812 228.672 117.471 228.273 117.233 227.764C116.994 227.256 116.875 226.675 116.875 226.021C116.875 225.356 116.997 224.77 117.241 224.261C117.488 223.75 117.832 223.351 118.272 223.064C118.716 222.774 119.233 222.629 119.824 222.629C120.284 222.629 120.699 222.714 121.068 222.885C121.437 223.055 121.74 223.294 121.976 223.601C122.211 223.907 122.358 224.265 122.415 224.675H121.409C121.332 224.376 121.162 224.112 120.897 223.882C120.636 223.649 120.284 223.532 119.841 223.532C119.449 223.532 119.105 223.635 118.809 223.839C118.517 224.041 118.288 224.327 118.123 224.696C117.961 225.062 117.88 225.493 117.88 225.987C117.88 226.493 117.96 226.933 118.119 227.308C118.281 227.683 118.508 227.974 118.801 228.182C119.096 228.389 119.443 228.493 119.841 228.493C120.102 228.493 120.339 228.447 120.552 228.356C120.765 228.265 120.946 228.135 121.093 227.964C121.241 227.794 121.346 227.589 121.409 227.351H122.415C122.358 227.737 122.217 228.085 121.993 228.395C121.771 228.702 121.477 228.946 121.111 229.128C120.747 229.307 120.324 229.396 119.841 229.396ZM124.89 225.322V229.26H123.885V220.532H124.89V223.737H124.976C125.129 223.399 125.359 223.131 125.666 222.932C125.976 222.73 126.388 222.629 126.902 222.629C127.348 222.629 127.738 222.719 128.074 222.898C128.409 223.074 128.669 223.345 128.853 223.711C129.041 224.075 129.135 224.538 129.135 225.101V229.26H128.129V225.169C128.129 224.649 127.994 224.247 127.724 223.963C127.457 223.676 127.086 223.532 126.612 223.532C126.282 223.532 125.987 223.602 125.726 223.741C125.467 223.881 125.263 224.084 125.112 224.351C124.964 224.618 124.89 224.942 124.89 225.322ZM139.259 222.714C139.207 222.282 139 221.947 138.636 221.709C138.273 221.47 137.827 221.351 137.298 221.351C136.912 221.351 136.574 221.413 136.284 221.538C135.997 221.663 135.773 221.835 135.611 222.054C135.452 222.273 135.372 222.521 135.372 222.8C135.372 223.032 135.428 223.233 135.538 223.4C135.652 223.565 135.797 223.703 135.973 223.814C136.149 223.922 136.334 224.011 136.527 224.082C136.72 224.15 136.898 224.206 137.06 224.248L137.946 224.487C138.173 224.547 138.426 224.629 138.705 224.734C138.986 224.839 139.254 224.983 139.51 225.165C139.769 225.344 139.982 225.574 140.149 225.855C140.317 226.136 140.401 226.481 140.401 226.89C140.401 227.362 140.277 227.788 140.03 228.169C139.786 228.55 139.428 228.852 138.956 229.077C138.487 229.301 137.918 229.413 137.247 229.413C136.622 229.413 136.081 229.312 135.624 229.111C135.169 228.909 134.811 228.628 134.55 228.267C134.291 227.906 134.145 227.487 134.111 227.01H135.202C135.23 227.339 135.341 227.612 135.534 227.828C135.73 228.041 135.977 228.2 136.276 228.305C136.577 228.407 136.901 228.459 137.247 228.459C137.651 228.459 138.013 228.393 138.334 228.263C138.655 228.129 138.909 227.944 139.097 227.709C139.284 227.47 139.378 227.192 139.378 226.873C139.378 226.584 139.297 226.348 139.135 226.166C138.973 225.984 138.76 225.836 138.496 225.723C138.232 225.609 137.946 225.51 137.639 225.425L136.565 225.118C135.884 224.922 135.344 224.642 134.946 224.278C134.548 223.915 134.35 223.439 134.35 222.851C134.35 222.362 134.482 221.936 134.746 221.572C135.013 221.206 135.371 220.922 135.82 220.72C136.271 220.515 136.776 220.413 137.332 220.413C137.895 220.413 138.395 220.514 138.832 220.716C139.27 220.915 139.617 221.187 139.872 221.534C140.131 221.881 140.267 222.274 140.281 222.714H139.259ZM146.127 226.584V222.714H147.133V229.26H146.127V228.152H146.059C145.905 228.484 145.667 228.767 145.343 229C145.019 229.23 144.61 229.345 144.116 229.345C143.706 229.345 143.343 229.256 143.025 229.077C142.706 228.895 142.456 228.622 142.275 228.258C142.093 227.892 142.002 227.43 142.002 226.873V222.714H143.008V226.805C143.008 227.282 143.141 227.663 143.408 227.947C143.678 228.231 144.022 228.373 144.439 228.373C144.689 228.373 144.944 228.309 145.202 228.182C145.464 228.054 145.682 227.858 145.858 227.594C146.037 227.329 146.127 226.993 146.127 226.584ZM148.975 231.714V222.714H149.946V223.754H150.065C150.139 223.64 150.242 223.496 150.372 223.319C150.506 223.14 150.696 222.981 150.943 222.842C151.193 222.7 151.531 222.629 151.957 222.629C152.509 222.629 152.994 222.767 153.415 223.042C153.835 223.318 154.163 223.709 154.399 224.214C154.635 224.72 154.753 225.317 154.753 226.004C154.753 226.697 154.635 227.298 154.399 227.807C154.163 228.312 153.837 228.704 153.419 228.983C153.002 229.258 152.52 229.396 151.975 229.396C151.554 229.396 151.217 229.327 150.965 229.187C150.712 229.045 150.517 228.885 150.381 228.706C150.244 228.524 150.139 228.373 150.065 228.254H149.98V231.714H148.975ZM149.963 225.987C149.963 226.481 150.036 226.917 150.18 227.295C150.325 227.67 150.537 227.964 150.815 228.177C151.094 228.388 151.435 228.493 151.838 228.493C152.259 228.493 152.609 228.382 152.891 228.16C153.175 227.936 153.388 227.635 153.53 227.257C153.675 226.876 153.747 226.453 153.747 225.987C153.747 225.527 153.676 225.112 153.534 224.743C153.395 224.371 153.183 224.077 152.899 223.861C152.618 223.642 152.264 223.532 151.838 223.532C151.429 223.532 151.085 223.636 150.807 223.844C150.529 224.048 150.318 224.335 150.176 224.704C150.034 225.071 149.963 225.498 149.963 225.987ZM156.287 231.714V222.714H157.259V223.754H157.378C157.452 223.64 157.554 223.496 157.685 223.319C157.818 223.14 158.009 222.981 158.256 222.842C158.506 222.7 158.844 222.629 159.27 222.629C159.821 222.629 160.307 222.767 160.727 223.042C161.148 223.318 161.476 223.709 161.712 224.214C161.948 224.72 162.065 225.317 162.065 226.004C162.065 226.697 161.948 227.298 161.712 227.807C161.476 228.312 161.149 228.704 160.732 228.983C160.314 229.258 159.832 229.396 159.287 229.396C158.867 229.396 158.53 229.327 158.277 229.187C158.024 229.045 157.83 228.885 157.693 228.706C157.557 228.524 157.452 228.373 157.378 228.254H157.293V231.714H156.287ZM157.276 225.987C157.276 226.481 157.348 226.917 157.493 227.295C157.638 227.67 157.85 227.964 158.128 228.177C158.406 228.388 158.747 228.493 159.151 228.493C159.571 228.493 159.922 228.382 160.203 228.16C160.487 227.936 160.7 227.635 160.842 227.257C160.987 226.876 161.06 226.453 161.06 225.987C161.06 225.527 160.989 225.112 160.847 224.743C160.707 224.371 160.496 224.077 160.212 223.861C159.93 223.642 159.577 223.532 159.151 223.532C158.742 223.532 158.398 223.636 158.119 223.844C157.841 224.048 157.631 224.335 157.489 224.704C157.347 225.071 157.276 225.498 157.276 225.987ZM166.259 229.396C165.668 229.396 165.149 229.256 164.703 228.974C164.26 228.693 163.913 228.3 163.663 227.794C163.416 227.288 163.293 226.697 163.293 226.021C163.293 225.339 163.416 224.744 163.663 224.236C163.913 223.727 164.26 223.332 164.703 223.051C165.149 222.77 165.668 222.629 166.259 222.629C166.85 222.629 167.367 222.77 167.81 223.051C168.256 223.332 168.602 223.727 168.85 224.236C169.1 224.744 169.225 225.339 169.225 226.021C169.225 226.697 169.1 227.288 168.85 227.794C168.602 228.3 168.256 228.693 167.81 228.974C167.367 229.256 166.85 229.396 166.259 229.396ZM166.259 228.493C166.707 228.493 167.077 228.378 167.367 228.148C167.656 227.917 167.871 227.615 168.01 227.24C168.149 226.865 168.219 226.459 168.219 226.021C168.219 225.584 168.149 225.176 168.01 224.798C167.871 224.42 167.656 224.115 167.367 223.882C167.077 223.649 166.707 223.532 166.259 223.532C165.81 223.532 165.44 223.649 165.151 223.882C164.861 224.115 164.646 224.42 164.507 224.798C164.368 225.176 164.298 225.584 164.298 226.021C164.298 226.459 164.368 226.865 164.507 227.24C164.646 227.615 164.861 227.917 165.151 228.148C165.44 228.378 165.81 228.493 166.259 228.493ZM170.76 229.26V222.714H171.731V223.703H171.799C171.919 223.379 172.135 223.116 172.447 222.915C172.76 222.713 173.112 222.612 173.504 222.612C173.578 222.612 173.67 222.613 173.781 222.616C173.892 222.619 173.976 222.623 174.032 222.629V223.652C173.998 223.643 173.92 223.631 173.798 223.613C173.679 223.594 173.552 223.584 173.419 223.584C173.101 223.584 172.816 223.65 172.566 223.784C172.319 223.915 172.123 224.096 171.978 224.329C171.836 224.559 171.765 224.822 171.765 225.118V229.26H170.76ZM178.481 222.714V223.567H175.089V222.714H178.481ZM176.078 221.146H177.084V227.385C177.084 227.669 177.125 227.882 177.207 228.024C177.292 228.163 177.4 228.257 177.531 228.305C177.665 228.351 177.805 228.373 177.953 228.373C178.064 228.373 178.155 228.368 178.226 228.356C178.297 228.342 178.353 228.331 178.396 228.322L178.601 229.226C178.532 229.251 178.437 229.277 178.315 229.302C178.193 229.331 178.038 229.345 177.851 229.345C177.566 229.345 177.288 229.284 177.015 229.162C176.745 229.04 176.521 228.854 176.342 228.604C176.166 228.354 176.078 228.038 176.078 227.657V221.146Z" fill="#9CA3AF"/>
<path d="M189.531 9H468.153C469.54 9 470.87 9.42143 471.85 10.1716C472.831 10.9217 473.382 11.9391 473.382 13V37C473.382 38.0609 472.831 39.0783 471.85 39.8284C470.87 40.5786 469.54 41 468.153 41H189.531V9Z" fill="#5D7872"/>
<path d="M189.531 49H426.692C428.079 49 429.408 49.4214 430.389 50.1716C431.37 50.9217 431.92 51.9391 431.92 53V77C431.92 78.0609 431.37 79.0783 430.389 79.8284C429.408 80.5786 428.079 81 426.692 81H189.531V49Z" fill="#5D7872"/>
<path d="M189.531 89H391.609C392.996 89 394.326 89.4214 395.306 90.1716C396.287 90.9217 396.838 91.9391 396.838 93V117C396.838 118.061 396.287 119.078 395.306 119.828C394.326 120.579 392.996 121 391.609 121H189.531V89Z" fill="#5D7872"/>
<path d="M189.531 129H356.526C357.913 129 359.243 129.421 360.224 130.172C361.204 130.922 361.755 131.939 361.755 133V157C361.755 158.061 361.204 159.078 360.224 159.828C359.243 160.579 357.913 161 356.526 161H189.531V129Z" fill="#5D7872"/>
<path d="M189.531 169H337.39C338.777 169 340.107 169.421 341.087 170.172C342.068 170.922 342.619 171.939 342.619 173V197C342.619 198.061 342.068 199.078 341.087 199.828C340.107 200.579 338.777 201 337.39 201H189.531V169Z" fill="#5D7872"/>
<path d="M189.531 209H318.254C319.641 209 320.971 209.421 321.951 210.172C322.932 210.922 323.483 211.939 323.483 213V237C323.483 238.061 322.932 239.078 321.951 239.828C320.971 240.579 319.641 241 318.254 241H189.531V209Z" fill="#5D7872"/>
</g>
<defs>
<clipPath id="clip0_274_558">
<rect width="515" height="280" fill="white"/>
</clipPath>
</defs>
</svg>
