<svg width="162" height="36" viewBox="0 0 162 36" fill="none" xmlns="http://www.w3.org/2000/svg">
<path d="M0 8C0 3.58172 3.58172 0 8 0H153.875C158.293 0 161.875 3.58172 161.875 8V28C161.875 32.4183 158.293 36 153.875 36H8C3.58172 36 0 32.4183 0 28V8Z" fill="#1C3F3A"/>
<path d="M15.333 18H24.6663" stroke="white" stroke-width="1.33333" stroke-linecap="round" stroke-linejoin="round"/>
<path d="M20 13.333V22.6663" stroke="white" stroke-width="1.33333" stroke-linecap="round" stroke-linejoin="round"/>
<path d="M40.368 24.168C39.808 24.168 39.29 24.042 38.814 23.79C38.3473 23.538 37.9367 23.202 37.582 22.782C37.2367 22.362 36.966 21.8953 36.77 21.382C36.5833 20.8687 36.49 20.3413 36.49 19.8C36.49 19.3707 36.5413 18.9553 36.644 18.554C36.756 18.1527 36.91 17.77 37.106 17.406C37.3113 17.0327 37.5493 16.6827 37.82 16.356C38.0813 16.0853 38.38 15.8427 38.716 15.628C39.052 15.4133 39.4067 15.236 39.78 15.096C40.1533 14.956 40.536 14.872 40.928 14.844C41.18 14.844 41.474 14.8627 41.81 14.9C42.146 14.9373 42.4773 14.9933 42.804 15.068C43.14 15.1427 43.42 15.2267 43.644 15.32L43.686 15.446L43.574 17.77L42.748 17.854L42.678 17.742L42.3 16.216C42.1507 16.1507 42.0013 16.0993 41.852 16.062C41.7027 16.0247 41.544 15.9967 41.376 15.978C41.2173 15.95 41.0307 15.9407 40.816 15.95C40.4987 15.95 40.1953 15.9687 39.906 16.006C39.626 16.0433 39.388 16.0947 39.192 16.16C39.0053 16.3747 38.828 16.6453 38.66 16.972C38.5013 17.2893 38.3707 17.6533 38.268 18.064C38.1747 18.4747 38.128 18.9273 38.128 19.422C38.128 20.0007 38.2167 20.5327 38.394 21.018C38.5807 21.494 38.8467 21.9093 39.192 22.264C39.5467 22.6187 39.9713 22.8987 40.466 23.104C40.8113 23.104 41.1753 23.0527 41.558 22.95C41.95 22.8473 42.3327 22.7213 42.706 22.572C43.0793 22.4227 43.42 22.2827 43.728 22.152L44.036 22.712C43.5227 23.1133 42.958 23.44 42.342 23.692C41.7353 23.944 41.0773 24.1027 40.368 24.168ZM45.1329 24.07C45.1049 23.9767 45.0863 23.888 45.0769 23.804C45.0676 23.72 45.0629 23.6313 45.0629 23.538L46.0149 23.118C46.0336 22.8473 46.0523 22.5393 46.0709 22.194C46.0989 21.8393 46.1129 21.5127 46.1129 21.214C46.1129 20.962 46.1036 20.682 46.0849 20.374C46.0663 20.066 46.0476 19.758 46.0289 19.45C46.0103 19.142 45.9869 18.8667 45.9589 18.624L44.9789 18.47C44.9416 18.3953 44.9183 18.3253 44.9089 18.26C44.8996 18.1853 44.8903 18.1107 44.8809 18.036C45.2076 17.9147 45.5483 17.8073 45.9029 17.714C46.2669 17.6207 46.6216 17.546 46.9669 17.49L47.2609 17.896L47.1349 19.59L47.2889 19.646C47.4196 19.2913 47.5596 18.9507 47.7089 18.624C47.8676 18.2973 48.0403 17.9753 48.2269 17.658C48.3856 17.6207 48.5536 17.5927 48.7309 17.574C48.9176 17.546 49.0996 17.5273 49.2769 17.518C49.4543 17.5087 49.6269 17.5133 49.7949 17.532L49.9349 17.812L49.7109 18.904L49.5709 19.114C49.4309 19.0953 49.2816 19.0767 49.1229 19.058C48.9736 19.0393 48.8196 19.0253 48.6609 19.016C48.5023 19.0067 48.3529 19.0113 48.2129 19.03C48.1009 19.1607 47.9936 19.3147 47.8909 19.492C47.7883 19.66 47.6903 19.842 47.5969 20.038C47.5129 20.2247 47.4336 20.4067 47.3589 20.584L47.4429 23.23L48.6609 23.51C48.6703 23.594 48.6703 23.678 48.6609 23.762C48.6516 23.846 48.6376 23.9253 48.6189 24C48.4603 24 48.2223 24 47.9049 24C47.5969 24.0093 47.2609 24.014 46.8969 24.014C46.5329 24.0233 46.1923 24.0327 45.8749 24.042C45.5576 24.0513 45.3103 24.0607 45.1329 24.07ZM53.1376 24.168C52.587 24.168 52.1063 24.028 51.6956 23.748C51.2943 23.468 50.9816 23.0947 50.7576 22.628C50.5336 22.152 50.4216 21.6247 50.4216 21.046C50.4216 20.5793 50.487 20.136 50.6176 19.716C50.7483 19.2867 50.907 18.9227 51.0936 18.624C51.3176 18.4467 51.565 18.2833 51.8356 18.134C52.1156 17.9847 52.4096 17.854 52.7176 17.742C53.035 17.63 53.3523 17.5507 53.6696 17.504C53.9683 17.504 54.2716 17.5927 54.5796 17.77C54.8876 17.9473 55.1536 18.2273 55.3776 18.61C55.611 18.9833 55.7556 19.4733 55.8116 20.08L55.4196 20.864C55.009 20.9293 54.4863 20.99 53.8516 21.046C53.2263 21.102 52.5543 21.1393 51.8356 21.158C51.8823 21.606 52.013 21.998 52.2276 22.334C52.4423 22.67 52.727 22.95 53.0816 23.174C53.343 23.174 53.6323 23.1413 53.9496 23.076C54.2763 23.0013 54.589 22.9173 54.8876 22.824C55.1956 22.7307 55.457 22.642 55.6716 22.558L55.8816 22.936C55.695 23.1133 55.4803 23.2907 55.2376 23.468C54.995 23.6453 54.7383 23.818 54.4676 23.986C54.3556 24.014 54.1783 24.0513 53.9356 24.098C53.7023 24.1447 53.4363 24.168 53.1376 24.168ZM51.8216 20.612C52.3256 20.5747 52.7923 20.528 53.2216 20.472C53.6603 20.416 54.0476 20.3507 54.3836 20.276C54.3836 20.0333 54.3556 19.7907 54.2996 19.548C54.253 19.3053 54.1783 19.0767 54.0756 18.862C53.9823 18.6473 53.8656 18.4793 53.7256 18.358C53.5296 18.358 53.301 18.372 53.0396 18.4C52.7783 18.4187 52.587 18.456 52.4656 18.512C52.2976 18.7173 52.1483 19.002 52.0176 19.366C51.8963 19.73 51.831 20.1453 51.8216 20.612ZM59.6194 24C59.4608 24.0467 59.2368 24.084 58.9474 24.112C58.6674 24.1493 58.3688 24.1587 58.0514 24.14C57.9114 24.056 57.7621 23.9393 57.6034 23.79C57.4448 23.6313 57.3048 23.454 57.1834 23.258C57.0714 23.062 57.0108 22.8613 57.0014 22.656C57.0014 22.4973 57.0201 22.334 57.0574 22.166C57.1041 21.9887 57.1601 21.8253 57.2254 21.676C57.2908 21.5267 57.3654 21.3913 57.4494 21.27C57.5334 21.1393 57.6221 21.0367 57.7154 20.962C57.9114 20.8967 58.1494 20.836 58.4294 20.78C58.7188 20.724 59.0081 20.6773 59.2974 20.64C59.5961 20.5933 59.8574 20.5607 60.0814 20.542C60.3148 20.514 60.4828 20.5 60.5854 20.5V18.666C60.4174 18.5633 60.1981 18.4747 59.9274 18.4C59.6568 18.3253 59.3908 18.288 59.1294 18.288C59.0548 18.288 58.9754 18.2927 58.8914 18.302C58.8168 18.302 58.7468 18.3113 58.6814 18.33L58.4294 19.688L57.4774 19.604L57.3654 18.134L57.4634 17.98C57.7714 17.868 58.1681 17.7607 58.6534 17.658C59.1388 17.546 59.6754 17.49 60.2634 17.49C60.5528 17.49 60.7954 17.5413 60.9914 17.644C61.1968 17.7373 61.3648 17.854 61.4954 17.994C61.6354 18.134 61.7381 18.2693 61.8034 18.4C61.8781 18.5307 61.9294 18.6333 61.9574 18.708C61.9481 18.9507 61.9341 19.2167 61.9154 19.506C61.8968 19.7953 61.8828 20.066 61.8734 20.318C61.8641 20.57 61.8594 20.7613 61.8594 20.892C61.8594 21.2933 61.8688 21.648 61.8874 21.956C61.9061 22.2547 61.9294 22.4973 61.9574 22.684C61.9948 22.8707 62.0181 23.0013 62.0274 23.076L62.8534 23.146L62.9234 23.58C62.6621 23.6827 62.3681 23.79 62.0414 23.902C61.7148 24.0047 61.3508 24.0887 60.9494 24.154L60.6414 23.734L60.6554 22.866H60.5994C60.4968 22.9873 60.3894 23.1133 60.2774 23.244C60.1654 23.3747 60.0534 23.5053 59.9414 23.636C59.8294 23.7573 59.7221 23.8787 59.6194 24ZM58.5134 22.922C58.5508 22.9407 58.6114 22.9687 58.6954 23.006C58.7888 23.034 58.8914 23.0667 59.0034 23.104C59.1154 23.132 59.2228 23.146 59.3254 23.146C59.3814 23.1273 59.4701 23.076 59.5914 22.992C59.7221 22.908 59.8574 22.8147 59.9974 22.712C60.1374 22.6 60.2634 22.4973 60.3754 22.404C60.4874 22.3107 60.5574 22.2453 60.5854 22.208V21.088C60.3614 21.1067 60.1234 21.144 59.8714 21.2C59.6288 21.2467 59.3814 21.3073 59.1294 21.382C58.8868 21.4473 58.6488 21.5267 58.4154 21.62C58.4061 21.6667 58.3968 21.7133 58.3874 21.76C58.3874 21.7973 58.3874 21.8347 58.3874 21.872C58.3874 21.9093 58.3874 21.9513 58.3874 21.998C58.3874 22.2033 58.3968 22.3853 58.4154 22.544C58.4434 22.6933 58.4761 22.8193 58.5134 22.922ZM65.1674 24.168C65.0554 24.028 64.9434 23.8647 64.8314 23.678C64.7287 23.4913 64.6307 23.2907 64.5374 23.076C64.4534 22.8613 64.3787 22.6513 64.3134 22.446C64.3227 22.138 64.332 21.83 64.3414 21.522C64.36 21.214 64.374 20.906 64.3834 20.598C64.3927 20.2807 64.402 19.968 64.4114 19.66C64.4207 19.352 64.4254 19.044 64.4254 18.736C64.3787 18.68 64.3087 18.6333 64.2154 18.596C64.1314 18.5493 64.0427 18.512 63.9494 18.484C63.856 18.4467 63.7627 18.4187 63.6694 18.4L63.5294 18.218L63.5994 17.742L64.4674 17.504L64.9994 16.23H65.8254L65.7834 17.672L67.3934 17.63L67.6034 17.77L67.4774 18.512C67.4027 18.512 67.2907 18.512 67.1414 18.512C67.0014 18.5027 66.8427 18.498 66.6654 18.498C66.4974 18.4887 66.3294 18.484 66.1614 18.484C66.0027 18.4747 65.8674 18.47 65.7554 18.47C65.746 18.694 65.7367 18.9273 65.7274 19.17C65.7274 19.4127 65.7227 19.646 65.7134 19.87C65.7134 20.0847 65.7134 20.2713 65.7134 20.43C65.7134 20.5887 65.7134 20.696 65.7134 20.752C65.7134 21.3027 65.718 21.7833 65.7274 22.194C65.746 22.6047 65.7927 22.95 65.8674 23.23C66.082 23.23 66.2827 23.2207 66.4694 23.202C66.656 23.1833 66.8334 23.16 67.0014 23.132C67.1787 23.0947 67.356 23.0527 67.5334 23.006L67.7434 23.342C67.5754 23.482 67.3887 23.6173 67.1834 23.748C66.9874 23.8787 66.7914 23.986 66.5954 24.07C66.4927 24.0793 66.3807 24.0887 66.2594 24.098C66.138 24.1167 66.0167 24.1307 65.8954 24.14C65.774 24.1493 65.648 24.154 65.5174 24.154C65.396 24.1633 65.2794 24.168 65.1674 24.168ZM71.1298 24.168C70.5792 24.168 70.0985 24.028 69.6878 23.748C69.2865 23.468 68.9738 23.0947 68.7498 22.628C68.5258 22.152 68.4138 21.6247 68.4138 21.046C68.4138 20.5793 68.4792 20.136 68.6098 19.716C68.7405 19.2867 68.8992 18.9227 69.0858 18.624C69.3098 18.4467 69.5572 18.2833 69.8278 18.134C70.1078 17.9847 70.4018 17.854 70.7098 17.742C71.0272 17.63 71.3445 17.5507 71.6618 17.504C71.9605 17.504 72.2638 17.5927 72.5718 17.77C72.8798 17.9473 73.1458 18.2273 73.3698 18.61C73.6032 18.9833 73.7478 19.4733 73.8038 20.08L73.4118 20.864C73.0012 20.9293 72.4785 20.99 71.8438 21.046C71.2185 21.102 70.5465 21.1393 69.8278 21.158C69.8745 21.606 70.0052 21.998 70.2198 22.334C70.4345 22.67 70.7192 22.95 71.0738 23.174C71.3352 23.174 71.6245 23.1413 71.9418 23.076C72.2685 23.0013 72.5812 22.9173 72.8798 22.824C73.1878 22.7307 73.4492 22.642 73.6638 22.558L73.8738 22.936C73.6872 23.1133 73.4725 23.2907 73.2298 23.468C72.9872 23.6453 72.7305 23.818 72.4598 23.986C72.3478 24.014 72.1705 24.0513 71.9278 24.098C71.6945 24.1447 71.4285 24.168 71.1298 24.168ZM69.8138 20.612C70.3178 20.5747 70.7845 20.528 71.2138 20.472C71.6525 20.416 72.0398 20.3507 72.3758 20.276C72.3758 20.0333 72.3478 19.7907 72.2918 19.548C72.2452 19.3053 72.1705 19.0767 72.0678 18.862C71.9745 18.6473 71.8578 18.4793 71.7178 18.358C71.5218 18.358 71.2932 18.372 71.0318 18.4C70.7705 18.4187 70.5792 18.456 70.4578 18.512C70.2898 18.7173 70.1405 19.002 70.0098 19.366C69.8885 19.73 69.8232 20.1453 69.8138 20.612ZM85.0464 24.266C84.841 23.902 84.547 23.4353 84.1644 22.866C83.7817 22.2967 83.3477 21.6667 82.8624 20.976C82.3864 20.276 81.8964 19.5573 81.3924 18.82C80.8977 18.0733 80.4217 17.3407 79.9644 16.622C79.9644 17.0887 79.969 17.6067 79.9784 18.176C79.997 18.7453 80.011 19.3193 80.0204 19.898C80.0204 20.1967 80.0204 20.4953 80.0204 20.794C80.0297 21.0833 80.039 21.3633 80.0484 21.634C80.067 21.9047 80.0764 22.1567 80.0764 22.39C80.0857 22.6233 80.0904 22.8333 80.0904 23.02L81.3784 23.468C81.3784 23.5613 81.369 23.65 81.3504 23.734C81.341 23.818 81.327 23.9067 81.3084 24C80.739 24.0093 80.165 24.0187 79.5864 24.028C79.0077 24.0467 78.4337 24.0747 77.8644 24.112C77.8364 24 77.813 23.8927 77.7944 23.79C77.785 23.678 77.7804 23.566 77.7804 23.454L78.9564 23.188C78.975 22.9827 78.989 22.726 78.9984 22.418C79.017 22.11 79.031 21.746 79.0404 21.326C79.0497 20.8967 79.0544 20.4113 79.0544 19.87C79.0544 19.5527 79.0497 19.1933 79.0404 18.792C79.031 18.3813 79.017 17.9707 78.9984 17.56C78.9797 17.1493 78.9657 16.79 78.9564 16.482C78.947 16.1647 78.933 15.9407 78.9144 15.81L77.7944 15.53C77.7944 15.4367 77.799 15.348 77.8084 15.264C77.8177 15.18 77.8364 15.0913 77.8644 14.998C78.3217 14.998 78.779 14.9887 79.2364 14.97C79.6937 14.942 80.151 14.914 80.6084 14.886C80.879 15.306 81.1404 15.7167 81.3924 16.118C81.6444 16.5193 81.887 16.9067 82.1204 17.28C82.363 17.6533 82.6057 18.022 82.8484 18.386C83.091 18.75 83.3337 19.1093 83.5764 19.464C83.819 19.8093 84.0664 20.164 84.3184 20.528C84.5704 20.8827 84.8317 21.2467 85.1024 21.62C85.1024 21.2467 85.107 20.864 85.1164 20.472C85.1257 20.08 85.1304 19.6973 85.1304 19.324C85.1304 18.9507 85.1257 18.582 85.1164 18.218C85.1164 17.8447 85.107 17.4713 85.0884 17.098C85.079 16.7247 85.065 16.3513 85.0464 15.978L83.7864 15.53C83.7864 15.4367 83.791 15.348 83.8004 15.264C83.8097 15.18 83.8284 15.0913 83.8564 14.998C84.407 14.9887 84.9577 14.9793 85.5084 14.97C86.0684 14.9513 86.6237 14.9233 87.1744 14.886C87.2024 14.998 87.221 15.11 87.2304 15.222C87.2397 15.3247 87.249 15.432 87.2584 15.544L86.2924 15.838C86.2177 16.4913 86.157 17.196 86.1104 17.952C86.0637 18.708 86.0404 19.464 86.0404 20.22C86.0404 20.444 86.0404 20.6867 86.0404 20.948C86.0404 21.2 86.0404 21.452 86.0404 21.704C86.0497 21.956 86.059 22.2033 86.0684 22.446C86.0777 22.6887 86.087 22.908 86.0964 23.104L86.2364 23.79C86.1897 23.8273 86.1244 23.8693 86.0404 23.916C85.9657 23.9627 85.877 24.0047 85.7744 24.042C85.6717 24.0793 85.5737 24.1167 85.4804 24.154C85.387 24.1913 85.2984 24.2193 85.2144 24.238C85.1397 24.2567 85.0837 24.266 85.0464 24.266ZM90.7216 24.168C90.171 24.168 89.6903 24.028 89.2796 23.748C88.8783 23.468 88.5656 23.0947 88.3416 22.628C88.1176 22.152 88.0056 21.6247 88.0056 21.046C88.0056 20.5793 88.071 20.136 88.2016 19.716C88.3323 19.2867 88.491 18.9227 88.6776 18.624C88.9016 18.4467 89.149 18.2833 89.4196 18.134C89.6996 17.9847 89.9936 17.854 90.3016 17.742C90.619 17.63 90.9363 17.5507 91.2536 17.504C91.5523 17.504 91.8556 17.5927 92.1636 17.77C92.4716 17.9473 92.7376 18.2273 92.9616 18.61C93.195 18.9833 93.3396 19.4733 93.3956 20.08L93.0036 20.864C92.593 20.9293 92.0703 20.99 91.4356 21.046C90.8103 21.102 90.1383 21.1393 89.4196 21.158C89.4663 21.606 89.597 21.998 89.8116 22.334C90.0263 22.67 90.311 22.95 90.6656 23.174C90.927 23.174 91.2163 23.1413 91.5336 23.076C91.8603 23.0013 92.173 22.9173 92.4716 22.824C92.7796 22.7307 93.041 22.642 93.2556 22.558L93.4656 22.936C93.279 23.1133 93.0643 23.2907 92.8216 23.468C92.579 23.6453 92.3223 23.818 92.0516 23.986C91.9396 24.014 91.7623 24.0513 91.5196 24.098C91.2863 24.1447 91.0203 24.168 90.7216 24.168ZM89.4056 20.612C89.9096 20.5747 90.3763 20.528 90.8056 20.472C91.2443 20.416 91.6316 20.3507 91.9676 20.276C91.9676 20.0333 91.9396 19.7907 91.8836 19.548C91.837 19.3053 91.7623 19.0767 91.6596 18.862C91.5663 18.6473 91.4496 18.4793 91.3096 18.358C91.1136 18.358 90.885 18.372 90.6236 18.4C90.3623 18.4187 90.171 18.456 90.0496 18.512C89.8816 18.7173 89.7323 19.002 89.6016 19.366C89.4803 19.73 89.415 20.1453 89.4056 20.612ZM96.8814 24.168L94.7954 18.554L93.9694 18.246C93.9694 18.1713 93.9787 18.092 93.9974 18.008C94.0254 17.9147 94.0534 17.8353 94.0814 17.77L95.8454 17.588L96.3354 18.106L97.5674 22.684L97.7214 22.628C97.8334 22.3107 97.9407 21.9933 98.0434 21.676C98.1554 21.3493 98.2534 21.032 98.3374 20.724C98.4307 20.4067 98.5147 20.1127 98.5894 19.842C98.6641 19.5713 98.7247 19.3287 98.7714 19.114L98.5894 18.54L97.7634 18.232C97.7634 18.1573 97.7727 18.078 97.7914 17.994C97.8101 17.9007 97.8334 17.8167 97.8614 17.742C98.0387 17.7327 98.2161 17.7187 98.3934 17.7C98.5801 17.6813 98.7667 17.6627 98.9534 17.644C99.1494 17.6253 99.3361 17.6067 99.5134 17.588L100.017 18.106L101.235 22.684L101.389 22.628C101.548 22.208 101.697 21.7833 101.837 21.354C101.977 20.9247 102.099 20.5187 102.201 20.136C102.313 19.744 102.407 19.4033 102.481 19.114C102.556 18.8153 102.607 18.596 102.635 18.456L101.515 18.134C101.515 18.0593 101.52 17.98 101.529 17.896C101.539 17.8027 101.548 17.7233 101.557 17.658C101.679 17.658 101.861 17.658 102.103 17.658C102.346 17.6487 102.607 17.644 102.887 17.644C103.167 17.6347 103.433 17.6253 103.685 17.616C103.937 17.6067 104.138 17.5973 104.287 17.588C104.315 17.6813 104.334 17.77 104.343 17.854C104.353 17.938 104.357 18.022 104.357 18.106L103.657 18.554L101.669 23.916C101.492 23.9627 101.31 24.0093 101.123 24.056C100.946 24.1027 100.759 24.14 100.563 24.168L99.2194 20.626L98.0014 23.916C97.8147 23.9627 97.6281 24.0093 97.4414 24.056C97.2641 24.1027 97.0774 24.14 96.8814 24.168ZM110.909 24.168C110.75 24.168 110.559 24.154 110.335 24.126C110.12 24.1073 109.891 24.0747 109.649 24.028C109.415 23.9907 109.191 23.944 108.977 23.888C108.762 23.832 108.58 23.776 108.431 23.72L108.361 23.594L108.221 21.396L108.277 21.298L108.991 21.158L109.565 22.684C109.695 22.7493 109.826 22.81 109.957 22.866C110.087 22.9127 110.227 22.95 110.377 22.978C110.526 23.006 110.694 23.02 110.881 23.02C111.17 23.0293 111.455 23.0247 111.735 23.006C112.015 22.9873 112.262 22.95 112.477 22.894C112.505 22.838 112.542 22.7307 112.589 22.572C112.645 22.404 112.691 22.222 112.729 22.026C112.766 21.8207 112.785 21.6293 112.785 21.452C112.542 21.2373 112.257 21.046 111.931 20.878C111.613 20.71 111.282 20.5467 110.937 20.388C110.591 20.22 110.255 20.052 109.929 19.884C109.611 19.7067 109.322 19.5153 109.061 19.31C108.799 19.1047 108.589 18.8667 108.431 18.596C108.281 18.3253 108.207 18.0173 108.207 17.672C108.207 17.532 108.216 17.392 108.235 17.252C108.263 17.112 108.305 16.972 108.361 16.832C108.417 16.692 108.487 16.5567 108.571 16.426C108.655 16.2953 108.753 16.174 108.865 16.062C109.023 15.8847 109.201 15.726 109.397 15.586C109.602 15.446 109.812 15.3247 110.027 15.222C110.251 15.1193 110.479 15.0353 110.713 14.97C110.946 14.9047 111.184 14.858 111.427 14.83C111.632 14.83 111.87 14.8533 112.141 14.9C112.411 14.9373 112.677 14.9933 112.939 15.068C113.209 15.1333 113.433 15.208 113.611 15.292L113.667 15.418L113.569 17.742L112.841 17.826L112.771 17.742L112.365 16.328C112.243 16.2533 112.117 16.1927 111.987 16.146C111.856 16.09 111.721 16.048 111.581 16.02C111.441 15.992 111.282 15.978 111.105 15.978C110.965 15.9687 110.825 15.9687 110.685 15.978C110.554 15.9873 110.423 16.0013 110.293 16.02C110.171 16.0387 110.055 16.062 109.943 16.09C109.84 16.1087 109.742 16.132 109.649 16.16C109.621 16.2813 109.597 16.4213 109.579 16.58C109.569 16.7293 109.569 16.8647 109.579 16.986C109.597 17.1633 109.639 17.3407 109.705 17.518C109.779 17.686 109.877 17.8493 109.999 18.008C110.129 18.1573 110.293 18.2927 110.489 18.414C110.89 18.6473 111.305 18.862 111.735 19.058C112.173 19.254 112.579 19.4547 112.953 19.66C113.335 19.856 113.643 20.08 113.877 20.332C114.11 20.584 114.227 20.8827 114.227 21.228C114.189 21.5173 114.073 21.8533 113.877 22.236C113.69 22.6093 113.415 22.9453 113.051 23.244C112.789 23.468 112.481 23.664 112.127 23.832C111.781 24 111.375 24.112 110.909 24.168ZM117.86 24.168C117.31 24.168 116.829 24.028 116.418 23.748C116.017 23.468 115.704 23.0947 115.48 22.628C115.256 22.152 115.144 21.6247 115.144 21.046C115.144 20.5793 115.21 20.136 115.34 19.716C115.471 19.2867 115.63 18.9227 115.816 18.624C116.04 18.4467 116.288 18.2833 116.558 18.134C116.838 17.9847 117.132 17.854 117.44 17.742C117.758 17.63 118.075 17.5507 118.392 17.504C118.691 17.504 118.994 17.5927 119.302 17.77C119.61 17.9473 119.876 18.2273 120.1 18.61C120.334 18.9833 120.478 19.4733 120.534 20.08L120.142 20.864C119.732 20.9293 119.209 20.99 118.574 21.046C117.949 21.102 117.277 21.1393 116.558 21.158C116.605 21.606 116.736 21.998 116.95 22.334C117.165 22.67 117.45 22.95 117.804 23.174C118.066 23.174 118.355 23.1413 118.672 23.076C118.999 23.0013 119.312 22.9173 119.61 22.824C119.918 22.7307 120.18 22.642 120.394 22.558L120.604 22.936C120.418 23.1133 120.203 23.2907 119.96 23.468C119.718 23.6453 119.461 23.818 119.19 23.986C119.078 24.014 118.901 24.0513 118.658 24.098C118.425 24.1447 118.159 24.168 117.86 24.168ZM116.544 20.612C117.048 20.5747 117.515 20.528 117.944 20.472C118.383 20.416 118.77 20.3507 119.106 20.276C119.106 20.0333 119.078 19.7907 119.022 19.548C118.976 19.3053 118.901 19.0767 118.798 18.862C118.705 18.6473 118.588 18.4793 118.448 18.358C118.252 18.358 118.024 18.372 117.762 18.4C117.501 18.4187 117.31 18.456 117.188 18.512C117.02 18.7173 116.871 19.002 116.74 19.366C116.619 19.73 116.554 20.1453 116.544 20.612ZM121.668 24.07C121.64 23.9767 121.621 23.888 121.612 23.804C121.603 23.72 121.598 23.6313 121.598 23.538L122.55 23.118C122.569 22.8473 122.587 22.5393 122.606 22.194C122.634 21.8393 122.648 21.5127 122.648 21.214C122.648 20.962 122.639 20.682 122.62 20.374C122.601 20.066 122.583 19.758 122.564 19.45C122.545 19.142 122.522 18.8667 122.494 18.624L121.514 18.47C121.477 18.3953 121.453 18.3253 121.444 18.26C121.435 18.1853 121.425 18.1107 121.416 18.036C121.743 17.9147 122.083 17.8073 122.438 17.714C122.802 17.6207 123.157 17.546 123.502 17.49L123.796 17.896L123.67 19.59L123.824 19.646C123.955 19.2913 124.095 18.9507 124.244 18.624C124.403 18.2973 124.575 17.9753 124.762 17.658C124.921 17.6207 125.089 17.5927 125.266 17.574C125.453 17.546 125.635 17.5273 125.812 17.518C125.989 17.5087 126.162 17.5133 126.33 17.532L126.47 17.812L126.246 18.904L126.106 19.114C125.966 19.0953 125.817 19.0767 125.658 19.058C125.509 19.0393 125.355 19.0253 125.196 19.016C125.037 19.0067 124.888 19.0113 124.748 19.03C124.636 19.1607 124.529 19.3147 124.426 19.492C124.323 19.66 124.225 19.842 124.132 20.038C124.048 20.2247 123.969 20.4067 123.894 20.584L123.978 23.23L125.196 23.51C125.205 23.594 125.205 23.678 125.196 23.762C125.187 23.846 125.173 23.9253 125.154 24C124.995 24 124.757 24 124.44 24C124.132 24.0093 123.796 24.014 123.432 24.014C123.068 24.0233 122.727 24.0327 122.41 24.042C122.093 24.0513 121.845 24.0607 121.668 24.07ZM129.584 24.154L127.512 18.568L126.686 18.26C126.696 18.176 126.705 18.092 126.714 18.008C126.733 17.924 126.761 17.8447 126.798 17.77L128.52 17.602L129.038 18.106L130.298 22.67L130.452 22.614C130.602 22.194 130.742 21.7693 130.872 21.34C131.012 20.9107 131.134 20.5047 131.236 20.122C131.348 19.7393 131.442 19.4033 131.516 19.114C131.591 18.8247 131.647 18.6053 131.684 18.456L130.564 18.148C130.555 18.064 130.555 17.98 130.564 17.896C130.574 17.812 130.588 17.7327 130.606 17.658C130.728 17.658 130.905 17.658 131.138 17.658C131.381 17.6487 131.638 17.644 131.908 17.644C132.188 17.6347 132.454 17.63 132.706 17.63C132.958 17.6207 133.159 17.6113 133.308 17.602C133.336 17.686 133.355 17.77 133.364 17.854C133.374 17.938 133.383 18.022 133.392 18.106L132.692 18.554L130.732 23.916C130.546 23.9627 130.359 24.0047 130.172 24.042C129.986 24.0887 129.79 24.126 129.584 24.154ZM133.941 24.056C133.913 23.972 133.894 23.888 133.885 23.804C133.876 23.72 133.871 23.6313 133.871 23.538L134.823 23.132C134.842 22.9453 134.856 22.7447 134.865 22.53C134.884 22.3153 134.898 22.1007 134.907 21.886C134.926 21.662 134.935 21.4613 134.935 21.284C134.935 20.9947 134.926 20.7053 134.907 20.416C134.898 20.1173 134.879 19.814 134.851 19.506C134.823 19.198 134.786 18.8853 134.739 18.568L133.885 18.372C133.885 18.2787 133.89 18.19 133.899 18.106C133.918 18.022 133.941 17.9333 133.969 17.84L136.013 17.504L136.335 17.742L136.223 18.218C136.195 18.5167 136.172 18.82 136.153 19.128C136.144 19.4267 136.139 19.7347 136.139 20.052C136.139 20.4067 136.144 20.7613 136.153 21.116C136.172 21.4707 136.19 21.83 136.209 22.194C136.237 22.5487 136.265 22.8987 136.293 23.244L137.273 23.51C137.273 23.5847 137.268 23.6687 137.259 23.762C137.259 23.846 137.245 23.9253 137.217 24C137.068 24 136.844 24 136.545 24C136.256 24.0093 135.938 24.014 135.593 24.014C135.257 24.0233 134.94 24.028 134.641 24.028C134.342 24.0373 134.109 24.0467 133.941 24.056ZM134.795 16.16C134.776 16.0387 134.753 15.908 134.725 15.768C134.706 15.6187 134.692 15.4787 134.683 15.348C134.674 15.208 134.669 15.0773 134.669 14.956C134.725 14.9187 134.786 14.886 134.851 14.858C134.916 14.8207 134.982 14.788 135.047 14.76C135.122 14.732 135.182 14.7133 135.229 14.704C135.313 14.6853 135.402 14.6713 135.495 14.662C135.598 14.6527 135.705 14.648 135.817 14.648C135.929 14.648 136.036 14.6527 136.139 14.662C136.167 14.8113 136.181 14.9747 136.181 15.152C136.19 15.3293 136.19 15.488 136.181 15.628C136.181 15.768 136.176 15.8707 136.167 15.936C136.167 15.9453 136.148 15.9827 136.111 16.048C136.074 16.104 136.032 16.16 135.985 16.216C135.948 16.2627 135.92 16.286 135.901 16.286C135.78 16.286 135.602 16.2767 135.369 16.258C135.136 16.23 134.944 16.1973 134.795 16.16ZM140.527 24.168C139.995 24.168 139.528 24.028 139.127 23.748C138.726 23.468 138.413 23.0947 138.189 22.628C137.974 22.152 137.867 21.6247 137.867 21.046C137.867 20.6353 137.923 20.2153 138.035 19.786C138.156 19.3473 138.324 18.96 138.539 18.624C138.754 18.4467 138.987 18.2833 139.239 18.134C139.5 17.9847 139.776 17.854 140.065 17.742C140.354 17.63 140.648 17.5507 140.947 17.504C141.339 17.504 141.722 17.5413 142.095 17.616C142.468 17.6813 142.753 17.7373 142.949 17.784L143.005 17.91L142.865 19.758L142.151 19.842L142.081 19.772L141.801 18.526C141.708 18.4793 141.614 18.442 141.521 18.414C141.437 18.386 141.344 18.3673 141.241 18.358C141.148 18.3487 141.036 18.344 140.905 18.344C140.709 18.344 140.522 18.358 140.345 18.386C140.168 18.4047 140.023 18.4373 139.911 18.484C139.743 18.708 139.594 19.0113 139.463 19.394C139.332 19.7767 139.267 20.234 139.267 20.766C139.267 21.3167 139.374 21.7927 139.589 22.194C139.813 22.5953 140.112 22.922 140.485 23.174C140.69 23.174 140.938 23.146 141.227 23.09C141.526 23.0247 141.824 22.9453 142.123 22.852C142.431 22.7587 142.697 22.6653 142.921 22.572L143.131 22.964C142.954 23.132 142.744 23.3047 142.501 23.482C142.258 23.6593 142.002 23.8273 141.731 23.986C141.666 24.0047 141.521 24.0373 141.297 24.084C141.073 24.14 140.816 24.168 140.527 24.168ZM146.667 24.168C146.116 24.168 145.636 24.028 145.225 23.748C144.824 23.468 144.511 23.0947 144.287 22.628C144.063 22.152 143.951 21.6247 143.951 21.046C143.951 20.5793 144.016 20.136 144.147 19.716C144.278 19.2867 144.436 18.9227 144.623 18.624C144.847 18.4467 145.094 18.2833 145.365 18.134C145.645 17.9847 145.939 17.854 146.247 17.742C146.564 17.63 146.882 17.5507 147.199 17.504C147.498 17.504 147.801 17.5927 148.109 17.77C148.417 17.9473 148.683 18.2273 148.907 18.61C149.14 18.9833 149.285 19.4733 149.341 20.08L148.949 20.864C148.538 20.9293 148.016 20.99 147.381 21.046C146.756 21.102 146.084 21.1393 145.365 21.158C145.412 21.606 145.542 21.998 145.757 22.334C145.972 22.67 146.256 22.95 146.611 23.174C146.872 23.174 147.162 23.1413 147.479 23.076C147.806 23.0013 148.118 22.9173 148.417 22.824C148.725 22.7307 148.986 22.642 149.201 22.558L149.411 22.936C149.224 23.1133 149.01 23.2907 148.767 23.468C148.524 23.6453 148.268 23.818 147.997 23.986C147.885 24.014 147.708 24.0513 147.465 24.098C147.232 24.1447 146.966 24.168 146.667 24.168ZM145.351 20.612C145.855 20.5747 146.322 20.528 146.751 20.472C147.19 20.416 147.577 20.3507 147.913 20.276C147.913 20.0333 147.885 19.7907 147.829 19.548C147.782 19.3053 147.708 19.0767 147.605 18.862C147.512 18.6473 147.395 18.4793 147.255 18.358C147.059 18.358 146.83 18.372 146.569 18.4C146.308 18.4187 146.116 18.456 145.995 18.512C145.827 18.7173 145.678 19.002 145.547 19.366C145.426 19.73 145.36 20.1453 145.351 20.612Z" fill="white"/>
</svg>
