<svg width="185" height="62" viewBox="0 0 185 62" fill="none" xmlns="http://www.w3.org/2000/svg">
<path d="M87.772 45.288C84.58 45.288 82.024 44.688 80.104 43.488C78.184 42.264 77.224 40.404 77.224 37.908C77.224 36.588 77.452 35.58 77.908 34.884C78.364 34.188 79.036 33.84 79.924 33.84C80.572 33.84 81.1 34.008 81.508 34.344C81.916 34.68 82.12 35.112 82.12 35.64C82.12 36.12 82.084 36.54 82.012 36.9C82.012 36.996 81.988 37.164 81.94 37.404C81.916 37.644 81.904 37.896 81.904 38.16C81.904 39.24 82.444 40.044 83.524 40.572C84.628 41.1 86.164 41.364 88.132 41.364C90.172 41.364 91.768 41.004 92.92 40.284C94.072 39.54 94.648 38.508 94.648 37.188C94.648 36.372 94.384 35.676 93.856 35.1C93.328 34.5 92.668 34.008 91.876 33.624C91.084 33.216 89.968 32.724 88.528 32.148C86.68 31.428 85.168 30.744 83.992 30.096C82.84 29.448 81.844 28.572 81.004 27.468C80.188 26.34 79.78 24.948 79.78 23.292C79.78 21.564 80.236 20.028 81.148 18.684C82.084 17.34 83.416 16.296 85.144 15.552C86.896 14.808 88.948 14.436 91.3 14.436C93.052 14.436 94.66 14.7 96.124 15.228C97.588 15.732 98.752 16.512 99.616 17.568C100.504 18.624 100.948 19.92 100.948 21.456C100.948 22.968 100.72 24.108 100.264 24.876C99.808 25.644 99.136 26.028 98.248 26.028C97.624 26.028 97.096 25.836 96.664 25.452C96.256 25.068 96.052 24.612 96.052 24.084C96.052 23.628 96.088 23.208 96.16 22.824C96.232 22.104 96.268 21.648 96.268 21.456C96.268 20.448 95.776 19.68 94.792 19.152C93.808 18.624 92.584 18.36 91.12 18.36C89.056 18.36 87.472 18.744 86.368 19.512C85.288 20.256 84.748 21.312 84.748 22.68C84.748 23.592 85.024 24.372 85.576 25.02C86.152 25.668 86.86 26.208 87.7 26.64C88.54 27.072 89.716 27.588 91.228 28.188C93.052 28.932 94.516 29.604 95.62 30.204C96.724 30.804 97.66 31.62 98.428 32.652C99.22 33.684 99.616 34.956 99.616 36.468C99.616 39.3 98.536 41.484 96.376 43.02C94.24 44.532 91.372 45.288 87.772 45.288ZM129.369 34.056C129.441 34.032 129.561 34.02 129.729 34.02C130.089 34.02 130.365 34.14 130.557 34.38C130.749 34.62 130.845 34.944 130.845 35.352C130.845 36.096 130.701 36.684 130.413 37.116C130.125 37.524 129.693 37.824 129.117 38.016C128.013 38.376 126.837 38.556 125.589 38.556C124.533 38.556 123.537 38.412 122.601 38.124C121.905 39.252 121.137 40.416 120.297 41.616C119.337 42.984 118.509 43.92 117.813 44.424C117.141 44.928 116.373 45.18 115.509 45.18C114.549 45.18 113.817 44.808 113.313 44.064C112.833 43.32 112.533 42.096 112.413 40.392L112.233 37.764C111.489 39.78 110.817 41.316 110.217 42.372C109.641 43.428 109.053 44.16 108.453 44.568C107.877 44.976 107.193 45.18 106.401 45.18C105.417 45.18 104.637 44.796 104.061 44.028C103.509 43.26 103.161 42.048 103.017 40.392C102.729 37.032 102.585 34.092 102.585 31.572V30.312C102.609 29.52 102.825 28.968 103.233 28.656C103.641 28.344 104.253 28.188 105.069 28.188C105.693 28.188 106.149 28.332 106.437 28.62C106.749 28.884 106.905 29.34 106.905 29.988C106.905 32.748 107.073 36.336 107.409 40.752C109.041 37.32 110.541 33.744 111.909 30.024C112.173 29.304 112.485 28.824 112.845 28.584C113.229 28.32 113.685 28.188 114.213 28.188C114.861 28.188 115.305 28.32 115.545 28.584C115.809 28.848 115.941 29.316 115.941 29.988C115.941 32.748 116.109 36.336 116.445 40.752C117.885 38.616 118.965 36.912 119.685 35.64C119.325 34.944 119.145 34.116 119.145 33.156C119.145 32.34 119.325 31.548 119.685 30.78C120.045 30.012 120.537 29.388 121.161 28.908C121.785 28.428 122.493 28.188 123.285 28.188C123.981 28.188 124.545 28.44 124.977 28.944C125.409 29.424 125.625 30.132 125.625 31.068C125.625 32.148 125.337 33.384 124.761 34.776C125.673 34.728 126.885 34.548 128.397 34.236L129.369 34.056ZM132.148 45.18C130.66 45.18 129.472 44.64 128.584 43.56C127.696 42.48 127.252 41.064 127.252 39.312C127.252 37.392 127.696 35.58 128.584 33.876C129.472 32.148 130.648 30.768 132.112 29.736C133.6 28.68 135.172 28.152 136.828 28.152C137.356 28.152 137.704 28.26 137.872 28.476C138.064 28.668 138.22 29.028 138.34 29.556C138.844 29.46 139.372 29.412 139.924 29.412C141.1 29.412 141.688 29.832 141.688 30.672C141.688 31.176 141.508 32.376 141.148 34.272C140.596 37.032 140.32 38.952 140.32 40.032C140.32 40.392 140.404 40.68 140.572 40.896C140.764 41.112 141.004 41.22 141.292 41.22C141.748 41.22 142.3 40.932 142.948 40.356C143.596 39.756 144.472 38.796 145.576 37.476C145.864 37.14 146.188 36.972 146.548 36.972C146.86 36.972 147.1 37.116 147.268 37.404C147.46 37.692 147.556 38.088 147.556 38.592C147.556 39.552 147.328 40.296 146.872 40.824C145.888 42.048 144.844 43.08 143.74 43.92C142.636 44.76 141.568 45.18 140.536 45.18C139.744 45.18 139.012 44.916 138.34 44.388C137.692 43.836 137.2 43.092 136.864 42.156C135.616 44.172 134.044 45.18 132.148 45.18ZM133.444 41.544C133.972 41.544 134.476 41.232 134.956 40.608C135.436 39.984 135.784 39.156 136 38.124L137.332 31.5C136.324 31.524 135.388 31.908 134.524 32.652C133.684 33.372 133.012 34.332 132.508 35.532C132.004 36.732 131.752 38.004 131.752 39.348C131.752 40.092 131.896 40.644 132.184 41.004C132.496 41.364 132.916 41.544 133.444 41.544ZM163.854 36.972C164.166 36.972 164.406 37.116 164.574 37.404C164.766 37.692 164.862 38.088 164.862 38.592C164.862 39.552 164.634 40.296 164.178 40.824C163.146 42.096 162.03 43.14 160.83 43.956C159.654 44.772 158.31 45.18 156.798 45.18C155.526 45.18 154.494 44.724 153.702 43.812C152.334 44.7 150.906 45.156 149.418 45.18C149.106 49.812 148.398 53.676 147.294 56.772C146.19 59.892 144.57 61.452 142.434 61.452C141.138 61.452 140.178 60.984 139.554 60.048C138.93 59.112 138.618 57.816 138.618 56.16C138.618 53.808 139.158 51.06 140.238 47.916C141.318 44.796 142.986 41.352 145.242 37.584C145.242 34.08 145.218 31.644 145.17 30.276C145.146 29.58 145.422 29.028 145.998 28.62C146.574 28.212 147.294 28.008 148.158 28.008C148.662 28.008 149.022 28.116 149.238 28.332C149.478 28.524 149.61 28.92 149.634 29.52C149.634 30.12 149.646 30.564 149.67 30.852C150.438 29.892 151.194 29.208 151.938 28.8C152.682 28.368 153.474 28.152 154.314 28.152C155.658 28.152 156.75 28.692 157.59 29.772C158.454 30.852 158.886 32.268 158.886 34.02C158.886 35.292 158.682 36.528 158.274 37.728C157.866 38.928 157.302 40.02 156.582 41.004C157.086 41.148 157.506 41.22 157.842 41.22C158.634 41.22 159.39 40.932 160.11 40.356C160.83 39.78 161.754 38.82 162.882 37.476C163.17 37.14 163.494 36.972 163.854 36.972ZM149.598 41.724C150.462 41.532 151.254 41.064 151.974 40.32C152.718 39.552 153.306 38.616 153.738 37.512C154.17 36.384 154.386 35.208 154.386 33.984C154.386 33.264 154.242 32.724 153.954 32.364C153.666 31.98 153.282 31.788 152.802 31.788C151.938 31.788 150.894 32.7 149.67 34.524C149.646 35.58 149.634 37.128 149.634 39.168C149.634 40.272 149.622 41.124 149.598 41.724ZM142.722 57.924C143.37 57.924 143.91 56.508 144.342 53.676C144.774 50.868 145.05 47.364 145.17 43.164C144.138 45.564 143.322 47.856 142.722 50.04C142.122 52.224 141.822 54.06 141.822 55.548C141.822 56.316 141.918 56.904 142.11 57.312C142.278 57.72 142.482 57.924 142.722 57.924ZM166.678 25.848C165.67 25.848 164.914 25.62 164.41 25.164C163.906 24.684 163.654 24.024 163.654 23.184C163.654 22.344 163.978 21.648 164.626 21.096C165.298 20.52 166.126 20.232 167.11 20.232C167.998 20.232 168.718 20.448 169.27 20.88C169.822 21.312 170.098 21.924 170.098 22.716C170.098 23.676 169.786 24.444 169.162 25.02C168.538 25.572 167.71 25.848 166.678 25.848ZM166.39 45.18C164.83 45.18 163.69 44.628 162.97 43.524C162.274 42.42 161.926 40.956 161.926 39.132C161.926 38.052 162.058 36.672 162.322 34.992C162.61 33.288 162.97 31.704 163.402 30.24C163.618 29.472 163.906 28.944 164.266 28.656C164.626 28.368 165.202 28.224 165.994 28.224C167.218 28.224 167.83 28.632 167.83 29.448C167.83 30.048 167.602 31.44 167.146 33.624C166.57 36.264 166.282 38.052 166.282 38.988C166.282 39.708 166.378 40.26 166.57 40.644C166.762 41.028 167.086 41.22 167.542 41.22C167.974 41.22 168.514 40.92 169.162 40.32C169.81 39.72 170.674 38.772 171.754 37.476C172.042 37.14 172.366 36.972 172.726 36.972C173.038 36.972 173.278 37.116 173.446 37.404C173.638 37.692 173.734 38.088 173.734 38.592C173.734 39.552 173.506 40.296 173.05 40.824C170.674 43.728 168.454 45.18 166.39 45.18ZM183.71 38.052C184.022 38.052 184.262 38.196 184.43 38.484C184.622 38.772 184.718 39.168 184.718 39.672C184.718 40.536 184.514 41.28 184.106 41.904C183.434 42.936 182.546 43.74 181.442 44.316C180.362 44.892 179.066 45.18 177.554 45.18C175.25 45.18 173.462 44.496 172.19 43.128C170.918 41.736 170.282 39.864 170.282 37.512C170.282 35.856 170.63 34.32 171.326 32.904C172.022 31.464 172.982 30.324 174.206 29.484C175.454 28.644 176.858 28.224 178.418 28.224C179.81 28.224 180.926 28.644 181.766 29.484C182.606 30.3 183.026 31.416 183.026 32.832C183.026 34.488 182.426 35.916 181.226 37.116C180.05 38.292 178.034 39.228 175.178 39.924C175.754 41.028 176.726 41.58 178.094 41.58C179.078 41.58 179.882 41.352 180.506 40.896C181.154 40.44 181.898 39.672 182.738 38.592C183.026 38.232 183.35 38.052 183.71 38.052ZM177.806 31.752C176.918 31.752 176.162 32.268 175.538 33.3C174.938 34.332 174.638 35.58 174.638 37.044V37.116C176.054 36.78 177.17 36.276 177.986 35.604C178.802 34.932 179.21 34.152 179.21 33.264C179.21 32.808 179.078 32.448 178.814 32.184C178.574 31.896 178.238 31.752 177.806 31.752Z" fill="#D5D0C1"/>
<path d="M0 8C0 3.58172 3.58172 0 8 0H52C56.4183 0 60 3.58172 60 8V52C60 56.4183 56.4183 60 52 60H8C3.58172 60 0 56.4183 0 52V8Z" fill="url(#paint0_linear_205_399)"/>
<path d="M24 14.4C24 12 25.2 10.8 27.6 10.8H34.8C37.2 10.8 38.4 12 38.4 14.4C38.4 16 37.6 17.2 36 18L27.6 21.6C25.2 22.72 24 24.32 24 26.4V28.8" stroke="#D5D0C1" stroke-width="2.88" stroke-linecap="round" stroke-linejoin="round"/>
<path d="M37.44 27.6H22.56C22.0298 27.6 21.6 28.0298 21.6 28.56V30.24C21.6 30.7702 22.0298 31.2 22.56 31.2H37.44C37.9702 31.2 38.4 30.7702 38.4 30.24V28.56C38.4 28.0298 37.9702 27.6 37.44 27.6Z" fill="#D5D0C1"/>
<path d="M36 45.6C36 48 34.8 49.2 32.4 49.2H25.2C22.8 49.2 21.6 48 21.6 45.6C21.6 44 22.4 42.8 24 42L32.4 38.4C34.8 37.28 36 35.68 36 33.6V31.2" stroke="#D5D0C1" stroke-width="2.88" stroke-linecap="round" stroke-linejoin="round"/>
<path d="M22.56 32.4H37.44C37.9702 32.4 38.4 31.9702 38.4 31.44V29.76C38.4 29.2298 37.9702 28.8 37.44 28.8H22.56C22.0298 28.8 21.6 29.2298 21.6 29.76V31.44C21.6 31.9702 22.0298 32.4 22.56 32.4Z" fill="#D5D0C1"/>
<defs>
<linearGradient id="paint0_linear_205_399" x1="0" y1="0" x2="60" y2="60" gradientUnits="userSpaceOnUse">
<stop stop-color="#CCCCCC" stop-opacity="0.8"/>
<stop offset="0.802885" stop-color="#1C3F3A"/>
</linearGradient>
</defs>
</svg>
