<svg width="50" height="50" viewBox="0 0 50 50" fill="none" xmlns="http://www.w3.org/2000/svg">
<path d="M10.4167 43.75C9.27083 43.75 8.29028 43.3424 7.475 42.5271C6.65972 41.7118 6.25139 40.7306 6.25 39.5833V10.4167C6.25 9.27083 6.65833 8.29028 7.475 7.475C8.29167 6.65972 9.27222 6.25139 10.4167 6.25H22.9167C23.5069 6.25 24.0021 6.45 24.4021 6.85C24.8021 7.25 25.0014 7.74444 25 8.33333C24.9986 8.92222 24.7986 9.41736 24.4 9.81875C24.0014 10.2201 23.5069 10.4194 22.9167 10.4167H10.4167V39.5833H22.9167C23.5069 39.5833 24.0021 39.7833 24.4021 40.1833C24.8021 40.5833 25.0014 41.0778 25 41.6667C24.9986 42.2556 24.7986 42.7507 24.4 43.1521C24.0014 43.5535 23.5069 43.7528 22.9167 43.75H10.4167ZM35.7812 27.0833H20.8333C20.2431 27.0833 19.7486 26.8833 19.35 26.4833C18.9514 26.0833 18.7514 25.5889 18.75 25C18.7486 24.4111 18.9486 23.9167 19.35 23.5167C19.7514 23.1167 20.2458 22.9167 20.8333 22.9167H35.7812L31.875 19.0104C31.4931 18.6285 31.3021 18.1597 31.3021 17.6042C31.3021 17.0486 31.4931 16.5625 31.875 16.1458C32.2569 15.7292 32.7431 15.5118 33.3333 15.4937C33.9236 15.4757 34.4271 15.6757 34.8438 16.0937L42.2917 23.5417C42.7083 23.9583 42.9167 24.4444 42.9167 25C42.9167 25.5556 42.7083 26.0417 42.2917 26.4583L34.8438 33.9062C34.4271 34.3229 33.9326 34.5229 33.3604 34.5062C32.7882 34.4896 32.2931 34.2722 31.875 33.8542C31.4931 33.4375 31.3111 32.9431 31.3292 32.3708C31.3472 31.7986 31.5465 31.3208 31.9271 30.9375L35.7812 27.0833Z" fill="#E1E1E1"/>
</svg>
