<svg width="40" height="40" viewBox="0 0 40 40" fill="none" xmlns="http://www.w3.org/2000/svg">
<path d="M0 20C0 8.95431 8.95431 0 20 0C31.0457 0 40 8.95431 40 20C40 31.0457 31.0457 40 20 40C8.95431 40 0 31.0457 0 20Z" fill="#1C3F3A" fill-opacity="0.1"/>
<g clip-path="url(#clip0_985_532)">
<path d="M17 21.5C19.4853 21.5 21.5 19.4853 21.5 17C21.5 14.5147 19.4853 12.5 17 12.5C14.5147 12.5 12.5 14.5147 12.5 17C12.5 19.4853 14.5147 21.5 17 21.5Z" stroke="#1C3F3A" stroke-width="1.5" stroke-linecap="round" stroke-linejoin="round"/>
<path d="M24.5674 18.7773C25.2764 19.0417 25.9073 19.4805 26.4017 20.0532C26.8961 20.626 27.2382 21.3142 27.3962 22.0541C27.5542 22.7941 27.5231 23.562 27.3057 24.2867C27.0883 25.0115 26.6916 25.6697 26.1525 26.2006C25.6133 26.7314 24.9489 27.1177 24.2209 27.3238C23.4928 27.5298 22.7246 27.549 21.9871 27.3794C21.2497 27.2099 20.567 26.8572 20.002 26.3538C19.437 25.8505 19.0081 25.2129 18.7549 24.4998" stroke="#1C3F3A" stroke-width="1.5" stroke-linecap="round" stroke-linejoin="round"/>
<path d="M16.25 15.5H17V18.5" stroke="#1C3F3A" stroke-width="1.5" stroke-linecap="round" stroke-linejoin="round"/>
<path d="M23.5324 21.4102L24.0574 21.9427L21.9424 24.0577" stroke="#1C3F3A" stroke-width="1.5" stroke-linecap="round" stroke-linejoin="round"/>
</g>
<defs>
<clipPath id="clip0_985_532">
<rect width="18" height="18" fill="white" transform="translate(11 11)"/>
</clipPath>
</defs>
</svg>
