<svg width="52" height="48" viewBox="0 0 52 48" fill="none" xmlns="http://www.w3.org/2000/svg">
<path d="M0 24C0 10.7452 10.7452 0 24 0H28C41.2548 0 52 10.7452 52 24C52 37.2548 41.2548 48 28 48H24C10.7452 48 0 37.2548 0 24Z" fill="#E1E1E1"/>
<path d="M17.512 34.392C17.384 34.2 17.2667 34.008 17.16 33.816C17.0533 33.624 16.952 33.432 16.856 33.24C16.8773 33.1867 16.904 33.1333 16.936 33.08C16.9573 33.0373 16.9893 32.9947 17.032 32.952C17.2453 32.952 17.4587 32.9467 17.672 32.936C17.896 32.936 18.1147 32.936 18.328 32.936C18.5413 32.936 18.7547 32.936 18.968 32.936C19.0427 32.616 19.1067 32.2907 19.16 31.96C19.2133 31.64 19.256 31.32 19.288 31C19.3307 30.68 19.352 30.36 19.352 30.04C19.352 29.5173 19.352 29.0213 19.352 28.552C19.352 28.072 19.352 27.608 19.352 27.16C19.352 26.712 19.3467 26.2693 19.336 25.832C19.336 25.4053 19.3307 24.984 19.32 24.568C19.3093 24.1413 19.2987 23.7093 19.288 23.272C19.2773 22.824 19.2667 22.3653 19.256 21.896L17.864 21.368C17.864 21.2613 17.8693 21.16 17.88 21.064C17.8907 20.968 17.912 20.8667 17.944 20.76C18.6053 20.76 19.2667 20.7493 19.928 20.728C20.6 20.696 21.2667 20.6587 21.928 20.616C21.96 20.744 21.9813 20.872 21.992 21C22.0027 21.1173 22.0133 21.24 22.024 21.368L20.84 21.672C20.8187 22.1627 20.8027 22.744 20.792 23.416C20.7813 24.088 20.7707 24.7973 20.76 25.544C20.7493 26.2907 20.7387 27.0373 20.728 27.784C20.7173 28.52 20.7013 29.208 20.68 29.848C20.6587 30.488 20.6267 31.032 20.584 31.48C20.52 31.864 20.3973 32.2427 20.216 32.616C20.0347 33 19.816 33.384 19.56 33.768C19.2187 33.9067 18.8773 34.024 18.536 34.12C18.1947 34.2267 17.8533 34.3173 17.512 34.392ZM27.4149 31.192C27.2335 31.192 26.9829 31.1867 26.6629 31.176C26.3535 31.176 26.0229 31.1707 25.6709 31.16C25.3189 31.16 24.9935 31.1547 24.6949 31.144C24.4069 31.144 24.1989 31.144 24.0709 31.144C24.0069 30.888 23.9749 30.6373 23.9749 30.392L25.4469 30.056C25.4895 29.512 25.5322 28.8187 25.5749 27.976C25.6175 27.1333 25.6389 26.2693 25.6389 25.384C25.6389 24.7547 25.6229 24.2107 25.5909 23.752C25.5695 23.2827 25.5429 22.8987 25.5109 22.6C25.4789 22.2907 25.4522 22.0613 25.4309 21.912L24.0709 21.368C24.0709 21.1867 24.0815 21.0427 24.1029 20.936C24.1349 20.8187 24.1509 20.76 24.1509 20.76C24.8229 20.76 25.4309 20.7493 25.9749 20.728C26.5189 20.7067 27.0095 20.6853 27.4469 20.664C27.8842 20.6427 28.2682 20.6213 28.5989 20.6C28.9402 20.5787 29.2389 20.568 29.4949 20.568C30.0922 20.568 30.6522 20.7173 31.1749 21.016C31.6975 21.304 32.1562 21.6933 32.5509 22.184C32.9455 22.664 33.2549 23.1973 33.4789 23.784C33.7029 24.36 33.8149 24.936 33.8149 25.512C33.8149 26.12 33.7029 26.7227 33.4789 27.32C33.2549 27.9173 32.9455 28.472 32.5509 28.984C32.1669 29.4853 31.7189 29.9173 31.2069 30.28C30.8655 30.5147 30.4975 30.712 30.1029 30.872C29.7189 31.032 29.3189 31.1387 28.9029 31.192C28.7962 31.192 28.6842 31.192 28.5669 31.192C28.4602 31.192 28.3535 31.192 28.2469 31.192C28.1509 31.192 28.0549 31.192 27.9589 31.192C27.8629 31.192 27.7669 31.192 27.6709 31.192C27.5855 31.192 27.5002 31.192 27.4149 31.192ZM28.8389 30.168C29.1482 30.168 29.4469 30.1467 29.7349 30.104C30.0335 30.0613 30.3269 29.9867 30.6149 29.88C30.8602 29.6347 31.1055 29.3147 31.3509 28.92C31.6069 28.5147 31.8202 28.0613 31.9909 27.56C32.1615 27.048 32.2469 26.52 32.2469 25.976C32.2469 25.4853 32.1829 25.016 32.0549 24.568C31.9269 24.1093 31.7402 23.688 31.4949 23.304C31.2495 22.92 30.9455 22.5787 30.5829 22.28C30.2309 21.9707 29.8255 21.7253 29.3669 21.544C29.1002 21.544 28.8229 21.56 28.5349 21.592C28.2575 21.6133 27.9962 21.6453 27.7509 21.688C27.5162 21.7307 27.3242 21.7787 27.1749 21.832C27.1322 22.0773 27.0735 22.504 26.9989 23.112C26.9349 23.7093 26.9029 24.4453 26.9029 25.32C26.9029 25.7573 26.9029 26.2587 26.9029 26.824C26.9135 27.3787 26.9242 27.9333 26.9349 28.488C26.9562 29.0427 26.9829 29.5227 27.0149 29.928C27.1535 29.96 27.2975 29.992 27.4469 30.024C27.5962 30.056 27.7455 30.0827 27.8949 30.104C28.0549 30.1253 28.2095 30.1413 28.3589 30.152C28.5189 30.1627 28.6789 30.168 28.8389 30.168Z" fill="#1C3F3A"/>
</svg>
