<svg width="185" height="168" viewBox="0 0 185 168" fill="none" xmlns="http://www.w3.org/2000/svg">
<g filter="url(#filter0_dd_833_559)">
<path d="M57 64C57 41.9086 74.9086 24 97 24C119.091 24 137 41.9086 137 64C137 86.0914 119.091 104 97 104C74.9086 104 57 86.0914 57 64Z" fill="url(#paint0_linear_833_559)" shape-rendering="crispEdges"/>
<path d="M91.667 66.667C96.0853 66.667 99.667 63.0853 99.667 58.667C99.667 54.2487 96.0853 50.667 91.667 50.667C87.2487 50.667 83.667 54.2487 83.667 58.667C83.667 63.0853 87.2487 66.667 91.667 66.667Z" stroke="#1C3F3A" stroke-width="2.66667" stroke-linecap="round" stroke-linejoin="round"/>
<path d="M105.12 61.8271C106.381 62.2971 107.502 63.0772 108.381 64.0954C109.26 65.1136 109.869 66.3371 110.149 67.6526C110.43 68.9681 110.375 70.3332 109.989 71.6216C109.602 72.9101 108.897 74.0802 107.938 75.024C106.98 75.9677 105.799 76.6545 104.504 77.0208C103.21 77.3871 101.844 77.4211 100.533 77.1198C99.2224 76.8184 98.0086 76.1913 97.0042 75.2965C95.9998 74.4017 95.2373 73.2681 94.7871 72.0005" stroke="#1C3F3A" stroke-width="2.66667" stroke-linecap="round" stroke-linejoin="round"/>
<path d="M90.333 56H91.6663V61.3333" stroke="#1C3F3A" stroke-width="2.66667" stroke-linecap="round" stroke-linejoin="round"/>
<path d="M103.28 66.5068L104.213 67.4535L100.453 71.2135" stroke="#1C3F3A" stroke-width="2.66667" stroke-linecap="round" stroke-linejoin="round"/>
</g>
<g filter="url(#filter1_f_833_559)">
<path d="M57 64C57 41.9086 74.9086 24 97 24C119.091 24 137 41.9086 137 64C137 86.0914 119.091 104 97 104C74.9086 104 57 86.0914 57 64Z" fill="url(#paint1_linear_833_559)"/>
</g>
<g filter="url(#filter2_f_833_559)">
<path d="M57 64C57 41.9086 74.9086 24 97 24C119.091 24 137 41.9086 137 64C137 86.0914 119.091 104 97 104C74.9086 104 57 86.0914 57 64Z" fill="url(#paint2_linear_833_559)"/>
</g>
<g filter="url(#filter3_dd_833_559)">
<path d="M24 92C24 69.9086 41.9086 52 64 52C86.0914 52 104 69.9086 104 92C104 114.091 86.0914 132 64 132C41.9086 132 24 114.091 24 92Z" fill="url(#paint3_linear_833_559)" shape-rendering="crispEdges"/>
<path d="M58.667 94.667C63.0853 94.667 66.667 91.0853 66.667 86.667C66.667 82.2487 63.0853 78.667 58.667 78.667C54.2487 78.667 50.667 82.2487 50.667 86.667C50.667 91.0853 54.2487 94.667 58.667 94.667Z" stroke="#1C3F3A" stroke-width="2.66667" stroke-linecap="round" stroke-linejoin="round"/>
<path d="M72.1204 89.8271C73.3809 90.2971 74.5024 91.0772 75.3814 92.0954C76.2605 93.1136 76.8685 94.3371 77.1494 95.6526C77.4303 96.9681 77.375 98.3332 76.9885 99.6216C76.602 100.91 75.8969 102.08 74.9383 103.024C73.9798 103.968 72.7987 104.654 71.5044 105.021C70.2101 105.387 68.8443 105.421 67.5334 105.12C66.2224 104.818 65.0086 104.191 64.0042 103.296C62.9998 102.402 62.2373 101.268 61.7871 100" stroke="#1C3F3A" stroke-width="2.66667" stroke-linecap="round" stroke-linejoin="round"/>
<path d="M57.333 84H58.6663V89.3333" stroke="#1C3F3A" stroke-width="2.66667" stroke-linecap="round" stroke-linejoin="round"/>
<path d="M70.2798 94.5068L71.2131 95.4535L67.4531 99.2135" stroke="#1C3F3A" stroke-width="2.66667" stroke-linecap="round" stroke-linejoin="round"/>
</g>
<g filter="url(#filter4_f_833_559)">
<path d="M24 92C24 69.9086 41.9086 52 64 52C86.0914 52 104 69.9086 104 92C104 114.091 86.0914 132 64 132C41.9086 132 24 114.091 24 92Z" fill="url(#paint4_linear_833_559)"/>
</g>
<g filter="url(#filter5_f_833_559)">
<path d="M24 91C24 68.9086 41.9086 51 64 51C86.0914 51 104 68.9086 104 91C104 113.091 86.0914 131 64 131C41.9086 131 24 113.091 24 91Z" fill="url(#paint5_linear_833_559)"/>
</g>
<g filter="url(#filter6_dd_833_559)">
<path d="M81 104C81 81.9086 98.9086 64 121 64C143.091 64 161 81.9086 161 104C161 126.091 143.091 144 121 144C98.9086 144 81 126.091 81 104Z" fill="url(#paint6_linear_833_559)" shape-rendering="crispEdges"/>
<path d="M115.667 106.667C120.085 106.667 123.667 103.085 123.667 98.667C123.667 94.2487 120.085 90.667 115.667 90.667C111.249 90.667 107.667 94.2487 107.667 98.667C107.667 103.085 111.249 106.667 115.667 106.667Z" stroke="#1C3F3A" stroke-width="2.66667" stroke-linecap="round" stroke-linejoin="round"/>
<path d="M129.12 101.827C130.381 102.297 131.502 103.077 132.381 104.095C133.26 105.114 133.869 106.337 134.149 107.653C134.43 108.968 134.375 110.333 133.989 111.622C133.602 112.91 132.897 114.08 131.938 115.024C130.98 115.968 129.799 116.654 128.504 117.021C127.21 117.387 125.844 117.421 124.533 117.12C123.222 116.818 122.009 116.191 121.004 115.296C120 114.402 119.237 113.268 118.787 112" stroke="#1C3F3A" stroke-width="2.66667" stroke-linecap="round" stroke-linejoin="round"/>
<path d="M114.333 96H115.666V101.333" stroke="#1C3F3A" stroke-width="2.66667" stroke-linecap="round" stroke-linejoin="round"/>
<path d="M127.28 106.507L128.213 107.454L124.453 111.214" stroke="#1C3F3A" stroke-width="2.66667" stroke-linecap="round" stroke-linejoin="round"/>
</g>
<g filter="url(#filter7_f_833_559)">
<path d="M81 104C81 81.9086 98.9086 64 121 64C143.091 64 161 81.9086 161 104C161 126.091 143.091 144 121 144C98.9086 144 81 126.091 81 104Z" fill="url(#paint7_linear_833_559)"/>
</g>
<g filter="url(#filter8_f_833_559)">
<path d="M81 104C81 81.9086 98.9086 64 121 64C143.091 64 161 81.9086 161 104C161 126.091 143.091 144 121 144C98.9086 144 81 126.091 81 104Z" fill="url(#paint8_linear_833_559)"/>
</g>
<defs>
<filter id="filter0_dd_833_559" x="45" y="22" width="104" height="104" filterUnits="userSpaceOnUse" color-interpolation-filters="sRGB">
<feFlood flood-opacity="0" result="BackgroundImageFix"/>
<feColorMatrix in="SourceAlpha" type="matrix" values="0 0 0 0 0 0 0 0 0 0 0 0 0 0 0 0 0 0 127 0" result="hardAlpha"/>
<feMorphology radius="4" operator="erode" in="SourceAlpha" result="effect1_dropShadow_833_559"/>
<feOffset dy="4"/>
<feGaussianBlur stdDeviation="3"/>
<feComposite in2="hardAlpha" operator="out"/>
<feColorMatrix type="matrix" values="0 0 0 0 0 0 0 0 0 0 0 0 0 0 0 0 0 0 0.1 0"/>
<feBlend mode="normal" in2="BackgroundImageFix" result="effect1_dropShadow_833_559"/>
<feColorMatrix in="SourceAlpha" type="matrix" values="0 0 0 0 0 0 0 0 0 0 0 0 0 0 0 0 0 0 127 0" result="hardAlpha"/>
<feMorphology radius="3" operator="erode" in="SourceAlpha" result="effect2_dropShadow_833_559"/>
<feOffset dy="10"/>
<feGaussianBlur stdDeviation="7.5"/>
<feComposite in2="hardAlpha" operator="out"/>
<feColorMatrix type="matrix" values="0 0 0 0 0 0 0 0 0 0 0 0 0 0 0 0 0 0 0.1 0"/>
<feBlend mode="normal" in2="effect1_dropShadow_833_559" result="effect2_dropShadow_833_559"/>
<feBlend mode="normal" in="SourceGraphic" in2="effect2_dropShadow_833_559" result="shape"/>
</filter>
<filter id="filter1_f_833_559" x="33" y="0" width="128" height="128" filterUnits="userSpaceOnUse" color-interpolation-filters="sRGB">
<feFlood flood-opacity="0" result="BackgroundImageFix"/>
<feBlend mode="normal" in="SourceGraphic" in2="BackgroundImageFix" result="shape"/>
<feGaussianBlur stdDeviation="12" result="effect1_foregroundBlur_833_559"/>
</filter>
<filter id="filter2_f_833_559" x="33" y="0" width="128" height="128" filterUnits="userSpaceOnUse" color-interpolation-filters="sRGB">
<feFlood flood-opacity="0" result="BackgroundImageFix"/>
<feBlend mode="normal" in="SourceGraphic" in2="BackgroundImageFix" result="shape"/>
<feGaussianBlur stdDeviation="12" result="effect1_foregroundBlur_833_559"/>
</filter>
<filter id="filter3_dd_833_559" x="12" y="50" width="104" height="104" filterUnits="userSpaceOnUse" color-interpolation-filters="sRGB">
<feFlood flood-opacity="0" result="BackgroundImageFix"/>
<feColorMatrix in="SourceAlpha" type="matrix" values="0 0 0 0 0 0 0 0 0 0 0 0 0 0 0 0 0 0 127 0" result="hardAlpha"/>
<feMorphology radius="4" operator="erode" in="SourceAlpha" result="effect1_dropShadow_833_559"/>
<feOffset dy="4"/>
<feGaussianBlur stdDeviation="3"/>
<feComposite in2="hardAlpha" operator="out"/>
<feColorMatrix type="matrix" values="0 0 0 0 0 0 0 0 0 0 0 0 0 0 0 0 0 0 0.1 0"/>
<feBlend mode="normal" in2="BackgroundImageFix" result="effect1_dropShadow_833_559"/>
<feColorMatrix in="SourceAlpha" type="matrix" values="0 0 0 0 0 0 0 0 0 0 0 0 0 0 0 0 0 0 127 0" result="hardAlpha"/>
<feMorphology radius="3" operator="erode" in="SourceAlpha" result="effect2_dropShadow_833_559"/>
<feOffset dy="10"/>
<feGaussianBlur stdDeviation="7.5"/>
<feComposite in2="hardAlpha" operator="out"/>
<feColorMatrix type="matrix" values="0 0 0 0 0 0 0 0 0 0 0 0 0 0 0 0 0 0 0.1 0"/>
<feBlend mode="normal" in2="effect1_dropShadow_833_559" result="effect2_dropShadow_833_559"/>
<feBlend mode="normal" in="SourceGraphic" in2="effect2_dropShadow_833_559" result="shape"/>
</filter>
<filter id="filter4_f_833_559" x="0" y="28" width="128" height="128" filterUnits="userSpaceOnUse" color-interpolation-filters="sRGB">
<feFlood flood-opacity="0" result="BackgroundImageFix"/>
<feBlend mode="normal" in="SourceGraphic" in2="BackgroundImageFix" result="shape"/>
<feGaussianBlur stdDeviation="12" result="effect1_foregroundBlur_833_559"/>
</filter>
<filter id="filter5_f_833_559" x="0" y="27" width="128" height="128" filterUnits="userSpaceOnUse" color-interpolation-filters="sRGB">
<feFlood flood-opacity="0" result="BackgroundImageFix"/>
<feBlend mode="normal" in="SourceGraphic" in2="BackgroundImageFix" result="shape"/>
<feGaussianBlur stdDeviation="12" result="effect1_foregroundBlur_833_559"/>
</filter>
<filter id="filter6_dd_833_559" x="69" y="62" width="104" height="104" filterUnits="userSpaceOnUse" color-interpolation-filters="sRGB">
<feFlood flood-opacity="0" result="BackgroundImageFix"/>
<feColorMatrix in="SourceAlpha" type="matrix" values="0 0 0 0 0 0 0 0 0 0 0 0 0 0 0 0 0 0 127 0" result="hardAlpha"/>
<feMorphology radius="4" operator="erode" in="SourceAlpha" result="effect1_dropShadow_833_559"/>
<feOffset dy="4"/>
<feGaussianBlur stdDeviation="3"/>
<feComposite in2="hardAlpha" operator="out"/>
<feColorMatrix type="matrix" values="0 0 0 0 0 0 0 0 0 0 0 0 0 0 0 0 0 0 0.1 0"/>
<feBlend mode="normal" in2="BackgroundImageFix" result="effect1_dropShadow_833_559"/>
<feColorMatrix in="SourceAlpha" type="matrix" values="0 0 0 0 0 0 0 0 0 0 0 0 0 0 0 0 0 0 127 0" result="hardAlpha"/>
<feMorphology radius="3" operator="erode" in="SourceAlpha" result="effect2_dropShadow_833_559"/>
<feOffset dy="10"/>
<feGaussianBlur stdDeviation="7.5"/>
<feComposite in2="hardAlpha" operator="out"/>
<feColorMatrix type="matrix" values="0 0 0 0 0 0 0 0 0 0 0 0 0 0 0 0 0 0 0.1 0"/>
<feBlend mode="normal" in2="effect1_dropShadow_833_559" result="effect2_dropShadow_833_559"/>
<feBlend mode="normal" in="SourceGraphic" in2="effect2_dropShadow_833_559" result="shape"/>
</filter>
<filter id="filter7_f_833_559" x="57" y="40" width="128" height="128" filterUnits="userSpaceOnUse" color-interpolation-filters="sRGB">
<feFlood flood-opacity="0" result="BackgroundImageFix"/>
<feBlend mode="normal" in="SourceGraphic" in2="BackgroundImageFix" result="shape"/>
<feGaussianBlur stdDeviation="12" result="effect1_foregroundBlur_833_559"/>
</filter>
<filter id="filter8_f_833_559" x="57" y="40" width="128" height="128" filterUnits="userSpaceOnUse" color-interpolation-filters="sRGB">
<feFlood flood-opacity="0" result="BackgroundImageFix"/>
<feBlend mode="normal" in="SourceGraphic" in2="BackgroundImageFix" result="shape"/>
<feGaussianBlur stdDeviation="12" result="effect1_foregroundBlur_833_559"/>
</filter>
<linearGradient id="paint0_linear_833_559" x1="97" y1="24" x2="97" y2="104" gradientUnits="userSpaceOnUse">
<stop stop-color="#FFD700"/>
<stop offset="1" stop-color="#FFA500"/>
</linearGradient>
<linearGradient id="paint1_linear_833_559" x1="57" y1="24" x2="137" y2="104" gradientUnits="userSpaceOnUse">
<stop stop-color="#FFD700" stop-opacity="0.5"/>
<stop offset="1" stop-opacity="0"/>
</linearGradient>
<linearGradient id="paint2_linear_833_559" x1="57" y1="24" x2="137" y2="104" gradientUnits="userSpaceOnUse">
<stop stop-color="#FFD700" stop-opacity="0.5"/>
<stop offset="1" stop-opacity="0"/>
</linearGradient>
<linearGradient id="paint3_linear_833_559" x1="64" y1="52" x2="64" y2="132" gradientUnits="userSpaceOnUse">
<stop stop-color="#FFD700"/>
<stop offset="1" stop-color="#FFA500"/>
</linearGradient>
<linearGradient id="paint4_linear_833_559" x1="24" y1="52" x2="104" y2="132" gradientUnits="userSpaceOnUse">
<stop stop-color="#FFD700" stop-opacity="0.5"/>
<stop offset="1" stop-opacity="0"/>
</linearGradient>
<linearGradient id="paint5_linear_833_559" x1="24" y1="51" x2="104" y2="131" gradientUnits="userSpaceOnUse">
<stop stop-color="#FFD700" stop-opacity="0.5"/>
<stop offset="1" stop-opacity="0"/>
</linearGradient>
<linearGradient id="paint6_linear_833_559" x1="121" y1="64" x2="121" y2="144" gradientUnits="userSpaceOnUse">
<stop stop-color="#FFD700"/>
<stop offset="1" stop-color="#FFA500"/>
</linearGradient>
<linearGradient id="paint7_linear_833_559" x1="81" y1="64" x2="161" y2="144" gradientUnits="userSpaceOnUse">
<stop stop-color="#FFD700" stop-opacity="0.5"/>
<stop offset="1" stop-opacity="0"/>
</linearGradient>
<linearGradient id="paint8_linear_833_559" x1="81" y1="64" x2="161" y2="144" gradientUnits="userSpaceOnUse">
<stop stop-color="#FFD700" stop-opacity="0.5"/>
<stop offset="1" stop-opacity="0"/>
</linearGradient>
</defs>
</svg>
