<svg width="48" height="48" viewBox="0 0 48 48" fill="none" xmlns="http://www.w3.org/2000/svg">
<path d="M0 12C0 5.37258 5.37258 0 12 0H36C42.6274 0 48 5.37258 48 12V36C48 42.6274 42.6274 48 36 48H12C5.37258 48 0 42.6274 0 36V12Z" fill="#E8E5DB"/>
<path d="M31 19V16C31 15.7348 30.8946 15.4804 30.7071 15.2929C30.5196 15.1054 30.2652 15 30 15H17C16.4696 15 15.9609 15.2107 15.5858 15.5858C15.2107 15.9609 15 16.4696 15 17C15 17.5304 15.2107 18.0391 15.5858 18.4142C15.9609 18.7893 16.4696 19 17 19H32C32.2652 19 32.5196 19.1054 32.7071 19.2929C32.8946 19.4804 33 19.7348 33 20V24M33 24H30C29.4696 24 28.9609 24.2107 28.5858 24.5858C28.2107 24.9609 28 25.4696 28 26C28 26.5304 28.2107 27.0391 28.5858 27.4142C28.9609 27.7893 29.4696 28 30 28H33C33.2652 28 33.5196 27.8946 33.7071 27.7071C33.8946 27.5196 34 27.2652 34 27V25C34 24.7348 33.8946 24.4804 33.7071 24.2929C33.5196 24.1054 33.2652 24 33 24Z" stroke="#1C3F3A" stroke-width="2" stroke-linecap="round" stroke-linejoin="round"/>
<path d="M15 17V31C15 31.5304 15.2107 32.0391 15.5858 32.4142C15.9609 32.7893 16.4696 33 17 33H32C32.2652 33 32.5196 32.8946 32.7071 32.7071C32.8946 32.5196 33 32.2652 33 32V28" stroke="#1C3F3A" stroke-width="2" stroke-linecap="round" stroke-linejoin="round"/>
</svg>
