<svg width="16" height="16" viewBox="0 0 16 16" fill="none" xmlns="http://www.w3.org/2000/svg">
<path d="M6 8H10M6 10.6667H10M11.3333 14H4.66667C4.31305 14 3.97391 13.8595 3.72386 13.6095C3.47381 13.3594 3.33334 13.0203 3.33334 12.6667V3.33333C3.33334 2.97971 3.47381 2.64057 3.72386 2.39052C3.97391 2.14048 4.31305 2 4.66667 2H8.39067C8.56747 2.00004 8.73701 2.0703 8.862 2.19533L12.4713 5.80467C12.5964 5.92966 12.6666 6.0992 12.6667 6.276V12.6667C12.6667 13.0203 12.5262 13.3594 12.2761 13.6095C12.0261 13.8595 11.687 14 11.3333 14Z" stroke="white" stroke-opacity="0.7" stroke-width="1.33333" stroke-linecap="round" stroke-linejoin="round"/>
</svg>
