<svg width="16" height="16" viewBox="0 0 16 16" fill="none" xmlns="http://www.w3.org/2000/svg">
<path d="M7.88125 2.97838C8.23423 2.57821 8.70069 2.29501 9.21858 2.16647C9.73646 2.03794 10.2812 2.07015 10.7803 2.25882C11.2795 2.4475 11.7093 2.78369 12.0127 3.22267C12.316 3.66165 12.4785 4.1826 12.4785 4.7162C12.4785 5.24979 12.316 5.77074 12.0127 6.20972C11.7093 6.6487 11.2795 6.98489 10.7803 7.17357C10.2812 7.36224 9.73646 7.39446 9.21858 7.26592C8.70069 7.13738 8.23423 6.85418 7.88125 6.45401M9.85156 13.911H1.97031V13.2542C1.97031 12.2091 2.38549 11.2068 3.1245 10.4678C3.86351 9.72876 4.86582 9.31359 5.91094 9.31359C6.95606 9.31359 7.95837 9.72876 8.69738 10.4678C9.43639 11.2068 9.85156 12.2091 9.85156 13.2542V13.911ZM9.85156 13.911H13.7922V13.2542C13.7923 12.5624 13.6103 11.8828 13.2645 11.2837C12.9186 10.6846 12.4212 10.187 11.8221 9.84112C11.223 9.49519 10.5435 9.31306 9.8517 9.31303C9.15993 9.31301 8.48034 9.49509 7.88125 9.84098M8.53802 4.7162C8.53802 5.41294 8.26124 6.08115 7.76857 6.57382C7.27589 7.0665 6.60768 7.34328 5.91094 7.34328C5.21419 7.34328 4.54598 7.0665 4.05331 6.57382C3.56064 6.08115 3.28386 5.41294 3.28386 4.7162C3.28386 4.01945 3.56064 3.35124 4.05331 2.85857C4.54598 2.36589 5.21419 2.08911 5.91094 2.08911C6.60768 2.08911 7.27589 2.36589 7.76857 2.85857C8.26124 3.35124 8.53802 4.01945 8.53802 4.7162Z" stroke="white" stroke-opacity="0.7" stroke-width="1.31354" stroke-linecap="round" stroke-linejoin="round"/>
</svg>
